<svg xmlns="http://www.w3.org/2000/svg" width="201.541" height="176.348" viewBox="0 0 201.541 176.348">
  <path id="Icon_awesome-connectdevelop" data-name="Icon awesome-connectdevelop" d="M198.174,83.788,179.772,51.9a5.912,5.912,0,0,0,.689-2.657,5.614,5.614,0,0,0-5.412-5.511L154.678,8.505a5.743,5.743,0,0,0,.393-1.771,5.6,5.6,0,0,0-9.939-3.543H105.966a5.366,5.366,0,0,0-8.463,0H58.533a5.6,5.6,0,0,0-9.939,3.543,5.175,5.175,0,0,0,.394,1.771L28.42,44.228a5.5,5.5,0,0,0-3.346,5.019c0,.2.1.393.1.59L5.59,83.69A5.6,5.6,0,0,0,.964,89.2a5.682,5.682,0,0,0,4.429,5.511l20.272,35.034a5.143,5.143,0,0,0-.3,1.771,5.492,5.492,0,0,0,4.429,5.412L48.791,169.9a6.359,6.359,0,0,0-.393,1.968,5.607,5.607,0,0,0,5.609,5.609,5.434,5.434,0,0,0,4.232-1.968H97.5a5.533,5.533,0,0,0,8.463,0h39.363a5.5,5.5,0,0,0,4.035,1.771,5.607,5.607,0,0,0,5.609-5.609,4.076,4.076,0,0,0-.3-1.574l18.993-33.164a5.493,5.493,0,0,0,4.428-5.412,5.569,5.569,0,0,0-.3-1.771l20.174-35.034A5.606,5.606,0,0,0,202.5,89.2a5.506,5.506,0,0,0-4.331-5.412ZM52.333,160.841l-16.04-27.849h16.04Zm0-30.8H36.293a6.047,6.047,0,0,0-.492-1.181l16.532-17.418Zm0-22.929-18.5,19.583a9.2,9.2,0,0,0-1.476-.59L11.888,90.676a3.83,3.83,0,0,0,.2-1.476,5.2,5.2,0,0,0-.1-1.279L31.078,54.856a6.2,6.2,0,0,0,2.854-.984l18.4,19.091v34.147Zm0-37.592L35.506,52.1a5.381,5.381,0,0,0,.787-2.854c0-.1-.1-.3-.1-.394l16.139-5.806V69.519Zm0-29.621L36.293,45.7l16.04-27.751Zm119.96,14.368.3.492L159.6,116.164l-23.421-24.7,36.017-37.3.1.1ZM103.112,125.71l4.232,4.33H98.979Zm-.1-4.133-30.6-31.392,29.227-31,30.507,32.179Zm1.968,2.165L134.111,93.53l24.8,26.176-2.165,10.333H111.181l-6.2-6.3ZM146.707,11.557a4.935,4.935,0,0,0,1.279.492l21.256,37v.2a5.377,5.377,0,0,0,.787,2.854l-35.82,37.2L103.7,57.119Zm-3.346-.787L101.636,54.954,80.675,32.813l61.111-22.043h1.575Zm-45.366,0a5.229,5.229,0,0,0,7.479,0h27.554L78.51,30.451l-18.7-19.681H97.995ZM55.286,12.836l.393-.787q.5-.127.984-.3l18.8,19.78L55.286,38.816Zm0,29.129L77.624,33.9,99.569,57.119,70.342,88.02,55.286,72.57V41.965Zm0,34.049L68.669,89.889,55.286,103.962V76.014Zm0,32.278,15.45-16.336,30.408,31.589-6.3,6.495H55.286V108.292Zm2.559,59.537a5.285,5.285,0,0,0-2.165-1.279l-.393-.59V132.992H91.992L58.336,167.828h-.492Zm47.728,0a5.466,5.466,0,0,0-7.676,0H62.469l33.655-34.836H110.2l33.655,34.836h-38.28Zm44.087-4.33-1.575,2.755a4.946,4.946,0,0,0-1.279.492l-32.77-33.754h42.021l-6.4,30.507Zm4.723-8.168,4.724-22.338h8.069Zm12.793-25.291H159.7l1.673-7.774,6.3,6.692a3.639,3.639,0,0,0-.492,1.082Zm24.307-39.462L171.112,126.1a9.924,9.924,0,0,0-1.476.688l-7.577-8.069L174.753,58.5l16.828,29.129a7.477,7.477,0,0,0-.3,1.574,6.641,6.641,0,0,0,.2,1.378Z" transform="translate(-0.964 -1.125)" fill="#c9540f"/>
</svg>
