<svg xmlns="http://www.w3.org/2000/svg" width="151.157" height="219.869" viewBox="0 0 151.157 219.869">
  <path id="Icon_awesome-lightbulb" data-name="Icon awesome-lightbulb" d="M41.25,195.109a13.747,13.747,0,0,0,2.3,7.6l7.339,11.032a13.737,13.737,0,0,0,11.44,6.132h26.5a13.737,13.737,0,0,0,11.44-6.132l7.339-11.032a13.737,13.737,0,0,0,2.3-7.6l.017-16.468h-68.7ZM0,75.579A75.157,75.157,0,0,0,18.706,125.3c7.094,8.095,18.19,25.005,22.42,39.271.017.112.03.223.047.335h68.811c.017-.112.03-.219.047-.335,4.23-14.265,15.326-31.176,22.42-39.271A75.538,75.538,0,0,0,75.342,0C31.537.133,0,35.63,0,75.579ZM75.579,41.225A34.394,34.394,0,0,0,41.225,75.579a6.871,6.871,0,0,1-13.742,0,48.148,48.148,0,0,1,48.1-48.1,6.871,6.871,0,1,1,0,13.742Z" fill="#c9540f"/>
</svg>
