<svg xmlns="http://www.w3.org/2000/svg" width="45" height="45" viewBox="0 0 45 45">
  <path id="Icon_awesome-donate" data-name="Icon awesome-donate" d="M22.5,36.563A18.281,18.281,0,1,0,4.219,18.281,18.278,18.278,0,0,0,22.5,36.563Zm-1.951-28V7.084a1.455,1.455,0,0,1,1.459-1.459h.976a1.455,1.455,0,0,1,1.459,1.459V8.578a6.929,6.929,0,0,1,3.779,1.354.985.985,0,0,1,.105,1.5L26.895,12.8a.991.991,0,0,1-1.23.088,2.893,2.893,0,0,0-1.564-.448H20.681a1.529,1.529,0,0,0-1.433,1.608,1.588,1.588,0,0,0,1.063,1.547l5.476,1.644a5.506,5.506,0,0,1,3.841,5.282A5.419,5.419,0,0,1,24.434,28v1.477a1.455,1.455,0,0,1-1.459,1.459H22a1.455,1.455,0,0,1-1.459-1.459V27.984a6.929,6.929,0,0,1-3.779-1.354.985.985,0,0,1-.105-1.5l1.433-1.362a.991.991,0,0,1,1.23-.088,2.893,2.893,0,0,0,1.564.448H24.3a1.529,1.529,0,0,0,1.433-1.608,1.588,1.588,0,0,0-1.063-1.547L19.2,19.327a5.506,5.506,0,0,1-3.841-5.282,5.425,5.425,0,0,1,5.194-5.484ZM42.188,30.938H39.331a21.3,21.3,0,0,1-6.416,5.625h5.607a.784.784,0,0,1,.844.7v1.406a.784.784,0,0,1-.844.7H6.469a.784.784,0,0,1-.844-.7V37.266a.784.784,0,0,1,.844-.7h5.607A21.407,21.407,0,0,1,5.66,30.938H2.813A2.809,2.809,0,0,0,0,33.75v8.438A2.809,2.809,0,0,0,2.813,45H42.188A2.809,2.809,0,0,0,45,42.188V33.75A2.809,2.809,0,0,0,42.188,30.938Z" fill="#fff"/>
</svg>
