<svg xmlns="http://www.w3.org/2000/svg" width="65.75" height="53.4" viewBox="0 0 65.75 53.4">
  <path id="Icon_awesome-twitter-black" data-name="Icon awesome-twitter-black" d="M58.991,16.689c.042.584.042,1.168.042,1.752,0,17.814-13.559,38.34-38.34,38.34A38.08,38.08,0,0,1,0,50.732a27.876,27.876,0,0,0,3.254.167,26.987,26.987,0,0,0,16.729-5.757A13.5,13.5,0,0,1,7.384,35.8a16.993,16.993,0,0,0,2.545.209,14.252,14.252,0,0,0,3.546-.459A13.477,13.477,0,0,1,2.67,22.321v-.167a13.571,13.571,0,0,0,6.091,1.71A13.5,13.5,0,0,1,4.589,5.842a38.3,38.3,0,0,0,27.785,14.1,15.212,15.212,0,0,1-.334-3.087,13.488,13.488,0,0,1,23.321-9.22,26.53,26.53,0,0,0,8.552-3.254,13.439,13.439,0,0,1-5.924,7.426,27.014,27.014,0,0,0,7.76-2.086,28.967,28.967,0,0,1-6.758,6.967Z" transform="translate(0 -3.381)"/>
</svg>
