<svg xmlns="http://www.w3.org/2000/svg" width="180" height="160" viewBox="0 0 180 160">
  <path id="Icon_awesome-shopping-cart" data-name="Icon awesome-shopping-cart" d="M165.038,94.162l14.773-65A7.5,7.5,0,0,0,172.5,20H49.753L46.888,6A7.5,7.5,0,0,0,39.54,0H7.5A7.5,7.5,0,0,0,0,7.5v5A7.5,7.5,0,0,0,7.5,20H29.338L51.291,127.323A17.5,17.5,0,1,0,72.243,130h65.515a17.5,17.5,0,1,0,19.874-3.252l1.724-7.586A7.5,7.5,0,0,0,152.042,110H68.162l-2.045-10h91.608A7.5,7.5,0,0,0,165.038,94.162Z" fill="#702349"/>
</svg>
