<svg xmlns="http://www.w3.org/2000/svg" width="180.579" height="169.636" viewBox="0 0 180.579 169.636">
  <path id="Icon_material-high-quality" data-name="Icon material-high-quality" d="M165.014,6H24.564C13.429,6,4.5,15.542,4.5,27.2V154.431c0,11.662,8.929,21.2,20.064,21.2h140.45c11.035,0,20.064-9.542,20.064-21.2V27.2C185.079,15.542,176.05,6,165.014,6ZM84.757,122.625H69.709v-21.2H49.645v21.2H34.6V59.011H49.645V85.517H69.709V59.011H84.757Zm70.225-10.6c0,5.831-4.514,10.6-10.032,10.6h-7.524v15.9H122.378v-15.9h-7.524c-5.518,0-10.032-4.771-10.032-10.6V69.613c0-5.831,4.514-10.6,10.032-10.6h30.1c5.518,0,10.032,4.771,10.032,10.6Zm-35.113-5.3h20.064V74.915H119.87Z" transform="translate(-4.5 -6)" fill="#c9540f"/>
</svg>
