<svg xmlns="http://www.w3.org/2000/svg" width="57.563" height="57.55" viewBox="0 0 57.563 57.55">
  <path id="Icon_awesome-instagram" data-name="Icon awesome-instagram" d="M28.783,16.258A14.755,14.755,0,1,0,43.538,31.013,14.732,14.732,0,0,0,28.783,16.258Zm0,24.348a9.593,9.593,0,1,1,9.593-9.593,9.61,9.61,0,0,1-9.593,9.593Zm18.8-24.952a3.442,3.442,0,1,1-3.442-3.442A3.434,3.434,0,0,1,47.583,15.654Zm9.773,3.493c-.218-4.61-1.271-8.694-4.649-12.058S45.259,2.671,40.649,2.44c-4.751-.27-18.993-.27-23.744,0-4.6.218-8.681,1.271-12.058,4.636S.428,14.524.2,19.134c-.27,4.751-.27,18.993,0,23.744.218,4.61,1.271,8.694,4.649,12.058s7.448,4.418,12.058,4.649c4.751.27,18.993.27,23.744,0,4.61-.218,8.694-1.271,12.058-4.649s4.418-7.448,4.649-12.058c.27-4.751.27-18.98,0-23.732Zm-6.138,28.83a9.712,9.712,0,0,1-5.471,5.471C41.958,54.95,32.969,54.6,28.783,54.6s-13.188.334-16.964-1.156a9.712,9.712,0,0,1-5.471-5.471C4.846,44.189,5.192,35.2,5.192,31.013S4.859,17.824,6.348,14.049a9.712,9.712,0,0,1,5.471-5.471c3.788-1.5,12.778-1.156,16.964-1.156s13.188-.334,16.964,1.156a9.712,9.712,0,0,1,5.471,5.471c1.5,3.788,1.156,12.778,1.156,16.964S52.72,44.2,51.217,47.977Z" transform="translate(0.005 -2.238)" fill="#c9540f"/>
</svg>
