<svg xmlns="http://www.w3.org/2000/svg" width="379.809" height="379.809" viewBox="0 0 379.809 379.809">
  <path id="Icon_awesome-user-circle" data-name="Icon awesome-user-circle" d="M189.9.563a189.9,189.9,0,1,0,189.9,189.9A189.872,189.872,0,0,0,189.9.563Zm0,73.511a67.385,67.385,0,1,1-67.385,67.385A67.387,67.387,0,0,1,189.9,74.074Zm0,263.416A146.737,146.737,0,0,1,77.723,285.266c14.4-27.107,42.575-45.792,75.426-45.792a18.737,18.737,0,0,1,5.437.842A101.386,101.386,0,0,0,189.9,245.6a101,101,0,0,0,31.319-5.284,18.736,18.736,0,0,1,5.437-.842c32.85,0,61.03,18.684,75.426,45.792A146.737,146.737,0,0,1,189.9,337.49Z" transform="translate(0 -0.563)" fill="#ffbf55"/>
</svg>
