<svg xmlns="http://www.w3.org/2000/svg" width="12.875" height="12.875" viewBox="0 0 12.875 12.875">
  <path id="Icon_awesome-copyright" data-name="Icon awesome-copyright" d="M7,.563A6.438,6.438,0,1,0,13.438,7,6.437,6.437,0,0,0,7,.563Zm3.041,9A3.875,3.875,0,0,1,7.189,10.75a3.657,3.657,0,0,1-3.75-3.779A3.655,3.655,0,0,1,7.17,3.25a3.738,3.738,0,0,1,2.685,1.01.311.311,0,0,1,.032.38l-.581.9a.312.312,0,0,1-.473.06,2.641,2.641,0,0,0-1.606-.62A1.858,1.858,0,0,0,5.308,6.953,1.943,1.943,0,0,0,7.236,9.022a2.545,2.545,0,0,0,1.7-.743.312.312,0,0,1,.48.027l.637.871a.312.312,0,0,1-.014.386Z" transform="translate(-0.563 -0.563)" fill="#fff"/>
</svg>
