<svg xmlns="http://www.w3.org/2000/svg" width="57.531" height="57.531" viewBox="0 0 57.531 57.531">
  <path id="Icon_awesome-linkedin" data-name="Icon awesome-linkedin" d="M53.422,2.25H4.1A4.127,4.127,0,0,0,0,6.4V55.633a4.127,4.127,0,0,0,4.1,4.148H53.422a4.138,4.138,0,0,0,4.109-4.148V6.4A4.138,4.138,0,0,0,53.422,2.25ZM17.388,51.562H8.861V24.107H17.4V51.562ZM13.124,20.357a4.944,4.944,0,1,1,4.944-4.944,4.946,4.946,0,0,1-4.944,4.944ZM49.351,51.562H40.824V38.207c0-3.185-.064-7.281-4.43-7.281-4.443,0-5.124,3.467-5.124,7.05V51.562H22.743V24.107h8.18v3.75h.116a8.981,8.981,0,0,1,8.077-4.43c8.63,0,10.235,5.689,10.235,13.086Z" transform="translate(0 -2.25)" fill="#c9540f"/>
</svg>
