<svg xmlns="http://www.w3.org/2000/svg" width="111.743" height="111" viewBox="0 0 111.743 111">
  <g id="Layer_2" data-name="Layer 2" transform="translate(0.417)">
    <g id="Layer_1" data-name="Layer 1" transform="translate(1.34 2)">
      <path id="Path_402" data-name="Path 402" d="M230.559,70.615l-.569,5.034,2.85-4.143a.86.86,0,0,0-.364-1.27l-.72-.318a.86.86,0,0,0-1.2.7Z" transform="translate(-141.448 -43.574)" fill="#fff"/>
      <path id="Path_403" data-name="Path 403" d="M234.129,83.9l-5.069-.287,4.3,2.614a.856.856,0,0,0,1.247-.43l.275-.74a.856.856,0,0,0-.751-1.158Z" transform="translate(-140.878 -52.007)" fill="#fff"/>
      <path id="Path_404" data-name="Path 404" d="M233.977,76.084,230,79.224l4.949-.891a.856.856,0,0,0,.647-1.162l-.279-.736a.856.856,0,0,0-1.34-.352Z" transform="translate(-141.454 -47.277)" fill="#fff"/>
      <path id="Path_405" data-name="Path 405" d="M233.265,87.8l-3.485-3.7,1.32,4.856a.86.86,0,0,0,1.2.546l.709-.345a.856.856,0,0,0,.256-1.359Z" transform="translate(-141.319 -52.308)" fill="#fff"/>
      <path id="Path_406" data-name="Path 406" d="M154.906,118.721q3.117-2.064,6.266-4.085c9.681-6.2,19.92-11.973,30.913-15.447l-1.5.07c-3.927.194-7.888.449-11.838.829l-2.393-23.4.19-.805.035.05-.019-.132v-.066l.279-.174h-.24l.023-.108-.1.116h0l-.709-4.67a.86.86,0,0,0-1.224-.643l-.709.345a.856.856,0,0,0-.31,1.282l2.374,3.191-3.458-2.711a.856.856,0,0,0-1.328.387l-.275.74a.852.852,0,0,0,.654,1.162l4.689.813.1.128h-.085v0l-4.446.279a.856.856,0,0,0-.747,1.162l.283.736a.856.856,0,0,0,1.251.422l3.632-2.242h0l-2.9,3.334a.856.856,0,0,0,.3,1.348l.72.318a.86.86,0,0,0,1.181-.592l.554-2.4L174.4,100.54c-1.27.155-2.54.321-3.807.507l-.259-6.583-7.7-6.145-6.928,6.509v9.4a77.715,77.715,0,0,0-7.385,2.556c-1.011.407-1.987.867-2.962,1.332a19.682,19.682,0,0,1-2.711,1.475q2.806,1.743,5.464,3.687Q151.611,115.86,154.906,118.721Zm6.041-24.4,2.091-1.688,2.323,1.592L165.485,97l-4.538.035Z" transform="translate(-87.929 -43.771)" fill="#fff"/>
      <path id="Path_407" data-name="Path 407" d="M180.7,172.085a138.177,138.177,0,0,1,9.979,10.173c.279.31.554.627.829.941a83.924,83.924,0,0,0,7.358-7.052c2.641-2.815,5.143-5.758,7.621-8.721a73.576,73.576,0,0,0,6.781-9.871c.774-1.293,1.53-2.587,2.289-3.9-.55.182-1.1.364-1.65.558C201.994,158.388,191.206,165.134,180.7,172.085Z" transform="translate(-111.245 -94.931)" fill="#fff"/>
      <path id="Path_408" data-name="Path 408" d="M228.328,172.668A118.632,118.632,0,0,1,214,187.553q2.649,3.156,5.131,6.451a53.741,53.741,0,0,0,19.9-37.175A104.943,104.943,0,0,1,228.328,172.668Z" transform="translate(-131.65 -96.874)" fill="#fff"/>
      <path id="Path_409" data-name="Path 409" d="M60.843,128.462a82.1,82.1,0,0,0-21.116-10.568,104.406,104.406,0,0,0-13.058-3.547v-4.368a12.752,12.752,0,0,1,3.485.48,16.044,16.044,0,0,1-2.548-2.811l-.039-.035a11.776,11.776,0,0,1,2.587.623,16.043,16.043,0,0,1-2.548-2.811c-.058-.077-.112-.159-.167-.24a11.744,11.744,0,0,1,2.711.639,16.163,16.163,0,0,1-2.443-2.668,11.524,11.524,0,0,1,2.44.585A16.33,16.33,0,0,1,27.6,100.93,15.939,15.939,0,0,1,26.119,98.4a20.268,20.268,0,0,1-1.615,2.656,19.939,19.939,0,0,1-2.323,2.687,11.52,11.52,0,0,1,2.323-.589,19.572,19.572,0,0,1-2.323,2.649,11.618,11.618,0,0,1,2.587-.623l-.248.349a19.7,19.7,0,0,1-2.323,2.687,11.64,11.64,0,0,1,2.42-.6l-.112.163a19.7,19.7,0,0,1-2.323,2.687,12.856,12.856,0,0,1,3.485-.484v4.174c-1.135-.217-2.277-.426-3.423-.6-2.138-.341-4.287-.678-6.44-.96v-4.062c2.1.07,3.8-.077,4.941.36a22.7,22.7,0,0,1-3.485-4.031.929.929,0,0,1-.05-.081,15.163,15.163,0,0,1,3.508.9,22.886,22.886,0,0,1-3.485-4.035c-.077-.116-.155-.232-.228-.349a15.273,15.273,0,0,1,3.714.9,22.847,22.847,0,0,1-3.338-3.826,15.184,15.184,0,0,1,3.338.867A22.7,22.7,0,0,1,17.232,95.2a23.943,23.943,0,0,1-2.018-3.632,28.838,28.838,0,0,1-2.2,3.81A27.622,27.622,0,0,1,9.82,99.253a15.369,15.369,0,0,1,3.152-.84,27.761,27.761,0,0,1-3.148,3.779,15.339,15.339,0,0,1,3.528-.895c-.108.167-.221.333-.337.5a27.909,27.909,0,0,1-3.191,3.872,15.06,15.06,0,0,1,3.346-.871l-.155.232a27.622,27.622,0,0,1-3.191,3.853c1.1-.422,2.807-.29,4.941-.364v3.93a68.3,68.3,0,0,0-10.521-.581,4.089,4.089,0,0,0-.964.12,74.387,74.387,0,0,1,7.973,2.625c3.818,1.41,7.718,2.579,11.516,4.039a153.151,153.151,0,0,1,38.433,22.2A162.929,162.929,0,0,1,77.08,155.155c1.456,1.472,2.9,2.978,4.3,4.531a54.213,54.213,0,0,0,6.494-4.054A150.436,150.436,0,0,0,78.06,143.89,111.334,111.334,0,0,0,60.843,128.462Z" transform="translate(-2.529 -56.885)" fill="#fff"/>
      <path id="Path_410" data-name="Path 410" d="M71.686,192.623a152.161,152.161,0,0,0-15.78-13.747,181.822,181.822,0,0,0-17.945-11.8,126.018,126.018,0,0,0-19.633-9.088c-3.323-1.208-6.7-2.25-10.018-3.485a64.228,64.228,0,0,0-6.97-2.323c0,.085,0,.167,0,.248,4.906,3.187,9.89,6.262,14.715,9.576,10.517,7.23,19.672,16.051,28.551,25.1,4.26,4.329,8.643,8.573,12.667,13.112.774.856,1.5,1.731,2.207,2.622a53.481,53.481,0,0,0,17.72-4.562C75.415,196.333,73.552,194.459,71.686,192.623Z" transform="translate(-1.34 -94.025)" fill="#fff"/>
      <path id="Path_411" data-name="Path 411" d="M11.453,185.407c-1.99-2.323-3.973-4.628-6.033-6.877A54.14,54.14,0,0,0,24.1,207.453,53.5,53.5,0,0,0,35.718,214.5a163.748,163.748,0,0,0-14.367-18.266C18.036,192.61,14.636,189.117,11.453,185.407Z" transform="translate(-3.84 -110.171)" fill="#fff"/>
      <path id="Path_412" data-name="Path 412" d="M40.975,194.249c-4.4-4.453-8.906-8.833-13.6-12.965a138.846,138.846,0,0,0-14.564-11.121C9.38,167.87,5.884,165.671,2.41,163.44v.027c3.8,3.783,7.23,7.907,10.746,11.946,3.276,3.764,6.815,7.276,10.119,11.017q4.763,5.379,9.05,11.156,3.485,4.7,6.653,9.654a53.966,53.966,0,0,0,16.76,2.684h.356q-1.231-1.417-2.521-2.777C49.459,202.768,45.208,198.508,40.975,194.249Z" transform="translate(-1.996 -100.924)" fill="#fff"/>
      <path id="Path_413" data-name="Path 413" d="M133.252,2.29h0c.852-.043,1.719-.07,2.575-.074a.108.108,0,1,0,0-.217h0c-.86,0-1.727.031-2.583.074a.108.108,0,1,0,.008.217Z" transform="translate(-82.102 -2)" fill="#fff" stroke="#fff" stroke-miterlimit="10" stroke-width="4"/>
      <path id="Path_414" data-name="Path 414" d="M81.829,13.648a.1.1,0,0,0,.046,0c.774-.364,1.572-.713,2.362-1.038a.109.109,0,0,0-.081-.2c-.8.329-1.6.678-2.374,1.046a.1.1,0,0,0-.05.143A.1.1,0,0,0,81.829,13.648Z" transform="translate(-50.594 -8.374)" fill="#fff" stroke="#fff" stroke-miterlimit="10" stroke-width="4"/>
      <path id="Path_415" data-name="Path 415" d="M58.83,26.528a.132.132,0,0,0,.066-.019c.693-.507,1.406-1,2.118-1.472a.112.112,0,0,0,.031-.151.116.116,0,0,0-.151-.031c-.716.472-1.429.968-2.126,1.479a.1.1,0,0,0-.023.151.108.108,0,0,0,.085.043Z" transform="translate(-36.502 -15.995)" fill="#fff" stroke="#fff" stroke-miterlimit="10" stroke-width="4"/>
      <path id="Path_416" data-name="Path 416" d="M48.432,34.589a.12.12,0,0,0,.07-.027c.643-.569,1.305-1.131,1.967-1.665a.108.108,0,0,0,0-.151.116.116,0,0,0-.155-.019c-.666.538-1.332,1.1-1.975,1.673a.1.1,0,0,0,0,.151.1.1,0,0,0,.093.039Z" transform="translate(-30.119 -20.815)" fill="#fff" stroke="#fff" stroke-miterlimit="10" stroke-width="4"/>
      <path id="Path_417" data-name="Path 417" d="M106.926,5.458h.027c.829-.209,1.677-.387,2.513-.565a.1.1,0,0,0,.085-.124.1.1,0,0,0-.128-.085c-.84.167-1.688.356-2.521.565a.108.108,0,0,0,.023.213Z" transform="translate(-65.976 -3.642)" fill="#fff" stroke="#fff" stroke-miterlimit="10" stroke-width="4"/>
      <path id="Path_418" data-name="Path 418" d="M119.949,3.244h0c.844-.124,1.708-.232,2.556-.318a.1.1,0,0,0,.1-.12.108.108,0,0,0-.116-.1c-.856.089-1.719.194-2.567.321a.108.108,0,1,0,0,.217Z" transform="translate(-73.934 -2.435)" fill="#fff" stroke="#fff" stroke-miterlimit="10" stroke-width="4"/>
      <path id="Path_419" data-name="Path 419" d="M69.989,19.542a.1.1,0,0,0,.054,0c.736-.434,1.491-.86,2.25-1.259a.112.112,0,0,0,.046-.147.108.108,0,0,0-.147-.046c-.774.387-1.522.829-2.261,1.266a.108.108,0,0,0-.035.147A.1.1,0,0,0,69.989,19.542Z" transform="translate(-43.339 -11.852)" fill="#fff" stroke="#fff" stroke-miterlimit="10" stroke-width="4"/>
      <path id="Path_420" data-name="Path 420" d="M38.907,43.62a.116.116,0,0,0,.077-.031c.585-.627,1.189-1.247,1.8-1.847a.108.108,0,0,0,0-.151.112.112,0,0,0-.155,0c-.612.6-1.22,1.224-1.808,1.855a.108.108,0,0,0,0,.151A.1.1,0,0,0,38.907,43.62Z" transform="translate(-24.288 -26.241)" fill="#fff" stroke="#fff" stroke-miterlimit="10" stroke-width="4"/>
      <path id="Path_421" data-name="Path 421" d="M6.665,100.2H6.7a.1.1,0,0,0,.1-.077c.228-.825.48-1.657.747-2.467a.108.108,0,1,0-.205-.07c-.267.817-.519,1.65-.747,2.478a.1.1,0,0,0,.074.136Z" transform="translate(-4.554 -60.526)" fill="#fff" stroke="#fff" stroke-miterlimit="10" stroke-width="4"/>
      <path id="Path_422" data-name="Path 422" d="M3.72,113.121h0a.116.116,0,0,0,.108-.089c.147-.844.314-1.7.5-2.529a.109.109,0,0,0-.213-.046c-.186.836-.356,1.692-.5,2.536a.1.1,0,0,0,.1.128Z" transform="translate(-2.733 -68.406)" fill="#fff" stroke="#fff" stroke-miterlimit="10" stroke-width="4"/>
      <path id="Path_423" data-name="Path 423" d="M10.818,87.682h.039a.108.108,0,0,0,.1-.07c.306-.8.635-1.6.98-2.378a.108.108,0,0,0-.2-.089c-.345.774-.678,1.588-.984,2.389a.112.112,0,0,0,.062.147Z" transform="translate(-7.105 -52.912)" fill="#fff" stroke="#fff" stroke-miterlimit="10" stroke-width="4"/>
      <path id="Path_424" data-name="Path 424" d="M30.3,53.536a.116.116,0,0,0,.089-.043c.519-.678,1.065-1.355,1.615-2.006a.109.109,0,1,0-.167-.139c-.554.654-1.1,1.332-1.623,2.014a.108.108,0,0,0,0,.151A.1.1,0,0,0,30.3,53.536Z" transform="translate(-19.013 -32.215)" fill="#fff" stroke="#fff" stroke-miterlimit="10" stroke-width="4"/>
      <path id="Path_425" data-name="Path 425" d="M22.651,64.25a.089.089,0,0,0,.054,0,.108.108,0,0,0,.093-.05c.453-.724.929-1.448,1.417-2.149a.112.112,0,0,0-.027-.151.108.108,0,0,0-.151.027c-.488.7-.968,1.429-1.421,2.157a.1.1,0,0,0,.035.167Z" transform="translate(-14.36 -38.692)" fill="#fff" stroke="#fff" stroke-miterlimit="10" stroke-width="4"/>
      <path id="Path_426" data-name="Path 426" d="M16.161,75.649a.12.12,0,0,0,.05,0,.108.108,0,0,0,.1-.062c.387-.774.774-1.526,1.2-2.273a.107.107,0,1,0-.186-.1c-.422.747-.829,1.514-1.208,2.281a.112.112,0,0,0,.046.159Z" transform="translate(-10.383 -45.599)" fill="#fff" stroke="#fff" stroke-miterlimit="10" stroke-width="4"/>
      <path id="Path_427" data-name="Path 427" d="M198.121,14.6c.774.349,1.549.728,2.323,1.119a.108.108,0,0,0,.1-.194c-.774-.387-1.549-.774-2.323-1.123a.1.1,0,0,0-.143.054.112.112,0,0,0,.046.143Z" transform="translate(-121.885 -9.593)" fill="#fff" stroke="#fff" stroke-miterlimit="10" stroke-width="4"/>
      <path id="Path_428" data-name="Path 428" d="M265.473,80.107a.108.108,0,0,0,.1.066.1.1,0,0,0,.046,0,.108.108,0,0,0,.054-.143c-.356-.774-.736-1.549-1.127-2.323a.108.108,0,0,0-.147-.046.1.1,0,0,0-.046.143C264.742,78.559,265.121,79.333,265.473,80.107Z" transform="translate(-162.495 -48.354)" fill="#fff" stroke="#fff" stroke-miterlimit="10" stroke-width="4"/>
      <path id="Path_429" data-name="Path 429" d="M259.035,68.45a.116.116,0,0,0,.1.054.1.1,0,0,0,.054,0,.108.108,0,0,0,.039-.147c-.43-.743-.883-1.487-1.348-2.215a.1.1,0,0,0-.147-.031.112.112,0,0,0-.035.151C258.16,66.967,258.609,67.707,259.035,68.45Z" transform="translate(-158.415 -41.274)" fill="#fff" stroke="#fff" stroke-miterlimit="10" stroke-width="4"/>
      <path id="Path_430" data-name="Path 430" d="M251.534,57.473a.12.12,0,0,0,.089.046.1.1,0,0,0,.062-.023.108.108,0,0,0,.027-.151c-.5-.7-1.022-1.4-1.549-2.072a.116.116,0,0,0-.155,0,.108.108,0,0,0,0,.155C250.516,56.067,251.035,56.76,251.534,57.473Z" transform="translate(-153.695 -34.626)" fill="#fff" stroke="#fff" stroke-miterlimit="10" stroke-width="4"/>
      <path id="Path_431" data-name="Path 431" d="M270.757,92.384a.112.112,0,0,0,.1.074h.035a.108.108,0,0,0,.066-.136c-.275-.825-.577-1.654-.895-2.428a.108.108,0,0,0-.143-.058.1.1,0,0,0-.058.139C270.18,90.758,270.482,91.571,270.757,92.384Z" transform="translate(-165.877 -55.817)" fill="#fff" stroke="#fff" stroke-miterlimit="10" stroke-width="4"/>
      <path id="Path_432" data-name="Path 432" d="M279.318,131.392h0a.112.112,0,0,0,.1-.112c-.035-.86-.093-1.727-.167-2.583a.112.112,0,0,0-.116-.1.108.108,0,0,0-.1.116c.077.852.132,1.715.167,2.571a.108.108,0,0,0,.112.1Z" transform="translate(-171.503 -79.575)" fill="#fff" stroke="#fff" stroke-miterlimit="10" stroke-width="4"/>
      <path id="Path_433" data-name="Path 433" d="M242.964,47.195a.108.108,0,0,0,.081.039.12.12,0,0,0,.07-.027.108.108,0,0,0,0-.155c-.561-.647-1.162-1.293-1.739-1.913a.108.108,0,0,0-.155.151C241.822,45.905,242.4,46.548,242.964,47.195Z" transform="translate(-148.311 -28.414)" fill="#fff" stroke="#fff" stroke-miterlimit="10" stroke-width="4"/>
      <path id="Path_434" data-name="Path 434" d="M277.737,118.158h0a.108.108,0,0,0,.093-.124c-.116-.852-.256-1.712-.41-2.552a.108.108,0,0,0-.128-.085.1.1,0,0,0-.085.124c.155.836.294,1.692.41,2.544A.108.108,0,0,0,277.737,118.158Z" transform="translate(-170.379 -71.484)" fill="#fff" stroke="#fff" stroke-miterlimit="10" stroke-width="4"/>
      <path id="Path_435" data-name="Path 435" d="M274.828,105.052a.112.112,0,0,0,.1.085h.027a.108.108,0,0,0,.077-.132c-.2-.836-.418-1.677-.654-2.5a.109.109,0,1,0-.209.058C274.41,103.379,274.631,104.22,274.828,105.052Z" transform="translate(-168.52 -63.536)" fill="#fff" stroke="#fff" stroke-miterlimit="10" stroke-width="4"/>
      <path id="Path_436" data-name="Path 436" d="M159.856,3.519c.848.116,1.7.256,2.544.41h.019a.116.116,0,0,0,.108-.089.108.108,0,0,0-.089-.128c-.844-.155-1.7-.294-2.552-.414a.1.1,0,0,0-.12.093.108.108,0,0,0,.089.128Z" transform="translate(-98.417 -2.795)" fill="#fff" stroke="#fff" stroke-miterlimit="10" stroke-width="4"/>
      <path id="Path_437" data-name="Path 437" d="M233.521,37.828a.1.1,0,0,0,.151,0,.108.108,0,0,0,0-.155c-.623-.592-1.266-1.162-1.913-1.739a.108.108,0,0,0-.143.163C232.259,36.651,232.905,37.236,233.521,37.828Z" transform="translate(-142.423 -22.776)" fill="#fff" stroke="#fff" stroke-miterlimit="10" stroke-width="4"/>
      <path id="Path_438" data-name="Path 438" d="M146.572,2.331c.86.035,1.723.093,2.571.167h0a.112.112,0,0,0,.108-.1.108.108,0,0,0-.1-.116c-.852-.077-1.719-.136-2.579-.17a.112.112,0,0,0-.112.1.108.108,0,0,0,.112.116Z" transform="translate(-90.264 -2.067)" fill="#fff" stroke="#fff" stroke-miterlimit="10" stroke-width="4"/>
      <path id="Path_439" data-name="Path 439" d="M185.741,9.653c.805.275,1.619.577,2.416.891a.07.07,0,0,0,.039,0,.1.1,0,0,0,.1-.066.108.108,0,0,0-.058-.143c-.8-.318-1.619-.62-2.428-.895a.1.1,0,0,0-.136.066.108.108,0,0,0,.066.147Z" transform="translate(-114.288 -6.555)" fill="#fff" stroke="#fff" stroke-miterlimit="10" stroke-width="4"/>
      <path id="Path_440" data-name="Path 440" d="M172.946,5.972c.833.2,1.669.418,2.49.654h.031a.108.108,0,0,0,.031-.213c-.825-.236-1.665-.457-2.5-.658a.108.108,0,0,0-.132.081A.112.112,0,0,0,172.946,5.972Z" transform="translate(-106.442 -4.299)" fill="#fff" stroke="#fff" stroke-miterlimit="10" stroke-width="4"/>
      <path id="Path_441" data-name="Path 441" d="M223.194,29.409a.116.116,0,0,0,.07.023.112.112,0,0,0,.085-.043.108.108,0,0,0-.019-.151c-.674-.531-1.371-1.053-2.072-1.549a.108.108,0,0,0-.151.027.1.1,0,0,0,.027.147C221.827,28.359,222.524,28.878,223.194,29.409Z" transform="translate(-135.992 -17.729)" fill="#fff" stroke="#fff" stroke-miterlimit="10" stroke-width="4"/>
      <path id="Path_442" data-name="Path 442" d="M209.93,20.691c.74.426,1.479.875,2.2,1.336a.116.116,0,0,0,.058.019.12.12,0,0,0,.093-.05.112.112,0,0,0-.027-.143c-.72-.465-1.464-.914-2.207-1.344a.108.108,0,0,0-.116.182Z" transform="translate(-129.129 -13.333)" fill="#fff" stroke="#fff" stroke-miterlimit="10" stroke-width="4"/>
      <path id="Path_443" data-name="Path 443" d="M2.087,126.29h0a.112.112,0,0,0,.108-.1c.066-.856.151-1.719.259-2.564a.109.109,0,0,0-.217-.027c-.1.848-.194,1.715-.259,2.571a.1.1,0,0,0,.108.12Z" transform="translate(-1.73 -76.452)" fill="#fff" stroke="#fff" stroke-miterlimit="10" stroke-width="4"/>
      <path id="Path_444" data-name="Path 444" d="M94.146,8.927h.039c.809-.29,1.634-.561,2.451-.805a.109.109,0,1,0-.062-.209c-.821.248-1.65.523-2.463.809a.108.108,0,0,0,.035.209Z" transform="translate(-58.145 -5.62)" fill="#fff" stroke="#fff" stroke-miterlimit="10" stroke-width="4"/>
      <path id="Path_445" data-name="Path 445" d="M279.669,144.615a.1.1,0,0,1-.108.1h0a.108.108,0,0,1-.1-.112c.043-.852.07-1.719.077-2.575a.1.1,0,0,1,.1-.108h0a.1.1,0,0,1,.1.108C279.723,142.888,279.7,143.759,279.669,144.615Z" transform="translate(-171.761 -87.738)" fill="#fff" stroke="#fff" stroke-miterlimit="10" stroke-width="4"/>
      <path id="Path_446" data-name="Path 446" d="M279.592,141.92h0a.1.1,0,0,0-.1.108c0,.856-.035,1.723-.077,2.575a.108.108,0,0,0,.1.112h0a.1.1,0,0,0,.108-.1c.046-.856.074-1.727.077-2.587a.1.1,0,0,0-.1-.108Z" transform="translate(-171.73 -87.738)" fill="#fff" stroke="#fff" stroke-miterlimit="10" stroke-width="4"/>
    </g>
  </g>
</svg>
