<svg xmlns="http://www.w3.org/2000/svg" width="1240.354" height="767.085" viewBox="0 0 1240.354 767.085">
  <g id="basket" transform="translate(-0.002 -0.013)" style="isolation: isolate">
    <g id="Layer_2" data-name="Layer 2" transform="translate(0.002 0.013)">
      <g id="OBJECTS">
        <path id="Path_1230" data-name="Path 1230" d="M30.712,353.9c41.942,39.791,112.767,64.526,191.5,78.43,95.713,16.9,207.4,17.207,298.74-20.817,54.386-22.507,99.862-57.536,158.857-61.453,97.48-6.99,152.327,50.929,242.126,71.055,275.925,61.453,336.994-173.452,267.091-273.16q-1.46-2.151-3.226-4.379c-35.489-46.551-114.38-89.184-198.11-94.484-100.4-6.453-177.83,40.252-281,42.556-98.94,2.228-182.439-37.026-277-40.329A621.6,621.6,0,0,0,186.573,93.185,401.981,401.981,0,0,0,64.05,168.234a255.341,255.341,0,0,0-37.026,41.942C-8.388,261.259-10.846,314.416,30.712,353.9Z" transform="translate(-0.002 323.831)" fill="#bcce44"/>
        <g id="Group_7" data-name="Group 7" transform="translate(0 462.784)" opacity="0.5" style="mix-blend-mode: multiply;isolation: isolate">
          <path id="Path_1231" data-name="Path 1231" d="M30.712,275.2c41.942,39.791,112.767,64.526,191.5,78.43,95.713,16.9,207.4,17.207,298.74-20.817,54.386-22.507,99.862-57.536,158.857-61.453,97.48-6.99,152.327,50.929,242.126,71.055,275.925,61.453,336.994-173.452,267.091-273.16q-1.46-2.151-3.226-4.379c-29.882-6.606-58.765-6.683-78.507,3.38-64.372,32.724-2.381,157.858-88.108,186.357-72.976,24.428-158.473-51.774-237.671-71.824s-159.932,15.363-235.289,49.316c-79.736,36.334-178.522,73.283-253.111,40.559-59.994-26.348-76.125-88.032-120.525-120.679-34.337-25.2-88.723-30.727-145.567-20.2C-8.388,182.564-10.846,235.721,30.712,275.2Z" transform="translate(-0.002 -60.258)" fill="#bcce44"/>
        </g>
        <path id="Path_1232" data-name="Path 1232" d="M83.321,115.667A118.678,118.678,0,0,1,69.494,87.4a56,56,0,0,1-3.226-21.355A32.032,32.032,0,0,1,83.858,39.234a25.351,25.351,0,0,0,3.149-1.767,31.572,31.572,0,0,1,34.03-3.918,62.221,62.221,0,0,1,18.9,14.134,123.524,123.524,0,0,1,17.207,23.045,311.189,311.189,0,0,1,28.115,64.91,538.12,538.12,0,0,1,15.363,60.147c.922,4.532,1.767,9.141,2.535,13.673v3.073a6.99,6.99,0,0,1-3.687,7.682,7.682,7.682,0,0,1-8.68,0c-3.15-2.151-6.376-4.225-9.372-6.453-10.754-8.143-21.278-16.439-31.572-25.119a468.573,468.573,0,0,1-35.336-33.415,274.466,274.466,0,0,1-21.893-26.041C89.235,124.5,86.163,119.508,83.321,115.667Z" transform="translate(442.395 202.255)" fill="#f37c0d"/>
        <path id="Path_1233" data-name="Path 1233" d="M151.878,68.926a286.91,286.91,0,0,1,28.269,63.066,480.157,480.157,0,0,1,12.982,47.4c2.151,10.14,4.532,20.2,5.992,30.727a15.825,15.825,0,0,1,0,2,7.682,7.682,0,0,1-4.839,8.757,6.3,6.3,0,0,1-6.837,0c-3.226-2.074-6.376-4.071-9.448-6.376-11.676-8.834-23.045-17.9-34.337-27.424l-6.99-6.222a2.842,2.842,0,0,1-.768-3.687c1.383-3.15,2.842-6.3,3.994-9.525a104.778,104.778,0,0,0,5.608-53.772,47.7,47.7,0,0,0-6.914-18.82,73.514,73.514,0,0,0-7.682-11.292A41.4,41.4,0,0,0,111.7,72a113.447,113.447,0,0,0-15.363-3.073,60.6,60.6,0,0,1-11.676-2.458A38.408,38.408,0,0,1,68.378,55.944c-2.074-2.228-2.151-3.764,0-6.453a32.57,32.57,0,0,1,11.983-10.37,10.064,10.064,0,0,0,2.689-1.46,26.731,26.731,0,0,1,10.37-5.608,30.727,30.727,0,0,1,21.739.461,53.772,53.772,0,0,1,16.208,10.908,99.863,99.863,0,0,1,16.669,19.665A47.987,47.987,0,0,1,151.878,68.926Z" transform="translate(446.276 202.291)" fill="#f37c0d" opacity="0.5" style="mix-blend-mode: multiply;isolation: isolate"/>
        <path id="Path_1234" data-name="Path 1234" d="M104.465,58.361A100.783,100.783,0,0,1,75.659,71.266c-6.376,1.844-6.453,1.767-8.6-4.839-.845-2.689-.461-3.3,2.3-4.148a157.776,157.776,0,0,0,19.281-7.3c1.767-.768,3.38-1.69,5.07-2.612A23.044,23.044,0,0,1,99.242,49.6a14.673,14.673,0,0,0,4.763-3c4.916-3.764,9.833-7.682,14.826-11.215a9.6,9.6,0,0,1,3.226-1.536,3.226,3.226,0,0,1,4.225,3.687,8.373,8.373,0,0,1-2.458,4.993A60.608,60.608,0,0,1,110.457,54.6Z" transform="translate(445.37 224.916)" fill="#c94a28"/>
        <path id="Path_1235" data-name="Path 1235" d="M102.693,67.3a57.075,57.075,0,0,1-13.6,7.067,23.045,23.045,0,0,1-12.6,1.383,13.521,13.521,0,0,1-3-.922,3.457,3.457,0,0,1-2.381-3.073,4.225,4.225,0,0,1,2.228-3.841,7.066,7.066,0,0,1,2.458-.768,45.476,45.476,0,0,0,14.672-4.686,48.164,48.164,0,0,0,9.372-5.224c4.686-3.61,9.064-7.682,13.443-11.292,3.15-2.689,6.069-5.608,9.141-8.373s3.226-1.767,4.993.691v.461c3.15,4.532,3.226,5.3-.845,9.064A128.971,128.971,0,0,1,102.693,67.3Z" transform="translate(475.181 239.863)" fill="#c94a28"/>
        <path id="Path_1236" data-name="Path 1236" d="M96.319,70.829c-4.609,3.15-9.448,4.609-13.75,7.144a12.9,12.9,0,0,1-2.919.922,2.919,2.919,0,0,1-2.919-.691,55.389,55.389,0,0,1-4.379-4.532,1.767,1.767,0,0,1,.538-2.689A17.735,17.735,0,0,1,75.579,69.6a112.077,112.077,0,0,0,16.055-8.066A139.8,139.8,0,0,0,111.759,45.48c1-.922,1.844-2,2.919-2.842a4.148,4.148,0,0,1,4.839,0,3.994,3.994,0,0,1,1.536,4.148,9.832,9.832,0,0,1-1.075,2.842,21.277,21.277,0,0,1-4.532,6.222A63.99,63.99,0,0,1,103.77,65.99C100.851,66.988,98.931,69.907,96.319,70.829Z" transform="translate(480.71 279.586)" fill="#c94a28"/>
        <path id="Path_1237" data-name="Path 1237" d="M95.558,72.746a28.425,28.425,0,0,1-9.295,4.609,11.676,11.676,0,0,1-5.147.461,4.763,4.763,0,0,1-3.841-3.764,3.918,3.918,0,0,1,2.074-3.841,45.232,45.232,0,0,1,4.916-2.842,61.986,61.986,0,0,0,8.3-5.147,63.144,63.144,0,0,0,13.9-13.6c1.383-1.69,2.151-3.995,4.609-4.455,1.69,1.46,1.613,3.687,2.458,5.531a10.67,10.67,0,0,1,.461,1.46,5.3,5.3,0,0,1-1.075,5.761c-2.458,2.689-4.609,5.608-7.682,8.066a41.019,41.019,0,0,1-9.679,7.758Z" transform="translate(516.192 295.03)" fill="#c94a28"/>
        <path id="Path_1238" data-name="Path 1238" d="M94.121,67.543C92.2,68.772,90.357,70,88.436,71.077a3.457,3.457,0,0,1-4.379,0c-1.844-1.69-4.379-2.842-5.608-5.224,1-2.842,3.764-3.534,5.992-4.455a111.025,111.025,0,0,0,10.677-6.99c2.074-1.152,4.071-2.612,6.145-3.841a3.687,3.687,0,0,1,4.379,0,4.839,4.839,0,0,1,1.383,5.147,12.905,12.905,0,0,1-3.534,5.07A40.4,40.4,0,0,1,94.121,67.543Z" transform="translate(524.159 332.957)" fill="#c94a28"/>
        <path id="Path_1239" data-name="Path 1239" d="M104.624,107.226a29.5,29.5,0,0,1-18.9,5.07,16.131,16.131,0,0,1-13.443-8.45,30.724,30.724,0,0,1-2.3-5.147,90.951,90.951,0,0,1-4.071-40.329,68.136,68.136,0,0,1,5.377-20.894,39.253,39.253,0,0,1,11.753-14.9,19.972,19.972,0,0,1,18.052-3.687,13.366,13.366,0,0,1,5.07,2.381,24.043,24.043,0,0,1,8.6,29.344A66.752,66.752,0,0,1,105.93,66.9c-3.918,5.608-3.61,5.608,1.229,8.834a23.045,23.045,0,0,1,7.682,9.218,14.288,14.288,0,0,1-3.226,16.746,42.248,42.248,0,0,1-6.99,5.531Z" transform="translate(435.687 120.974)" fill="#bcce44"/>
        <path id="Path_1240" data-name="Path 1240" d="M90.99,107.166a28.5,28.5,0,0,1-19.742,4.455,16.282,16.282,0,0,1-3.457-.922c-.845,0-.845-1,0-1.69a16.515,16.515,0,0,1,4.225-3.764A46.706,46.706,0,0,0,83.078,92.417a4.3,4.3,0,0,0,0-4.839,94.62,94.62,0,0,1-5.531-9.372,23.659,23.659,0,0,1,0-18.59A54.161,54.161,0,0,1,84.153,47.48a22.431,22.431,0,0,0,1.69-24.428l-1.229-2.228c-.384-.768-1-1.536,0-2.381a2.074,2.074,0,0,1,2,0,12.444,12.444,0,0,1,6.606,2.612,23.967,23.967,0,0,1,8.834,29.267A48.855,48.855,0,0,1,94.37,64.456c-1.075,1.383-1.844,2.919-2.842,4.379-1.92,2.919-1.767,3.841,1.229,5.838a23.046,23.046,0,0,1,7.682,8.219A14.518,14.518,0,0,1,97.9,102.1a57.613,57.613,0,0,1-6.913,5.07Z" transform="translate(448.706 121.418)" fill="#bcce44" opacity="0.5" style="mix-blend-mode: multiply;isolation: isolate"/>
        <path id="Path_1241" data-name="Path 1241" d="M84.71,19.971a3.226,3.226,0,0,1,3.841,0,3.073,3.073,0,0,1,1.076,3.687,46.081,46.081,0,0,1-2.689,5.531,89.108,89.108,0,0,0-9.449,32.033c-.538,4.609-.615,9.295-1.075,13.9a23.042,23.042,0,0,1-.768,5.147c-.768,2.535-2.919,4.3-4.686,4.071a5.147,5.147,0,0,1-4.225-4.609,13.754,13.754,0,0,1,0-3.073,120.447,120.447,0,0,1,3.534-29.19A71.21,71.21,0,0,1,80.562,24.427a16.976,16.976,0,0,1,4.148-4.455Z" transform="translate(445.307 129.108)" fill="#1e9446"/>
        <path id="Path_1242" data-name="Path 1242" d="M75.488,27.323c.461,0,1.229-.461,2.074-.615a3.38,3.38,0,0,1,4.148,4.225,21.509,21.509,0,0,1-5.915,9.448,4.532,4.532,0,0,1-5.3,0,4.148,4.148,0,0,1-1.383-4.609,22.582,22.582,0,0,1,6.376-8.45Z" transform="translate(460.291 177.524)" fill="#1e9446"/>
        <path id="Path_1243" data-name="Path 1243" d="M142.753,64.888a12.6,12.6,0,0,1,2.842,5.377,5.224,5.224,0,0,1-5.915,7.067,9.833,9.833,0,0,1-3.918-1.306A12.6,12.6,0,0,0,120.4,77.255a29.038,29.038,0,0,1-5.761,3.38A18.436,18.436,0,0,1,89.289,69.8a46.092,46.092,0,0,1-1.536-4.916,2.074,2.074,0,0,0-2.3-1.536,37.487,37.487,0,0,1-9.295,0A21.432,21.432,0,0,1,58.639,40.307,15.363,15.363,0,0,1,70.161,27.094a26.117,26.117,0,0,1,14.365-.845A76.278,76.278,0,0,1,113.87,38.617l.845.615a99.86,99.86,0,0,1,24.812,21.662A43.008,43.008,0,0,1,142.753,64.888Z" transform="translate(391.182 171.07)" fill="#294c49"/>
        <path id="Path_1244" data-name="Path 1244" d="M115.939,49.256a4.609,4.609,0,0,1,0,5.224,3.687,3.687,0,0,1-3.687,1.46,8.3,8.3,0,0,1-4.225-1.767A128.437,128.437,0,0,0,71.539,36.12c-2.151-.691-4.379-1-6.606-1.536A6.011,6.011,0,0,1,62.4,34.2a2.919,2.919,0,0,1-2.3-2.458,3.457,3.457,0,0,1,1.767-3.457,11.753,11.753,0,0,1,6.068-.845A53.772,53.772,0,0,1,84.9,31.665,111.693,111.693,0,0,1,113.942,47.72a17.521,17.521,0,0,1,2,1.536Z" transform="translate(401.327 182.631)" fill="#1e9446"/>
        <path id="Path_1245" data-name="Path 1245" d="M67.333,31.935a9.448,9.448,0,0,1,5.454-1.229,3.457,3.457,0,0,1,3.534,2.458,3.764,3.764,0,0,1-1.46,4.609,11.215,11.215,0,0,1-7.682,2.074,3.457,3.457,0,0,1-3.457-2.535,3.61,3.61,0,0,1,1.613-3.995A17.819,17.819,0,0,1,67.333,31.935Z" transform="translate(424.968 204.869)" fill="#1e9446"/>
        <path id="Path_1246" data-name="Path 1246" d="M126.733,86.268A115.228,115.228,0,0,1,149.24,64.222a56.076,56.076,0,0,1,19.511-9.756,32.109,32.109,0,0,1,30.727,8.219,26.114,26.114,0,0,0,2.612,2.458,31.418,31.418,0,0,1,14.442,30.727,60.915,60.915,0,0,1-7.682,22.43,127.129,127.129,0,0,1-16.362,24.12,309.721,309.721,0,0,1-52.7,47.012A523.821,523.821,0,0,1,87.48,222.772q-6.145,3.457-12.214,6.683c-.922.538-1.92.922-2.842,1.383a8.219,8.219,0,0,1-11.215-9.525c1.075-3.687,2-7.682,3.226-10.908,4.3-12.752,8.834-25.426,13.9-37.871a458.14,458.14,0,0,1,20.51-44.016,280.447,280.447,0,0,1,17.9-29.037C120.281,94.641,123.968,90.109,126.733,86.268Z" transform="translate(407.355 356.788)" fill="#f37c0d"/>
        <path id="Path_1247" data-name="Path 1247" d="M193.846,139.48a285.524,285.524,0,0,1-51.006,46.628,484.5,484.5,0,0,1-40.867,27.27c-8.911,5.224-17.745,10.677-27.039,15.363-.615,0-1.229.691-1.844.922a7.682,7.682,0,0,1-9.832-1.844,6.53,6.53,0,0,1-2.074-6.606c1-3.61,1.92-7.3,3.15-10.908,4.686-13.9,9.679-27.654,15.363-41.251,1.229-2.919,2.535-5.684,3.687-8.6a2.689,2.689,0,0,1,3.226-1.844c3.457,0,6.913.691,10.37.768a104.394,104.394,0,0,0,52.466-11.522,48.548,48.548,0,0,0,15.363-12.444,70.359,70.359,0,0,0,8.142-11.292,40.175,40.175,0,0,0,5.07-21.816,103.314,103.314,0,0,0-1.844-15.363,67.222,67.222,0,0,1-1.383-11.83,38.408,38.408,0,0,1,4.839-18.82c1.46-2.765,2.842-3.3,6.069-2.228a34.107,34.107,0,0,1,13.75,7.835,11.674,11.674,0,0,0,2.228,2.151,26.272,26.272,0,0,1,8.68,8.373,29.959,29.959,0,0,1,6.376,20.817,52.005,52.005,0,0,1-4.839,18.9,102.322,102.322,0,0,1-13.366,21.739C197,135.792,195.382,137.636,193.846,139.48Z" transform="translate(407.38 357.655)" fill="#f37c0d" opacity="0.5" style="mix-blend-mode: multiply;isolation: isolate"/>
        <path id="Path_1248" data-name="Path 1248" d="M95.592,88.667A102.705,102.705,0,0,1,74.314,65.622c-3.841-5.531-3.687-5.608,1.92-9.679,2.228-1.613,2.919-1.536,4.609.845A162.461,162.461,0,0,0,93.826,72.843c1.306,1.383,2.688,2.689,4.071,3.918a29.5,29.5,0,0,1,4.379,4.379,13.827,13.827,0,0,0,4.3,3.61L121.94,95.273a11.366,11.366,0,0,1,2.458,2.612,3.226,3.226,0,0,1-2.151,5.147,8.066,8.066,0,0,1-5.531-.691,60.836,60.836,0,0,1-15.363-8.911Z" transform="translate(478.979 366.373)" fill="#c94a28"/>
        <path id="Path_1249" data-name="Path 1249" d="M87.24,88.782A57.767,57.767,0,0,1,76.255,78.1a22.354,22.354,0,0,1-5.3-11.6,13.75,13.75,0,0,1,0-3.073,3.457,3.457,0,0,1,2.228-3.226,4.071,4.071,0,0,1,4.3.922,5.685,5.685,0,0,1,1.46,2.074,49.7,49.7,0,0,0,8.834,12.521,51.161,51.161,0,0,0,7.682,7.3c4.839,3.226,9.833,6.222,14.9,9.218,3.534,2.074,7.221,3.918,10.831,5.992s2.689,2.535.922,4.916a1.614,1.614,0,0,0,0,.461c-3.38,4.379-4.071,4.686-8.911,2A130.129,130.129,0,0,1,87.24,88.782Z" transform="translate(473.504 400.44)" fill="#c94a28"/>
        <path id="Path_1250" data-name="Path 1250" d="M79.2,85.109c-4.455-3.38-7.682-7.682-11.138-10.831a8.758,8.758,0,0,1-1.767-2.535,2.842,2.842,0,0,1,0-2.919c1-2,2.074-3.918,3.226-5.838a1.844,1.844,0,0,1,2.689,0,19.744,19.744,0,0,1,2.228,2.151A111.075,111.075,0,0,0,87.185,77.889a141.345,141.345,0,0,0,21.509,13.981,33.564,33.564,0,0,1,3.687,1.92,4.071,4.071,0,0,1,1.767,4.455,3.918,3.918,0,0,1-3.457,2.765,10.369,10.369,0,0,1-3.073,0,22.584,22.584,0,0,1-7.682-2.381,63.3,63.3,0,0,1-13.289-7.682C84.266,88.182,80.886,87.337,79.2,85.109Z" transform="translate(440.22 416.865)" fill="#c94a28"/>
        <path id="Path_1251" data-name="Path 1251" d="M75.374,85.643a29.267,29.267,0,0,1-7.682-7.682,10.984,10.984,0,0,1-2-4.686A4.686,4.686,0,0,1,68,68.436a3.764,3.764,0,0,1,4.3.768,49.49,49.49,0,0,1,4.3,3.687,58.694,58.694,0,0,0,7.682,6.3A64.065,64.065,0,0,0,101.645,88.1c1.92.768,4.379.768,5.608,3-.845,2.074-3,2.689-4.455,4.071l-1.306.922a5.3,5.3,0,0,1-5.761.768c-3.3-1.46-6.76-2.612-9.909-4.379a40.4,40.4,0,0,1-10.447-6.837Z" transform="translate(438.512 454.74)" fill="#c94a28"/>
        <path id="Path_1252" data-name="Path 1252" d="M68.846,85.673l-5.224-3.918a3.61,3.61,0,0,1-1.075-4.225A22.047,22.047,0,0,1,65.7,70.54c3,0,4.609,2.458,6.145,4.3a107.523,107.523,0,0,0,9.986,7.682c1.767,1.69,3.764,3.073,5.608,4.609a3.764,3.764,0,0,1,1.46,4.148A4.609,4.609,0,0,1,84.44,94.2,13.135,13.135,0,0,1,78.6,92.51,40.712,40.712,0,0,1,68.846,85.673Z" transform="translate(416.003 471.225)" fill="#c94a28"/>
        <path id="Path_1253" data-name="Path 1253" d="M91.1,102.835A29.037,29.037,0,0,1,80.344,86.549a16.055,16.055,0,0,1,3.764-15.363,32.8,32.8,0,0,1,4.148-3.841,91.182,91.182,0,0,1,37.026-16.823,67.369,67.369,0,0,1,21.509-1.46,38.408,38.408,0,0,1,17.821,6.453,19.818,19.818,0,0,1,9.295,16.208,12.674,12.674,0,0,1-.691,5.608,24.121,24.121,0,0,1-25.2,17.361,67.213,67.213,0,0,1-18.206-3.226c-6.529-1.92-6.376-1.69-7.682,3.918a24.275,24.275,0,0,1-6.376,9.909,14.288,14.288,0,0,1-16.746,2.458,41.1,41.1,0,0,1-7.912-4.916Z" transform="translate(532.788 325.78)" fill="#bcce44"/>
        <path id="Path_1254" data-name="Path 1254" d="M90.328,85.673A28.268,28.268,0,0,1,79.881,68.389a14.055,14.055,0,0,1,0-3.61c0-.845.615-1.075,1.46-.845A18.358,18.358,0,0,1,86.257,66.7a44.706,44.706,0,0,0,15.363,6.529,4.3,4.3,0,0,0,4.532-1.767,93.176,93.176,0,0,1,7.067-7.682,23.813,23.813,0,0,1,17.745-5.761,56,56,0,0,1,13.75,2.3,22.2,22.2,0,0,0,23.66-6.145l1.767-1.844c.615-.615,1.152-1.383,2.151-.922s.845,1.075,1,1.69a14.364,14.364,0,0,1,0,7.221,24.044,24.044,0,0,1-25.042,17.514A48.4,48.4,0,0,1,132.424,75.3c-1.613-.615-3.3-.922-4.993-1.383-3.38-.922-4.225-.461-5.147,3a23.583,23.583,0,0,1-5.377,9.909,14.672,14.672,0,0,1-19.051,3.61A50.616,50.616,0,0,1,90.328,85.673Z" transform="translate(532.944 342.481)" fill="#bcce44" opacity="0.5" style="mix-blend-mode: multiply;isolation: isolate"/>
        <path id="Path_1255" data-name="Path 1255" d="M147.6,56.03a3.3,3.3,0,0,1,1.229,3.61,3.073,3.073,0,0,1-3.149,2.151,53.755,53.755,0,0,1-6.145-.768A87.339,87.339,0,0,0,106.116,62.1c-4.532.922-8.988,2.3-13.52,3.38a29.114,29.114,0,0,1-5.07.845,4.455,4.455,0,0,1-2.3-8.6,18.9,18.9,0,0,1,2.919-1.075,126.134,126.134,0,0,1,28.806-5.838,72.514,72.514,0,0,1,25.042,2.612A16.977,16.977,0,0,1,147.6,56.03Z" transform="translate(548.191 338.17)" fill="#1e9446"/>
        <path id="Path_1256" data-name="Path 1256" d="M95.976,57.173a9.527,9.527,0,0,1,1.306,1.767,3.457,3.457,0,0,1-2.688,5.3,21.354,21.354,0,0,1-10.831-2.689,4.3,4.3,0,0,1,2.3-7.682,23.046,23.046,0,0,1,9.909,3.3Z" transform="translate(548.575 359.842)" fill="#1e9446"/>
        <path id="Path_1257" data-name="Path 1257" d="M105.155,132.074a13.059,13.059,0,0,1-4.225,4.455,5.224,5.224,0,0,1-8.6-3.457,10.371,10.371,0,0,1,0-4.071,12.521,12.521,0,0,0-5.992-14.211,39.106,39.106,0,0,1-5.07-4.379,18.513,18.513,0,0,1,2.381-27.5c1.306-1.075,2.765-2,4.148-3a2.074,2.074,0,0,0,.768-2.689,34.029,34.029,0,0,1-2.689-9.218A21.509,21.509,0,0,1,102.082,44.2a15.363,15.363,0,0,1,16.208,6.837,25.426,25.426,0,0,1,5.223,13.289,76.817,76.817,0,0,1-2.458,31.8,2.15,2.15,0,0,0,0,.922A101.092,101.092,0,0,1,108.3,127.772C107.152,129.462,106.077,130.691,105.155,132.074Z" transform="translate(509.36 292.93)" fill="#294c49"/>
        <path id="Path_1258" data-name="Path 1258" d="M86.644,104.252a4.609,4.609,0,0,1-4.993,1.69,3.918,3.918,0,0,1-2.535-3,8.528,8.528,0,0,1,0-4.609,127.977,127.977,0,0,0,5.608-40.329,65.439,65.439,0,0,0-.615-6.683c0-.845-.384-1.69-.461-2.535a3.149,3.149,0,0,1,1.69-3,3.457,3.457,0,0,1,3.841.615,12.445,12.445,0,0,1,2.688,5.531,55.462,55.462,0,0,1,1.306,17.437,110.849,110.849,0,0,1-5.147,32.417,22.585,22.585,0,0,1-1.383,2.458Z" transform="translate(526.489 303.698)" fill="#1e9446"/>
        <path id="Path_1259" data-name="Path 1259" d="M85.1,52.539A10.063,10.063,0,0,1,88.019,57.3a3.841,3.841,0,0,1-6.068,4.148,11.215,11.215,0,0,1-4.532-6.683A3.534,3.534,0,0,1,83.1,50.849,14.6,14.6,0,0,1,85.1,52.539Z" transform="translate(515.511 333.289)" fill="#1e9446"/>
        <path id="Path_1260" data-name="Path 1260" d="M115.444,68.241a117.681,117.681,0,0,1,12.444-28.96A55.385,55.385,0,0,1,142.023,22.92a32.032,32.032,0,0,1,31.8-4.148,20.976,20.976,0,0,0,3.3,1.229,31.648,31.648,0,0,1,25.2,23.045,61.454,61.454,0,0,1,1.613,23.583,127.05,127.05,0,0,1-6.376,28.192,310.955,310.955,0,0,1-30.727,63.527,542.644,542.644,0,0,1-35.643,50.776l-8.834,10.831c-.615.768-1.383,1.536-2.074,2.3a8.143,8.143,0,0,1-13.75-4.455c-.461-3.764-1-7.682-1.229-11.292-.845-13.443-1.46-26.886-1.536-40.329A465.656,465.656,0,0,1,106,117.634a295.034,295.034,0,0,1,5.454-33.646C112.679,78.458,114.369,72.85,115.444,68.241Z" transform="translate(693.264 108.876)" fill="#f37c0d"/>
        <path id="Path_1261" data-name="Path 1261" d="M198.247,92.777a290.521,290.521,0,0,1-29.421,62.529A484.826,484.826,0,0,1,141.4,196.1c-6.3,8.219-12.367,16.592-19.2,24.351l-1.383,1.536a7.682,7.682,0,0,1-9.832,2.074,6.606,6.606,0,0,1-4.379-5.3c-.461-3.764-1-7.682-1.229-11.369-1-14.6-1.613-29.267-1.613-43.939v-9.295a2.766,2.766,0,0,1,2.228-3c3.3-1,6.606-2,9.832-3.226a103.242,103.242,0,0,0,44.17-30.727,47.625,47.625,0,0,0,9.833-17.514,73.9,73.9,0,0,0,3.3-13.52,40.943,40.943,0,0,0-3.687-22.2,106.09,106.09,0,0,0-7.682-13.52,59.829,59.829,0,0,1-5.838-10.37A38.408,38.408,0,0,1,153.232,20.8c0-3.073,1.383-4.071,4.763-4.379a33.108,33.108,0,0,1,15.363,2.3,9.6,9.6,0,0,0,2.842,1.152,25.81,25.81,0,0,1,11.062,4.148,30.727,30.727,0,0,1,13.827,16.823,53.775,53.775,0,0,1,2.689,19.358,99.25,99.25,0,0,1-3.994,25.5A24.492,24.492,0,0,1,198.247,92.777Z" transform="translate(693.192 108.768)" fill="#f37c0d" opacity="0.5" style="mix-blend-mode: multiply;isolation: isolate"/>
        <path id="Path_1262" data-name="Path 1262" d="M139.706,44.285A100.477,100.477,0,0,1,110.9,30.919c-5.608-3.687-5.608-3.764-1.92-9.679,1.383-2.381,2.074-2.535,4.532-1a180.041,180.041,0,0,0,18.129,9.909q2.689,1.152,5.3,2.074a26.194,26.194,0,0,1,5.684,2.381A14.672,14.672,0,0,0,148,36.3q9.064,1.844,18.206,3.918a8.757,8.757,0,0,1,3.226,1.459,3.3,3.3,0,0,1,0,5.608,8.911,8.911,0,0,1-5.377,1.46,61.453,61.453,0,0,1-17.9-2.3Z" transform="translate(711.021 128.453)" fill="#c94a28"/>
        <path id="Path_1263" data-name="Path 1263" d="M132.524,46.55a57.843,57.843,0,0,1-14.211-5.684,23.045,23.045,0,0,1-9.295-8.68,13.29,13.29,0,0,1-1.229-2.842,3.3,3.3,0,0,1,.768-3.764,4.071,4.071,0,0,1,4.379-.845,7.681,7.681,0,0,1,2.151,1.306,46.09,46.09,0,0,0,13.136,8.066,48.852,48.852,0,0,0,10.14,3.764c5.684,1.152,11.446,2,17.284,2.842,4.071.615,8.143.922,12.291,1.46,2.842,0,3.38,1.229,2.689,4.225a1.076,1.076,0,0,1,0,.461c-1.383,5.377-1.92,5.838-7.682,5.3a130.588,130.588,0,0,1-30.419-5.608Z" transform="translate(718.28 163.137)" fill="#c94a28"/>
        <path id="Path_1264" data-name="Path 1264" d="M122.48,46.6c-5.454-1.383-9.679-4.148-14.441-5.684a13.75,13.75,0,0,1-2.612-1.69,2.842,2.842,0,0,1-1.383-2.612A47,47,0,0,1,104.813,30a1.844,1.844,0,0,1,2.381-1.383,18.358,18.358,0,0,1,2.842,1.152,111.3,111.3,0,0,0,16.592,6.914A135.738,135.738,0,0,0,151.9,41.448a15.2,15.2,0,0,1,4.148.384,3.994,3.994,0,0,1,3.3,3.457A3.918,3.918,0,0,1,157.2,49.13a9.066,9.066,0,0,1-2.842,1.075,23.661,23.661,0,0,1-7.682.615,64.449,64.449,0,0,1-15.363-2.228C128.318,47.517,124.862,48.055,122.48,46.6Z" transform="translate(695.138 190.516)" fill="#c94a28"/>
        <path id="Path_1265" data-name="Path 1265" d="M119.923,48.105a27.963,27.963,0,0,1-9.6-3.994,10.14,10.14,0,0,1-3.61-3.61,4.455,4.455,0,0,1,0-5.3,3.917,3.917,0,0,1,4.3-1c1.767.615,3.61,1.075,5.3,1.844a65.531,65.531,0,0,0,9.295,3,63.681,63.681,0,0,0,19.435,1.613c2.151,0,4.379-.922,6.376.615,0,2.228-1.767,3.687-2.612,5.454a13.344,13.344,0,0,1-.845,1.383,5.454,5.454,0,0,1-5.07,2.919H132.06a40.4,40.4,0,0,1-12.137-2.919Z" transform="translate(707.144 226.645)" fill="#c94a28"/>
        <path id="Path_1266" data-name="Path 1266" d="M113.168,50.829l-6.376-2a3.457,3.457,0,0,1-2.612-3.457,18.512,18.512,0,0,1,0-7.682,8.527,8.527,0,0,1,7.221,1.613,89.186,89.186,0,0,0,12.291,3.534c2.3.845,4.609,1.383,6.914,2.151a3.687,3.687,0,0,1,2.919,3.226,4.763,4.763,0,0,1-2.919,4.455,13.9,13.9,0,0,1-6.145.615A40.634,40.634,0,0,1,113.168,50.829Z" transform="translate(693.389 250.27)" fill="#c94a28"/>
        <path id="Path_1267" data-name="Path 1267" d="M132.337,79.513a28.576,28.576,0,0,1-16.131-10.985,16.055,16.055,0,0,1-2.381-15.363,26.045,26.045,0,0,1,2.381-5.147A91.719,91.719,0,0,1,144.09,18.674a65.371,65.371,0,0,1,19.435-9.525,38.408,38.408,0,0,1,18.9-.845,20.049,20.049,0,0,1,14.6,10.677,13.059,13.059,0,0,1,1.46,5.377,24.12,24.12,0,0,1-16.592,25.734,74.283,74.283,0,0,1-18.129,3.918c-6.837.691-6.606.845-5.915,6.683a23.045,23.045,0,0,1-2.151,11.6,14.442,14.442,0,0,1-14.518,8.6,43.94,43.94,0,0,1-8.834-1.383Z" transform="translate(753.955 50.055)" fill="#bcce44"/>
        <path id="Path_1268" data-name="Path 1268" d="M130.791,71.52a28.345,28.345,0,0,1-16.285-12.06,17.673,17.673,0,0,1-1.536-3.226c0-.845,0-1.306,1-1.383a19.664,19.664,0,0,1,5.608.691,46.7,46.7,0,0,0,16.976,0,4.378,4.378,0,0,0,3.534-3.38,85.327,85.327,0,0,1,3.841-9.525,23.506,23.506,0,0,1,14.211-12.06,54.692,54.692,0,0,1,13.6-3.149,22.277,22.277,0,0,0,19.588-14.672,6.126,6.126,0,0,1,.922-2.381c.384-.768.538-1.767,1.613-1.69a1.843,1.843,0,0,1,1.536,1.229,13.519,13.519,0,0,1,2.381,6.76A23.813,23.813,0,0,1,181.26,42.406,46.781,46.781,0,0,1,165.9,46.093a39.174,39.174,0,0,0-5.147.615c-3.457.461-4.071,1.229-3.61,4.763a24.273,24.273,0,0,1-1.229,11.215A14.6,14.6,0,0,1,139.7,73.21,46.09,46.09,0,0,1,130.791,71.52Z" transform="translate(754.81 57.894)" fill="#bcce44" opacity="0.5" style="mix-blend-mode: multiply;isolation: isolate"/>
        <path id="Path_1269" data-name="Path 1269" d="M173.5,9.569a3.226,3.226,0,0,1,2.458,2.919,3,3,0,0,1-2.074,3.226,48.866,48.866,0,0,1-5.992,1.536A90.106,90.106,0,0,0,137.163,31c-3.841,2.612-7.682,5.531-11.215,8.3a31.882,31.882,0,0,1-4.379,2.689,5.3,5.3,0,0,1-6.222-.845,5.3,5.3,0,0,1,.768-6.222,30.726,30.726,0,0,1,2.3-2.151,127.67,127.67,0,0,1,24.428-16.285,74.205,74.205,0,0,1,24.12-7.221A18.9,18.9,0,0,1,173.5,9.569Z" transform="translate(766.183 60.773)" fill="#1e9446"/>
        <path id="Path_1270" data-name="Path 1270" d="M128.668,14.757a15.815,15.815,0,0,1,1.844,1.152,3.457,3.457,0,0,1-.538,5.915,21.509,21.509,0,0,1-10.985,1.613,4.3,4.3,0,0,1-3.38-3.994,4.071,4.071,0,0,1,2.535-4.071,23.045,23.045,0,0,1,10.524-.615Z" transform="translate(772.373 96.221)" fill="#1e9446"/>
        <path id="Path_1271" data-name="Path 1271" d="M152.692,88.716a11.831,11.831,0,0,1-2.228,5.761,5.224,5.224,0,0,1-9.218,0,10.37,10.37,0,0,1-1.536-3.841,12.521,12.521,0,0,0-10.6-10.754,29.649,29.649,0,0,1-6.376-2.151,18.436,18.436,0,0,1-8.3-26.271c.768-1.536,1.767-2.919,2.689-4.379a2,2,0,0,0,0-2.765,33.339,33.339,0,0,1-5.915-7.221A21.432,21.432,0,0,1,117.2,8.9a15.363,15.363,0,0,1,17.514,0,25.733,25.733,0,0,1,9.756,10.447,76.815,76.815,0,0,1,9.756,30.727,4.382,4.382,0,0,0,0,1,100.933,100.933,0,0,1,0,32.954,39.384,39.384,0,0,1-1.536,4.686Z" transform="translate(723.538 41.082)" fill="#294c49"/>
        <path id="Path_1272" data-name="Path 1272" d="M133.955,62.584a4.686,4.686,0,0,1-3.994,3.534,3.918,3.918,0,0,1-3.457-1.844,8.219,8.219,0,0,1-1.383-4.379,126.827,126.827,0,0,0-10.14-39.407c-.922-2.074-2.074-3.994-3.15-5.992-.384-.768-1-1.383-1.383-2.151a3.15,3.15,0,0,1,0-3.457,3.457,3.457,0,0,1,3.841-.845,11.983,11.983,0,0,1,4.532,3.994A56.77,56.77,0,0,1,126.5,27.4a110.465,110.465,0,0,1,6.837,32.263A5.658,5.658,0,0,1,133.955,62.584Z" transform="translate(734.516 51.927)" fill="#1e9446"/>
        <path id="Path_1273" data-name="Path 1273" d="M116.723,13.734a9.833,9.833,0,0,1,4.455,3.3,3.687,3.687,0,0,1,.461,4.379,3.841,3.841,0,0,1-4.455,1.844,11.676,11.676,0,0,1-6.683-4.532,3.534,3.534,0,0,1,3.764-5.761Z" transform="translate(731.775 85.107)" fill="#1e9446"/>
        <path id="Path_1274" data-name="Path 1274" d="M76.106,55.617A120.756,120.756,0,0,1,92.315,28.655,55.615,55.615,0,0,1,108.6,14.444a31.879,31.879,0,0,1,32.033,0c1.075.538,2,1.229,3.149,1.69A31.572,31.572,0,0,1,165.6,42.559a61.454,61.454,0,0,1-1.69,23.583,126.133,126.133,0,0,1-10.14,27.5,310.5,310.5,0,0,1-39.253,58.688,524.875,524.875,0,0,1-42.249,45.4l-10.217,9.525-2.381,1.613a7.067,7.067,0,0,1-8.219.845,7.144,7.144,0,0,1-4.839-7.144V191.2c1-13.443,2.228-26.809,3.994-40.1a454.819,454.819,0,0,1,8.834-47.78A284.833,284.833,0,0,1,69.884,70.6C71.881,65.373,74.416,60.073,76.106,55.617Z" transform="translate(311.339 67.574)" fill="#f37c0d"/>
        <path id="Path_1275" data-name="Path 1275" d="M154.681,91a290.752,290.752,0,0,1-37.717,57.92c-10.447,12.675-21.2,25.042-32.8,36.718-7.682,7.3-14.518,14.749-22.354,21.509L60.2,208.532a7.682,7.682,0,0,1-9.909.615,6.529,6.529,0,0,1-3.687-5.838V191.939c1.075-14.672,2.458-29.267,4.455-43.785.384-3.073,1-6.145,1.383-9.218a2.842,2.842,0,0,1,2.689-2.612c3.38-.538,6.837-1.075,10.217-1.844a104.394,104.394,0,0,0,47.934-24.274,47.549,47.549,0,0,0,12.06-15.978,70.283,70.283,0,0,0,5.147-12.982,40.482,40.482,0,0,0-.615-22.43,99.858,99.858,0,0,0-5.608-14.442,58.921,58.921,0,0,1-4.3-11.062,38.408,38.408,0,0,1,0-19.511c.768-3,2-3.841,5.3-3.61a33.492,33.492,0,0,1,15.363,4.379,10.14,10.14,0,0,0,2.612,1.536,27.193,27.193,0,0,1,10.37,5.608A30.727,30.727,0,0,1,164.9,40.226a52.082,52.082,0,0,1,0,19.511,98.71,98.71,0,0,1-7.682,24.735Z" transform="translate(311.348 67.756)" fill="#f37c0d" opacity="0.5" style="mix-blend-mode: multiply;isolation: isolate"/>
        <path id="Path_1276" data-name="Path 1276" d="M82.258,41.306A103.549,103.549,0,0,1,55.833,24.022c-5.07-4.379-4.993-4.532-.538-9.909,1.767-2.151,2.381-2.151,4.609,0A163.465,163.465,0,0,0,76.573,26.4a50.683,50.683,0,0,0,4.916,2.765,33.265,33.265,0,0,1,5.3,3.149,13.9,13.9,0,0,0,5.147,2.458c5.838,2,11.6,4.148,17.437,6.3a8.3,8.3,0,0,1,3,1.92,3.226,3.226,0,0,1-.768,5.531,8.143,8.143,0,0,1-5.531.691A61.454,61.454,0,0,1,88.71,44.533Z" transform="translate(347.36 83.422)" fill="#c94a28"/>
        <path id="Path_1277" data-name="Path 1277" d="M74.358,42.6a58.843,58.843,0,0,1-13.289-7.682,22.2,22.2,0,0,1-7.682-9.833,10.986,10.986,0,0,1-.845-3,3.457,3.457,0,0,1,1.306-3.687,4.071,4.071,0,0,1,4.379,0,8.374,8.374,0,0,1,2,1.613,46.934,46.934,0,0,0,11.83,9.833,51.543,51.543,0,0,0,9.525,5.07c5.531,1.92,11.138,3.534,16.746,5.147,3.994,1.152,7.682,2.074,11.983,3.149,2.842.768,3.226,1.767,2.151,4.532v.461c-2.151,5.147-2.689,5.608-8.066,4.225A127.592,127.592,0,0,1,74.358,42.6Z" transform="translate(350.267 118.613)" fill="#c94a28"/>
        <path id="Path_1278" data-name="Path 1278" d="M65.243,41.555c-5.224-2.074-8.988-5.454-13.52-7.682a13.825,13.825,0,0,1-2.3-2,2.919,2.919,0,0,1-1.075-2.765c.538-2.228,1.075-4.379,1.69-6.453a1.767,1.767,0,0,1,2.535-1.075l2.689,1.536A108.157,108.157,0,0,0,70.62,32.26,135.349,135.349,0,0,0,94.971,40.4a15.035,15.035,0,0,1,3.994.922,4.148,4.148,0,0,1,2.842,3.918A4,4,0,0,1,99.2,48.776a13.061,13.061,0,0,1-3,.691,23.429,23.429,0,0,1-7.682-.461,62.145,62.145,0,0,1-14.826-4.379C70.927,42.938,67.471,42.938,65.243,41.555Z" transform="translate(322.74 142.706)" fill="#c94a28"/>
        <path id="Path_1279" data-name="Path 1279" d="M61.883,42.291a28.883,28.883,0,0,1-8.911-5.3,10.831,10.831,0,0,1-3.149-4.071,4.763,4.763,0,0,1,1-5.224,3.841,3.841,0,0,1,4.379,0,44.563,44.563,0,0,1,5.07,2.535,61.454,61.454,0,0,0,8.757,4.225,65.294,65.294,0,0,0,19.05,4.3c2.151,0,4.455,0,6.222,1.46,0,2.228-2.228,3.38-3.3,5.07,0,.461-.691.768-1,1.229a5.3,5.3,0,0,1-5.454,2.151A83.648,83.648,0,0,1,73.866,46.9a40.482,40.482,0,0,1-11.983-4.609Z" transform="translate(330.325 180.378)" fill="#c94a28"/>
        <path id="Path_1280" data-name="Path 1280" d="M55.12,44.643l-6.069-2.919A3.534,3.534,0,0,1,46.9,37.96a19.282,19.282,0,0,1,1.383-7.682c2.842-.768,4.993,1.229,6.913,2.535A88.492,88.492,0,0,0,66.95,38.037c2.074,1.152,4.379,2,6.529,3.073a3.687,3.687,0,0,1,2.458,3.61A4.84,4.84,0,0,1,72.4,48.715a13.828,13.828,0,0,1-6.145,0A40.175,40.175,0,0,1,55.12,44.643Z" transform="translate(313.121 201.071)" fill="#c94a28"/>
        <path id="Path_1281" data-name="Path 1281" d="M75.722,68.831A28.96,28.96,0,0,1,61.2,55.7a16.132,16.132,0,0,1,0-15.824,31.421,31.421,0,0,1,3.073-4.763A92.8,92.8,0,0,1,95.925,9.836a67.522,67.522,0,0,1,20.587-6.76A38.408,38.408,0,0,1,134.948,5a20.049,20.049,0,0,1,13.059,12.982,12.674,12.674,0,0,1,.691,5.608,24.044,24.044,0,0,1-19.972,23.045,67.522,67.522,0,0,1-18.436,1.46c-6.837,0-6.606,0-6.76,5.761a24.045,24.045,0,0,1-3.764,11.215A14.288,14.288,0,0,1,84.4,71.6a40.484,40.484,0,0,1-8.68-2.765Z" transform="translate(395.07 17.949)" fill="#bcce44"/>
        <path id="Path_1282" data-name="Path 1282" d="M74.764,57.873A28.192,28.192,0,0,1,60.322,43.738a16.6,16.6,0,0,1-1.152-3.3c0-.845,0-1.229,1.229-1.152a19.127,19.127,0,0,1,5.147,1.152,46.09,46.09,0,0,0,16.823,2.381,4.379,4.379,0,0,0,4.225-2.381,87.035,87.035,0,0,1,4.993-9.064,23.967,23.967,0,0,1,15.363-9.986,52.7,52.7,0,0,1,13.9-1.229A22.2,22.2,0,0,0,142.362,8.019l1.306-2.3a1.531,1.531,0,0,1,1.844-1.383c1.075.23,1.075.768,1.306,1.383a12.675,12.675,0,0,1,1.46,7.067,24.044,24.044,0,0,1-19.9,23.045,46.089,46.089,0,0,1-15.9,1.383h-5.147c-3.534,0-4.225.615-4.225,4.148a24.735,24.735,0,0,1-2.765,10.985A14.518,14.518,0,0,1,82.83,60.561a50.544,50.544,0,0,1-8.066-2.689Z" transform="translate(395.336 28.601)" fill="#bcce44" opacity="0.5" style="mix-blend-mode: multiply;isolation: isolate"/>
        <path id="Path_1283" data-name="Path 1283" d="M123.073,5.451a3.226,3.226,0,0,1,2.151,2.842,3.073,3.073,0,0,1-2.535,2.919,53.771,53.771,0,0,1-6.145.768,88.185,88.185,0,0,0-32.033,9.756c-4.148,2-8.143,4.455-12.291,6.606a21.277,21.277,0,0,1-4.686,2.074,5.147,5.147,0,0,1-5.992-1.69,5.223,5.223,0,0,1,1.613-6.069,18.746,18.746,0,0,1,2.535-1.767,129.205,129.205,0,0,1,26.425-12.6A72.284,72.284,0,0,1,117,4.53,17.745,17.745,0,0,1,123.073,5.451Z" transform="translate(408.634 30.016)" fill="#1e9446"/>
        <path id="Path_1284" data-name="Path 1284" d="M75.365,10.236a9.142,9.142,0,0,1,1.613,1.306,3.457,3.457,0,0,1-1.229,5.838,21.355,21.355,0,0,1-11.215,0,4.3,4.3,0,0,1-2.765-4.455,4.225,4.225,0,0,1,3.073-3.687,23.045,23.045,0,0,1,10.524,1Z" transform="translate(412.556 60.183)" fill="#1e9446"/>
        <path id="Path_1285" data-name="Path 1285" d="M92.345,85.641a13.751,13.751,0,0,1-3,5.377,5.3,5.3,0,0,1-9.218-1.152,12.215,12.215,0,0,1-1-3.994,12.521,12.521,0,0,0-9.295-12.291,29.113,29.113,0,0,1-5.992-3,18.436,18.436,0,0,1-4.686-27.116c1.075-1.383,2.151-2.689,3.3-3.994a2.074,2.074,0,0,0,0-2.842,32.187,32.187,0,0,1-4.839-7.682A21.432,21.432,0,0,1,67.38,1.6,15.363,15.363,0,0,1,84.664,4.139a26.5,26.5,0,0,1,8.45,11.6,76.817,76.817,0,0,1,5.531,31.341v1.075A100.323,100.323,0,0,1,93.959,80.8C93.5,82.415,92.806,84.412,92.345,85.641Z" transform="translate(368.537 -0.013)" fill="#294c49"/>
        <path id="Path_1286" data-name="Path 1286" d="M73.654,58.747A4.609,4.609,0,0,1,69.2,61.666a3.687,3.687,0,0,1-3.149-2.3,7.682,7.682,0,0,1-.768-4.532A128.052,128.052,0,0,0,60.6,14.423c-.615-2.151-1.46-4.225-2.228-6.376a21.128,21.128,0,0,1-1.075-2.3,3,3,0,0,1,.845-3.3,3.3,3.3,0,0,1,3.841-.384,12.214,12.214,0,0,1,3.994,4.609,55.925,55.925,0,0,1,5.684,16.592,115.61,115.61,0,0,1,2.381,32.954A23.066,23.066,0,0,1,73.654,58.747Z" transform="translate(381.543 10.673)" fill="#1e9446"/>
        <path id="Path_1287" data-name="Path 1287" d="M63.6,7.907a9.679,9.679,0,0,1,3.994,3.918,3.841,3.841,0,0,1-4.839,5.531,11.062,11.062,0,0,1-5.992-5.377,3.457,3.457,0,0,1,0-4.3,3.61,3.61,0,0,1,4.225-.845A18.357,18.357,0,0,1,63.6,7.907Z" transform="translate(374.238 43.23)" fill="#1e9446"/>
        <path id="Path_1288" data-name="Path 1288" d="M123.994,142.869A117.3,117.3,0,0,1,106.4,116.752a56.229,56.229,0,0,1-6.069-20.741,31.879,31.879,0,0,1,13.6-28.96c.922-.768,2-1.306,2.842-2.151a31.572,31.572,0,0,1,33.185-8.6,61.992,61.992,0,0,1,20.664,11.446,122.442,122.442,0,0,1,20.126,20.664,308.113,308.113,0,0,1,36.641,60.378,516.557,516.557,0,0,1,23.045,57.459c1.536,4.379,3,8.834,4.378,13.289a11.786,11.786,0,0,0,.845,3,7.144,7.144,0,0,1-2.689,7.682,7.221,7.221,0,0,1-8.6,1.383c-3.38-1.69-6.837-3.3-10.14-5.147-11.676-6.529-23.045-13.289-34.644-20.51a467.286,467.286,0,0,1-39.56-28.268,284.219,284.219,0,0,1-25.273-23.045C131.061,150.781,127.3,146.249,123.994,142.869Z" transform="translate(669.581 365.327)" fill="#f37c0d"/>
        <path id="Path_1289" data-name="Path 1289" d="M187.061,86.628a287.066,287.066,0,0,1,36.565,58.611,475.36,475.36,0,0,1,19.358,45.168c3.534,9.756,7.682,19.435,10.14,29.421a2.934,2.934,0,0,0,.538,2,7.682,7.682,0,0,1-3.61,9.295,6.376,6.376,0,0,1-6.837.768c-3.457-1.613-6.914-3.15-10.217-4.993-12.828-7.221-25.426-14.6-37.794-22.507l-7.682-5.224a2.842,2.842,0,0,1-1.306-3.534c1-3.3,2-6.606,2.689-9.986a104.394,104.394,0,0,0-1.767-53.772,49.394,49.394,0,0,0-9.372-17.745,79.193,79.193,0,0,0-9.6-10.063,40.483,40.483,0,0,0-20.664-8.6,116.146,116.146,0,0,0-15.363-1,55.693,55.693,0,0,1-11.83-.768,38.408,38.408,0,0,1-17.668-8.143c-2.381-2-2.689-3.457-1.075-6.376a33.184,33.184,0,0,1,10.063-12.214,12.062,12.062,0,0,0,2.458-1.844,27.577,27.577,0,0,1,9.525-6.99A30.112,30.112,0,0,1,145.2,55.671a52.005,52.005,0,0,1,17.745,8.219A99.86,99.86,0,0,1,182.222,81.1C183.989,82.864,185.525,84.785,187.061,86.628Z" transform="translate(671.885 365.338)" fill="#f37c0d" opacity="0.5" style="mix-blend-mode: multiply;isolation: isolate"/>
        <path id="Path_1290" data-name="Path 1290" d="M137.645,84.76a100.477,100.477,0,0,1-26.732,16.669c-6.145,2.765-6.145,2.689-9.218-3.61-1.152-2.535-.922-3.149,1.69-4.379a159.1,159.1,0,0,0,18.129-9.909,50.013,50.013,0,0,0,4.609-3.3,33.484,33.484,0,0,1,5.147-3.457,13.827,13.827,0,0,0,4.3-3.61q6.529-6.683,13.136-13.136a8.3,8.3,0,0,1,3-1.92,3.226,3.226,0,0,1,4.686,3,8.6,8.6,0,0,1-1.69,5.377,61.991,61.991,0,0,1-11.6,13.75Z" transform="translate(675.058 385.796)" fill="#c94a28"/>
        <path id="Path_1291" data-name="Path 1291" d="M136.5,93.7a57.847,57.847,0,0,1-12.444,8.68,22.507,22.507,0,0,1-12.368,3.15,18.736,18.736,0,0,1-3-.538c-1.306-.461-2.612-1.152-2.765-2.688a4.225,4.225,0,0,1,1.613-4.148,6.989,6.989,0,0,1,2.3-1.075,63.835,63.835,0,0,0,22.507-13.136c4.148-4.148,7.682-8.6,11.753-12.982,2.765-3.073,5.224-6.376,7.682-9.525s2.919-2.228,4.993,0v.384c3.687,4.071,3.841,4.763,0,9.064A129.049,129.049,0,0,1,136.5,93.7Z" transform="translate(707.241 396.829)" fill="#c94a28"/>
        <path id="Path_1292" data-name="Path 1292" d="M131.485,97.183c-4.071,3.764-8.757,5.838-12.6,8.988a19.046,19.046,0,0,1-2.842,1.306,2.842,2.842,0,0,1-2.919,0c-1.767-1.383-3.534-2.765-5.147-4.3a1.767,1.767,0,0,1,0-2.688,18.744,18.744,0,0,1,2.535-1.767A115.22,115.22,0,0,0,125.34,88.5a140.042,140.042,0,0,0,17.668-18.666c.845-1.075,1.613-2.228,2.535-3.226a4.071,4.071,0,0,1,4.763-.922,3.918,3.918,0,0,1,2.074,3.841,9.912,9.912,0,0,1-.615,3,23.042,23.042,0,0,1-3.687,6.837,65.674,65.674,0,0,1-10.14,11.522C135.326,92.8,134.02,95.877,131.485,97.183Z" transform="translate(717.321 436.133)" fill="#c94a28"/>
        <path id="Path_1293" data-name="Path 1293" d="M130.975,97.453a28.96,28.96,0,0,1-8.6,5.838,10.37,10.37,0,0,1-4.993,1.152,4.609,4.609,0,0,1-4.3-3.149,3.687,3.687,0,0,1,1.536-4.071,39.085,39.085,0,0,1,4.455-3.534,57.16,57.16,0,0,0,7.682-6.222A61.452,61.452,0,0,0,138.733,72.1c1.075-1.767,1.536-4.148,3.918-4.993,1.92,1.229,2.151,3.457,3.226,5.147a1.566,1.566,0,0,0,.615,1.46,5.07,5.07,0,0,1,0,5.761,102.245,102.245,0,0,1-6.068,8.988A41.561,41.561,0,0,1,130.975,97.453Z" transform="translate(754.626 448.307)" fill="#c94a28"/>
        <path id="Path_1294" data-name="Path 1294" d="M130.407,92.123c-1.69,1.46-3.38,2.919-5.147,4.3a3.611,3.611,0,0,1-4.3,0c-2.151-1.46-4.763-2.151-6.3-4.379.615-2.919,3.226-4.071,5.3-5.224a102,102,0,0,0,9.6-8.45c2-1.46,3.687-3.073,5.608-4.609a3.764,3.764,0,0,1,4.3-.768,4.839,4.839,0,0,1,2.074,4.916,12.98,12.98,0,0,1-2.765,5.531,41.173,41.173,0,0,1-8.373,8.68Z" transform="translate(766.102 485.209)" fill="#c94a28"/>
        <path id="Path_1295" data-name="Path 1295" d="M142.8,130.2a29.037,29.037,0,0,1-18.052,7.682,16.055,16.055,0,0,1-14.442-6.529,27.651,27.651,0,0,1-3-4.763A92.179,92.179,0,0,1,97.783,87.18a67.752,67.752,0,0,1,2.535-21.432,38.408,38.408,0,0,1,9.525-16.439A20.049,20.049,0,0,1,127.2,43.164a13.059,13.059,0,0,1,5.377,1.767,24.044,24.044,0,0,1,12.6,27.884A72.209,72.209,0,0,1,138.649,90.1c-3.15,6.145-2.842,5.992,2.381,8.6a24.121,24.121,0,0,1,8.6,8.066,14.288,14.288,0,0,1-.691,16.9A41.874,41.874,0,0,1,142.8,130.2Z" transform="translate(652.929 287.049)" fill="#bcce44"/>
        <path id="Path_1296" data-name="Path 1296" d="M123.787,130.586a27.962,27.962,0,0,1-18.974,7.144,13.981,13.981,0,0,1-3.534-.461c-.845,0-1-.845-.538-1.536a16.437,16.437,0,0,1,3.61-4.379,46.088,46.088,0,0,0,9.218-14.211,4.379,4.379,0,0,0-.922-4.763,92.866,92.866,0,0,1-6.069-8.373,23.89,23.89,0,0,1-2.458-18.436,57.227,57.227,0,0,1,4.763-13.136,22.43,22.43,0,0,0-1.69-24.428l-1.536-2.074c-.461-.691-1.152-1.383-.538-2.3a2.228,2.228,0,0,1,1.92-.615,12.675,12.675,0,0,1,6.914,1.69,24.044,24.044,0,0,1,12.752,27.884,46.09,46.09,0,0,1-5.454,14.979c-.845,1.46-1.459,3.15-2.151,4.686-1.536,3.226-1.229,4.071,2,5.608a24.5,24.5,0,0,1,8.757,7.144,14.442,14.442,0,0,1,0,19.281,42.859,42.859,0,0,1-6.068,6.3Z" transform="translate(671.401 287.121)" fill="#bcce44" opacity="0.5" style="mix-blend-mode: multiply;isolation: isolate"/>
        <path id="Path_1297" data-name="Path 1297" d="M110.666,45.078a3.226,3.226,0,0,1,5.377,3c-.538,2-1.229,3.918-1.92,5.838a88.186,88.186,0,0,0-4.993,33.031c0,4.686.614,9.295.845,13.981a23.045,23.045,0,0,1,0,5.147c0,2.612-2.3,4.686-4.071,4.686a5.223,5.223,0,0,1-4.839-3.994,21.409,21.409,0,0,1-.538-3.073,125.515,125.515,0,0,1-.461-29.421,73.359,73.359,0,0,1,7.067-24.12A16.977,16.977,0,0,1,110.666,45.078Z" transform="translate(664.242 295.197)" fill="#1e9446"/>
        <path id="Path_1298" data-name="Path 1298" d="M107.214,52.486a10.6,10.6,0,0,1,1.92-1,3.457,3.457,0,0,1,4.686,3.687,21.126,21.126,0,0,1-4.609,10.14,4.3,4.3,0,0,1-5.224.615,3.994,3.994,0,0,1-2-4.3A21.739,21.739,0,0,1,107.214,52.486Z" transform="translate(680.907 342.329)" fill="#1e9446"/>
        <path id="Path_1299" data-name="Path 1299" d="M178.274,82.255a11.445,11.445,0,0,1,3.61,4.916,5.224,5.224,0,0,1-4.916,7.682,9.756,9.756,0,0,1-3.995-.768,12.6,12.6,0,0,0-15.363,3.3,30.722,30.722,0,0,1-5.3,4.148,18.436,18.436,0,0,1-26.271-7.374c-.768-1.536-1.46-3.149-2.228-4.686a1.92,1.92,0,0,0-2.458-1.229,37.948,37.948,0,0,1-9.295,1.075A21.586,21.586,0,0,1,91.624,68.965,15.363,15.363,0,0,1,101.3,54.293a26.194,26.194,0,0,1,14.057-2.765,75.434,75.434,0,0,1,30.727,8.3l.922.461A98.4,98.4,0,0,1,174.586,78.8a40.859,40.859,0,0,1,3.687,3.457Z" transform="translate(612.152 343.594)" fill="#294c49"/>
        <path id="Path_1300" data-name="Path 1300" d="M150.766,68.318a4.763,4.763,0,0,1,.768,5.224,4,4,0,0,1-3.457,1.92,8.3,8.3,0,0,1-4.455-1.229A127.211,127.211,0,0,0,105.213,61.4a63.534,63.534,0,0,0-6.683-.615H96a3.073,3.073,0,0,1-2.689-2.151,3.38,3.38,0,0,1,1.306-3.61,11.523,11.523,0,0,1,5.915-1.69,55.539,55.539,0,0,1,17.437,1.844,113.459,113.459,0,0,1,30.727,11.753A18.758,18.758,0,0,1,150.766,68.318Z" transform="translate(622.683 355.765)" fill="#1e9446"/>
        <path id="Path_1301" data-name="Path 1301" d="M100.666,57.983a9.448,9.448,0,0,1,5.224-1.92,3.841,3.841,0,0,1,3,6.683,11.369,11.369,0,0,1-7.682,3.226,3.546,3.546,0,0,1-2.765-6.3Z" transform="translate(648.74 374.319)" fill="#1e9446"/>
        <path id="Path_1302" data-name="Path 1302" d="M49.947,84.352a38.408,38.408,0,0,1,16.285-24.2,32.34,32.34,0,0,1,17.284-6.145,40.407,40.407,0,0,1,11.83.768,30.726,30.726,0,0,1,11.676,5.3,118.376,118.376,0,0,1,19.819,18.9c1.383,1.767,2.458,3.764,3.687,5.684a1.767,1.767,0,0,0,2.612.691,89.952,89.952,0,0,1,29.267-9.986,33.57,33.57,0,0,1,14.365,0A38.409,38.409,0,0,1,189.83,81.2a36.641,36.641,0,0,1,15.363,28.422,37.487,37.487,0,0,1-1,12.368,131.971,131.971,0,0,1-15.363,37.486c-3.226,5.531-6.529,11.062-9.986,16.362a125.519,125.519,0,0,1-19.127,23.045,50.314,50.314,0,0,1-20.894,12.982,27.884,27.884,0,0,1-21.97-2.842,22.277,22.277,0,0,1-6.145-6.145,25.048,25.048,0,0,1-1.69-2.612,8.3,8.3,0,0,0-12.06-3,21.969,21.969,0,0,1-14.211,3.994A29.114,29.114,0,0,1,61.47,189.053,69.751,69.751,0,0,1,51.407,165.47a197.108,197.108,0,0,1-4.993-49.777,124.9,124.9,0,0,1,3.534-31.341Z" transform="translate(309.614 359.857)" fill="#f54752"/>
        <path id="Path_1303" data-name="Path 1303" d="M68.967,55.237c3.457.845,4.609,3.534,2.842,5.992a15.823,15.823,0,0,1-2.535,2.535,22.277,22.277,0,0,0-8.45,12.982,26.117,26.117,0,0,1-2.842,8.219,10.6,10.6,0,0,1-1.306,2.228A4.532,4.532,0,0,1,51.529,88.5a4.609,4.609,0,0,1-3.149-4.3,9.756,9.756,0,0,1,.461-3c.615-2.689,1.306-5.377,2-8.066A27.193,27.193,0,0,1,61.285,57.772a14.057,14.057,0,0,1,5.608-2.458A7.067,7.067,0,0,1,68.967,55.237Z" transform="translate(323.241 368.691)" fill="#fd8f97"/>
        <path id="Path_1304" data-name="Path 1304" d="M58.407,73.736a4.993,4.993,0,0,1-9.756.922,17.284,17.284,0,0,1,0-9.679,4.609,4.609,0,0,1,6.606-3.073,3.61,3.61,0,0,1,2.535,3A31.416,31.416,0,0,1,58.407,73.736Z" transform="translate(320.435 410.11)" fill="#fd8f97"/>
        <path id="Path_1305" data-name="Path 1305" d="M184.989,91.15a76.817,76.817,0,0,0,3-29.19,21.594,21.594,0,0,1,0-3.149,1.306,1.306,0,0,1,2-.845,19.36,19.36,0,0,1,2.3,2.074A40.713,40.713,0,0,1,202.2,83.469a41.328,41.328,0,0,1-.538,12.291,133.967,133.967,0,0,1-15.9,38.408c-3,5.07-5.992,10.063-9.141,15.363A125.824,125.824,0,0,1,156.951,173.5a50.008,50.008,0,0,1-20.894,13.059,27.347,27.347,0,0,1-21.893-2.689,22.584,22.584,0,0,1-6.837-6.913c-.845-1.152-1.536-2.381-2.381-3.457a7.682,7.682,0,0,0-9.295-2.228c-1.152.461-2.151,1.152-3.226,1.69a23.583,23.583,0,0,1-24.2-.538,29.267,29.267,0,0,1-11.062-10.6,75.433,75.433,0,0,1-10.217-27.5.768.768,0,0,1,0-.768h.845c.154,0,1.229,2.074,2,3a30.727,30.727,0,0,0,16.746,12.291,14.518,14.518,0,0,0,8.68,0c3.38-1.306,6.76-2.612,10.063-4.148a39.176,39.176,0,0,1,32.57,0,48.164,48.164,0,0,0,17.053,3.994,23.047,23.047,0,0,0,8.527-1.69,57,57,0,0,0,22.661-16.746,82.2,82.2,0,0,0,18.052-34.567A25.286,25.286,0,0,1,184.989,91.15Z" transform="translate(312.996 385.782)" fill="#7f21cd" opacity="0.5" style="mix-blend-mode: multiply;isolation: isolate"/>
        <path id="Path_1306" data-name="Path 1306" d="M71.09,76.362a22.046,22.046,0,0,1-14.9-10.754c-1.69-3.149-1.767-5.3,0-6.529s3.534-.461,5.915,1.767a46.63,46.63,0,0,0,5.608,4.532,14.211,14.211,0,0,0,16.823-1c1.075-.768,2.074-1.844,3.149-2.612a5.454,5.454,0,0,1,6.99,0,3.918,3.918,0,0,1,1.152,3.764,5.915,5.915,0,0,1-1.613,3.226,23.813,23.813,0,0,1-23.122,7.6Z" transform="translate(366.747 390.738)" fill="#7f21cd" opacity="0.5" style="mix-blend-mode: multiply;isolation: isolate"/>
        <path id="Path_1307" data-name="Path 1307" d="M75.083,120.114c-.461,1.69-.768,3.38-1.306,4.993a11.753,11.753,0,0,1-4.148,5.838,6.683,6.683,0,0,1-7.682,0,6.376,6.376,0,0,1-2.842-6.222,24.04,24.04,0,0,1,.922-4.071,66.524,66.524,0,0,0,2.689-20.894,136.427,136.427,0,0,0-3.534-33.953c-.768-3-1.69-5.915-2.612-8.911a8.3,8.3,0,0,1-.538-4.532,4.225,4.225,0,0,1,6.99-2.919,10.293,10.293,0,0,1,2.842,2.919,61.454,61.454,0,0,1,4.686,9.218,125.672,125.672,0,0,1,6.76,44.246,47.24,47.24,0,0,1-2.228,14.288Z" transform="translate(373.662 323.326)" fill="#d9741b"/>
        <path id="Path_1308" data-name="Path 1308" d="M66.536,102.262a14.364,14.364,0,0,1-6.376-3.38A7.682,7.682,0,0,1,57.625,91.2a20.973,20.973,0,0,1,2-5.3A71.056,71.056,0,0,1,80.747,61.472a65.449,65.449,0,0,1,16.362-9.756,39.638,39.638,0,0,1,9.372-2.689,14.211,14.211,0,0,1,8.987,1.46,6.222,6.222,0,0,1,3.918,5.531,31.343,31.343,0,0,1-1.613,12.137A54.924,54.924,0,0,1,105.4,87.59a53.31,53.31,0,0,1-24.12,14.442A28.96,28.96,0,0,1,66.536,102.262Z" transform="translate(383.592 326.199)" fill="#bcce44"/>
        <path id="Path_1309" data-name="Path 1309" d="M66.147,98.379a11.983,11.983,0,0,1-6.3-3.687,13.134,13.134,0,0,1-1.613-2,6.76,6.76,0,0,1,.538-7.3c1.767-1.536,3.764-.384,5.377,0a26.425,26.425,0,0,0,15.363,1.152,42.4,42.4,0,0,0,21.816-12.06,51.467,51.467,0,0,0,11.907-17.975c.845-2,1.92-3.995,2.919-5.992a1.463,1.463,0,0,1,2.842.691,35.189,35.189,0,0,1,0,4.071,30.112,30.112,0,0,1-3.3,14.057A54.694,54.694,0,0,1,82.509,98.455a29.344,29.344,0,0,1-16.362-.077Z" transform="translate(383.597 330.006)" fill="#bcce44" opacity="0.5" style="mix-blend-mode: multiply;isolation: isolate"/>
        <path id="Path_1310" data-name="Path 1310" d="M101.259,55.081a36.183,36.183,0,0,1-2.689,3.841A60.76,60.76,0,0,1,88.2,68.908a208.48,208.48,0,0,1-21.125,13.9,9.372,9.372,0,0,1-5.454,1.383,3.3,3.3,0,0,1-2.842-4.148,5.915,5.915,0,0,1,2.3-3.3c2-1.46,3.841-3,5.915-4.225,5.761-3.457,11.369-7.067,16.823-11.062,3.687-2.612,6.76-5.838,10.217-8.757a15.364,15.364,0,0,1,2.842-2.151,2.919,2.919,0,0,1,3.38,0A3.841,3.841,0,0,1,101.259,55.081Z" transform="translate(391.963 334.05)" fill="#1e9446"/>
        <path id="Path_1311" data-name="Path 1311" d="M80.707,110.857a38.408,38.408,0,0,1,6.222-28.576A32.11,32.11,0,0,1,100.6,70.144a39.868,39.868,0,0,1,11.292-3.764,28.652,28.652,0,0,1,12.752.615,117.22,117.22,0,0,1,25.5,9.986,64.928,64.928,0,0,1,5.531,3.841,1.69,1.69,0,0,0,2.689,0,89.184,89.184,0,0,1,23.045-20.2A33.415,33.415,0,0,1,194.7,55.165a39.408,39.408,0,0,1,14.365.538,36.565,36.565,0,0,1,25.273,20.433,38.871,38.871,0,0,1,3.687,11.753,131.584,131.584,0,0,1-.461,40.713c-.922,6.3-1.844,12.675-3.073,18.9a124.987,124.987,0,0,1-9.064,28.576,50.7,50.7,0,0,1-14.518,19.819,27.347,27.347,0,0,1-21.355,5.608,22.048,22.048,0,0,1-7.682-3.38,18.754,18.754,0,0,1-2.535-1.767,8.3,8.3,0,0,0-12.291,1.767,22.2,22.2,0,0,1-11.6,9.064,29.8,29.8,0,0,1-24.428-3.3,69.518,69.518,0,0,1-18.436-17.975A196.569,196.569,0,0,1,89.541,141.66a129.053,129.053,0,0,1-8.834-30.8Z" transform="translate(535.268 365.691)" fill="#f54752"/>
        <path id="Path_1312" data-name="Path 1312" d="M91.736,58.074c3.534-.538,5.608,1.536,4.916,4.455a12.749,12.749,0,0,1-1.459,3.3A22.431,22.431,0,0,0,92.35,81.2a27.5,27.5,0,0,1,.461,8.68,13.43,13.43,0,0,1,0,2.535,4.609,4.609,0,0,1-4.3,3.226A4.686,4.686,0,0,1,83.977,92.8a9.986,9.986,0,0,1-.691-3c-.461-2.689-.768-5.454-1.152-8.143a27.193,27.193,0,0,1,3.841-18.282A13.751,13.751,0,0,1,90.276,59,5.837,5.837,0,0,1,91.736,58.074Z" transform="translate(546.9 387.363)" fill="#fd8f97"/>
        <path id="Path_1313" data-name="Path 1313" d="M95,74.551a4.993,4.993,0,0,1-8.68,4.455,17.054,17.054,0,0,1-3.38-9.064,4.686,4.686,0,0,1,4.993-5.3,3.764,3.764,0,0,1,3.457,1.767A31.494,31.494,0,0,1,95,74.551Z" transform="translate(553.856 431.725)" fill="#fd8f97"/>
        <path id="Path_1314" data-name="Path 1314" d="M196.331,87.559a76.816,76.816,0,0,0-8.3-28.115c0-1-.845-1.92-1.152-2.919a1.383,1.383,0,0,1,1.536-1.536,18.9,18.9,0,0,1,2.919,1.075,39.945,39.945,0,0,1,17.975,17.975,38.945,38.945,0,0,1,3.764,11.753,132.665,132.665,0,0,1-.384,41.251c-.845,5.761-1.767,11.6-2.842,17.361a124.672,124.672,0,0,1-9.218,29.574,49.469,49.469,0,0,1-14.442,19.9,27.731,27.731,0,0,1-21.355,5.838,23.045,23.045,0,0,1-8.911-3.918c-1.152-.691-2.228-1.613-3.457-2.228a7.682,7.682,0,0,0-9.448,1.383c-.845.845-1.613,1.844-2.381,2.765a23.045,23.045,0,0,1-22.584,8.6,29.421,29.421,0,0,1-14.288-5.684,75.894,75.894,0,0,1-19.819-21.585,1.229,1.229,0,0,1,0-.922.845.845,0,0,1,1-.077c1.075.615,2,1.46,3,2a29.881,29.881,0,0,0,20.2,5.07,14.211,14.211,0,0,0,7.682-3.61,90.6,90.6,0,0,0,7.682-7.682,39.253,39.253,0,0,1,30.573-12.368,49.008,49.008,0,0,0,17.284-2.689,22.2,22.2,0,0,0,7.682-4.763,57,57,0,0,0,14.672-24.044,81.271,81.271,0,0,0,3.764-38.408Z" transform="translate(560.295 367.25)" fill="#7f21cd" opacity="0.5" style="mix-blend-mode: multiply;isolation: isolate"/>
        <path id="Path_1315" data-name="Path 1315" d="M108.879,80.578a21.893,21.893,0,0,1-17.821-4.3c-2.765-2.3-3.61-4.3-2.535-6.069s3.15-1.767,6.145-.615a34.334,34.334,0,0,0,6.913,2.074,14.057,14.057,0,0,0,15.363-7.221c.768-1.075,1.229-2.458,1.921-3.61a5.531,5.531,0,0,1,6.606-2.458,4,4,0,0,1,2.458,3.073,5.608,5.608,0,0,1,0,3.534,23.89,23.89,0,0,1-19.05,15.594Z" transform="translate(588.444 387.905)" fill="#7f21cd" opacity="0.5" style="mix-blend-mode: multiply;isolation: isolate"/>
        <path id="Path_1316" data-name="Path 1316" d="M128.627,111.085c0,1.69.615,3.38.691,5.147a11.676,11.676,0,0,1-1.613,6.913,6.837,6.837,0,0,1-7.144,3,6.376,6.376,0,0,1-4.993-4.763,17.983,17.983,0,0,1-.614-4.071A67.059,67.059,0,0,0,109.5,96.874,140.957,140.957,0,0,0,93.522,66.839C91.678,64.3,89.681,62,87.684,59.157a8.988,8.988,0,0,1-2.228-3.994,4.3,4.3,0,0,1,5.377-5.377,8.91,8.91,0,0,1,3.764,1.69,59.611,59.611,0,0,1,7.682,6.76,125.905,125.905,0,0,1,23.045,38.408,46.088,46.088,0,0,1,3.3,14.441Z" transform="translate(569.696 331.279)" fill="#d9741b"/>
        <path id="Path_1317" data-name="Path 1317" d="M101.216,113.649a13.52,13.52,0,0,1-7.144-.768,7.682,7.682,0,0,1-5.147-5.915,20.126,20.126,0,0,1,0-5.684A70.363,70.363,0,0,1,99.3,70.555a66.524,66.524,0,0,1,11.446-15.363,38.409,38.409,0,0,1,7.682-6.069,14.364,14.364,0,0,1,8.911-2,6.145,6.145,0,0,1,5.684,3.687,30.729,30.729,0,0,1,3.15,11.83A55.539,55.539,0,0,1,131.943,85.3a52.926,52.926,0,0,1-17.053,22.815,28.576,28.576,0,0,1-13.673,5.531Z" transform="translate(592.805 314.274)" fill="#bcce44"/>
        <path id="Path_1318" data-name="Path 1318" d="M100.7,111.789a12.368,12.368,0,0,1-7.221-1,10.6,10.6,0,0,1-2.228-1.306,6.913,6.913,0,0,1-2.3-6.99c1.152-2,3.38-1.69,5.147-1.69A26.118,26.118,0,0,0,109,95.965a42.1,42.1,0,0,0,15.363-19.358,52.234,52.234,0,0,0,4.763-21.125,65.152,65.152,0,0,1,.461-6.683,1.46,1.46,0,0,1,1.229-1.46,1.767,1.767,0,0,1,1.613,1.075,23.043,23.043,0,0,1,1.69,3.687,28.73,28.73,0,0,1,1.767,13.673A54.539,54.539,0,0,1,116.14,105.26a29.114,29.114,0,0,1-15.44,6.529Z" transform="translate(592.937 316.211)" fill="#bcce44" opacity="0.5" style="mix-blend-mode: multiply;isolation: isolate"/>
        <path id="Path_1319" data-name="Path 1319" d="M119.715,52.109a35.487,35.487,0,0,1-1,4.532A65.6,65.6,0,0,1,112.8,69.854,192.72,192.72,0,0,1,98.437,90.671a9.3,9.3,0,0,1-4.532,3.3,3.3,3.3,0,0,1-4.148-2.765,6.068,6.068,0,0,1,.922-3.994c1.229-2,2.458-4.148,3.841-6.069,4.071-5.377,7.682-10.831,11.446-16.592,2.458-3.764,4.071-7.682,6.222-11.907a13.366,13.366,0,0,1,1.767-3.073,3.15,3.15,0,0,1,3.3-1.075,4.071,4.071,0,0,1,2.458,3.61Z" transform="translate(599.425 323.194)" fill="#1e9446"/>
        <path id="Path_1320" data-name="Path 1320" d="M45.465,87.937a38.408,38.408,0,0,1,6.069-28.576A32.109,32.109,0,0,1,65.207,47.224a39.868,39.868,0,0,1,11.6-3.764,28.652,28.652,0,0,1,12.752.615,117.22,117.22,0,0,1,25.5,9.986,64.9,64.9,0,0,1,5.531,3.841,1.69,1.69,0,0,0,2.689,0,89.184,89.184,0,0,1,23.045-20.2,33.416,33.416,0,0,1,13.289-5.454,39.407,39.407,0,0,1,14.365.538,36.565,36.565,0,0,1,25.273,20.433,38.869,38.869,0,0,1,3.687,11.753,131.588,131.588,0,0,1-.461,40.713c-.845,6.3-1.844,12.675-3.073,18.9a124.981,124.981,0,0,1-9.064,28.576,50.7,50.7,0,0,1-14.518,19.819,27.347,27.347,0,0,1-21.355,5.608,22.047,22.047,0,0,1-7.682-3.38,18.745,18.745,0,0,1-2.535-1.767,8.3,8.3,0,0,0-12.291,1.767,22.2,22.2,0,0,1-11.6,9.064,29.8,29.8,0,0,1-24.428-3.3,70.749,70.749,0,0,1-19.127-18.282,196.572,196.572,0,0,1-23.045-44.246A129.054,129.054,0,0,1,45.465,87.937Z" transform="translate(299.578 212.548)" fill="#f54752"/>
        <path id="Path_1321" data-name="Path 1321" d="M56.532,35.164c3.534-.538,5.608,1.536,4.916,4.455a12.754,12.754,0,0,1-1.46,3.3,22.43,22.43,0,0,0-2.842,15.363,27.5,27.5,0,0,1,.384,8.68,13.439,13.439,0,0,1,0,2.535,4.609,4.609,0,0,1-4.3,3.226A4.686,4.686,0,0,1,48.7,69.885a9.986,9.986,0,0,1-.691-3c-.461-2.689-.768-5.454-1.152-8.143a27.193,27.193,0,0,1,3.841-18.282A13.751,13.751,0,0,1,55,36.086a6.76,6.76,0,0,1,1.536-.922Z" transform="translate(311.171 234.286)" fill="#fd8f97"/>
        <path id="Path_1322" data-name="Path 1322" d="M59.671,51.632a4.993,4.993,0,0,1-8.68,4.455,16.9,16.9,0,0,1-3.3-9.064,4.609,4.609,0,0,1,4.916-5.3,3.764,3.764,0,0,1,3.457,1.767,31.5,31.5,0,0,1,3.61,8.143Z" transform="translate(318.25 278.581)" fill="#fd8f97"/>
        <path id="Path_1323" data-name="Path 1323" d="M161.061,64.639a76.817,76.817,0,0,0-8.3-28.115c0-1-.845-1.92-1.152-2.919a1.383,1.383,0,0,1,1.536-1.536,18.9,18.9,0,0,1,2.919,1.075,39.944,39.944,0,0,1,17.975,17.975,38.946,38.946,0,0,1,3.764,11.753,132.661,132.661,0,0,1,0,41.251c-.845,5.761-1.767,11.6-2.842,17.361a128.128,128.128,0,0,1-9.141,29.574,50.392,50.392,0,0,1-14.518,19.9,27.731,27.731,0,0,1-21.355,5.838,23.046,23.046,0,0,1-9.064-3.918c-1.152-.691-2.228-1.613-3.457-2.228a7.682,7.682,0,0,0-9.448,1.383c-.845.845-1.613,1.844-2.381,2.765a23.045,23.045,0,0,1-23.122,8.6A29.421,29.421,0,0,1,68.5,177.559a75.9,75.9,0,0,1-19.819-21.585,1.229,1.229,0,0,1,0-.922,1,1,0,0,1,.922,0c1,.615,1.92,1.459,2.919,2a30.035,30.035,0,0,0,20.2,5.07,13.98,13.98,0,0,0,7.682-3.61,90.6,90.6,0,0,0,7.682-7.682A39.253,39.253,0,0,1,118.2,138.383a49.009,49.009,0,0,0,17.284-2.689,22.2,22.2,0,0,0,7.682-4.763,57,57,0,0,0,14.672-24.044A81.271,81.271,0,0,0,161.6,68.48Z" transform="translate(324.633 214.107)" fill="#7f21cd" opacity="0.5" style="mix-blend-mode: multiply;isolation: isolate"/>
        <path id="Path_1324" data-name="Path 1324" d="M73.609,57.628a21.893,21.893,0,0,1-17.821-4.3c-2.765-2.3-3.61-4.3-2.535-6.069S56.4,45.49,59.4,46.643a34.341,34.341,0,0,0,6.914,2.074A14.058,14.058,0,0,0,81.675,41.5c.768-1.075,1.229-2.458,1.92-3.61A5.531,5.531,0,0,1,90.2,35.427,4,4,0,0,1,92.66,38.5a5.607,5.607,0,0,1,0,3.534A23.89,23.89,0,0,1,73.609,57.627Z" transform="translate(352.782 234.561)" fill="#7f21cd" opacity="0.5" style="mix-blend-mode: multiply;isolation: isolate"/>
        <path id="Path_1325" data-name="Path 1325" d="M93.357,88.165c0,1.69.615,3.38.691,5.147a11.676,11.676,0,0,1-1.613,6.914,6.837,6.837,0,0,1-7.144,3A6.376,6.376,0,0,1,80.3,98.459a17.976,17.976,0,0,1-.615-4.071,67.06,67.06,0,0,0-5.454-20.433A140.958,140.958,0,0,0,58.252,43.919c-1.844-2.535-3.841-4.839-5.838-7.682a9.755,9.755,0,0,1-2.228-3.994,4.3,4.3,0,0,1,5.377-5.377,8.911,8.911,0,0,1,3.764,1.69,59.61,59.61,0,0,1,7.682,6.76A125.9,125.9,0,0,1,90.054,73.724a46.089,46.089,0,0,1,3.3,14.442Z" transform="translate(334.034 178.136)" fill="#d9741b"/>
        <path id="Path_1326" data-name="Path 1326" d="M65.946,90.729a13.6,13.6,0,0,1-7.144-.768,7.682,7.682,0,0,1-5.147-5.915,20.125,20.125,0,0,1,0-5.684,70.364,70.364,0,0,1,10.37-30.727A66.521,66.521,0,0,1,75.471,32.272,38.407,38.407,0,0,1,83.153,26.2a14.365,14.365,0,0,1,8.911-2,6.145,6.145,0,0,1,5.684,3.687,30.726,30.726,0,0,1,3.149,11.83,55.537,55.537,0,0,1-4.225,22.661,52.926,52.926,0,0,1-16.9,22.43,28.576,28.576,0,0,1-13.827,5.915Z" transform="translate(357.142 161.13)" fill="#bcce44"/>
        <path id="Path_1327" data-name="Path 1327" d="M65.4,88.869a12.367,12.367,0,0,1-7.221-1,10.6,10.6,0,0,1-2.228-1.306,6.914,6.914,0,0,1-2.3-6.99c1.152-2,3.38-1.69,5.147-1.69a26.118,26.118,0,0,0,14.9-4.839A42.1,42.1,0,0,0,89.059,53.687a52.237,52.237,0,0,0,4.3-21.125,65.132,65.132,0,0,1,.461-6.683,1.459,1.459,0,0,1,1.229-1.46A1.767,1.767,0,0,1,96.664,25.5a32.492,32.492,0,0,1,1.767,3.687A30.727,30.727,0,0,1,100.2,42.856,54.924,54.924,0,0,1,80.763,82.647,29.113,29.113,0,0,1,65.4,88.869Z" transform="translate(357.074 163.067)" fill="#bcce44" opacity="0.5" style="mix-blend-mode: multiply;isolation: isolate"/>
        <path id="Path_1328" data-name="Path 1328" d="M84.445,29.373a35.492,35.492,0,0,1-1,4.532,61.454,61.454,0,0,1-5.915,13.212A182.282,182.282,0,0,1,63.167,67.781a9.3,9.3,0,0,1-4.532,3.3,3.3,3.3,0,0,1-4.148-2.765,6.069,6.069,0,0,1,.922-3.994c1.229-2,2.458-4.148,3.841-6.069,4.071-5.377,7.682-10.831,11.446-16.592,2.458-3.764,4.071-7.682,6.222-11.907a13.365,13.365,0,0,1,1.767-3.073,3.15,3.15,0,0,1,3.3-1.075,3.994,3.994,0,0,1,2.458,3.764Z" transform="translate(363.762 170.251)" fill="#1e9446"/>
        <path id="Path_1329" data-name="Path 1329" d="M77.4,71.778A39.023,39.023,0,0,1,83.391,43.2a32.877,32.877,0,0,1,13.75-12.137,40.021,40.021,0,0,1,11.215-3.687,28.96,28.96,0,0,1,12.828.538,117.529,117.529,0,0,1,25.5,10.063,53.784,53.784,0,0,1,5.454,3.841,1.844,1.844,0,0,0,2.765-.384,90.105,90.105,0,0,1,23.045-20.2,34.107,34.107,0,0,1,13.366-5.377,37.794,37.794,0,0,1,14.365.461,36.488,36.488,0,0,1,25.2,20.433,37.258,37.258,0,0,1,3.687,11.83,128.748,128.748,0,0,1,0,40.636c-.922,6.376-1.844,12.675-3.073,18.9a124.98,124.98,0,0,1-9.064,28.576,49.622,49.622,0,0,1-14.518,19.819,27.5,27.5,0,0,1-21.355,5.684,23.044,23.044,0,0,1-7.682-3.38,30.744,30.744,0,0,1-2.535-1.844,8.373,8.373,0,0,0-12.291,1.767,21.739,21.739,0,0,1-11.676,9.064,29.267,29.267,0,0,1-24.351-3.3,69.518,69.518,0,0,1-18.9-17.975,194.958,194.958,0,0,1-23.045-44.246,127.054,127.054,0,0,1-8.68-30.5Z" transform="translate(513.073 102.65)" fill="#f54752"/>
        <path id="Path_1330" data-name="Path 1330" d="M88.491,18.754c3.534-.538,5.608,1.536,4.916,4.455a12.752,12.752,0,0,1-1.46,3.3,22.431,22.431,0,0,0-2.842,15.363,28.036,28.036,0,0,1,.768,8.757,12.678,12.678,0,0,1-.461,2.458,4.455,4.455,0,0,1-4.225,3.226,4.686,4.686,0,0,1-4.532-2.842,9.527,9.527,0,0,1-.691-3c-.461-2.689-.768-5.454-1.152-8.143a26.962,26.962,0,0,1,3.841-18.282,13.519,13.519,0,0,1,4.225-4.379Q87.662,19.177,88.491,18.754Z" transform="translate(524.642 124.64)" fill="#fd8f97"/>
        <path id="Path_1331" data-name="Path 1331" d="M91.686,35.217A4.993,4.993,0,0,1,89,41.209a4.839,4.839,0,0,1-5.992-1.536,16.208,16.208,0,0,1-3.38-8.988,4.686,4.686,0,0,1,4.916-5.377,3.918,3.918,0,0,1,3.534,1.844,32.263,32.263,0,0,1,3.61,8.066Z" transform="translate(531.663 168.94)" fill="#fd8f97"/>
        <path id="Path_1332" data-name="Path 1332" d="M192.887,48.185a76.815,76.815,0,0,0-8.219-28.115,22.041,22.041,0,0,1-1.152-2.842c0-.845.691-1.767,1.536-1.536a13.135,13.135,0,0,1,2.919,1,39.945,39.945,0,0,1,17.975,17.975,38.947,38.947,0,0,1,3.764,11.753,132.661,132.661,0,0,1,0,41.251c-.845,5.838-1.767,11.6-2.842,17.361A128.283,128.283,0,0,1,197.65,134.6a50.315,50.315,0,0,1-14.442,19.972,27.731,27.731,0,0,1-21.355,5.761,23.046,23.046,0,0,1-9.295-3.764c-1.152-.691-2.228-1.613-3.457-2.228a7.682,7.682,0,0,0-9.525,1.459,27.51,27.51,0,0,0-2.3,2.765,23.583,23.583,0,0,1-22.507,8.373,30.113,30.113,0,0,1-14.288-5.608,75.2,75.2,0,0,1-19.819-21.662,1,1,0,0,1,0-.922,1.075,1.075,0,0,1,.845,0l3,2.074a30.727,30.727,0,0,0,20.126,5.07,14.748,14.748,0,0,0,7.682-3.61c2.612-2.458,5.3-4.993,7.682-7.682A39.714,39.714,0,0,1,150.1,122.159a49.316,49.316,0,0,0,17.284-2.689,21.817,21.817,0,0,0,7.682-4.763,56.536,56.536,0,0,0,14.672-24.044A81.119,81.119,0,0,0,193.5,51.872C193.194,50.643,193.118,49.414,192.887,48.185Z" transform="translate(538.159 104.505)" fill="#7f21cd" opacity="0.5" style="mix-blend-mode: multiply;isolation: isolate"/>
        <path id="Path_1333" data-name="Path 1333" d="M105.559,41.254a22.2,22.2,0,0,1-17.821-4.379c-2.765-2.228-3.61-4.3-2.535-5.992s3.15-1.844,6.145-.691a41.556,41.556,0,0,0,6.837,2.151,14.211,14.211,0,0,0,15.363-7.221c.768-1.152,1.306-2.458,2-3.687a5.454,5.454,0,0,1,6.606-2.381,3.918,3.918,0,0,1,2.458,3.073,5.378,5.378,0,0,1,0,3.457,24.044,24.044,0,0,1-19.051,15.671Z" transform="translate(566.261 124.955)" fill="#7f21cd" opacity="0.5" style="mix-blend-mode: multiply;isolation: isolate"/>
        <path id="Path_1334" data-name="Path 1334" d="M125.084,71.615c0,1.69.615,3.457.691,5.147a11.446,11.446,0,0,1-1.613,6.913,6.606,6.606,0,0,1-7.144,3,6.222,6.222,0,0,1-4.993-4.686,26.574,26.574,0,0,1-.691-4.071,64.3,64.3,0,0,0-5.377-20.433A139.654,139.654,0,0,0,89.826,27.369c-1.844-2.458-3.841-4.839-5.838-7.221a9.218,9.218,0,0,1-1.844-4.379,4.3,4.3,0,0,1,5.377-5.3,9.679,9.679,0,0,1,3.764,1.613,50.47,50.47,0,0,1,7.682,6.837,122.9,122.9,0,0,1,23.045,38.408,47.627,47.627,0,0,1,3.073,14.288Z" transform="translate(547.735 68.63)" fill="#d9741b"/>
        <path id="Path_1335" data-name="Path 1335" d="M97.8,74.394a15.364,15.364,0,0,1-7.144-.768,7.682,7.682,0,0,1-5.07-5.992,20.048,20.048,0,0,1,0-5.684A70.824,70.824,0,0,1,96.033,31.223,64.755,64.755,0,0,1,107.479,15.86a45.241,45.241,0,0,1,7.682-6.068,14.211,14.211,0,0,1,8.834-2,6.3,6.3,0,0,1,5.761,3.687,32.953,32.953,0,0,1,3.149,11.83,55.922,55.922,0,0,1-4.225,23.045,53.771,53.771,0,0,1-16.9,22.354A29.728,29.728,0,0,1,97.8,74.394Z" transform="translate(570.487 51.486)" fill="#bcce44"/>
        <path id="Path_1336" data-name="Path 1336" d="M97.417,72.536a11.676,11.676,0,0,1-7.221-1,8.987,8.987,0,0,1-2.228-1.306,6.76,6.76,0,0,1-2.3-6.99c1.152-2,3.38-1.69,5.147-1.613a26.809,26.809,0,0,0,14.9-4.916,41.941,41.941,0,0,0,15.363-19.358,52.237,52.237,0,0,0,4.378-21.048V9.623a1.536,1.536,0,0,1,1.69-1.613,1.613,1.613,0,0,1,1.69,1c.615,1.229,1.152,2.458,1.69,3.764a29.344,29.344,0,0,1,1.767,13.6A54.463,54.463,0,0,1,112.78,66.007a29.421,29.421,0,0,1-15.363,6.529Z" transform="translate(570.87 53.344)" fill="#bcce44" opacity="0.5" style="mix-blend-mode: multiply;isolation: isolate"/>
        <path id="Path_1337" data-name="Path 1337" d="M116.4,12.847a19.822,19.822,0,0,1-1,4.455,61.992,61.992,0,0,1-5.915,13.212A204.332,204.332,0,0,1,95.117,51.333a8.834,8.834,0,0,1-4.532,3.3,3.3,3.3,0,0,1-4.148-2.765,5.838,5.838,0,0,1,.922-3.918c1.229-2.074,2.458-4.225,3.841-6.145,4.071-5.377,7.682-10.831,11.446-16.516a125.055,125.055,0,0,0,6.145-11.983,17.127,17.127,0,0,1,1.844-3.073,3.073,3.073,0,0,1,3.457-1A3.918,3.918,0,0,1,116.4,12.847Z" transform="translate(577.241 60.414)" fill="#1e9446"/>
        <path id="Path_1338" data-name="Path 1338" d="M96.582,56.071a38.408,38.408,0,0,1,19.972-21.2,32.724,32.724,0,0,1,18.052-3.226,41.327,41.327,0,0,1,11.523,2.689,28.422,28.422,0,0,1,10.678,7.144,120.682,120.682,0,0,1,16.516,21.816c1.075,1.92,1.767,4.071,2.688,6.145a1.767,1.767,0,0,0,2.458,1.152,91.412,91.412,0,0,1,30.727-5.07,32.647,32.647,0,0,1,14.134,2.3,40.021,40.021,0,0,1,12.06,7.682,36.642,36.642,0,0,1,10.831,30.727,36.179,36.179,0,0,1-3,11.983,131.821,131.821,0,0,1-21.509,34.567c-4.071,4.916-8.219,9.756-12.521,14.518a127.668,127.668,0,0,1-22.584,19.588,50.391,50.391,0,0,1-23.045,9.372,27.808,27.808,0,0,1-21.2-6.3,23.045,23.045,0,0,1-5.147-7.144,24.34,24.34,0,0,1-1.152-2.842,8.3,8.3,0,0,0-11.446-4.839,22.047,22.047,0,0,1-14.672,1.613A29.421,29.421,0,0,1,90.9,161.386a68.521,68.521,0,0,1-6.529-24.965,195.112,195.112,0,0,1,3.149-50.008,123.907,123.907,0,0,1,9.064-30.343Z" transform="translate(560.874 210.076)" fill="#f54752"/>
        <path id="Path_1339" data-name="Path 1339" d="M112.033,33.017c3.3,1.383,3.994,4.225,1.844,6.376a12.674,12.674,0,0,1-2.919,2.074,22.047,22.047,0,0,0-10.447,11.6,27.423,27.423,0,0,1-4.148,7.682,10.445,10.445,0,0,1-1.69,1.92,4.532,4.532,0,0,1-5.3.538,4.686,4.686,0,0,1-2.381-4.763,9.909,9.909,0,0,1,.922-2.919l3.3-7.682a27.424,27.424,0,0,1,12.752-13.6,15.363,15.363,0,0,1,5.992-1.536C110.8,32.787,111.649,33.017,112.033,33.017Z" transform="translate(580.913 218.458)" fill="#fd8f97"/>
        <path id="Path_1340" data-name="Path 1340" d="M95.443,51.594a4.993,4.993,0,0,1-9.372-.768,16.746,16.746,0,0,1,1.844-9.448,4.609,4.609,0,0,1,6.99-2,3.918,3.918,0,0,1,2.074,3.38A32.341,32.341,0,0,1,95.443,51.594Z" transform="translate(574.534 257.109)" fill="#fd8f97"/>
        <path id="Path_1341" data-name="Path 1341" d="M227.493,69.847A77.354,77.354,0,0,0,235.175,41.5a5.931,5.931,0,0,1,.538-3,1.229,1.229,0,0,1,2.074-.538,19.278,19.278,0,0,1,2,2.381,39.714,39.714,0,0,1,3,36.718A131.355,131.355,0,0,1,220.964,112.1c-3.764,4.455-7.682,8.911-11.446,13.289a125.9,125.9,0,0,1-23.045,20.51,51.005,51.005,0,0,1-23.045,9.448,27.347,27.347,0,0,1-21.2-6.222,21.817,21.817,0,0,1-5.608-7.682c-.615-1.229-1.075-2.535-1.767-3.687a7.682,7.682,0,0,0-8.834-3.687,29.789,29.789,0,0,0-3.457,1.075,23.506,23.506,0,0,1-23.736-4.455,30.727,30.727,0,0,1-9.295-12.214A78.815,78.815,0,0,1,84,89.358a1.076,1.076,0,0,1,.538-.768.768.768,0,0,1,.768.384c.615,1.075.922,2.228,1.536,3.3A29.958,29.958,0,0,0,101.361,107.1a14.518,14.518,0,0,0,8.6,1c3.534-.691,7.144-1.459,10.6-2.458a39.637,39.637,0,0,1,32.186,5.07A49.7,49.7,0,0,0,168.5,117.55a23.967,23.967,0,0,0,8.757,0A57.921,57.921,0,0,0,202.3,104.645a81.5,81.5,0,0,0,23.045-31.188Z" transform="translate(561.242 251.071)" fill="#7f21cd" opacity="0.5" style="mix-blend-mode: multiply;isolation: isolate"/>
        <path id="Path_1342" data-name="Path 1342" d="M107.024,56.543A22.277,22.277,0,0,1,94.119,43.484c-1.229-3.38-.845-5.531,1-6.453s3.534,0,5.531,2.689a51.861,51.861,0,0,0,4.763,5.377,14.288,14.288,0,0,0,16.746,1.767c1.229-.615,2.381-1.46,3.533-2.151A5.531,5.531,0,0,1,132.6,46.1a3.994,3.994,0,0,1,.538,3.918,5.531,5.531,0,0,1-2.074,2.842,24.044,24.044,0,0,1-24.044,3.687Z" transform="translate(624.099 245.017)" fill="#7f21cd" opacity="0.5" style="mix-blend-mode: multiply;isolation: isolate"/>
        <path id="Path_1343" data-name="Path 1343" d="M111.668,100.3c-.691,1.613-1.229,3.226-2.074,4.763a10.985,10.985,0,0,1-4.993,5.07,6.76,6.76,0,0,1-7.682-1.152,6.529,6.529,0,0,1-1.767-6.683,23.582,23.582,0,0,1,1.536-3.841,64.066,64.066,0,0,0,6.069-20.2,136.583,136.583,0,0,0,2-34.03,62.977,62.977,0,0,0-1.152-9.218,9.37,9.37,0,0,1,0-4.609,4.3,4.3,0,0,1,7.682-1.767,10.524,10.524,0,0,1,2.3,3.457,52.461,52.461,0,0,1,3.15,9.832,124.9,124.9,0,0,1-.461,44.707,48.548,48.548,0,0,1-4.609,13.673Z" transform="translate(633.819 179.596)" fill="#d9741b"/>
        <path id="Path_1344" data-name="Path 1344" d="M104.067,74.383A14.749,14.749,0,0,1,98.383,70a7.682,7.682,0,0,1-1.306-7.682,17.438,17.438,0,0,1,2.842-4.916,70.672,70.672,0,0,1,24.735-20.664,64.3,64.3,0,0,1,17.745-6.99,41.633,41.633,0,0,1,9.679-1.152,14.057,14.057,0,0,1,8.6,2.919,6.145,6.145,0,0,1,3,6.069,30.726,30.726,0,0,1-3.533,11.753A55.845,55.845,0,0,1,144.78,66.547a53.771,53.771,0,0,1-26.118,10.293,28.806,28.806,0,0,1-14.6-2.458Z" transform="translate(645.262 190.996)" fill="#bcce44"/>
        <path id="Path_1345" data-name="Path 1345" d="M103.843,68.632a12.06,12.06,0,0,1-5.684-4.686,12.6,12.6,0,0,1-1.229-2.228,6.914,6.914,0,0,1,1.69-7.144c2-1.152,3.764,0,5.224,1.229a26.732,26.732,0,0,0,15.363,3.61,41.25,41.25,0,0,0,23.045-8.373,51.007,51.007,0,0,0,14.672-15.363c1.229-1.92,2.535-3.687,3.918-5.531a1.459,1.459,0,0,1,1.767-.615,1.844,1.844,0,0,1,.922,1.767,36.929,36.929,0,0,1-.538,4.071,29.651,29.651,0,0,1-5.608,12.6,54.694,54.694,0,0,1-37.41,23.045A29.805,29.805,0,0,1,103.843,68.632Z" transform="translate(645.178 196.594)" fill="#bcce44" opacity="0.5" style="mix-blend-mode: multiply;isolation: isolate"/>
        <path id="Path_1346" data-name="Path 1346" d="M143.682,35.115c-.768.845-1.92,2.151-3.149,3.3A61.454,61.454,0,0,1,129.01,46.56a200.571,200.571,0,0,1-23.045,10.37,9.986,9.986,0,0,1-5.608.461,3.226,3.226,0,0,1-2.074-4.532,5.684,5.684,0,0,1,2.766-2.919c2.151-1.075,4.3-2.3,6.529-3.226,6.222-2.458,12.367-5.147,18.359-8.143,4.071-2,7.682-4.686,11.522-6.99a12.444,12.444,0,0,1,3.15-1.69,3.073,3.073,0,0,1,3.3.845,3.841,3.841,0,0,1-.231,4.379Z" transform="translate(654.502 198.463)" fill="#1e9446"/>
        <path id="Path_1347" data-name="Path 1347" d="M109.394,100.723a38.409,38.409,0,0,1,4.071-28.883,32.8,32.8,0,0,1,12.828-13.059,37.948,37.948,0,0,1,10.985-4.455,28.884,28.884,0,0,1,12.828,0,123.827,123.827,0,0,1,26.041,8.3,63.527,63.527,0,0,1,5.761,3.457,1.69,1.69,0,0,0,2.689-.538A92.181,92.181,0,0,1,206.49,43.418a34.261,34.261,0,0,1,12.905-6.3,37.64,37.64,0,0,1,14.365-.461,36.488,36.488,0,0,1,26.5,18.59,38.408,38.408,0,0,1,4.532,11.523,133.885,133.885,0,0,1,2.381,40.636c-.538,6.376-1,12.752-1.844,19.05a122.141,122.141,0,0,1-7.067,29.113A49.624,49.624,0,0,1,244.9,176.388,27.577,27.577,0,0,1,224,183.455a22.2,22.2,0,0,1-8.3-2.842A18.356,18.356,0,0,1,213.1,179a8.373,8.373,0,0,0-12.137,2.612,23.045,23.045,0,0,1-10.985,9.833,29.574,29.574,0,0,1-24.581-1.613,68.134,68.134,0,0,1-19.281-16.746,192.888,192.888,0,0,1-26.348-42.556A124.132,124.132,0,0,1,109.394,100.723Z" transform="translate(722.973 241.626)" fill="#f54752"/>
        <path id="Path_1348" data-name="Path 1348" d="M118.6,40.5c3.534-.768,5.761,1.152,5.223,4.148a13.745,13.745,0,0,1-1.229,3.38,22.2,22.2,0,0,0-1.767,15.363,27.5,27.5,0,0,1,1.075,8.68,13.519,13.519,0,0,1,0,2.535,4.609,4.609,0,0,1-4.071,3.457,4.532,4.532,0,0,1-4.686-2.535,9.3,9.3,0,0,1-.922-2.919c-.615-2.689-1.152-5.377-1.767-7.682a27.27,27.27,0,0,1,2.612-18.513,14.364,14.364,0,0,1,3.994-4.609A13.576,13.576,0,0,1,118.6,40.5Z" transform="translate(734.044 269.358)" fill="#fd8f97"/>
        <path id="Path_1349" data-name="Path 1349" d="M123.691,56.413a4.916,4.916,0,0,1-8.3,4.993,16.669,16.669,0,0,1-3.994-8.757,4.609,4.609,0,0,1,4.532-5.684,3.764,3.764,0,0,1,3.61,1.536A29.034,29.034,0,0,1,123.691,56.413Z" transform="translate(743.474 313.436)" fill="#fd8f97"/>
        <path id="Path_1350" data-name="Path 1350" d="M218.6,68.312a76.815,76.815,0,0,0-10.217-27.5c-.461-.922-.922-1.844-1.306-2.765a1.306,1.306,0,0,1,1.383-1.69,19.208,19.208,0,0,1,3,.845,41.02,41.02,0,0,1,19.2,16.669,43.94,43.94,0,0,1,4.532,11.522,134.814,134.814,0,0,1,2.458,41.174c-.461,5.838-1,11.676-1.69,17.514a127.978,127.978,0,0,1-7.144,30.189,50.7,50.7,0,0,1-13.059,20.817,27.193,27.193,0,0,1-20.894,7.221,22.507,22.507,0,0,1-9.141-3.226c-1.229-.691-2.381-1.46-3.61-2.074a7.682,7.682,0,0,0-9.372,2.151,28.65,28.65,0,0,0-2.151,2.919,23.583,23.583,0,0,1-21.97,10.063,29.805,29.805,0,0,1-14.6-4.686,75.127,75.127,0,0,1-21.278-20.2,1,1,0,0,1,0-.922,1.229,1.229,0,0,1,.922,0c1,.615,2,1.306,3.073,1.844a30.112,30.112,0,0,0,20.433,3.687,14.057,14.057,0,0,0,7.682-4.148c2.458-2.612,4.993-5.3,7.221-8.143a39.638,39.638,0,0,1,29.19-14.518,47.934,47.934,0,0,0,17.053-3.841,22.508,22.508,0,0,0,6.99-5.224,56.845,56.845,0,0,0,12.9-25.5,81.425,81.425,0,0,0,1.076-38.946Z" transform="translate(752.574 242.773)" fill="#7f21cd" opacity="0.5" style="mix-blend-mode: multiply;isolation: isolate"/>
        <path id="Path_1351" data-name="Path 1351" d="M137.418,63.228a22.046,22.046,0,0,1-18.052-3.149c-2.919-2.074-3.918-4.071-2.919-5.838s2.919-2,6.069-1.075a40.406,40.406,0,0,0,6.99,1.69,14.134,14.134,0,0,0,14.672-8.3c.691-1.152,1.075-2.535,1.69-3.764a5.377,5.377,0,0,1,6.376-2.842,3.764,3.764,0,0,1,2.689,2.842,5.07,5.07,0,0,1,0,3.534,23.967,23.967,0,0,1-17.514,16.9Z" transform="translate(775.53 265.372)" fill="#7f21cd" opacity="0.5" style="mix-blend-mode: multiply;isolation: isolate"/>
        <path id="Path_1352" data-name="Path 1352" d="M159.74,89.951c0,1.69.845,3.38,1,5.07a11.293,11.293,0,0,1-1.152,7.067,6.683,6.683,0,0,1-6.914,3.457,6.453,6.453,0,0,1-5.3-4.379,24.04,24.04,0,0,1-.922-4.071,66.217,66.217,0,0,0-6.837-19.972,136.654,136.654,0,0,0-17.975-28.729c-2-2.381-4.148-4.609-6.3-6.837a9.141,9.141,0,0,1-2.458-3.918,4.3,4.3,0,0,1,4.993-5.684,8.68,8.68,0,0,1,3.841,1.46,53.234,53.234,0,0,1,8.219,6.145,122.909,122.909,0,0,1,25.5,36.8A47.78,47.78,0,0,1,159.74,89.951Z" transform="translate(752.44 212.685)" fill="#d9741b"/>
        <path id="Path_1353" data-name="Path 1353" d="M129.641,96.2a14.749,14.749,0,0,1-7.221,0,7.682,7.682,0,0,1-5.531-5.608,19.36,19.36,0,0,1-.538-5.608,71.21,71.21,0,0,1,8.3-31.648,63.679,63.679,0,0,1,10.37-15.363,39.713,39.713,0,0,1,7.3-6.606A13.75,13.75,0,0,1,151,28.835a5.992,5.992,0,0,1,5.915,3.226,30.728,30.728,0,0,1,3.918,11.6,53.772,53.772,0,0,1-2.612,23.045,53.081,53.081,0,0,1-15.363,23.583A29.113,29.113,0,0,1,129.641,96.2Z" transform="translate(777.239 192.375)" fill="#bcce44"/>
        <path id="Path_1354" data-name="Path 1354" d="M129.183,95.326a11.83,11.83,0,0,1-7.682-.538,9.218,9.218,0,0,1-2.3-1.152,6.837,6.837,0,0,1-2.765-6.76c1-2.151,3.226-1.92,4.993-2.074a25.81,25.81,0,0,0,14.518-5.838A41.482,41.482,0,0,0,150.23,58.608a51.851,51.851,0,0,0,2.919-21.355,64.744,64.744,0,0,1,0-6.683,1.613,1.613,0,0,1,1.075-1.613,1.843,1.843,0,0,1,1.767.922c.691,1.152,1.306,2.381,1.92,3.61a29.575,29.575,0,0,1,2.689,13.52,54.616,54.616,0,0,1-16.976,40.713,29.344,29.344,0,0,1-14.442,7.6Z" transform="translate(777.236 193.328)" fill="#bcce44" opacity="0.5" style="mix-blend-mode: multiply;isolation: isolate"/>
        <path id="Path_1355" data-name="Path 1355" d="M144.577,33.551a32.117,32.117,0,0,1-.691,4.609,60.84,60.84,0,0,1-4.993,13.52A200.265,200.265,0,0,1,126.065,73.5a9.6,9.6,0,0,1-4.3,3.534,3.3,3.3,0,0,1-4.379-2.458A6.529,6.529,0,0,1,118,70.577c1.152-2.151,2.151-4.3,3.457-6.376,3.687-5.608,7.144-11.369,10.293-17.284,2.151-3.994,3.534-8.219,5.3-12.367a20.2,20.2,0,0,1,1.613-3.149,2.919,2.919,0,0,1,3.226-1.229,3.764,3.764,0,0,1,2.689,3.38Z" transform="translate(783.734 200.794)" fill="#1e9446"/>
        <rect id="Rectangle_37" data-name="Rectangle 37" width="87.264" height="444.23" transform="translate(281.746 179.652)" fill="#753036"/>
        <path id="Path_1356" data-name="Path 1356" d="M68.045,33V45.83A320.089,320.089,0,0,1,45,23.4H58.75C61.977,26.7,65.126,29.853,68.045,33Z" transform="translate(300.657 156.252)" fill="#9e4841"/>
        <path id="Path_1357" data-name="Path 1357" d="M119.828,93.073v17.514A345.675,345.675,0,0,1,53.766,46.829C47.851,39.147,42.32,31.466,37.25,23.4H51.461c.845,1.306,1.844,2.535,2.689,3.764a329.083,329.083,0,0,0,65.678,65.909Z" transform="translate(248.874 156.252)" fill="#9e4841"/>
        <path id="Path_1358" data-name="Path 1358" d="M123.9,50.572V42.89A324.163,324.163,0,0,0,36.64,75.537V87.06A304.426,304.426,0,0,1,123.9,50.572Z" transform="translate(244.799 286.477)" fill="#9e4841"/>
        <path id="Path_1359" data-name="Path 1359" d="M82.039,69.106A330.316,330.316,0,0,0,123.9,82.856V71.487A300.9,300.9,0,0,1,88.261,60.195,274.233,274.233,0,0,1,36.64,33.77V46.061a289.063,289.063,0,0,0,45.4,23.045Z" transform="translate(244.799 225.541)" fill="#9e4841"/>
        <path id="Path_1360" data-name="Path 1360" d="M48.279,90.977l-11.6,7.682V112.1c6.606-4.609,13.443-9.064,20.433-13.366a567.986,567.986,0,0,1,66.523-34.107V51.34A592.64,592.64,0,0,0,48.279,90.977Z" transform="translate(245.066 342.937)" fill="#9e4841"/>
        <path id="Path_1361" data-name="Path 1361" d="M67.981,118.58A475.506,475.506,0,0,1,123.9,75.793V60.43a509.135,509.135,0,0,0-66.907,52c-7.221,6.76-13.981,13.827-20.356,21.048v17.9a287.836,287.836,0,0,1,31.341-32.8Z" transform="translate(244.799 403.674)" fill="#9e4841"/>
        <path id="Path_1362" data-name="Path 1362" d="M61.261,117.76A239.9,239.9,0,0,0,36.68,149.178v8.987h8.3a225.379,225.379,0,0,1,25.81-35.643,221,221,0,0,1,52.85-43.785V69.75a231.755,231.755,0,0,0-62.375,48.01Z" transform="translate(245.066 465.947)" fill="#9e4841"/>
        <path id="Path_1363" data-name="Path 1363" d="M123.636,401.568v65.678H36.68V23.4H58.035V46.829q0,37.1,1.306,69.135a89.393,89.393,0,0,0,.538,12.06q1.613,34.567,4.379,63.835l.922,9.6c2.3,23.045,5.147,42.94,8.3,61.453h0c.691,4.148,1.459,8.066,2.151,11.983A508.762,508.762,0,0,0,89.837,332.28c1.383,4.3,2.765,8.373,4.148,12.291a235.836,235.836,0,0,0,18.9,41.174c1.536,2.458,3,4.763,4.455,6.837a109.223,109.223,0,0,0,6.3,8.988Z" transform="translate(245.066 156.252)" fill="#753036" opacity="0.5" style="mix-blend-mode: multiply;isolation: isolate"/>
        <rect id="Rectangle_38" data-name="Rectangle 38" width="87.264" height="444.23" transform="translate(281.746 179.652)" fill="none"/>
        <ellipse id="Ellipse_1" data-name="Ellipse 1" cx="10.831" cy="7.989" rx="10.831" ry="7.989" transform="translate(332.752 204.54)" fill="#bdbdbe"/>
        <ellipse id="Ellipse_2" data-name="Ellipse 2" cx="10.831" cy="7.989" rx="10.831" ry="7.989" transform="translate(296.341 204.54)" fill="#bdbdbe"/>
        <ellipse id="Ellipse_3" data-name="Ellipse 3" cx="10.831" cy="7.989" rx="10.831" ry="7.989" transform="translate(332.752 589.084)" fill="#bdbdbe"/>
        <ellipse id="Ellipse_4" data-name="Ellipse 4" cx="10.831" cy="7.989" rx="10.831" ry="7.989" transform="translate(296.341 589.084)" fill="#bdbdbe"/>
        <rect id="Rectangle_39" data-name="Rectangle 39" width="87.264" height="444.23" transform="translate(918.479 179.652)" fill="#753036"/>
        <path id="Path_1364" data-name="Path 1364" d="M119.57,33V45.83A305,305,0,0,0,142.615,23.4h-13.75C125.946,26.7,122.873,29.853,119.57,33Z" transform="translate(798.909 156.252)" fill="#9e4841"/>
        <path id="Path_1365" data-name="Path 1365" d="M119.57,93.073v17.514a345.673,345.673,0,0,0,66.062-63.758A264.192,264.192,0,0,0,202.148,23.4h-13.9c-.845,1.306-1.767,2.535-2.689,3.764A329.081,329.081,0,0,1,119.57,93.073Z" transform="translate(798.909 156.252)" fill="#9e4841"/>
        <path id="Path_1366" data-name="Path 1366" d="M119.57,50.572V42.89a324.161,324.161,0,0,1,87.264,32.647V87.06A303.577,303.577,0,0,0,119.57,50.572Z" transform="translate(798.909 286.477)" fill="#9e4841"/>
        <path id="Path_1367" data-name="Path 1367" d="M161.742,69.106a330.31,330.31,0,0,1-42.172,13.75V71.487a300.886,300.886,0,0,0,35.643-11.292A274.231,274.231,0,0,0,206.834,33.77V46.061a289.065,289.065,0,0,1-45.091,23.045Z" transform="translate(798.909 225.541)" fill="#9e4841"/>
        <path id="Path_1368" data-name="Path 1368" d="M195.234,90.977l11.6,7.682V112.1c-6.606-4.609-13.366-9.064-20.433-13.366a562.072,562.072,0,0,0-66.83-34.107V51.34a592.637,592.637,0,0,1,75.665,39.637Z" transform="translate(798.909 342.937)" fill="#9e4841"/>
        <path id="Path_1369" data-name="Path 1369" d="M175.8,118.714a475.507,475.507,0,0,0-56.23-42.94V60.41a504.138,504.138,0,0,1,66.907,52c7.221,6.76,13.981,13.827,20.356,21.048v17.9A287.825,287.825,0,0,0,175.8,118.714Z" transform="translate(798.909 403.54)" fill="#9e4841"/>
        <path id="Path_1370" data-name="Path 1370" d="M182.252,117.76a239.9,239.9,0,0,1,24.581,31.418v8.987h-8.219a230.909,230.909,0,0,0-25.887-35.643A219.539,219.539,0,0,0,119.57,78.968V69.75a231.756,231.756,0,0,1,62.682,48.01Z" transform="translate(798.909 465.947)" fill="#9e4841"/>
        <path id="Path_1371" data-name="Path 1371" d="M119.57,401.568v65.678h87.11V23.4H185.4V46.829q0,37.1-1.306,69.135a89.389,89.389,0,0,1-.538,12.06c-1,23.045-2.535,44.323-4.379,63.835l-.922,9.6c-2.3,23.045-5.147,42.94-8.3,61.453h0c-.691,4.148-1.46,8.066-2.151,11.983A508.763,508.763,0,0,1,153.6,332.28c-1.383,4.3-2.765,8.373-4.148,12.291a230.449,230.449,0,0,1-18.9,41.174c-1.536,2.458-3,4.763-4.456,6.837a109.215,109.215,0,0,1-6.529,8.988Z" transform="translate(798.909 156.252)" fill="#753036" opacity="0.5" style="mix-blend-mode: multiply;isolation: isolate"/>
        <rect id="Rectangle_40" data-name="Rectangle 40" width="87.264" height="444.23" transform="translate(918.479 179.652)" fill="none"/>
        <ellipse id="Ellipse_5" data-name="Ellipse 5" cx="10.831" cy="7.989" rx="10.831" ry="7.989" transform="translate(933.074 204.54)" fill="#bdbdbe"/>
        <ellipse id="Ellipse_6" data-name="Ellipse 6" cx="10.831" cy="7.989" rx="10.831" ry="7.989" transform="translate(969.485 204.54)" fill="#bdbdbe"/>
        <ellipse id="Ellipse_7" data-name="Ellipse 7" cx="10.831" cy="7.989" rx="10.831" ry="7.989" transform="translate(933.074 589.084)" fill="#bdbdbe"/>
        <ellipse id="Ellipse_8" data-name="Ellipse 8" cx="10.831" cy="7.989" rx="10.831" ry="7.989" transform="translate(969.485 589.084)" fill="#bdbdbe"/>
        <rect id="Rectangle_41" data-name="Rectangle 41" width="786.679" height="87.264" transform="translate(250.405 179.652)" fill="#753036"/>
        <path id="Path_1372" data-name="Path 1372" d="M206.7,53.2a361.652,361.652,0,0,0,40.329-29.8H229.741a333.788,333.788,0,0,1-29.19,19.972A510.062,510.062,0,0,1,78.72,97.144q-23.045,6.914-46.09,12.06v1.767H80.41l2.612-.768A519.507,519.507,0,0,0,206.7,53.2Z" transform="translate(218.005 156.252)" fill="#9e4841"/>
        <path id="Path_1373" data-name="Path 1373" d="M32.6,83.24C44.353,80.014,56.106,76.4,67.628,72.179A344.754,344.754,0,0,0,158.579,23.4H141.6A338.684,338.684,0,0,1,63.711,61.347c-10.217,3.534-20.587,6.606-30.727,9.372Z" transform="translate(217.805 156.252)" fill="#9e4841"/>
        <path id="Path_1374" data-name="Path 1374" d="M209.843,23.4h-23.89A409.355,409.355,0,0,1,51.37,110.664H81.252A420.956,420.956,0,0,0,209.843,23.4Z" transform="translate(343.22 156.252)" fill="#9e4841"/>
        <path id="Path_1375" data-name="Path 1375" d="M93.6,23.4H83a275.539,275.539,0,0,0,44.323,87.264h15.363A267.246,267.246,0,0,1,93.6,23.4Z" transform="translate(554.56 156.252)" fill="#9e4841"/>
        <path id="Path_1376" data-name="Path 1376" d="M118.584,65.572A261.718,261.718,0,0,0,137.25,23.4H121.887a252.743,252.743,0,0,1-15.363,35.72A256.95,256.95,0,0,1,70.65,110.664H87.319a265.165,265.165,0,0,0,31.264-45.091Z" transform="translate(472.042 156.252)" fill="#9e4841"/>
        <path id="Path_1377" data-name="Path 1377" d="M148.318,99.141c3.38,3.918,6.837,7.682,10.447,11.522h18.129c-6.222-6.529-12.291-13.366-18.129-20.356A523.12,523.12,0,0,1,112.676,23.4H94.47a554.858,554.858,0,0,0,53.849,75.741Z" transform="translate(631.199 156.252)" fill="#9e4841"/>
        <path id="Path_1378" data-name="Path 1378" d="M185.777,79.63a508.6,508.6,0,0,1-58.15-56.23H106.81A559.074,559.074,0,0,0,177.4,90.384q13.827,10.831,28.576,20.28h24.2a357.817,357.817,0,0,1-44.4-31.034Z" transform="translate(713.651 156.252)" fill="#9e4841"/>
        <path id="Path_1379" data-name="Path 1379" d="M184.4,86.159a322.161,322.161,0,0,0,42.633,24.5h12.137v-8.219a314.951,314.951,0,0,1-48.394-25.887A249.346,249.346,0,0,1,131.624,23.4H119.41A256.491,256.491,0,0,0,184.4,86.159Z" transform="translate(797.84 156.252)" fill="#9e4841"/>
        <path id="Path_1380" data-name="Path 1380" d="M57.726,36.208A10.908,10.908,0,1,1,46.818,25.3,10.908,10.908,0,0,1,57.726,36.208Z" transform="translate(239.921 168.947)" fill="#bdbdbe"/>
        <path id="Path_1381" data-name="Path 1381" d="M57.722,41.215A10.908,10.908,0,1,1,54.638,33.3a10.908,10.908,0,0,1,3.084,7.913Z" transform="translate(239.925 200.351)" fill="#bdbdbe"/>
        <path id="Path_1382" data-name="Path 1382" d="M150.532,36.208a10.831,10.831,0,1,1-3.145-7.708,10.831,10.831,0,0,1,3.145,7.708Z" transform="translate(861.048 168.947)" fill="#bdbdbe"/>
        <path id="Path_1383" data-name="Path 1383" d="M150.526,41.215a10.831,10.831,0,1,1-3.033-7.908,10.831,10.831,0,0,1,3.033,7.908Z" transform="translate(861.054 200.351)" fill="#bdbdbe"/>
        <path id="Path_1384" data-name="Path 1384" d="M818.741,23.4H729.711C679.165,54.741,521.23,105.44,32.6,84.853v26.041H819.2V23.63Z" transform="translate(217.805 156.252)" fill="#753036" opacity="0.5" style="mix-blend-mode: multiply;isolation: isolate"/>
        <rect id="Rectangle_42" data-name="Rectangle 42" width="786.679" height="87.264" transform="translate(250.405 357.636)" fill="#753036"/>
        <path id="Path_1385" data-name="Path 1385" d="M206.7,76.3A370.872,370.872,0,0,0,247.025,46.57H229.741a346.279,346.279,0,0,1-29.19,20.049A510.061,510.061,0,0,1,78.72,120.391c-15.363,4.532-30.727,8.6-46.09,12.06v1.767H80.41l2.612-.768A522.814,522.814,0,0,0,206.7,76.3Z" transform="translate(218.005 311.066)" fill="#9e4841"/>
        <path id="Path_1386" data-name="Path 1386" d="M32.6,106.333c11.753-3.149,23.506-6.837,35.028-10.985A344.753,344.753,0,0,0,158.579,46.57H141.6A341.834,341.834,0,0,1,63.711,84.517c-10.217,3.534-20.587,6.606-30.727,9.372Z" transform="translate(217.805 311.066)" fill="#9e4841"/>
        <path id="Path_1387" data-name="Path 1387" d="M209.843,46.57h-23.89A409.355,409.355,0,0,1,51.37,133.834H81.252A423.72,423.72,0,0,0,209.843,46.57Z" transform="translate(343.22 311.066)" fill="#9e4841"/>
        <path id="Path_1388" data-name="Path 1388" d="M93.6,46.57H83a276.54,276.54,0,0,0,44.323,87.264h15.363A268.089,268.089,0,0,1,93.6,46.57Z" transform="translate(554.56 311.066)" fill="#9e4841"/>
        <path id="Path_1389" data-name="Path 1389" d="M118.584,88.742A261.721,261.721,0,0,0,137.25,46.57H121.887a252.743,252.743,0,0,1-15.363,35.72A256.949,256.949,0,0,1,70.65,133.834H87.319a265.165,265.165,0,0,0,31.264-45.091Z" transform="translate(472.042 311.066)" fill="#9e4841"/>
        <path id="Path_1390" data-name="Path 1390" d="M148.318,122.234c3.38,3.994,6.837,7.682,10.447,11.6h18.129c-6.222-6.606-12.291-13.366-18.129-20.356a523.12,523.12,0,0,1-46.09-66.907H94.47a554.145,554.145,0,0,0,53.848,75.664Z" transform="translate(631.199 311.066)" fill="#9e4841"/>
        <path id="Path_1391" data-name="Path 1391" d="M185.777,102.8a522.339,522.339,0,0,1-58.15-56.23H106.81A553.075,553.075,0,0,0,177.4,113.477q13.827,10.831,28.576,20.356h24.2a366.258,366.258,0,0,1-44.4-31.034Z" transform="translate(713.651 311.066)" fill="#9e4841"/>
        <path id="Path_1392" data-name="Path 1392" d="M184.4,109.329a330.923,330.923,0,0,0,42.633,24.5h12.137v-8.219a321.712,321.712,0,0,1-48.394-25.887A249.348,249.348,0,0,1,131.624,46.57H119.41A259.178,259.178,0,0,0,184.4,109.329Z" transform="translate(797.84 311.066)" fill="#9e4841"/>
        <path id="Path_1393" data-name="Path 1393" d="M57.693,58.572a10.908,10.908,0,1,1-10.87-9.993A10.908,10.908,0,0,1,57.693,58.572Z" transform="translate(239.954 324.49)" fill="#bdbdbe"/>
        <path id="Path_1394" data-name="Path 1394" d="M57.693,63.312a10.908,10.908,0,1,1-10.87-9.993,10.908,10.908,0,0,1,10.87,9.993Z" transform="translate(239.954 356.161)" fill="#bdbdbe"/>
        <path id="Path_1395" data-name="Path 1395" d="M150.532,59.3A10.831,10.831,0,1,1,139.7,48.47,10.831,10.831,0,0,1,150.532,59.3Z" transform="translate(861.048 323.761)" fill="#bdbdbe"/>
        <path id="Path_1396" data-name="Path 1396" d="M150.532,64.041A10.831,10.831,0,1,1,139.7,53.21a10.831,10.831,0,0,1,10.831,10.831Z" transform="translate(861.048 355.432)" fill="#bdbdbe"/>
        <path id="Path_1397" data-name="Path 1397" d="M818.741,46.57H729.711C679.165,77.911,521.23,128.61,32.6,108.023v26.118H819.2V46.8Z" transform="translate(217.805 311.066)" fill="#753036" opacity="0.5" style="mix-blend-mode: multiply;isolation: isolate"/>
        <rect id="Rectangle_43" data-name="Rectangle 43" width="786.679" height="87.264" transform="translate(250.405 535.62)" fill="#753036"/>
        <path id="Path_1398" data-name="Path 1398" d="M206.7,99.468A370.864,370.864,0,0,0,247.025,69.74H229.741a343.52,343.52,0,0,1-29.19,19.972A510.061,510.061,0,0,1,78.72,143.484c-15.363,4.609-30.727,8.6-46.09,12.137v1.767H80.41l2.612-.768A522.819,522.819,0,0,0,206.7,99.468Z" transform="translate(218.005 465.88)" fill="#9e4841"/>
        <path id="Path_1399" data-name="Path 1399" d="M32.6,129.5c11.753-3.226,23.506-6.837,35.028-10.985A344.754,344.754,0,0,0,158.579,69.74H141.6a338.459,338.459,0,0,1-77.892,37.871q-15.363,5.3-30.727,9.448Z" transform="translate(217.805 465.88)" fill="#9e4841"/>
        <path id="Path_1400" data-name="Path 1400" d="M209.843,69.74h-23.89A410.584,410.584,0,0,1,51.37,157H81.252A423.721,423.721,0,0,0,209.843,69.74Z" transform="translate(343.22 465.88)" fill="#9e4841"/>
        <path id="Path_1401" data-name="Path 1401" d="M93.6,69.74H83A277.233,277.233,0,0,0,127.246,157H142.61A268.087,268.087,0,0,1,93.6,69.74Z" transform="translate(554.56 465.88)" fill="#9e4841"/>
        <path id="Path_1402" data-name="Path 1402" d="M118.584,111.912A267.859,267.859,0,0,0,137.25,69.74H121.887a251.812,251.812,0,0,1-15.363,35.643A257.486,257.486,0,0,1,70.65,157H87.319a268.235,268.235,0,0,0,31.264-45.091Z" transform="translate(472.042 465.88)" fill="#9e4841"/>
        <path id="Path_1403" data-name="Path 1403" d="M148.318,145.4c3.38,3.918,6.837,7.682,10.447,11.6h18.129c-6.222-6.606-12.291-13.366-18.129-20.433a522.357,522.357,0,0,1-46.09-66.83H94.47A554.141,554.141,0,0,0,148.318,145.4Z" transform="translate(631.199 465.88)" fill="#9e4841"/>
        <path id="Path_1404" data-name="Path 1404" d="M185.777,125.97a522.341,522.341,0,0,1-58.15-56.23H106.81A553.08,553.08,0,0,0,177.4,136.647Q191.231,147.478,205.98,157h24.2A375.085,375.085,0,0,1,185.777,125.97Z" transform="translate(713.651 465.88)" fill="#9e4841"/>
        <path id="Path_1405" data-name="Path 1405" d="M184.4,132.422A331.454,331.454,0,0,0,227.03,157h12.137v-8.45a321.715,321.715,0,0,1-48.394-25.887A251.036,251.036,0,0,1,131.624,69.74H119.41A257.565,257.565,0,0,0,184.4,132.422Z" transform="translate(797.84 465.88)" fill="#9e4841"/>
        <path id="Path_1406" data-name="Path 1406" d="M57.726,82.471A10.908,10.908,0,1,1,46.818,71.64,10.908,10.908,0,0,1,57.726,82.471Z" transform="translate(239.921 478.575)" fill="#bdbdbe"/>
        <path id="Path_1407" data-name="Path 1407" d="M57.726,87.211A10.908,10.908,0,1,1,46.818,76.38,10.908,10.908,0,0,1,57.726,87.211Z" transform="translate(239.921 510.246)" fill="#bdbdbe"/>
        <path id="Path_1408" data-name="Path 1408" d="M150.532,82.471A10.831,10.831,0,1,1,139.7,71.64,10.831,10.831,0,0,1,150.532,82.471Z" transform="translate(861.048 478.575)" fill="#bdbdbe"/>
        <path id="Path_1409" data-name="Path 1409" d="M150.532,87.211A10.831,10.831,0,1,1,139.7,76.38,10.831,10.831,0,0,1,150.532,87.211Z" transform="translate(861.048 510.246)" fill="#bdbdbe"/>
        <path id="Path_1410" data-name="Path 1410" d="M818.741,69.74H729.711C679.165,101.081,521.23,151.78,32.6,131.193v26.118H819.2V69.894Z" transform="translate(217.805 465.88)" fill="#753036" opacity="0.5" style="mix-blend-mode: multiply;isolation: isolate"/>
        <path id="Path_1411" data-name="Path 1411" d="M10.854,52.76h4.609l4.379.768A81.129,81.129,0,0,1,28.368,55.6a81.8,81.8,0,0,1,8.3,2.919l3.994,1.69c1.383.615,2.612,1.306,3.918,2a102.78,102.78,0,0,1,27.884,21.2A117.6,117.6,0,0,1,83.292,97.237l2.535,3.61,1.229,1.844,1,1.92,4.148,7.682a61.452,61.452,0,0,1,3.61,7.682l3.38,7.682c1.844,5.454,3.457,10.985,5.224,16.516a10.6,10.6,0,0,1-20.2,6.3,2.228,2.228,0,0,1,0-.691v-1c-1.152-4.993-2.151-9.986-3.457-15.363L78.376,126.2a43.943,43.943,0,0,0-2.612-7.144l-3.073-6.99-1.229-.307-1-1.69-1.844-3.226a115.228,115.228,0,0,0-8.3-12.6,90.952,90.952,0,0,0-22.43-19.9c-1.075-.691-2.074-1.383-3.226-2l-3.38-1.69a70.434,70.434,0,0,0-6.913-3.149c-2.381-.768-4.763-1.69-7.144-2.3l-3.61-.922h-3.61a5.454,5.454,0,0,1-4.532-6.3,5.454,5.454,0,0,1,5.377-5.224Z" transform="translate(36.064 352.425)" fill="#294c49"/>
        <path id="Path_1412" data-name="Path 1412" d="M41.67,54.472c-.384.768-.845,2.074-1.229,3.149s-.768,2.381-1.152,3.61a57.385,57.385,0,0,0-1.844,7.221,115.227,115.227,0,0,0-2,15.363,155.708,155.708,0,0,0,1.536,30.727l1.229,7.682,1.69,7.682c1,5.07,2.689,10.063,4.071,15.363s3.457,9.833,5.147,14.826l5.992,14.518v.538a10.6,10.6,0,1,1-19.2,8.527v-.768l-5.3-16.131c-1.383-5.454-3-10.831-4.225-16.362a153.167,153.167,0,0,1-3.149-16.746l-1.152-8.527-.691-8.527a168.151,168.151,0,0,1,.691-34.03,125.673,125.673,0,0,1,3.457-16.823,86.809,86.809,0,0,1,2.689-8.3c.538-1.306,1-2.689,1.69-4.071a42.249,42.249,0,0,1,2.074-4.225,5.463,5.463,0,0,1,9.833,4.763Z" transform="translate(139.216 307.85)" fill="#294c49"/>
        <path id="Path_1413" data-name="Path 1413" d="M31.877,50.338a20.666,20.666,0,0,0-.691,2.458,13.239,13.239,0,0,1-.691,2.765c-.23.922-.768,3.841-1,5.838a102.164,102.164,0,0,0-.768,11.907,127.976,127.976,0,0,0,2.535,24.121,180.977,180.977,0,0,0,6.3,23.506c1.383,3.841,2.919,7.682,4.3,11.446l4.916,11.6v.461a10.561,10.561,0,0,1-19.358,8.45,4.687,4.687,0,0,1-.384-.922L22.89,139.215c-1.075-4.3-2.381-8.527-3.38-12.905a192.58,192.58,0,0,1-4.379-26.5,143.646,143.646,0,0,1,0-26.963,113.841,113.841,0,0,1,2.3-13.366q.768-3.3,1.844-6.683c.384-1.152.768-2.228,1.229-3.38s.845-2.074,1.536-3.534a5.454,5.454,0,0,1,10.063,4.148Z" transform="translate(96.85 286.096)" fill="#294c49"/>
        <path id="Path_1414" data-name="Path 1414" d="M151.934,60.709l1.92,1.536,1.613,1.46a30.725,30.725,0,0,1,3.15,3.149c2.151,2.074,3.918,4.379,5.838,6.606a45.825,45.825,0,0,1,4.993,7.144l2.3,3.687c.768,1.306,1.383,2.612,2.074,3.918a105.546,105.546,0,0,1,10.6,33.569,121.607,121.607,0,0,1,.845,17.514v8.757l-1.075,8.68a62.985,62.985,0,0,1-1.613,8.6l-1.844,8.45c-1.69,5.531-3.534,10.985-5.3,16.516a10.6,10.6,0,0,1-20.126-6.453v-.691l.384-1c1.92-4.686,3.995-9.372,5.838-14.211l2.228-7.3a60.3,60.3,0,0,0,2-7.682l1.46-7.682v-7.528a98.318,98.318,0,0,0,.461-15.363,91.334,91.334,0,0,0-6.76-29.19c-.538-1.152-.922-2.3-1.536-3.457l-1.767-3.3a69.117,69.117,0,0,0-3.841-6.529,59.394,59.394,0,0,0-4.532-6.069A29.728,29.728,0,0,0,146.787,71a9.9,9.9,0,0,0-1.229-1.306l-1.152-1.152-.384-.384a5.454,5.454,0,0,1,7.144-8.219Z" transform="translate(951.289 392.794)" fill="#294c49"/>
        <path id="Path_1415" data-name="Path 1415" d="M230,73.647a23.035,23.035,0,0,0-2.842,1.92,27.507,27.507,0,0,0-3,2.228,71.554,71.554,0,0,0-5.761,5.07,113.12,113.12,0,0,0-10.447,11.369,157.56,157.56,0,0,0-16.669,26.195l-3.457,7.067-3,7.221c-2.151,4.686-3.61,9.756-5.377,14.672s-2.919,10.063-4.379,15.363l-3.457,15.363v.538a10.548,10.548,0,0,1-20.587-4.609v-.768l4.916-16.208c2-5.3,3.841-10.6,5.992-15.824a154.655,154.655,0,0,1,7.067-15.363l3.918-7.682,4.3-7.682a172.3,172.3,0,0,1,20.51-27.27A129.349,129.349,0,0,1,210.259,73.57c2.228-1.844,4.609-3.534,6.99-5.224l3.687-2.381a40.573,40.573,0,0,1,4.148-2.228,5.454,5.454,0,0,1,7.3,2.535,5.377,5.377,0,0,1-2.074,6.99Z" transform="translate(1007.42 422.105)" fill="#294c49"/>
        <path id="Path_1416" data-name="Path 1416" d="M211.964,67.046s-1.306.922-2,1.536l-2.151,1.844c-1.383,1.383-2.842,2.689-4.148,4.225a99.3,99.3,0,0,0-7.682,9.295,135.272,135.272,0,0,0-11.83,21.125,182.305,182.305,0,0,0-8.45,23.045c-1.076,3.918-2.074,7.682-3.073,11.83l-2.458,12.06v.384a10.6,10.6,0,0,1-20.741-4.225v-1l3.995-12.752c1.536-4.225,3-8.373,4.609-12.521a199.749,199.749,0,0,1,11.83-24.12,141.049,141.049,0,0,1,15.363-22.2,115.229,115.229,0,0,1,9.6-9.756q2.535-2.3,5.3-4.379l2.919-2.074,3.3-2a5.456,5.456,0,1,1,5.838,9.218Z" transform="translate(997.726 377.546)" fill="#294c49"/>
        <path id="Path_1417" data-name="Path 1417" d="M196.589,88.637C177.385,74.887,139.054,72.2,122,92.631c-9.295,11.138-10.908,26.195,0,35.72a45.245,45.245,0,0,0,29.728,9.909,125.826,125.826,0,0,0,32.34-5.223c14.9-3.841,29.728-17.13,23.045-32.34a30.265,30.265,0,0,0-10.524-12.06Z" transform="translate(764.446 519.805)" fill="#ffda95"/>
        <path id="Path_1418" data-name="Path 1418" d="M119.739,98.914c-17.668-15.747-51.544-20.817-65.448,0a30.727,30.727,0,0,0,1.844,38.408,39.944,39.944,0,0,0,26.732,12.291,87.647,87.647,0,0,0,28.192-4.071,24.735,24.735,0,0,0,18.59-33.108,36.18,36.18,0,0,0-9.909-13.52Z" transform="translate(323.553 568.754)" fill="#294c49"/>
        <path id="Path_1419" data-name="Path 1419" d="M101.774,86.708C81.956,71.5,43.547,68.58,28.184,91.625A30.727,30.727,0,0,0,31.1,131.416,44.63,44.63,0,0,0,61.446,142.17a108.773,108.773,0,0,0,31.648-5.915c14.442-4.378,28.038-19.358,20.049-36.181a36.18,36.18,0,0,0-11.369-13.366Z" transform="translate(148.477 499.764)" fill="#ffda95"/>
      </g>
    </g>
  </g>
</svg>
