<svg xmlns="http://www.w3.org/2000/svg" xmlns:xlink="http://www.w3.org/1999/xlink" width="993.795" height="894.589" viewBox="0 0 993.795 894.589">
  <defs>
    <linearGradient id="linear-gradient" x1="22.8" y1="-4.945" x2="23.878" y2="-4.945" gradientUnits="objectBoundingBox">
      <stop offset="0" stop-color="#3076a1"/>
      <stop offset="1" stop-color="#639c38"/>
    </linearGradient>
    <linearGradient id="linear-gradient-2" x1="11.979" y1="-9.212" x2="12.864" y2="-9.212" xlink:href="#linear-gradient"/>
    <linearGradient id="linear-gradient-3" x1="26.677" y1="-5.465" x2="27.963" y2="-5.465" xlink:href="#linear-gradient"/>
    <linearGradient id="linear-gradient-4" x1="2.77" y1="9.375" x2="2.888" y2="8.746" xlink:href="#linear-gradient"/>
    <linearGradient id="linear-gradient-5" x1="23.097" y1="-4.599" x2="24.175" y2="-4.599" xlink:href="#linear-gradient"/>
    <linearGradient id="linear-gradient-6" x1="12.137" y1="-8.606" x2="13.022" y2="-8.606" xlink:href="#linear-gradient"/>
    <linearGradient id="linear-gradient-7" x1="27.037" y1="-5.078" x2="28.323" y2="-5.078" xlink:href="#linear-gradient"/>
    <linearGradient id="linear-gradient-8" x1="2.65" y1="9.627" x2="2.768" y2="8.998" xlink:href="#linear-gradient"/>
  </defs>
  <g id="Layer_2" data-name="Layer 2" transform="translate(-1886.994 314.999)">
    <g id="Layer_1" data-name="Layer 1" transform="translate(1886.994 -314.999)">
      <path id="Path_96" data-name="Path 96" d="M364.773,598.914s20.132-8.845,25.8-28.091,9.4-45.767,24.937-52.585,48.317-25.058,49.283-47.861-48.317-49.874-36.976-55.551,31.822-20.8,11.677-33.151-30.869-14.509-36.157-31.218-24.776-25.259-29.057.161-16.28,31.218-13.7,52.424,14.764,41.15-19.179,45.874-21.635,27.7-14.052,44.438,9.489,82.81,11.757,94.285S350.882,606.644,364.773,598.914Z" transform="translate(109.078 114.474)" fill="url(#linear-gradient)"/>
      <path id="Path_97" data-name="Path 97" d="M353.936,579.027s46.17-17.448,60.544-14.294,41.083,10.737,51.619-1.342,19.032-52.625,52.84-48.089,46.277-3.543,44.291-23.743,52.827-50.814,42.949-61.927-84.555,9.395-106.727,17.112-43.687-9.959-55.94,11.583-53.243,39.956-66.879,36.238S352,488.956,348.661,509.4s-17.126,32.976-20.749,45.633S319.5,577.055,353.936,579.027Z" transform="translate(111.339 145.889)" fill="url(#linear-gradient-2)"/>
      <path id="Path_98" data-name="Path 98" d="M336.843,367.676c-1.637-12.509-23.206-18.293-26.561-2.617s4.523,36.426-25.044,54.666,15.623,39.781,26.709,61.671,9.127,45.928,18.347,64.906,7.06,55.873,23.045,47.458,10.8-28.507,20.025-50.545,39.982-27.205,19.327-50.773-44.989-37.15-24.964-66.852C376.557,412.517,341.983,406.558,336.843,367.676Z" transform="translate(94.221 121.653)" fill="url(#linear-gradient-3)"/>
      <path id="Path_99" data-name="Path 99" d="M326.032,589.747s15.971-14.938,7.811-46.975-23.581-33.1,25.205-38.385,29.527-82.891,67.859-78.368,105.17-86.541,127.624-64.047-31.2,59.806-17.193,81.6,9.851,41.794-35.473,43.136,2.067,84.421-58.316,83.374S373.812,645.084,326.032,589.747Z" transform="translate(111.179 122.619)" fill="url(#linear-gradient-4)"/>
      <path id="Path_100" data-name="Path 100" d="M294.034,698.092s20.132-8.831,25.809-28.091,9.4-45.754,24.924-52.585,48.317-25.058,49.283-47.861-48.317-49.861-36.976-55.538,31.849-20.817,11.717-33.151-30.869-14.509-36.238-31.218-24.776-25.273-29.057.148-16.307,31.232-13.69,52.437,14.764,41.137-19.193,45.861-21.635,27.7-14.052,44.452,9.5,82.8,11.757,94.272S280.21,705.823,294.034,698.092Z" transform="translate(84.86 148.409)" fill="url(#linear-gradient-5)"/>
      <path id="Path_101" data-name="Path 101" d="M283.193,678.2s46.156-17.448,60.531-14.294,41.083,10.737,51.619-1.342,19.032-52.625,52.84-48.089,46.277-3.543,44.291-23.729,52.84-50.814,42.949-61.927-84.555,9.4-106.741,17.112-43.687-9.972-55.94,11.569-53.243,39.969-66.879,36.238-24.575-5.543-27.93,14.911-17.126,32.976-20.75,45.633S248.754,676.245,283.193,678.2Z" transform="translate(87.139 179.826)" fill="url(#linear-gradient-6)"/>
      <path id="Path_102" data-name="Path 102" d="M266.078,466.855c-1.637-12.5-23.206-18.293-26.561-2.617s4.523,36.479-25,54.679,15.623,39.781,26.709,61.671,9.127,45.915,18.347,64.893,7.06,55.873,23.045,47.458,10.8-28.507,20.025-50.545,39.982-27.205,19.327-50.773S276.977,554.47,297,524.769C305.779,511.669,271.178,505.737,266.078,466.855Z" transform="translate(70.029 155.588)" fill="url(#linear-gradient-7)"/>
      <path id="Path_103" data-name="Path 103" d="M255.285,688.961s15.958-14.925,7.8-46.975-23.581-33.044,25.205-38.318,29.527-82.9,67.872-78.381,105.157-86.541,127.6-64.034-31.178,59.672-17.166,81.414,9.851,41.794-35.473,43.19,2.067,84.421-58.3,83.374S303.065,744.271,255.285,688.961Z" transform="translate(86.969 156.586)" fill="url(#linear-gradient-8)"/>
      <path id="Path_104" data-name="Path 104" d="M893.453,501.2S553.891,443.343,483.7,513.725,65.311,496.667,3.706,604.172c-27.863,48.559,102.875,131.436,333.173,114.74s518.067,58.356,611.171-39.794S976.411,508.786,893.453,501.2Z" transform="translate(0.006 163.827)" fill="#665757"/>
      <path id="Path_105" data-name="Path 105" d="M672.586,545.038s-.966,10.979-2.5,14.039-5.369,18.441-7.368,21.38-5.489,24.414,1.436,26.588,23.139,5.57,28.051-3.208a35,35,0,0,0,4.026-23.756c-1.208-6.456-9.261-35.969-9.4-38.922S672.586,545.038,672.586,545.038Z" transform="translate(225.839 184.898)" fill="#ffa23d"/>
      <path id="Path_106" data-name="Path 106" d="M500.763,186.026a90.711,90.711,0,0,0-8.9-2.577c-2.523-.47-6.053-1.731-8.335-2.255s-12.307-1.584-14.764-1.181c-.993.161-6.711,3.825-8.764,3.932s-6.308-.255-6.12,1.691,3.919,3.382,3.919,3.382a2.577,2.577,0,0,0-2.2,1.973c-.644,3.4.939,4.778.939,4.778s-1.745,1.584-1.678,3.074a6.362,6.362,0,0,0,1.7,4.6,5.946,5.946,0,0,0-.242,3.825,4.926,4.926,0,0,0,3.275,3.476s.148,3.7,1.96,4.389,3.449.161,4.979.282,14.5-2.563,22.816-9.006c6.711-5.248,18.32-7.771,18.32-7.771Z" transform="translate(155.298 61.558)" fill="#eea886"/>
      <path id="Path_107" data-name="Path 107" d="M499.832,328.173,424.86,223.311l3.758-3.194a3.355,3.355,0,0,0,2.013.913,2.564,2.564,0,0,0,1.691-1.047,40.859,40.859,0,0,0,3.275-5.825c6.429-12.63,19.81-38.922,47.337-28.588,22.212,8.348,15.824,50.344,10.737,84.072-2.537,16.656-4.939,32.4-2.684,37.768ZM432.6,225.633l52.545,73.509c.161-7.717,1.745-18.159,3.584-30.238,4.617-30.292,10.925-71.764-7.543-78.7-23.38-8.791-34.976,13.972-41.19,26.2a38.46,38.46,0,0,1-3.946,6.791A7.891,7.891,0,0,1,432.6,225.633Z" transform="translate(145.37 62.684)" fill="#1d7bab"/>
      <path id="Path_108" data-name="Path 108" d="M446.225,374.063l-49.2-134.63h0l-37.312-15.9,78.381-41.459,4.791,19.8,90.38,126.161Z" transform="translate(123.08 62.292)" fill="#1d7bab"/>
      <path id="Path_109" data-name="Path 109" d="M458.737,186.466s11.462-2.792,14.67-.121-.872,3.932-.872,3.932,4.026-1.342,5.369,2.067-3.49,4.577-3.49,4.577a3.5,3.5,0,0,1,3.517,3.7c.215,3.812-4.027,3.812-4.027,3.812s4.792,2.684,1.5,5.744c-5.53,5.234-14.2,3.328-14.2,3.328s-1.96-.725-1.96-4.416c0,0-5.087-1.557-3.1-7.476,0,0-4.026-4.791,0-7.717C456.146,193.915,452.147,188.385,458.737,186.466Z" transform="translate(155.463 63.359)" fill="#d6926f"/>
      <path id="Path_110" data-name="Path 110" d="M610.852,580.505c-7.221,2.174-9.395,14.468-15.515,18.092s-36.13,6.214-37.231-3.181,12.549-17.85,18.7-22.561,21.769-21.474,24.588-27.635c0,0,1.664,3.651,7.382,3.167,7.422-.6,9.153-2.322,9.153-2.322,1.195,7.409,2.282,12.442,3.02,15.26C623.5,571.083,618.086,578.317,610.852,580.505Z" transform="translate(190.938 186.541)" fill="#ffa23d"/>
      <path id="Path_111" data-name="Path 111" d="M639.17,92.67s-20.75,2.483-29.527,14.509-11.6,30.373-13.529,36.453-28.708,63.376-30.48,64.812-26.306.51-41.056.953c-20.723.631-45.418.161-45.418.161l3.074,29.648s98.553,2.147,105.345-5.6c15.005-17.1,48.854-76.677,48.854-76.677S671.784,108.615,639.17,92.67Z" transform="translate(163.949 31.704)" fill="#ffbf55"/>
      <path id="Path_112" data-name="Path 112" d="M572.526,143.16s-1.933,26.628,3.436,43.982l5.825-8.362S571.761,152.26,572.526,143.16Z" transform="translate(195.777 48.979)" fill="#a67c36"/>
      <path id="Path_113" data-name="Path 113" d="M648.12,46.1a185.668,185.668,0,0,0,2.2,41.794,255.773,255.773,0,0,0,9.918,37.674l-33.916-11.5S624.083,48.986,648.12,46.1Z" transform="translate(214.281 15.771)" fill="#323657"/>
      <path id="Path_114" data-name="Path 114" d="M675.954,224.063s19.032,31.97,24.642,63.55,7.087,130.913,7.355,146.535,3.731,51.672,3.369,85.213c-.336,29.527-3.275,132.214-3.275,132.214l-28.091-4.187S662.6,544.567,660.761,532.219s-7.865-58.182-8.59-63.255S612.94,326.5,612.9,303.72,626.456,186.98,675.954,224.063Z" transform="translate(209.707 73.729)" fill="#538742"/>
      <path id="Path_115" data-name="Path 115" d="M590.479,233.3c-1.342,7.261-20.629,132.067-22.387,148.32-1.973,18.132-4.657,48.975-3.865,56.491,1.852,17.448,5.838,39.821,5.838,39.821L589,653.112l30.467-8.16s6.818-94.836,6.093-118.86-10.187-65.765-7.65-76.287,39.929-129.53,39.929-129.53S689.69,185.282,590.479,233.3Z" transform="translate(193.005 76.287)" fill="#538742"/>
      <path id="Path_116" data-name="Path 116" d="M589.2,265.949c-1.248,8.63-6.711,41.177-6.711,41.177,56.987,18.226,123.236-7.113,123.236-7.113-1.154-6.254-15.569-53.283-17.851-57.819s-5.7-17.354-2.322-33.178a160.8,160.8,0,0,1,8.67-24.91c2.161-5.14,3.7-8.872,6-14.535h0c9.7-24.051,19.26-50.022,17.488-54.719-3.234-8.321-18.964-12.079-26.534-13.421s-34.9-11.489-34.9-11.489H627.226s-34.372,5.65-37.674,8.831c-6.711,6.4-12.24,40.264-12.24,40.264-12.455,27.581,2.684,48.975,4.523,54.934a208.319,208.319,0,0,1,6.711,33.111C589.4,234.569,589.834,261.546,589.2,265.949Z" transform="translate(195.864 30.77)" fill="#ffbf55"/>
      <path id="Path_117" data-name="Path 117" d="M637.618.107c-10.428-1.114-35.594,6.12-38.748,44.573s6.147,57.712,14.683,61.9,32.211-2.51,42.761-21.085,23.568-61.739,8.59-73.818S637.618.107,637.618.107Z" transform="translate(204.692 -0.001)" fill="#eea886"/>
      <path id="Path_118" data-name="Path 118" d="M610.57,37.856s-9.153,6.55-12.227,15.22c0,0-6.993-48.586,34.453-52.652,31.54-3.141,43.083,16.669,39.419,39.365-2.684,16.629-10.737,35.473-10.737,35.473s-2.684-9.395-8.321-9.663S611.577,44.258,610.57,37.856Z" transform="translate(204.574 0.031)" fill="#323657"/>
      <path id="Path_119" data-name="Path 119" d="M626.565,121.8c17.81,0,21.8-18.7,21.8-18.7s-3.932-25.192,6.013-42.009-40.358,27.084-40.358,27.084,0,4.107-.2,9.019a40.626,40.626,0,0,1-2.389,13.193S608.768,121.844,626.565,121.8Z" transform="translate(209.154 19.589)" fill="#eea886"/>
      <path id="Path_120" data-name="Path 120" d="M636.846,42.1c1.906-1.852,10.737-4.926,11.006,6.415S635.2,68.236,634.041,60.291,633.612,45.272,636.846,42.1Z" transform="translate(216.764 13.78)" fill="#eea886"/>
      <path id="Path_121" data-name="Path 121" d="M613.17,91.674c.617-.174,1.342-.389,2.04-.631a50.2,50.2,0,0,0,24.467-17.7c-15.717,9.3-26.32,9.274-26.32,9.274S613.425,86.788,613.17,91.674Z" transform="translate(209.799 25.091)" fill="#a77860"/>
      <path id="Path_122" data-name="Path 122" d="M691.989,172.162s-27.125-15.448-38.224-33.634L589.624,134.3,574.86,164.995s20.132,42.761,6.711,126.953c-6.483,40.828,123.477-6,123.477-6S686.446,219.794,691.989,172.162Z" transform="translate(196.692 45.948)" fill="#538742"/>
      <path id="Path_123" data-name="Path 123" d="M639.025,152.063s12.643-39.62,29.9-53.994c0,0-4.577-4.63-9.14-2.966,0,0-13.26,7.288-34.9,56.034S639.025,152.063,639.025,152.063Z" transform="translate(211.431 32.413)" fill="#538742"/>
      <path id="Path_124" data-name="Path 124" d="M585.86,148.557s4.644-37.083,11.381-54.585l5.369-1.342s-8.053,42.465-7.18,56.5S585.86,148.557,585.86,148.557Z" transform="translate(200.455 31.691)" fill="#538742"/>
      <path id="Path_125" data-name="Path 125" d="M564.51,594.435s23.85-9.207,21.273-29.192-6.281-60.5-6.281-60.5,17.448,8.778,45.432,1.825c0,0-6.63,54.249-5.557,75.7C619.726,589.282,564.51,594.435,564.51,594.435Z" transform="translate(193.151 172.691)" fill="#ffa23d"/>
      <path id="Path_126" data-name="Path 126" d="M665.493,588.094s4.711-13.153,1.409-24.87S655.91,509.27,655.91,509.27s10.912,6.523,40.882,0c0,0-2.939,62.49.805,81.535Z" transform="translate(224.422 174.241)" fill="#ffa23d"/>
      <path id="Path_127" data-name="Path 127" d="M646.554,238.31a7.905,7.905,0,0,1-4.295,2.376c-4.026.376-9.126-3.678-12.817.872s7.248,21.179,10.737,22.91,10.2-2.684,16.763-13.274S646.554,238.31,646.554,238.31Z" transform="translate(215.11 81.534)" fill="#eea886"/>
      <path id="Path_128" data-name="Path 128" d="M637.834,239.73a161.778,161.778,0,0,0-15.878,9.059c-7.113,4.644-14.683,11.207-13.421,13.14,1.731,2.684,7.073-3.288,14.441-7.4,6.791-3.771,6.093-1.812,6.093-1.812s.174-.577-6.415,5.073c-7.073,6.08-14.589,13.515-13.059,15.26.966,1.1.98,1.342,3.906-.416-1.463,1.342-1.342,2.013-.765,2.684,2.684,3.691,14.468-3.49,19.139-6.348-3.57,2.215-5.959,4.255-2.939,5.449,3.449,1.342,19.649-9.6,25.823-12.925C661.55,257.9,637.834,239.73,637.834,239.73Z" transform="translate(208.166 82.02)" fill="#eea886"/>
      <path id="Path_129" data-name="Path 129" d="M662.407,97.22s29.809,1.1,37.768,20.441c10.348,25.138,11.865,32.748,13.569,44.519,1.6,11.113,8.791,41.459,9.516,44.6s16.978,40.492,9.583,53.578-83.132,51.928-82.636,54.827S637,285.979,637,285.979s30.628-17.139,35.647-22.414c8.133-8.549,25.326-17.783,21.77-28.386-4.174-12.442-16.71-54.437-19.622-60.571S643.966,105.085,662.407,97.22Z" transform="translate(217.952 33.261)" fill="#ffbf55"/>
      <path id="Path_130" data-name="Path 130" d="M342.294,537.142c4.026.778,19.9,2.4,27.192-17.086a10.469,10.469,0,0,1-10.845,1.839c-4.671-1.731-11.583,1.087-15.1,6.8,1.127-12.388-1.168-20.87-1.637-32.211a45.645,45.645,0,0,1,0-4.7c2.805-.51,19.864-4.55,18.79-26.561a10.522,10.522,0,0,1-9.247,5.973c-5.53.282-11.408,6.845-11.341,14.522a26.305,26.305,0,0,0-1.6,9.395c-.081,5.463,1.342,11.086,2.188,17.26a23.341,23.341,0,0,0-3.006-4.858c-7.06-8.7-14.764-9.757-16.227-12,0,0-2.684,9.932,8.281,16.6,6.711,4.026,10.012,7.959,11.542,10.361a42.945,42.945,0,0,1-2.993,14.213c-6.8,17.381,2.59,35.594,2.59,35.594l6.013-3.718s-9.14-10.522-4.966-29.326C342.079,538.511,342.16,537.867,342.294,537.142Z" transform="translate(109.895 159.173)" fill="#add14d"/>
      <path id="Path_131" data-name="Path 131" d="M419.868,618.4c4.026.779,19.9,2.389,27.192-17.085a10.522,10.522,0,0,1-10.858,1.839c-4.657-1.731-11.569,1.074-15.086,6.791,1.127-12.374-1.168-20.87-1.637-32.211a45.64,45.64,0,0,1,0-4.7c2.805-.523,19.864-4.55,18.79-26.561a10.522,10.522,0,0,1-9.247,5.973c-5.53.282-11.408,6.831-11.341,14.522a26.225,26.225,0,0,0-1.6,9.395c-.081,5.476,1.342,11.086,2.188,17.26a22.928,22.928,0,0,0-3.06-4.832c-7.073-8.7-14.764-9.757-16.227-12,0,0-2.684,9.918,8.281,16.589,6.711,4.094,10,7.959,11.542,10.361a42.868,42.868,0,0,1-2.993,14.213c-6.8,17.381,2.59,35.594,2.59,35.594l6-3.7s-9.127-10.522-4.952-29.326C419.653,619.751,419.733,619.107,419.868,618.4Z" transform="translate(136.418 186.969)" fill="#add14d"/>
      <path id="Path_132" data-name="Path 132" d="M538.707,616.335c4.026.779,19.891,2.389,27.192-17.085a10.5,10.5,0,0,1-10.858,1.825c-4.657-1.731-11.569,1.087-15.1,6.8,1.127-12.374-1.168-20.87-1.637-32.211,0-1.718-.081-3.275,0-4.711,2.805-.51,19.864-4.536,18.79-26.548a10.5,10.5,0,0,1-9.247,5.973c-5.53.268-11.395,6.831-11.341,14.522a26.267,26.267,0,0,0-1.584,9.4c-.081,5.476,1.342,11.086,2.188,17.26a23.486,23.486,0,0,0-3.006-4.845c-7.073-8.7-14.764-9.771-16.24-12,0,0-2.684,9.918,8.281,16.589,6.711,4.026,10.013,7.959,11.542,10.361a42.948,42.948,0,0,1-2.98,14.213c-6.8,17.448,2.577,35.594,2.577,35.594l6.013-3.7s-9.127-10.522-4.953-29.326C538.479,617.678,538.56,616.993,538.707,616.335Z" transform="translate(177.092 186.264)" fill="#add14d"/>
      <path id="Path_133" data-name="Path 133" d="M464.974,536.949c4.094.778,19.9,2.389,27.192-17.086a10.482,10.482,0,0,1-10.845,1.825c-4.671-1.731-11.583,1.087-15.1,6.8,1.127-12.375-1.168-20.87-1.637-32.211a45.866,45.866,0,0,1,0-4.711c2.805-.51,19.864-4.55,18.79-26.561A10.522,10.522,0,0,1,474.127,471c-5.53.268-11.408,6.831-11.341,14.509a26.307,26.307,0,0,0-1.6,9.395c-.08,5.476,1.342,11.086,2.188,17.26a23.34,23.34,0,0,0-3.006-4.859c-7.06-8.7-14.764-9.757-16.226-11.985,0,0-2.684,9.918,8.281,16.589,6.711,4.026,10,7.959,11.542,10.361a42.949,42.949,0,0,1-2.993,14.213c-6.8,17.448,2.59,35.594,2.59,35.594l5.986-3.731s-9.14-10.522-4.966-29.326C464.759,538.3,464.84,537.66,464.974,536.949Z" transform="translate(151.869 159.098)" fill="#add14d"/>
      <path id="Path_134" data-name="Path 134" d="M228.384,537.335c4.094.779,19.9,2.389,27.192-17.085a10.482,10.482,0,0,1-10.845,1.825c-4.657-1.731-11.569,1.087-15.1,6.8,1.127-12.375-1.168-20.87-1.637-32.211-.067-1.718-.081-3.275,0-4.711,2.819-.51,19.877-4.536,18.79-26.548a10.5,10.5,0,0,1-9.247,5.973c-5.53.268-11.408,6.831-11.341,14.522a26.535,26.535,0,0,0-1.6,9.4c0,5.476,1.342,11.086,2.188,17.26a23.336,23.336,0,0,0-3.006-4.859c-7.06-8.7-14.764-9.757-16.226-11.985,0,0-2.684,9.919,8.281,16.589,6.711,4.026,10.012,7.959,11.542,10.361a42.95,42.95,0,0,1-3.02,14.227c-6.8,17.448,2.59,35.594,2.59,35.594l6.013-3.718s-9.14-10.509-4.953-29.312C228.169,538.678,228.25,538.06,228.384,537.335Z" transform="translate(70.922 159.235)" fill="#add14d"/>
      <path id="Path_135" data-name="Path 135" d="M120.064,539.332c4.026.779,19.9,2.4,27.192-17.085a10.509,10.509,0,0,1-10.845,1.839c-4.671-1.731-11.583,1.074-15.1,6.8,1.127-12.388-1.168-20.884-1.637-32.211a45.625,45.625,0,0,1,0-4.7c2.805-.51,19.864-4.55,18.79-26.561a10.522,10.522,0,0,1-9.247,5.973c-5.53.282-11.408,6.832-11.341,14.522a26.306,26.306,0,0,0-1.6,9.4c-.081,5.462,1.342,11.073,2.188,17.26a23.335,23.335,0,0,0-3.006-4.858c-7.06-8.7-14.764-9.757-16.227-12,0,0-2.684,9.932,8.281,16.6,6.711,4.026,10,7.959,11.542,10.361a42.867,42.867,0,0,1-2.993,14.2c-6.8,17.448,2.59,35.594,2.59,35.594l6.013-3.7s-9.14-10.522-4.966-29.326C119.849,540.674,119.93,540.084,120.064,539.332Z" transform="translate(33.861 159.922)" fill="#add14d"/>
      <path id="Path_136" data-name="Path 136" d="M188.29,560.81s45.083-50.2,99.466-.174Z" transform="translate(64.43 184.224)" fill="#877373"/>
      <path id="Path_137" data-name="Path 137" d="M87.43,560.979s45.083-50.2,99.466-.161Z" transform="translate(29.921 184.284)" fill="#877373"/>
      <path id="Path_138" data-name="Path 138" d="M299.46,556.439s45.083-50.2,99.48-.161Z" transform="translate(102.466 182.73)" fill="#877373"/>
      <path id="Path_139" data-name="Path 139" d="M424.87,553.869s45.069-50.2,99.466-.161Z" transform="translate(145.374 181.851)" fill="#877373"/>
      <path id="Path_140" data-name="Path 140" d="M502,633.459s45.083-50.2,99.48-.161Z" transform="translate(171.763 209.082)" fill="#877373"/>
      <path id="Path_141" data-name="Path 141" d="M446.407,216.274S160.1,351.831,240.858,731.254l-133.315.228S65.708,284.187,470.579,203.43Z" transform="translate(36.383 69.6)" fill="#f3f3f3"/>
      <path id="Path_142" data-name="Path 142" d="M187.037,621.945c4.026.778,19.891,2.389,27.192-17.086a10.536,10.536,0,0,1-10.858,1.839c-4.657-1.731-11.569,1.074-15.1,6.791,1.127-12.375-1.168-20.87-1.637-32.211,0-1.7-.081-3.261,0-4.7,2.805-.523,19.864-4.55,18.79-26.561a10.5,10.5,0,0,1-9.247,5.973c-5.53.282-11.395,6.832-11.341,14.522a26.535,26.535,0,0,0-1.6,9.4c-.067,5.476,1.342,11.086,2.2,17.273a23.224,23.224,0,0,0-3.006-4.859c-7.073-8.7-14.764-9.757-16.24-12,0,0-2.684,9.932,8.281,16.589,6.711,4.026,10.012,7.972,11.542,10.375a42.827,42.827,0,0,1-2.98,14.2c-6.818,17.448,2.577,35.594,2.577,35.594l6.013-3.7s-9.127-10.523-4.953-29.326C186.809,623.315,186.89,622.67,187.037,621.945Z" transform="translate(56.771 188.183)" fill="#add14d"/>
      <path id="Path_143" data-name="Path 143" d="M140.53,639.81s45.083-50.2,99.48-.174Z" transform="translate(48.089 211.253)" fill="#877373"/>
      <path id="Path_144" data-name="Path 144" d="M151.487,582.485c4.094.778,19.891,2.4,27.192-17.086a10.522,10.522,0,0,1-10.858,1.839c-4.657-1.731-11.569,1.074-15.1,6.791,1.127-12.375-1.168-20.87-1.637-32.211-.067-1.7-.081-3.261,0-4.7,2.805-.51,19.864-4.55,18.79-26.561a10.5,10.5,0,0,1-9.247,5.973c-5.53.282-11.395,6.831-11.341,14.522a26.615,26.615,0,0,0-1.6,9.4c-.067,5.462,1.342,11.073,2.2,17.26a23.221,23.221,0,0,0-3.006-4.859c-7.073-8.7-14.764-9.757-16.24-12,0,0-2.684,9.932,8.281,16.6,6.711,4.026,10.012,7.959,11.542,10.361a42.827,42.827,0,0,1-2.98,14.2c-6.818,17.448,2.577,35.594,2.577,35.594l6.013-3.7s-9.127-10.522-4.953-29.326C151.259,583.854,151.353,583.21,151.487,582.485Z" transform="translate(44.607 174.682)" fill="#add14d"/>
      <path id="Path_145" data-name="Path 145" d="M105.43,602.582s45.083-50.21,99.48-.174Z" transform="translate(36.08 198.514)" fill="#877373"/>
      <path id="Path_146" data-name="Path 146" d="M259.8,580.475c4.094.778,19.9,2.389,27.192-17.085a10.5,10.5,0,0,1-10.858,1.825c-4.657-1.731-11.569,1.087-15.086,6.8,1.127-12.375-1.168-20.87-1.637-32.211a45.882,45.882,0,0,1,0-4.711c2.805-.51,19.864-4.536,18.79-26.548a10.469,10.469,0,0,1-9.234,5.959c-5.543.282-11.408,6.845-11.341,14.522a26.373,26.373,0,0,0-1.6,9.4c-.081,5.476,1.342,11.086,2.188,17.26a23.915,23.915,0,0,0-3.006-4.859c-7.073-8.7-14.764-9.757-16.24-11.985,0,0-2.684,9.918,8.281,16.589,6.711,4.026,10.012,7.959,11.556,10.361a42.947,42.947,0,0,1-2.993,14.213c-6.8,17.448,2.59,35.594,2.59,35.594l6-3.718s-9.127-10.522-4.953-29.326C259.576,581.831,259.656,581.187,259.8,580.475Z" transform="translate(81.672 173.994)" fill="#add14d"/>
      <path id="Path_147" data-name="Path 147" d="M376.58,636.029s45.083-50.2,99.466-.161Z" transform="translate(128.852 209.961)" fill="#877373"/>
      <path id="Path_148" data-name="Path 148" d="M493.885,578.339c4.026.779,19.891,2.389,27.192-17.086a10.509,10.509,0,0,1-10.858,1.825c-4.657-1.731-11.569,1.087-15.1,6.8,1.127-12.375-1.168-20.87-1.637-32.211-.067-1.718-.08-3.275,0-4.711,2.805-.51,19.864-4.536,18.79-26.561a10.5,10.5,0,0,1-9.247,5.973c-5.53.282-11.408,6.845-11.341,14.522a26.616,26.616,0,0,0-1.6,9.4c-.067,5.476,1.342,11.086,2.188,17.26a23.245,23.245,0,0,0-3.06-4.872c-7.073-8.7-14.764-9.757-16.24-11.985,0,0-2.684,9.918,8.281,16.589,6.711,4.026,10.012,7.959,11.542,10.361a42.947,42.947,0,0,1-2.993,14.213c-6.8,17.448,2.59,35.594,2.59,35.594l6.013-3.718s-9.126-10.522-4.952-29.326C493.656,579.681,493.737,579.023,493.885,578.339Z" transform="translate(161.733 173.259)" fill="#add14d"/>
      <path id="Path_149" data-name="Path 149" d="M453.75,596.059s45.083-50.2,99.48-.161Z" transform="translate(155.255 196.286)" fill="#877373"/>
      <path id="Path_150" data-name="Path 150" d="M368.454,580.332c4.094.778,19.9,2.4,27.192-17.085a10.522,10.522,0,0,1-10.858,1.839c-4.657-1.731-11.569,1.074-15.086,6.8,1.127-12.388-1.168-20.884-1.637-32.211a45.63,45.63,0,0,1,0-4.7c2.805-.523,19.864-4.55,18.79-26.561a10.5,10.5,0,0,1-9.234,5.973c-5.543.282-11.408,6.832-11.341,14.522a26.305,26.305,0,0,0-1.6,9.395c-.08,5.463,1.342,11.073,2.188,17.26a23.568,23.568,0,0,0-3.006-4.859c-7.073-8.7-14.764-9.757-16.24-12,0,0-2.684,9.932,8.281,16.589,6.711,4.094,10.012,7.972,11.556,10.375a42.871,42.871,0,0,1-2.993,14.2c-6.8,17.448,2.59,35.594,2.59,35.594l6-3.7s-9.127-10.522-4.953-29.326C368.239,581.674,368.36,580.99,368.454,580.332Z" transform="translate(118.845 173.95)" fill="#add14d"/>
      <path id="Path_151" data-name="Path 151" d="M328.35,598.629s45.069-50.2,99.466-.161Z" transform="translate(112.35 197.165)" fill="#877373"/>
      <path id="Path_152" data-name="Path 152" d="M218.12,600.7s45.083-50.2,99.48-.174Z" transform="translate(74.636 197.872)" fill="#877373"/>
      <path id="Path_153" data-name="Path 153" d="M295.387,619.935c4.026.778,19.9,2.389,27.192-17.085a10.5,10.5,0,0,1-10.858,1.825c-4.657-1.731-11.569,1.087-15.086,6.8,1.127-12.375-1.168-20.87-1.651-32.211-.067-1.718-.067-3.275,0-4.711,2.805-.51,19.864-4.55,18.79-26.548a10.5,10.5,0,0,1-9.234,5.972c-5.543.268-11.408,6.832-11.354,14.509a26.655,26.655,0,0,0-1.584,9.4c-.08,5.476,1.342,11.086,2.188,17.26a23.918,23.918,0,0,0-3.006-4.859c-7.073-8.7-14.764-9.757-16.24-11.985,0,0-2.684,9.918,8.281,16.589,6.711,4.026,10.012,7.959,11.556,10.361a42.949,42.949,0,0,1-3.02,14.227c-6.8,17.448,2.59,35.594,2.59,35.594l6-3.718s-9.127-10.522-4.953-29.326C295.119,621.291,295.2,620.647,295.387,619.935Z" transform="translate(93.842 187.495)" fill="#add14d"/>
      <path id="Path_154" data-name="Path 154" d="M252,638.139s45.069-50.2,99.466-.161Z" transform="translate(86.228 210.683)" fill="#877373"/>
    </g>
  </g>
</svg>
