<svg xmlns="http://www.w3.org/2000/svg" xmlns:xlink="http://www.w3.org/1999/xlink" width="834.141" height="1013.385" viewBox="0 0 834.141 1013.385">
  <defs>
    <linearGradient id="linear-gradient" x1="22.359" y1="-7.144" x2="23.437" y2="-7.144" gradientUnits="objectBoundingBox">
      <stop offset="0" stop-color="#3076a1"/>
      <stop offset="1" stop-color="#639c38"/>
    </linearGradient>
    <linearGradient id="linear-gradient-2" x1="11.753" y1="-13.067" x2="12.638" y2="-13.067" xlink:href="#linear-gradient"/>
    <linearGradient id="linear-gradient-3" x1="26.167" y1="-7.92" x2="27.452" y2="-7.92" xlink:href="#linear-gradient"/>
    <linearGradient id="linear-gradient-4" x1="3.565" y1="8.376" x2="3.682" y2="7.747" xlink:href="#linear-gradient"/>
    <linearGradient id="linear-gradient-5" x1="22.338" y1="-7.533" x2="23.417" y2="-7.533" xlink:href="#linear-gradient"/>
    <linearGradient id="linear-gradient-6" x1="11.739" y1="-13.752" x2="12.624" y2="-13.752" xlink:href="#linear-gradient"/>
    <linearGradient id="linear-gradient-7" x1="26.135" y1="-8.356" x2="27.421" y2="-8.356" xlink:href="#linear-gradient"/>
    <linearGradient id="linear-gradient-8" x1="3.705" y1="8.241" x2="3.823" y2="7.612" xlink:href="#linear-gradient"/>
    <linearGradient id="linear-gradient-9" x1="-0.066" y1="0.606" x2="0.934" y2="0.606" gradientUnits="objectBoundingBox">
      <stop offset="0" stop-color="#4f8d62"/>
      <stop offset="1" stop-color="#639c38"/>
    </linearGradient>
    <linearGradient id="linear-gradient-10" x1="-606.049" y1="12.147" x2="-605.187" y2="12.147" gradientUnits="objectBoundingBox">
      <stop offset="0" stop-color="#eb4747"/>
      <stop offset="1" stop-color="#eb7947"/>
    </linearGradient>
    <linearGradient id="linear-gradient-11" x1="-52.614" y1="-0.01" x2="-52.793" y2="0.786" gradientUnits="objectBoundingBox">
      <stop offset="0" stop-color="#face87"/>
      <stop offset="1" stop-color="#faba52"/>
    </linearGradient>
  </defs>
  <g id="Layer_2" data-name="Layer 2" transform="translate(-0.001 0.002)">
    <g id="Layer_1" data-name="Layer 1" transform="translate(0.001 -0.002)">
      <path id="Path_1103" data-name="Path 1103" d="M275.459,720.186s19.757-8.672,25.351-27.585S310,647.657,325.3,640.953s47.46-24.611,48.393-47.016-47.46-48.97-36.317-54.549,31.255-20.437,11.484-32.558-30.293-14.251-35.517-30.663-24.329-24.818-28.547.148-16.027,30.649-13.482,51.485,14.547,40.4-18.839,45.048-21.251,27.215-13.807,43.657,9.323,81.394,11.558,92.6S261.814,727.763,275.459,720.186Z" transform="translate(110.496 221.028)" fill="url(#linear-gradient)"/>
      <path id="Path_1104" data-name="Path 1104" d="M264.218,692.228S309.547,675.12,323.68,678.2s40.342,10.537,50.686-1.287,18.706-51.678,51.9-47.223,45.462-3.507,43.479-23.323,51.9-49.9,42.206-60.823-83.052,9.19-104.836,16.811-42.917-9.782-54.948,11.38-52.3,39.247-65.678,35.606-24.211-5.505-27.482,14.577-16.812,32.395-20.378,44.87S230.388,690.3,264.218,692.228Z" transform="translate(113.331 260.278)" fill="url(#linear-gradient-2)"/>
      <path id="Path_1105" data-name="Path 1105" d="M251.991,491.136c-1.613-12.283-22.79-17.966-26.09-2.575s4.44,35.784-24.6,53.705,15.346,39.069,26.224,60.572,8.968,45.092,18.025,63.739,6.941,54.889,22.628,46.617,10.626-28,19.668-49.65,39.276-26.638,19-49.872-44.2-36.479-24.537-65.648C291,535.118,256.993,529.317,251.991,491.136Z" transform="translate(91.95 229.989)" fill="url(#linear-gradient-3)"/>
      <path id="Path_1106" data-name="Path 1106" d="M236.846,708.987s15.672-14.666,7.666-46.2-23.19-32.439,24.759-37.634,28.976-81.394,66.6-76.954,103.3-85,125.332-62.9-30.648,58.737-16.871,80.136,9.738,40.978-34.777,42.458,2.027,82.874-57.272,81.883S283.773,763.373,236.846,708.987Z" transform="translate(113.133 231.206)" fill="url(#linear-gradient-4)"/>
      <path id="Path_1107" data-name="Path 1107" d="M401.889,695.338s19.742-8.687,25.351-27.6,9.175-44.944,24.492-51.648,47.475-24.566,48.392-47-47.46-48.984-36.317-54.564,31.255-20.437,11.484-32.558S445,467.716,439.774,451.3s-24.329-24.8-28.532.163-16.027,30.663-13.452,51.485,14.533,40.416-18.854,45.063-21.251,27.23-13.807,43.642,9.323,81.394,11.543,92.612S388.215,702.93,401.889,695.338Z" transform="translate(171.183 209.101)" fill="url(#linear-gradient-5)"/>
      <path id="Path_1108" data-name="Path 1108" d="M390.633,667.4s45.344-17.122,59.462-14.044,40.357,10.537,50.7-1.273,18.691-51.693,51.9-47.238,45.447-3.478,43.538-23.308,51.9-49.917,42.192-60.824-83.037,9.175-104.835,16.812-42.917-9.8-54.948,11.366-52.285,39.247-65.678,35.621-24.2-5.52-27.467,14.562-16.826,32.395-20.393,44.944S356.817,665.458,390.633,667.4Z" transform="translate(174.019 248.364)" fill="url(#linear-gradient-6)"/>
      <path id="Path_1109" data-name="Path 1109" d="M378.423,466.293c-1.613-12.268-22.79-17.966-26.076-2.56s4.44,35.769-24.611,53.69S343.083,556.493,353.975,578s8.968,45.107,18.01,63.754,6.941,54.874,22.642,46.6,10.67-28,19.668-49.562,39.276-26.727,18.987-49.872-44.19-36.494-24.522-65.663C417.433,510.32,383.425,504.489,378.423,466.293Z" transform="translate(152.621 218.071)" fill="url(#linear-gradient-7)"/>
      <path id="Path_1110" data-name="Path 1110" d="M363.283,684.151s15.672-14.666,7.666-46.187-23.16-32.454,24.759-37.648,28.976-81.394,66.6-76.954,103.282-85,125.332-62.91-30.589,58.737-16.826,80.136S580.5,581.624,535.971,583s2.042,82.874-57.272,81.9S410.2,738.551,363.283,684.151Z" transform="translate(173.814 219.282)" fill="url(#linear-gradient-8)"/>
      <path id="Path_1111" data-name="Path 1111" d="M.074,638.646c2.812-80.018,211.373-97.288,447.49-69.022S814.577,549.438,833,634.443,643.323,774.189,442.65,731.006-4.869,779.472.074,638.646Z" transform="translate(-0.001 267.274)" fill="#b39898"/>
      <path id="Path_1112" data-name="Path 1112" d="M252.612,191.135l-34.482-59.2s17.981-6.911,23.9-8.879,20.1-22.568,35.517-32.424c0,0-58.693-9.693-65.618-12.653L217.953,41S265.31,56.154,291.06,54.008s48.925,5.579,47.253,25.158-53.587,69.555-64.449,80.432a110.194,110.194,0,0,0-21.251,31.536Z" transform="translate(101.703 19.679)" fill="#ffbf55"/>
      <path id="Path_1113" data-name="Path 1113" d="M355.547,80.619a59.185,59.185,0,0,1-.592,8.6,60.159,60.159,0,0,1-6.023,18.765,67.745,67.745,0,0,1-6.2,9.886h0c-15.243,20.215-42.532,33.7-73.61,33.756-31.551,0-59.2-13.719-74.35-34.348a64.17,64.17,0,0,1-8.524-15.48,59.2,59.2,0,0,1-3.67-16.442q-.178-2.22-.178-4.44a59.506,59.506,0,0,1,.429-7.118,57.316,57.316,0,0,1,2.072-9.945,62.277,62.277,0,0,1,5.92-13.482C204.7,26.485,234.433,9.969,268.9,9.91c33.7,0,62.925,15.657,77.25,38.625a62.423,62.423,0,0,1,4.9,9.471,59.525,59.525,0,0,1,4.232,16.767,54.416,54.416,0,0,1,.266,5.846Z" transform="translate(87.531 4.759)" fill="url(#linear-gradient-9)"/>
      <path id="Path_1114" data-name="Path 1114" d="M350.174,48.821a55.377,55.377,0,0,1-15.894-.977c-12.9-2.96-17.078-3.522-32.883-3.6s-24.152-2.353-33.3,0-14.148,3.966-27.052,4.869-21.236-3.715-34.911.133c-9.738,2.723-18.025,4.573-22.006,5.416a62.274,62.274,0,0,1,5.92-13.482c8.347-3.759,22.272-9.264,29.021-7.3,9.989,2.96,17.892-1.776,31.211-3.211s30.382-2.8,37.87,0,27.482-.622,38.314,3.922c4.972,2.1,12.268,3.537,18.913,4.824a62.419,62.419,0,0,1,4.795,9.4Z" transform="translate(88.362 13.945)" fill="#3c6b4a"/>
      <path id="Path_1115" data-name="Path 1115" d="M355.533,60.552a59.185,59.185,0,0,1-.592,8.6c-6.023-.192-12.15-.3-16.856-.148-12.89.444-22.036,2.96-28.281,2.96s-22.909-3.3-29.6-3.7-25.38.459-32.868.474H219.856c-10.818,0-23.678.873-23.678.873s-7.4-2.338-13.571-4.44q-.178-2.22-.178-4.44a59.516,59.516,0,0,1,.429-7.118c6.748,0,18.173.429,29.109.074,14.148-.429,22.065.4,36.213,0s29.6-4.2,42.443,0,20.422,7.266,27.911,6.926c5.49-.252,23.826-5.194,36.731-5.92a54.423,54.423,0,0,1,.266,5.86Z" transform="translate(87.546 24.826)" fill="#3c6b4a"/>
      <path id="Path_1116" data-name="Path 1116" d="M347.655,78.186a67.749,67.749,0,0,1-6.2,9.886h0c-17.877,3.271-26.638,5.786-36.183,9.545s-27.659,5.461-30.471,5.461-35.71-1.2-35.71-1.2a108.377,108.377,0,0,0-18.321-6.2c-6.512-1.48-18.676-4.44-27.274-8.213A64.169,64.169,0,0,1,185,72c14.8,5.3,47.623,14.059,53.276,13.719,7.074-.429,24.966,1.628,40.386,1.6s25.38-1.7,33.283-3.8,4.588-7.237,19.964-5.92C337.31,78.082,342.816,78.216,347.655,78.186Z" transform="translate(88.779 34.556)" fill="#3c6b4a"/>
      <path id="Path_1117" data-name="Path 1117" d="M189.84,63.7c4.662,12.18.977,24.921-8.258,28.458s-20.5-3.463-25.158-15.628-.977-24.921,8.258-28.458S185.164,51.516,189.84,63.7Z" transform="translate(74.097 22.63)" fill="#323657"/>
      <path id="Path_1118" data-name="Path 1118" d="M221.993,638.467c8.717,2.59,11.351,17.4,18.765,21.754s43.583,7.326,44.87-4.011-15.2-21.444-22.628-27.1-26.327-25.824-29.746-33.224c0,0-1.983,4.44-8.879,3.863-8.879-.71-11.025-2.767-11.025-2.767-1.48,8.879-2.708,15.006-3.6,18.41C206.721,627.131,213.262,635.862,221.993,638.467Z" transform="translate(100.297 285.966)" fill="#1b384f"/>
      <path id="Path_1119" data-name="Path 1119" d="M134.449,640.492c8.717,2.6,11.366,17.4,18.78,21.754s43.583,7.4,44.87-4-15.184-21.458-22.583-27.112-26.342-25.809-29.746-33.209c0,0-2,4.44-8.879,3.848-8.879-.71-11.025-2.753-11.025-2.753-1.48,8.879-2.708,14.991-3.581,18.4C119.177,629.185,125.732,637.887,134.449,640.492Z" transform="translate(58.306 286.945)" fill="#1b384f"/>
      <path id="Path_1120" data-name="Path 1120" d="M162.024,246.056S137.384,278.2,130.7,316.291s-6.186,164.268-6.452,183.122-4.277,62.3-3.7,102.734c.518,35.621-1.243,180.946-1.243,180.946l40.653-.7s19.416-150.061,21.577-164.964,9.249-70.147,10.108-76.274S238.343,369.271,238.3,341.819,221.472,201.156,162.024,246.056Z" transform="translate(57.25 113.088)" fill="#538742"/>
      <path id="Path_1121" data-name="Path 1121" d="M259.608,255.99c1.583,8.746,30.264,160.524,32.454,180.118,2.442,21.843,6.911,48.17,5.92,57.227-2.161,21.029-3.966,41.689-3.966,41.689L264.047,775.062l-40.431-.7s-5.92-136.357-5.165-165.319,12-79.352,8.879-91.99-48.57-156-48.57-156S139.81,198.511,259.608,255.99Z" transform="translate(82.883 116.946)" fill="#538742"/>
      <path id="Path_1122" data-name="Path 1122" d="M280.617,310.231c1.48,10.359,8.332,49.606,8.332,49.606C220.341,382.036,138.592,348,138.592,348c1.361-7.547,20.334-60.513,23.057-66s6.808-20.94,2.679-39.957a195.838,195.838,0,0,0-10.552-29.983c-2.634-6.186-4.44-10.7-7.3-17.492h0c-11.839-28.932-23.56-60.2-21.384-65.87,3.863-10.063,22.805-14.651,31.936-16.279S199.075,98.37,199.075,98.37h35.044s41.437,6.66,45.433,10.478c8.065,7.71,14.932,48.54,14.932,48.54,10.078,28.3-2.96,59.033-5.224,66.24a249.826,249.826,0,0,0-7.947,39.957C280.232,272.45,279.833,304.918,280.617,310.231Z" transform="translate(59.905 47.21)" fill="#ffbf55"/>
      <path id="Path_1123" data-name="Path 1123" d="M195.939.134c12.549-1.391,42.917,7.237,46.883,53.572s-7.177,69.644-17.448,74.675-38.818-2.96-51.633-25.247-28.665-74.379-10.655-89.015S195.939.134,195.939.134Z" transform="translate(74.377 0.002)" fill="#eea886"/>
      <path id="Path_1124" data-name="Path 1124" d="M229.132,45.481s11.07,7.858,14.8,18.291c0,0,8.213-58.589-41.748-63.31-37.989-3.6-50.627,27.57-47.342,47.608s12.8,43.183,12.8,43.183S171.224,79.415,178,79.1,227.948,53.191,229.132,45.481Z" transform="translate(74.067 0.088)" fill="#323657"/>
      <path id="Path_1125" data-name="Path 1125" d="M199.863,140.35c-21.458,0-26.342-22.465-26.342-22.465s4.632-30.382-7.4-50.6,48.762,32.484,48.762,32.484,0,4.943.266,10.862c.34,6.319,1.3,12.18,2.96,15.894C218.065,126.528,221.321,140.305,199.863,140.35Z" transform="translate(78.963 30.078)" fill="#eea886"/>
      <path id="Path_1126" data-name="Path 1126" d="M177.921,46.258c-2.294-2.22-13.023-5.92-13.23,7.784s15.346,23.678,16.693,14.133S181.783,50,177.921,46.258Z" transform="translate(79.032 21.155)" fill="#eea886"/>
      <path id="Path_1127" data-name="Path 1127" d="M209.11,102.211q-1.11-.311-2.442-.755a60.439,60.439,0,0,1-29.6-21.236c18.291,12.653,31.744,11.129,31.744,11.129S208.8,96.292,209.11,102.211Z" transform="translate(84.974 38.5)" fill="#a77860"/>
      <path id="Path_1128" data-name="Path 1128" d="M150.922,192.714s32.558-18.691,45.877-40.682l77.295-5.372,16.693,34.126s-11.972,53.764-6.26,155.877c2.8,49.754-150.357-11.839-150.357-11.839S157.8,250.06,150.922,192.714Z" transform="translate(64.386 70.384)" fill="#538742"/>
      <path id="Path_1129" data-name="Path 1129" d="M188.292,172.666S172.886,124.954,152.02,107.7c0,0,5.505-5.594,11-3.611,0,0,16.027,8.731,42.266,67.394S188.292,172.666,188.292,172.666Z" transform="translate(72.952 49.75)" fill="#538742"/>
      <path id="Path_1130" data-name="Path 1130" d="M235.4,168.457s-5.757-44.663-13.941-65.737l-6.541-1.48s9.886,51.16,8.879,68.075S235.4,168.457,235.4,168.457Z" transform="translate(103.137 48.588)" fill="#538742"/>
      <path id="Path_1131" data-name="Path 1131" d="M126.916,269.123a12.208,12.208,0,0,0,6.645,1.746c5.624-.636,11.321-7.015,17.862-2.412s-3.034,28-7.177,31.078-14.873-.562-27.289-11.721S126.916,269.123,126.916,269.123Z" transform="translate(54.325 128.039)" fill="#eea886"/>
      <path id="Path_1132" data-name="Path 1132" d="M143.4,267.07a247,247,0,0,1,24.714,6.793c11.262,3.774,23.678,10.152,23.678,12.564.148,2.693-11.839-2.175-23.294-5.209-10.537-2.8-8.879-.577-8.879-.577s-.414-.651,10.448,4.44c11.676,5.52,23.057,12.313,22.864,15.184-.089,1.406-.9,1.909-5.49.548,2.471,1.317,2.442,2.131,1.953,3.152-2.486,5.268-20.97-.34-28.31-2.575,5.624,1.746,9.56,3.6,5.8,5.92-4.292,2.619-30.057-6.438-39.617-8.879C116.847,295.869,143.4,267.07,143.4,267.07Z" transform="translate(59.91 128.168)" fill="#eea886"/>
      <path id="Path_1133" data-name="Path 1133" d="M199.71,113.139s-34.807-9-50.671,10.6c-20.615,25.469-25,33.727-31.078,46.75-5.668,12.283-24.448,44.855-26.372,48.23s-33.564,40.919-29.6,58.574,78.123,88.646,76.555,91.827,21-24.063,21-24.063-25.158-35.517-29.154-43.3c-6.452-12.7-23.131-29.287-15.376-40.3,9.309-12.86,38.211-57.109,43.672-63.177S218.3,128.574,199.71,113.139Z" transform="translate(29.583 53.308)" fill="#ffbf55"/>
      <path id="Path_1134" data-name="Path 1134" d="M367.9,619.767s-10.359,11.573-20.852,14.015-17.862,5.55-17.936,12.18,30.293,10.966,42.31,4.247c17.936-10.019,19.771-7,21.754-12s-2.427-18.336-2.294-19.919C391.1,616.319,367.9,619.767,367.9,619.767Z" transform="translate(157.936 296.423)" fill="#424873"/>
      <path id="Path_1135" data-name="Path 1135" d="M438.025,621.277s-7.607,11.277-17.759,13.9-16.56,7.4-17.034,13.911,23.678,14.8,40.7,3.507c11.144-7.4,15.317-7.044,17.552-11.839s-1.214-18-.977-19.52C460.741,619.383,438.025,621.277,438.025,621.277Z" transform="translate(193.504 297.739)" fill="#424873"/>
      <path id="Path_1136" data-name="Path 1136" d="M377.05,613.12s-14.473,5.55-20.289,1.657L355,622.458s4.662,2.708,12.683,1.672,10.774-3.655,10.774-3.655Z" transform="translate(170.361 294.235)" fill="#202338"/>
      <path id="Path_1137" data-name="Path 1137" d="M448.064,614.9s-16.619,6.2-21.044,1.332l-.74,8.628s1.657,2.664,8.154,2.323a66.819,66.819,0,0,0,14.977-3.256Z" transform="translate(204.567 295.089)" fill="#202338"/>
      <path id="Path_1138" data-name="Path 1138" d="M385.711,404.065S367.094,480.62,362.7,509.034c-5.135,33.224-6.038,51.53-7.4,68.726-1.791,21.621,2.693,144.6,1.48,150.949s20.423-3.3,20.423-3.3,18.617-134.877,24.019-157.875c5.017-21.444,23.678-113.789,28.236-107.943S439.963,567.3,443.412,584.212s18.114,147.264,18.114,147.264,14.458,3.241,20.718-2.072c0,0,7.681-110.681,5.461-142.38-.858-12.091,13.911-144.9-5.4-198.305C472.092,360.467,385.711,404.065,385.711,404.065Z" transform="translate(170.299 181.976)" fill="#eea886"/>
      <path id="Path_1139" data-name="Path 1139" d="M385.619,388.753S368.985,481.676,364.589,510.1c-5.135,33.224-6.038,51.53-7.4,68.726-1.791,21.621-6.23,144.038-6.26,150.49,0,7.148,33.771,2.531,33.771,2.531s13.053-140.19,18.454-163.232c5.017-21.444,23.678-113.789,28.236-107.943S441.9,568.383,445.347,585.3s11.07,152.029,11.07,152.029,27.274-.133,33.534-5.446c0,0,1.909-112.072-.311-143.772-.858-12.091,13.911-144.9-5.4-198.305C473.983,361.538,385.619,388.753,385.619,388.753Z" transform="translate(168.408 180.905)" fill="#616161"/>
      <path id="Path_1140" data-name="Path 1140" d="M326.139,300.09s-9.738-10.122-10.951-11.558-6.26-2.856-12.194-4-14.459,0-15.184.725a5.3,5.3,0,0,0-2.264,3.8,10.36,10.36,0,0,0,.636,5.106,6.2,6.2,0,0,0-.518,5.92,5.372,5.372,0,0,0,.5,5.92s-1.7,2.886.163,4.972c0,0,4.528,1.731,6.778,2.5,1.909.666,12.52,2.264,23.146,2.856C316.254,316.414,329.913,319.137,326.139,300.09Z" transform="translate(136.77 136.318)" fill="#eea886"/>
      <path id="Path_1141" data-name="Path 1141" d="M303.33,331.77s43.168,15.746,50.923,18.173c5.92,1.865,13.571,7.4,27.437-1.006,6.452-3.892,14.991-11.839,22.924-20.023h0c1.835-1.879,3.641-3.789,5.372-5.653h0A249.763,249.763,0,0,0,427.049,303.3c1.643-2.841,34.215-26.416,11.528-42.207-5.091-3.537-24.7-12.046-35.828,0-9.782,10.64-14.266,30.56-16.619,35.073-2.8,5.328-14.9,27.9-14.9,27.9-.7,1.687-17.122-3.211-19.342-3.877-6.512-1.953-39.01-11.987-39.01-11.987Z" transform="translate(145.565 122.309)" fill="#385369"/>
      <path id="Path_1142" data-name="Path 1142" d="M438.521,249.662h0a104.854,104.854,0,0,1-14.251,18.084c-17.833,17.862-53.809,13.941-47.653-40.371a84.057,84.057,0,0,1,6.364-24.981C393.34,179.234,411.1,177.34,411.1,177.34c12.86.873,34.807,6.778,40.209,24.315C455.081,214.145,448.851,233.236,438.521,249.662Z" transform="translate(180.398 85.108)" fill="#eea987"/>
      <path id="Path_1143" data-name="Path 1143" d="M436.23,249.662h0s-1.909.266-6.881-13.941c-1.006-2.856-2.264-1.066-2.693-2.323l-10.063-5.416s12.609-16.19-.474-22.716c-13.319-6.66-35.429-2.871-35.429-2.871,10.359-23.16,28.118-25.055,28.118-25.055,12.86.873,34.807,6.778,40.209,24.315C452.79,214.145,446.56,233.236,436.23,249.662Z" transform="translate(182.689 85.108)" fill="#665249"/>
      <path id="Path_1144" data-name="Path 1144" d="M410.619,210.732c.784-3.655,7.991-6.808,11.084,1.036s-7.1,16.19-9.886,14.518S409.316,216.785,410.619,210.732Z" transform="translate(196.595 99.294)" fill="#eea987"/>
      <path id="Path_1145" data-name="Path 1145" d="M449.4,231.914s-31.078-27.674-71.7-24.167c0,0,8.435-49.221,52.492-35.192C471.57,185.727,451.532,226.5,449.4,231.914Z" transform="translate(181.254 81.604)" fill="#538742"/>
      <path id="Path_1146" data-name="Path 1146" d="M432.909,208.057s-34.481,1.909-55.5-5.268,5.55-10.611,5.55-10.611S401.639,188.729,432.909,208.057Z" transform="translate(177.234 92.113)" fill="#538742"/>
      <path id="Path_1147" data-name="Path 1147" d="M408.19,250.4s-25.987,5.387-29.346,8.391c-3.67,3.182-10.922,35.355-11.292,44.042s1.924,44.4,5.609,57.893,3.492,77.916,1.214,96.622c0,0,53.838,12.831,110.1,5.4,0,0-8.879-67.453-6.689-85.952,2.841-23.678,12.12-75.356,12.12-75.356s-.755-35.8-5.772-40.031-43.849-11.055-43.849-11.055Z" transform="translate(176.366 120.149)" fill="#385369"/>
      <path id="Path_1148" data-name="Path 1148" d="M391.053,267.763s7.991,5.92,34.644-5.816c0,0-3.907-13.245,1.3-30.338s-33.15,16.575-33.15,16.575c.429.311.518,2.013.266,4.44v.474a46.058,46.058,0,0,1-1.066,5.831,3.088,3.088,0,0,1-.192.77C391.334,265.366,390.979,262.776,391.053,267.763Z" transform="translate(187.658 108.828)" fill="#eea886"/>
      <path id="Path_1149" data-name="Path 1149" d="M392.37,254.569h0c19.105,2.412,29.509-18.2,29.8-18.809-13.053,19.105-28.754,12.979-28.754,12.979h0A46.06,46.06,0,0,1,392.37,254.569Z" transform="translate(188.294 113.143)" fill="#a77860"/>
      <path id="Path_1150" data-name="Path 1150" d="M391.8,251.884s-6.1,9.1,2.427,10.64,25.913-.385,35.369-11.943C429.6,250.582,403.777,248.377,391.8,251.884Z" transform="translate(187.009 119.927)" fill="#eea886"/>
      <path id="Path_1151" data-name="Path 1151" d="M370.707,317.512s-1.909-25.158-1.835-29.331a186.353,186.353,0,0,0-4.292,35.162Z" transform="translate(174.958 138.299)" fill="#2a3e4f"/>
      <path id="Path_1152" data-name="Path 1152" d="M310.529,287s-10.152,2.693-15.05,6.615c-1.11.888-2.027,1.939-1.628,3.3s2.96,2.516,7.4,1.569a38.566,38.566,0,0,1,10.67-.133S316.168,296,310.529,287Z" transform="translate(140.97 137.732)" fill="#eea886"/>
      <path id="Path_1153" data-name="Path 1153" d="M353.175,418.516c-.074-1.879-1.731-46.35,23.279-72.515,11.558-12.105,26.934-18.262,45.714-18.291s34.156,6.068,45.758,18.129c25.158,26.09,23.6,70.561,23.53,72.515l-.133,3.078-138.015.237Zm110.119-68.179c-10.359-10.744-24.181-16.19-41.126-16.16s-30.737,5.505-41.037,16.279c-19.5,20.393-21.429,54.371-21.532,64.716l125.436-.207C484.886,404.59,482.888,370.671,463.294,350.338Z" transform="translate(169.462 157.269)" fill="#face87"/>
      <path id="Path_1154" data-name="Path 1154" d="M342.944,384.391a14.575,14.575,0,0,0,4.691-.622s2.5-1.406,4.351-2.309a13.779,13.779,0,0,1,1.48-.636,26.887,26.887,0,0,0,8.006-3.271c3.182-2.146,14.518-14.962,14.518-14.962l-5.18-8.095-3.759-8.317s-23.5,1.243-26.638,2.96c-.311.163-.607.34-.888.518-2.56,1.672-3.774,4-5.032,5.032-.444.37-4.736,4.44-4.6,6.23a5.787,5.787,0,0,0,2.753,4.913s.548,4.78,2.871,7.029a8.628,8.628,0,0,0,4.07,6.423S340.413,383.666,342.944,384.391Z" transform="translate(158.31 166.132)" fill="#eea886"/>
      <path id="Path_1155" data-name="Path 1155" d="M482.247,255.685c-6.467-1.006-26.135-1.48-32.794,27.482-3.034,13.186-5.727,28.118-6.053,33.534s-10.359,43.923-14.044,46.765c-4.588,3.611-28.577,11.2-30.811,12.224C390.835,379.182,354,388.683,354,388.683l2.767,28.014s80.935-19.668,89.726-24.433c5.786-3.152,14.251-8.643,21.592-24.048,8.08-16.974,26.15-53.276,26.4-56.709S511.017,260.155,482.247,255.685Z" transform="translate(169.881 122.549)" fill="#385369"/>
      <path id="Path_1156" data-name="Path 1156" d="M446.076,354.569s-18.454-23.678-49.576-20.2V327.9s30.116-4.2,52.285,19.845Z" transform="translate(190.276 157.225)" fill="#face87"/>
      <path id="Path_1157" data-name="Path 1157" d="M307.922,270.5s12.579.488,9.723,12.579-25.484,62.762-27.674,63.487c-1.628-1.628.784-57.079,3.626-69.17S307.922,270.5,307.922,270.5Z" transform="translate(138.901 129.282)" fill="url(#linear-gradient-10)"/>
      <path id="Path_1158" data-name="Path 1158" d="M302.769,278.535s-3.448-3.478-2.383-5.49,2.767,1.317,3.034-3.936-3.211-6.867.918-8.021,7.1-10.951,7.962-7.829-2.767,7.192-3.226,9.738,1.865,1.48.207,5.239a78.591,78.591,0,0,1-6.512,10.3Z" transform="translate(144.054 121.247)" fill="#959c4d"/>
      <rect id="Rectangle_29" data-name="Rectangle 29" width="6.304" height="0.34" transform="translate(451.34 409.924) rotate(-166.73)" fill="#cf433e"/>
      <rect id="Rectangle_30" data-name="Rectangle 30" width="6.304" height="0.34" transform="translate(439.857 414.923) rotate(-166.72)" fill="#cf433e"/>
      <rect id="Rectangle_31" data-name="Rectangle 31" width="6.304" height="0.34" transform="translate(447.673 425.656) rotate(-166.73)" fill="#cf433e"/>
      <rect id="Rectangle_32" data-name="Rectangle 32" width="6.304" height="0.34" transform="translate(440.624 431.82) rotate(-166.72)" fill="#cf433e"/>
      <rect id="Rectangle_33" data-name="Rectangle 33" width="6.304" height="0.34" transform="translate(441.899 443.5) rotate(-166.73)" fill="#cf433e"/>
      <path id="Path_1159" data-name="Path 1159" d="M289.542,285.1s14.962,3.256,14.8,5.727a3.922,3.922,0,0,1-1.805,3.256l5.564,4.129s2.131,4.81-3.729,5.727c0,0,2.457,4.292-3.315,4.44,0,0,.355,3.567-2.294,4.129s-12.209-1.909-12.209-1.909-2.146-1.258-.533-4.78a5.446,5.446,0,0,1-.562-6.068,5.594,5.594,0,0,1,.385-5.92s-2.486-6.053,2.19-9.027C287.914,284.9,288.846,285.007,289.542,285.1Z" transform="translate(136.666 136.677)" fill="#db9c7c"/>
      <path id="Path_1160" data-name="Path 1160" d="M435.372,372.84c27.2,0,28.207,25.706,28.207,25.706l-51.974.089S408.172,372.884,435.372,372.84Z" transform="translate(197.458 178.926)" fill="#9ccc9b"/>
      <path id="Path_1161" data-name="Path 1161" d="M412.187,381.595c12.624-1.228,14.1,12.86,14.1,12.86h-27.2a13.822,13.822,0,0,1,13.1-12.86Z" transform="translate(191.519 183.091)" fill="#ca595b"/>
      <path id="Path_1162" data-name="Path 1162" d="M403,381.615c12.624-1.243,14.1,12.845,14.1,12.845H389.9A13.807,13.807,0,0,1,403,381.615Z" transform="translate(187.109 183.1)" fill="#ec686b"/>
      <path id="Path_1163" data-name="Path 1163" d="M354.9,381.643c-9.264-22.82,27.644-26.771,30.1-11.721s27.748,34.452,27.748,34.452l-44.19,8.879S364.182,404.448,354.9,381.643Z" transform="translate(169.6 173.231)" fill="#9a6fa0"/>
      <path id="Path_1164" data-name="Path 1164" d="M373.512,360.537c14.547-.7,22.2,14.917,22.2,14.917s-21.636-9.767-23.086-5.032-4.573,18.454-4.573,18.454-3.685-21.177-4.691-17.862-11.839,8.879-11.839,8.879c-.755-12.7,11.839-17.759,11.839-17.759S358.95,361.233,373.512,360.537Z" transform="translate(168.675 173.011)" fill="#82c07e"/>
      <path id="Path_1165" data-name="Path 1165" d="M400.642,468.708h48.733c59.654-.1,49.961-85.168,49.961-85.168l-148.951.252S340.988,468.811,400.642,468.708Z" transform="translate(167.887 184.061)" fill="url(#linear-gradient-11)"/>
      <path id="Path_1166" data-name="Path 1166" d="M384.17,468.708H432.9c59.654-.1,49.961-85.168,49.961-85.168l-53.927.089S433.732,468.575,384.17,468.708Z" transform="translate(184.359 184.061)" fill="#f0b24e"/>
    </g>
  </g>
</svg>
