<svg xmlns="http://www.w3.org/2000/svg" xmlns:xlink="http://www.w3.org/1999/xlink" viewBox="0 0 1167.63 1001"><defs><style>.cls-1,.cls-4,.cls-6{fill:#fff;}.cls-1,.cls-4,.cls-8{stroke:#29004f;stroke-miterlimit:10;}.cls-1,.cls-8{stroke-width:4px;}.cls-2,.cls-8{fill:none;}.cls-3{fill:#29004f;}.cls-4{stroke-width:20px;}.cls-5{fill:#d5cedd;}.cls-7{clip-path:url(#clip-path);}.cls-9{clip-path:url(#clip-path-2);}.cls-10{fill:#d6cfde;}.cls-11{fill:#d7d0de;}.cls-12{fill:#d7d1df;}.cls-13{fill:#d8d2df;}.cls-14{fill:#d9d3e0;}.cls-15{fill:#dad4e1;}.cls-16{fill:#dbd5e1;}.cls-17{fill:#dbd6e2;}.cls-18{fill:#dcd7e3;}.cls-19{fill:#ddd8e3;}.cls-20{fill:#ded9e4;}.cls-21{fill:#dfdae4;}.cls-22{fill:#e0dbe5;}.cls-23{fill:#e0dce6;}.cls-24{fill:#e1dde6;}.cls-25{fill:#e2dee7;}.cls-26{fill:#e3dfe8;}.cls-27{fill:#e4e0e8;}.cls-28{fill:#e4e2e9;}.cls-29{fill:#e5e3e9;}.cls-30{fill:#e6e4ea;}.cls-31{fill:#e7e5eb;}.cls-32{fill:#e8e6eb;}.cls-33{fill:#e8e7ec;}.cls-34{fill:#e9e8ed;}.cls-35{fill:#eae9ed;}.cls-36{fill:#ebeaee;}.cls-37{fill:#ecebee;}.cls-38{fill:#edecef;}.cls-39{fill:#ededf0;}.cls-40{fill:#eeeef0;}.cls-41{fill:#efeff1;}.cls-42{fill:#f0f0f2;}.cls-43{fill:#f1f1f2;}.cls-44{fill:#f1f2f3;}.cls-45{fill:#f2f3f3;}.cls-46{fill:#f3f4f4;}.cls-47{fill:#eeeef1;}.cls-48{fill:#eeedf0;}.cls-49{fill:#edecf0;}.cls-50{fill:#ecebef;}.cls-51{fill:#ebe9ee;}.cls-52{fill:#eae8ee;}.cls-53{fill:#eae7ed;}.cls-54{fill:#e9e6ed;}.cls-55{fill:#e8e5ec;}.cls-56{fill:#e7e4ec;}.cls-57{fill:#e7e3eb;}.cls-58{fill:#e6e2eb;}.cls-59{fill:#e5e1ea;}.cls-60{clip-path:url(#clip-path-3);}.cls-61{clip-path:url(#clip-path-4);}.cls-62{fill:#41af6e;}.cls-63{clip-path:url(#clip-path-5);}.cls-64{clip-path:url(#clip-path-6);}.cls-65{clip-path:url(#clip-path-7);}</style><clipPath id="clip-path"><circle class="cls-1" cx="209.02" cy="479.06" r="70.72"/></clipPath><clipPath id="clip-path-2"><rect class="cls-2" x="851.52" y="734.69" width="219.42" height="11.18" rx="5.59"/></clipPath><clipPath id="clip-path-3"><rect class="cls-2" x="868.5" y="757.22" width="185.47" height="11.18" rx="5.59"/></clipPath><clipPath id="clip-path-4"><rect class="cls-2" x="870.11" y="779.16" width="182.24" height="11.18" rx="5.59"/></clipPath><clipPath id="clip-path-5"><rect class="cls-2" x="450.83" y="528" width="246.67" height="12.57" rx="6.29"/></clipPath><clipPath id="clip-path-6"><rect class="cls-2" x="469.91" y="553.34" width="208.5" height="12.57" rx="6.29"/></clipPath><clipPath id="clip-path-7"><rect class="cls-2" x="471.73" y="578" width="204.87" height="12.57" rx="6.29"/></clipPath></defs><g id="Layer_2" data-name="Layer 2"><g id="Objects"><polyline class="cls-3" points="225.43 725.08 225.47 725.14 225.51 725.08"/><rect class="cls-4" x="10" y="268.68" width="392.79" height="722.32" rx="47.16"/><path class="cls-3" d="M309.8,920.52a26,26,0,1,1,26-26A26.07,26.07,0,0,1,309.8,920.52Zm0-48.07a22,22,0,1,0,22,22A22.06,22.06,0,0,0,309.8,872.45Z"/><path class="cls-3" d="M306.25,905a2,2,0,0,1-1.07-3.69l8.89-5.6-9.16-8.19a2,2,0,1,1,2.67-3l9.53,8.52a3.86,3.86,0,0,1-.41,5.71l-.17.12-9.22,5.8A2,2,0,0,1,306.25,905Z"/><rect class="cls-5" x="95.2" y="609.34" width="222.39" height="39.87" rx="14.14"/><path class="cls-3" d="M303.44,651.22H109.34A16.17,16.17,0,0,1,93.2,635.07V623.49a16.17,16.17,0,0,1,16.14-16.15h194.1a16.17,16.17,0,0,1,16.15,16.15v11.58A16.17,16.17,0,0,1,303.44,651.22Zm-194.1-39.88A12.16,12.16,0,0,0,97.2,623.49v11.58a12.16,12.16,0,0,0,12.14,12.15h194.1a12.16,12.16,0,0,0,12.15-12.15V623.49a12.16,12.16,0,0,0-12.15-12.15Z"/><path class="cls-3" d="M206.35,631l-12.64-9.64a6.28,6.28,0,0,0-1.64,4.24V633a6.32,6.32,0,0,0,6.33,6.33h16a6.33,6.33,0,0,0,6.33-6.33v-7.4a6.31,6.31,0,0,0-1.64-4.24Z"/><path class="cls-3" d="M206.36,629.3l11.69-8.88a6.33,6.33,0,0,0-3.66-1.17h-16a6.33,6.33,0,0,0-3.68,1.18Z"/><rect class="cls-5" x="95.2" y="665.17" width="222.39" height="39.87" rx="14.14"/><path class="cls-3" d="M303.44,707H109.34A16.16,16.16,0,0,1,93.2,690.9V679.32a16.16,16.16,0,0,1,16.14-16.15h194.1a16.17,16.17,0,0,1,16.15,16.15V690.9A16.17,16.17,0,0,1,303.44,707Zm-194.1-39.87A12.16,12.16,0,0,0,97.2,679.32V690.9A12.15,12.15,0,0,0,109.34,703h194.1a12.15,12.15,0,0,0,12.15-12.14V679.32a12.16,12.16,0,0,0-12.15-12.15Z"/><path class="cls-3" d="M227.93,685.19l-2.75-3.66a1.19,1.19,0,0,0-1-.49H201.82a9.3,9.3,0,1,0,.87,7.93h1.66a1.17,1.17,0,0,1,.65.19l1.92,1.22a1.18,1.18,0,0,0,1.3,0l1.57-1a1.22,1.22,0,0,1,1.3,0l1.58,1a1.18,1.18,0,0,0,1.29,0l1.6-1a1.2,1.2,0,0,1,1.29,0l1.58,1a1.18,1.18,0,0,0,1.3,0l1.57-1a1.22,1.22,0,0,1,1.3,0l1.28.81a1.2,1.2,0,0,0,1.61-.29l2.44-3.26A1.19,1.19,0,0,0,227.93,685.19Zm-37.84,3a2.29,2.29,0,1,1,2.29-2.29A2.28,2.28,0,0,1,190.09,688.21Z"/><rect class="cls-3" x="95.2" y="735.89" width="222.39" height="39.87" rx="14.14"/><path class="cls-3" d="M303.44,776.26H109.34A14.66,14.66,0,0,1,94.7,761.61V750a14.66,14.66,0,0,1,14.64-14.64h194.1A14.66,14.66,0,0,1,318.09,750v11.58A14.66,14.66,0,0,1,303.44,776.26Zm-194.1-39.87A13.66,13.66,0,0,0,95.7,750v11.58a13.66,13.66,0,0,0,13.64,13.65h194.1a13.66,13.66,0,0,0,13.65-13.65V750a13.66,13.66,0,0,0-13.65-13.64Z"/><circle class="cls-3" cx="190.16" cy="894.49" r="4.15"/><circle class="cls-5" cx="206.39" cy="894.49" r="4.15"/><circle class="cls-5" cx="222.63" cy="894.49" r="4.15"/><circle class="cls-5" cx="106.23" cy="419.02" r="4.45"/><rect class="cls-5" x="115.97" y="414.13" width="76.06" height="9.34" rx="4.67"/><circle class="cls-5" cx="213.6" cy="438.37" r="4.45"/><rect class="cls-5" x="127.8" y="433.48" width="76.06" height="9.34" rx="4.67" transform="translate(331.66 876.29) rotate(-180)"/><circle class="cls-5" cx="199.19" cy="522.21" r="4.45"/><rect class="cls-5" x="208.92" y="517.32" width="76.06" height="9.34" rx="4.67"/><circle class="cls-5" cx="306.55" cy="541.56" r="4.45"/><rect class="cls-5" x="220.76" y="536.66" width="76.06" height="9.34" rx="4.67" transform="translate(517.58 1082.67) rotate(-180)"/><circle class="cls-6" cx="209.02" cy="479.06" r="70.72"/><g class="cls-7"><path class="cls-5" d="M250.72,508.8c-4.82-2.69-16.46-1-22.26-1s-7.26-6.77-8.71-13.06a12,12,0,0,1-.23-3.86c8.1-4.73,13.7-14.77,13.7-26.38,0-16.17-10.84-29.28-24.2-29.28s-24.19,13.11-24.19,29.28c0,11.62,5.6,21.66,13.71,26.39a12.21,12.21,0,0,1-.23,3.85c-1.45,6.29-2.9,13.06-8.71,13.06s-17.44-1.72-22.26,1c-8.23,4.6-5.56,35.08-5.56,35.08L209,553.56l47.33-9.68S258.94,513.4,250.72,508.8Z"/><path class="cls-3" d="M209,555.6l-.4-.08-48.64-10-.13-1.48a138.77,138.77,0,0,1-.3-16.08c.52-11.78,2.77-18.63,6.89-20.92s11.47-1.85,18-1.46c2,.12,3.84.23,5.26.23,3.82,0,5.13-4.42,6.68-11.16l.08-.35a9.59,9.59,0,0,0,.23-2.25c-8.51-5.46-13.76-15.91-13.76-27.54,0-17.25,11.75-31.28,26.19-31.28s26.2,14,26.2,31.28c0,11.63-5.25,22.07-13.76,27.53a9.16,9.16,0,0,0,.24,2.26l.08.35c1.55,6.74,2.85,11.16,6.68,11.16,1.42,0,3.28-.11,5.25-.23,6.51-.39,13.88-.83,18,1.46h0c4.12,2.29,6.37,9.14,6.89,20.92a135,135,0,0,1-.31,16.08l-.13,1.48Zm-45.3-13.37L209,551.52l45.45-9.29c.82-11.4.28-28.92-4.67-31.68-3.07-1.72-10.42-1.28-15.79-.95-2,.12-3.95.23-5.49.23-7.29,0-9.12-7.91-10.58-14.27l-.08-.34a13.81,13.81,0,0,1-.27-4.49l.09-1,.89-.52c7.72-4.5,12.71-14.18,12.71-24.65,0-15-10-27.28-22.2-27.28s-22.19,12.24-22.19,27.28c0,10.48,5,20.16,12.71,24.66l.9.52.09,1a14.35,14.35,0,0,1-.27,4.48l-.08.35c-1.47,6.35-3.29,14.26-10.58,14.26-1.54,0-3.46-.11-5.5-.23-5.36-.33-12.71-.77-15.78.95C163.37,513.31,162.82,530.83,163.65,542.23Z"/></g><circle class="cls-8" cx="209.02" cy="479.06" r="70.72"/><rect class="cls-6" x="764.84" y="268" width="392.79" height="722.32" rx="47.16"/><path class="cls-3" d="M1110.46,1000.32H812a57.23,57.23,0,0,1-57.16-57.17v-628A57.23,57.23,0,0,1,812,258h298.46a57.24,57.24,0,0,1,57.17,57.17v628A57.24,57.24,0,0,1,1110.46,1000.32ZM812,278a37.2,37.2,0,0,0-37.16,37.17v628A37.2,37.2,0,0,0,812,980.32h298.46a37.21,37.21,0,0,0,37.17-37.17v-628A37.21,37.21,0,0,0,1110.46,278Z"/><circle class="cls-5" cx="944.99" cy="899.7" r="4.15"/><circle class="cls-5" cx="961.23" cy="899.7" r="4.15"/><circle class="cls-3" cx="977.47" cy="899.7" r="4.15"/><path class="cls-3" d="M977.47,904.35a4.65,4.65,0,1,1,4.65-4.65A4.66,4.66,0,0,1,977.47,904.35Zm0-8.3a3.65,3.65,0,1,0,3.65,3.65A3.66,3.66,0,0,0,977.47,896.05Z"/><g class="cls-9"><path class="cls-5" d="M851.52,734.69v0Z"/><rect class="cls-5" x="851.52" y="734.69" width="2.17" height="11.18"/><rect class="cls-10" x="853.69" y="734.69" width="2.17" height="11.18"/><rect class="cls-11" x="855.87" y="734.69" width="2.17" height="11.18"/><rect class="cls-12" x="858.04" y="734.69" width="2.17" height="11.18"/><rect class="cls-13" x="860.21" y="734.69" width="2.17" height="11.18"/><rect class="cls-14" x="862.39" y="734.69" width="2.17" height="11.18"/><rect class="cls-15" x="864.56" y="734.69" width="2.17" height="11.18"/><rect class="cls-16" x="866.73" y="734.69" width="2.17" height="11.18"/><rect class="cls-17" x="868.91" y="734.69" width="2.17" height="11.18"/><rect class="cls-18" x="871.08" y="734.69" width="2.17" height="11.18"/><rect class="cls-19" x="873.25" y="734.69" width="2.17" height="11.18"/><rect class="cls-20" x="875.43" y="734.69" width="2.17" height="11.18"/><rect class="cls-21" x="877.6" y="734.69" width="2.17" height="11.18"/><rect class="cls-22" x="879.77" y="734.69" width="2.17" height="11.18"/><rect class="cls-23" x="881.95" y="734.69" width="2.17" height="11.18"/><rect class="cls-24" x="884.12" y="734.69" width="2.17" height="11.18"/><rect class="cls-25" x="886.29" y="734.69" width="2.17" height="11.18"/><rect class="cls-26" x="888.47" y="734.69" width="2.17" height="11.18"/><rect class="cls-27" x="890.64" y="734.69" width="2.17" height="11.18"/><rect class="cls-28" x="892.81" y="734.69" width="2.17" height="11.18"/><rect class="cls-29" x="894.99" y="734.69" width="2.17" height="11.18"/><rect class="cls-30" x="897.16" y="734.69" width="2.17" height="11.18"/><rect class="cls-31" x="899.33" y="734.69" width="2.17" height="11.18"/><rect class="cls-32" x="901.51" y="734.69" width="2.17" height="11.18"/><rect class="cls-33" x="903.68" y="734.69" width="2.17" height="11.18"/><rect class="cls-34" x="905.85" y="734.69" width="2.17" height="11.18"/><rect class="cls-35" x="908.03" y="734.69" width="2.17" height="11.18"/><rect class="cls-36" x="910.2" y="734.69" width="2.17" height="11.18"/><rect class="cls-37" x="912.37" y="734.69" width="2.17" height="11.18"/><rect class="cls-38" x="914.55" y="734.69" width="2.17" height="11.18"/><rect class="cls-39" x="916.72" y="734.69" width="2.17" height="11.18"/><rect class="cls-40" x="918.89" y="734.69" width="2.17" height="11.18"/><rect class="cls-41" x="921.07" y="734.69" width="2.17" height="11.18"/><rect class="cls-42" x="923.24" y="734.69" width="2.17" height="11.18"/><rect class="cls-43" x="925.41" y="734.69" width="2.17" height="11.18"/><rect class="cls-44" x="927.59" y="734.69" width="2.17" height="11.18"/><rect class="cls-45" x="929.76" y="734.69" width="2.17" height="11.18"/><rect class="cls-46" x="931.93" y="734.69" width="2.17" height="11.18"/><rect class="cls-46" x="934.11" y="734.69" width="7.2" height="11.18"/><rect class="cls-45" x="941.31" y="734.69" width="7.2" height="11.18"/><rect class="cls-44" x="948.51" y="734.69" width="7.2" height="11.18"/><rect class="cls-43" x="955.71" y="734.69" width="7.2" height="11.18"/><rect class="cls-42" x="962.92" y="734.69" width="7.2" height="11.18"/><rect class="cls-41" x="970.12" y="734.69" width="7.2" height="11.18"/><rect class="cls-47" x="977.32" y="734.69" width="7.2" height="11.18"/><rect class="cls-48" x="984.52" y="734.69" width="7.2" height="11.18"/><rect class="cls-49" x="991.72" y="734.69" width="7.2" height="11.18"/><rect class="cls-50" x="998.92" y="734.69" width="7.2" height="11.18"/><rect class="cls-51" x="1006.13" y="734.69" width="7.2" height="11.18"/><rect class="cls-52" x="1013.33" y="734.69" width="7.2" height="11.18"/><rect class="cls-53" x="1020.53" y="734.69" width="7.2" height="11.18"/><rect class="cls-54" x="1027.73" y="734.69" width="7.2" height="11.18"/><rect class="cls-55" x="1034.93" y="734.69" width="7.2" height="11.18"/><rect class="cls-56" x="1042.14" y="734.69" width="7.2" height="11.18"/><rect class="cls-57" x="1049.34" y="734.69" width="7.2" height="11.18"/><rect class="cls-58" x="1056.54" y="734.69" width="7.2" height="11.18"/><rect class="cls-59" x="1063.74" y="734.69" width="7.2" height="11.18"/><path class="cls-59" d="M1070.94,745.87v0Z"/></g><g class="cls-60"><path class="cls-5" d="M868.5,757.22v0Z"/><rect class="cls-5" x="868.5" y="757.22" width="1.84" height="11.18"/><rect class="cls-10" x="870.33" y="757.22" width="1.84" height="11.18"/><rect class="cls-11" x="872.17" y="757.22" width="1.84" height="11.18"/><rect class="cls-12" x="874.01" y="757.22" width="1.84" height="11.18"/><rect class="cls-13" x="875.85" y="757.22" width="1.84" height="11.18"/><rect class="cls-14" x="877.68" y="757.22" width="1.84" height="11.18"/><rect class="cls-15" x="879.52" y="757.22" width="1.84" height="11.18"/><rect class="cls-16" x="881.36" y="757.22" width="1.84" height="11.18"/><rect class="cls-17" x="883.19" y="757.22" width="1.84" height="11.18"/><rect class="cls-18" x="885.03" y="757.22" width="1.84" height="11.18"/><rect class="cls-19" x="886.87" y="757.22" width="1.84" height="11.18"/><rect class="cls-20" x="888.71" y="757.22" width="1.84" height="11.18"/><rect class="cls-21" x="890.54" y="757.22" width="1.84" height="11.18"/><rect class="cls-22" x="892.38" y="757.22" width="1.84" height="11.18"/><rect class="cls-23" x="894.22" y="757.22" width="1.84" height="11.18"/><rect class="cls-24" x="896.05" y="757.22" width="1.84" height="11.18"/><rect class="cls-25" x="897.89" y="757.22" width="1.84" height="11.18"/><rect class="cls-26" x="899.73" y="757.22" width="1.84" height="11.18"/><rect class="cls-27" x="901.56" y="757.22" width="1.84" height="11.18"/><rect class="cls-28" x="903.4" y="757.22" width="1.84" height="11.18"/><rect class="cls-29" x="905.24" y="757.22" width="1.84" height="11.18"/><rect class="cls-30" x="907.08" y="757.22" width="1.84" height="11.18"/><rect class="cls-31" x="908.91" y="757.22" width="1.84" height="11.18"/><rect class="cls-32" x="910.75" y="757.22" width="1.84" height="11.18"/><rect class="cls-33" x="912.59" y="757.22" width="1.84" height="11.18"/><rect class="cls-34" x="914.42" y="757.22" width="1.84" height="11.18"/><rect class="cls-35" x="916.26" y="757.22" width="1.84" height="11.18"/><rect class="cls-36" x="918.1" y="757.22" width="1.84" height="11.18"/><rect class="cls-37" x="919.93" y="757.22" width="1.84" height="11.18"/><rect class="cls-38" x="921.77" y="757.22" width="1.84" height="11.18"/><rect class="cls-39" x="923.61" y="757.22" width="1.84" height="11.18"/><rect class="cls-40" x="925.45" y="757.22" width="1.84" height="11.18"/><rect class="cls-41" x="927.28" y="757.22" width="1.84" height="11.18"/><rect class="cls-42" x="929.12" y="757.22" width="1.84" height="11.18"/><rect class="cls-43" x="930.96" y="757.22" width="1.84" height="11.18"/><rect class="cls-44" x="932.79" y="757.22" width="1.84" height="11.18"/><rect class="cls-45" x="934.63" y="757.22" width="1.84" height="11.18"/><rect class="cls-46" x="936.47" y="757.22" width="1.84" height="11.18"/><rect class="cls-46" x="938.31" y="757.22" width="6.09" height="11.18"/><rect class="cls-45" x="944.39" y="757.22" width="6.09" height="11.18"/><rect class="cls-44" x="950.48" y="757.22" width="6.09" height="11.18"/><rect class="cls-43" x="956.57" y="757.22" width="6.09" height="11.18"/><rect class="cls-42" x="962.65" y="757.22" width="6.09" height="11.18"/><rect class="cls-41" x="968.74" y="757.22" width="6.09" height="11.18"/><rect class="cls-47" x="974.83" y="757.22" width="6.09" height="11.18"/><rect class="cls-48" x="980.92" y="757.22" width="6.09" height="11.18"/><rect class="cls-49" x="987" y="757.22" width="6.09" height="11.18"/><rect class="cls-50" x="993.09" y="757.22" width="6.09" height="11.18"/><rect class="cls-51" x="999.18" y="757.22" width="6.09" height="11.18"/><rect class="cls-52" x="1005.27" y="757.22" width="6.09" height="11.18"/><rect class="cls-53" x="1011.35" y="757.22" width="6.09" height="11.18"/><rect class="cls-54" x="1017.44" y="757.22" width="6.09" height="11.18"/><rect class="cls-55" x="1023.53" y="757.22" width="6.09" height="11.18"/><rect class="cls-56" x="1029.62" y="757.22" width="6.09" height="11.18"/><rect class="cls-57" x="1035.7" y="757.22" width="6.09" height="11.18"/><rect class="cls-58" x="1041.79" y="757.22" width="6.09" height="11.18"/><rect class="cls-59" x="1047.88" y="757.22" width="6.09" height="11.18"/><path class="cls-59" d="M1054,768.4v0Z"/></g><g class="cls-61"><path class="cls-5" d="M870.11,779.16v0Z"/><rect class="cls-5" x="870.11" y="779.16" width="1.81" height="11.18"/><rect class="cls-10" x="871.92" y="779.16" width="1.81" height="11.18"/><rect class="cls-11" x="873.72" y="779.16" width="1.81" height="11.18"/><rect class="cls-12" x="875.53" y="779.16" width="1.81" height="11.18"/><rect class="cls-13" x="877.33" y="779.16" width="1.81" height="11.18"/><rect class="cls-14" x="879.14" y="779.16" width="1.81" height="11.18"/><rect class="cls-15" x="880.94" y="779.16" width="1.81" height="11.18"/><rect class="cls-16" x="882.75" y="779.16" width="1.81" height="11.18"/><rect class="cls-17" x="884.55" y="779.16" width="1.81" height="11.18"/><rect class="cls-18" x="886.36" y="779.16" width="1.81" height="11.18"/><rect class="cls-19" x="888.16" y="779.16" width="1.81" height="11.18"/><rect class="cls-20" x="889.97" y="779.16" width="1.81" height="11.18"/><rect class="cls-21" x="891.77" y="779.16" width="1.81" height="11.18"/><rect class="cls-22" x="893.58" y="779.16" width="1.81" height="11.18"/><rect class="cls-23" x="895.38" y="779.16" width="1.81" height="11.18"/><rect class="cls-24" x="897.19" y="779.16" width="1.81" height="11.18"/><rect class="cls-25" x="898.99" y="779.16" width="1.81" height="11.18"/><rect class="cls-26" x="900.8" y="779.16" width="1.81" height="11.18"/><rect class="cls-27" x="902.6" y="779.16" width="1.81" height="11.18"/><rect class="cls-28" x="904.41" y="779.16" width="1.81" height="11.18"/><rect class="cls-29" x="906.21" y="779.16" width="1.81" height="11.18"/><rect class="cls-30" x="908.02" y="779.16" width="1.81" height="11.18"/><rect class="cls-31" x="909.82" y="779.16" width="1.81" height="11.18"/><rect class="cls-32" x="911.63" y="779.16" width="1.81" height="11.18"/><rect class="cls-33" x="913.43" y="779.16" width="1.81" height="11.18"/><rect class="cls-34" x="915.24" y="779.16" width="1.81" height="11.18"/><rect class="cls-35" x="917.04" y="779.16" width="1.81" height="11.18"/><rect class="cls-36" x="918.85" y="779.16" width="1.81" height="11.18"/><rect class="cls-37" x="920.65" y="779.16" width="1.81" height="11.18"/><rect class="cls-38" x="922.46" y="779.16" width="1.81" height="11.18"/><rect class="cls-39" x="924.26" y="779.16" width="1.81" height="11.18"/><rect class="cls-40" x="926.07" y="779.16" width="1.81" height="11.18"/><rect class="cls-41" x="927.87" y="779.16" width="1.81" height="11.18"/><rect class="cls-42" x="929.68" y="779.16" width="1.81" height="11.18"/><rect class="cls-43" x="931.48" y="779.16" width="1.81" height="11.18"/><rect class="cls-44" x="933.29" y="779.16" width="1.81" height="11.18"/><rect class="cls-45" x="935.09" y="779.16" width="1.81" height="11.18"/><rect class="cls-46" x="936.9" y="779.16" width="1.81" height="11.18"/><rect class="cls-46" x="938.7" y="779.16" width="5.98" height="11.18"/><rect class="cls-45" x="944.69" y="779.16" width="5.98" height="11.18"/><rect class="cls-44" x="950.67" y="779.16" width="5.98" height="11.18"/><rect class="cls-43" x="956.65" y="779.16" width="5.98" height="11.18"/><rect class="cls-42" x="962.63" y="779.16" width="5.98" height="11.18"/><rect class="cls-41" x="968.61" y="779.16" width="5.98" height="11.18"/><rect class="cls-47" x="974.59" y="779.16" width="5.98" height="11.18"/><rect class="cls-48" x="980.58" y="779.16" width="5.98" height="11.18"/><rect class="cls-49" x="986.56" y="779.16" width="5.98" height="11.18"/><rect class="cls-50" x="992.54" y="779.16" width="5.98" height="11.18"/><rect class="cls-51" x="998.52" y="779.16" width="5.98" height="11.18"/><rect class="cls-52" x="1004.5" y="779.16" width="5.98" height="11.18"/><rect class="cls-53" x="1010.48" y="779.16" width="5.98" height="11.18"/><rect class="cls-54" x="1016.46" y="779.16" width="5.98" height="11.18"/><rect class="cls-55" x="1022.45" y="779.16" width="5.98" height="11.18"/><rect class="cls-56" x="1028.43" y="779.16" width="5.98" height="11.18"/><rect class="cls-57" x="1034.41" y="779.16" width="5.98" height="11.18"/><rect class="cls-58" x="1040.39" y="779.16" width="5.98" height="11.18"/><rect class="cls-59" x="1046.37" y="779.16" width="5.98" height="11.18"/><path class="cls-59" d="M1052.35,790.35v0Z"/></g><circle class="cls-5" cx="853.54" cy="375.2" r="3.48"/><rect class="cls-5" x="861.16" y="371.37" width="59.58" height="7.32" rx="3.66"/><circle class="cls-5" cx="937.64" cy="390.36" r="3.48"/><rect class="cls-5" x="870.44" y="386.53" width="59.58" height="7.32" rx="3.66" transform="translate(1800.45 780.37) rotate(-180)"/><circle class="cls-5" cx="920.25" cy="603.36" r="3.48"/><rect class="cls-5" x="927.88" y="599.53" width="52.63" height="7.32" rx="3.66"/><rect class="cls-5" x="937.15" y="614.69" width="42.85" height="7.32" rx="3.66" transform="translate(1917.15 1236.69) rotate(-180)"/><circle class="cls-5" cx="976.84" cy="490.69" r="3.48"/><rect class="cls-5" x="984.46" y="486.86" width="59.58" height="7.32" rx="3.66"/><circle class="cls-5" cx="1060.94" cy="505.85" r="3.48"/><rect class="cls-5" x="993.74" y="502.02" width="59.58" height="7.32" rx="3.66" transform="translate(2047.05 1011.35) rotate(-180)"/><circle class="cls-5" cx="1040.76" cy="404.07" r="23.42"/><path class="cls-3" d="M1036.94,416l-9.35-7.53a2.12,2.12,0,0,1-.32-3h0a2.12,2.12,0,0,1,3-.32l6.1,4.92a2.1,2.1,0,0,0,3-.29l11.68-14a2.11,2.11,0,0,1,3-.27h0a2.11,2.11,0,0,1,.27,3l-14.34,17.21A2.1,2.1,0,0,1,1036.94,416Z"/><circle class="cls-5" cx="869.87" cy="586.76" r="23.42"/><rect class="cls-5" x="883.19" y="430.62" width="123.95" height="102.14" rx="8.16"/><circle class="cls-3" cx="898.69" cy="445.13" r="5.86"/><circle class="cls-3" cx="914.33" cy="445.13" r="5.86"/><circle class="cls-3" cx="929.97" cy="445.13" r="5.86"/><rect class="cls-6" x="894.02" y="458.63" width="102.29" height="63.16"/><rect class="cls-5" x="906.43" y="468.41" width="28.02" height="43.6" rx="6.35"/><rect class="cls-5" x="944.4" y="468.69" width="36.87" height="11.29" rx="5.65"/><rect class="cls-5" x="944.4" y="484.99" width="36.87" height="11.29" rx="5.65"/><rect class="cls-5" x="944.4" y="500.72" width="36.87" height="11.29" rx="5.65"/><path class="cls-3" d="M862.09,597.19a2.5,2.5,0,0,1-1.79-4.25l15.57-15.86a2.5,2.5,0,0,1,3.57,3.5l-15.57,15.86A2.48,2.48,0,0,1,862.09,597.19Z"/><path class="cls-3" d="M877.66,597.19a2.5,2.5,0,0,1-1.79-.75L860.3,580.58a2.5,2.5,0,0,1,3.57-3.5l15.57,15.86a2.49,2.49,0,0,1-1.78,4.25Z"/><path class="cls-5" d="M1068.31,672.71H981.73A7.71,7.71,0,0,1,974,665V555.29a7.71,7.71,0,0,1,7.71-7.71h72L1076,569.81V665A7.71,7.71,0,0,1,1068.31,672.71Zm-86.58-118a.6.6,0,0,0-.6.59V665a.6.6,0,0,0,.6.59h86.58a.59.59,0,0,0,.59-.59V569.34l-14.12-14.64Z"/><path class="cls-3" d="M1053.84,547.67,1076,569.84h-17.32a4.84,4.84,0,0,1-4.84-4.84Z"/><rect class="cls-5" x="991.51" y="575.75" width="67.01" height="8.3" rx="4.15"/><rect class="cls-5" x="991.51" y="591.17" width="67.01" height="8.3" rx="4.15"/><rect class="cls-5" x="998.53" y="607.61" width="52.97" height="26.77" rx="4.67"/><rect class="cls-5" x="991.51" y="645.14" width="67.01" height="8.3" rx="4.15"/><path class="cls-3" d="M1064.64,906.13a26,26,0,1,1,26-26A26.07,26.07,0,0,1,1064.64,906.13Zm0-48.07a22,22,0,1,0,22,22A22.06,22.06,0,0,0,1064.64,858.06Z"/><path class="cls-3" d="M1061.08,890.58a2,2,0,0,1-1.06-3.69l8.89-5.6-9.16-8.19a2,2,0,1,1,2.67-3l9.53,8.52a3.86,3.86,0,0,1-.41,5.71l-.17.12-9.22,5.8A2,2,0,0,1,1061.08,890.58Z"/><path class="cls-3" d="M857.83,906.13a26,26,0,1,1,26-26A26.07,26.07,0,0,1,857.83,906.13Zm0-48.07a22,22,0,1,0,22,22A22.06,22.06,0,0,0,857.83,858.06Z"/><path class="cls-3" d="M861.38,890.58a2,2,0,0,1-1.06-.31l-9.4-5.92a3.87,3.87,0,0,1-.4-5.71l.11-.1,9.42-8.42a2,2,0,0,1,2.66,3l-9.16,8.19,8.9,5.6a2,2,0,0,1-1.07,3.69Z"/><rect class="cls-6" x="353.38" y="10" width="441.55" height="812" rx="47.16"/><path class="cls-3" d="M747.77,832H400.55a57.23,57.23,0,0,1-57.17-57.16V57.16A57.23,57.23,0,0,1,400.55,0H747.77a57.23,57.23,0,0,1,57.17,57.16V774.84A57.23,57.23,0,0,1,747.77,832ZM400.55,20a37.21,37.21,0,0,0-37.17,37.16V774.84A37.21,37.21,0,0,0,400.55,812H747.77a37.2,37.2,0,0,0,37.17-37.16V57.16A37.2,37.2,0,0,0,747.77,20Z"/><path class="cls-3" d="M690.41,742.53a29,29,0,1,1,29-29A29.06,29.06,0,0,1,690.41,742.53Zm0-54a25,25,0,1,0,25,25A25.06,25.06,0,0,0,690.41,688.48Z"/><path class="cls-3" d="M686.41,725a2,2,0,0,1-1.07-3.69l10.27-6.48-10.53-9.41a2,2,0,0,1,2.66-3l10.7,9.56a4.08,4.08,0,0,1-.43,6.05l-.17.12-10.36,6.52A2,2,0,0,1,686.41,725Z"/><path class="cls-3" d="M457.92,742.53a29,29,0,1,1,29-29A29.05,29.05,0,0,1,457.92,742.53Zm0-54a25,25,0,1,0,25,25A25,25,0,0,0,457.92,688.48Z"/><path class="cls-3" d="M461.91,725a2,2,0,0,1-1.06-.31l-10.54-6.64a4.08,4.08,0,0,1-.43-6.05l.11-.1,10.59-9.46a2,2,0,0,1,2.67,3l-10.54,9.43L463,721.35a2,2,0,0,1-1.07,3.69Z"/><polyline class="cls-3" points="550.41 556.08 550.46 556.14 550.5 556.08"/><circle class="cls-5" cx="555.91" cy="713.5" r="4.67"/><circle class="cls-3" cx="574.16" cy="713.5" r="4.67"/><path class="cls-3" d="M574.16,718.67a5.17,5.17,0,1,1,5.17-5.17A5.17,5.17,0,0,1,574.16,718.67Zm0-9.33a4.17,4.17,0,1,0,4.17,4.16A4.16,4.16,0,0,0,574.16,709.34Z"/><circle class="cls-5" cx="592.41" cy="713.5" r="4.67"/><circle class="cls-5" cx="444.84" cy="305.38" r="3.92"/><rect class="cls-5" x="453.41" y="301.07" width="66.97" height="8.22" rx="4.11"/><circle class="cls-5" cx="539.38" cy="322.42" r="3.92"/><rect class="cls-5" x="463.83" y="318.11" width="66.97" height="8.22" rx="4.11" transform="translate(994.64 644.44) rotate(-180)"/><circle class="cls-5" cx="608.94" cy="360.21" r="3.92"/><rect class="cls-5" x="617.52" y="355.9" width="66.97" height="8.22" rx="4.11"/><circle class="cls-5" cx="703.49" cy="377.25" r="3.92"/><rect class="cls-5" x="627.94" y="372.94" width="66.97" height="8.22" rx="4.11" transform="translate(1322.85 754.11) rotate(-180)"/><path class="cls-3" d="M570.2,351l-80.62-61.46a40.18,40.18,0,0,0-10.44,27v47.17a40.36,40.36,0,0,0,40.36,40.36H621.39a40.36,40.36,0,0,0,40.36-40.36V316.55a40.16,40.16,0,0,0-10.46-27.05Z"/><polygon class="cls-3" points="570.22 340.24 647.84 281.1 570.22 212.74 494.57 281.62 570.22 340.24"/><polygon class="cls-5" points="633.12 297.12 570.45 345.69 507.78 297.12 507.78 228.19 633.12 228.19 633.12 297.12"/><path class="cls-6" d="M570.45,351.63l-67.37-52.21V223.49H637.82v75.93Zm-58-56.82,58,44.93,58-44.93V232.89H512.48Z"/><path class="cls-62" d="M562.28,303.52,541.53,286.8a4.71,4.71,0,0,1-.71-6.61h0a4.7,4.7,0,0,1,6.61-.71L561,290.4a4.7,4.7,0,0,0,6.56-.65l25.91-31.1a4.71,4.71,0,0,1,6.62-.6h0a4.69,4.69,0,0,1,.6,6.62l-31.83,38.2A4.7,4.7,0,0,1,562.28,303.52Z"/><g class="cls-63"><path class="cls-5" d="M450.83,528v0Z"/><rect class="cls-5" x="450.83" y="528" width="2.44" height="12.57"/><rect class="cls-10" x="453.27" y="528" width="2.44" height="12.57"/><rect class="cls-11" x="455.71" y="528" width="2.44" height="12.57"/><rect class="cls-12" x="458.16" y="528" width="2.44" height="12.57"/><rect class="cls-13" x="460.6" y="528" width="2.44" height="12.57"/><rect class="cls-14" x="463.04" y="528" width="2.44" height="12.57"/><rect class="cls-15" x="465.49" y="528" width="2.44" height="12.57"/><rect class="cls-16" x="467.93" y="528" width="2.44" height="12.57"/><rect class="cls-17" x="470.37" y="528" width="2.44" height="12.57"/><rect class="cls-18" x="472.82" y="528" width="2.44" height="12.57"/><rect class="cls-19" x="475.26" y="528" width="2.44" height="12.57"/><rect class="cls-20" x="477.7" y="528" width="2.44" height="12.57"/><rect class="cls-21" x="480.15" y="528" width="2.44" height="12.57"/><rect class="cls-22" x="482.59" y="528" width="2.44" height="12.57"/><rect class="cls-23" x="485.03" y="528" width="2.44" height="12.57"/><rect class="cls-24" x="487.48" y="528" width="2.44" height="12.57"/><rect class="cls-25" x="489.92" y="528" width="2.44" height="12.57"/><rect class="cls-26" x="492.36" y="528" width="2.44" height="12.57"/><rect class="cls-27" x="494.81" y="528" width="2.44" height="12.57"/><rect class="cls-28" x="497.25" y="528" width="2.44" height="12.57"/><rect class="cls-29" x="499.69" y="528" width="2.44" height="12.57"/><rect class="cls-30" x="502.13" y="528" width="2.44" height="12.57"/><rect class="cls-31" x="504.58" y="528" width="2.44" height="12.57"/><rect class="cls-32" x="507.02" y="528" width="2.44" height="12.57"/><rect class="cls-33" x="509.46" y="528" width="2.44" height="12.57"/><rect class="cls-34" x="511.91" y="528" width="2.44" height="12.57"/><rect class="cls-35" x="514.35" y="528" width="2.44" height="12.57"/><rect class="cls-36" x="516.79" y="528" width="2.44" height="12.57"/><rect class="cls-37" x="519.24" y="528" width="2.44" height="12.57"/><rect class="cls-38" x="521.68" y="528" width="2.44" height="12.57"/><rect class="cls-39" x="524.12" y="528" width="2.44" height="12.57"/><rect class="cls-40" x="526.57" y="528" width="2.44" height="12.57"/><rect class="cls-41" x="529.01" y="528" width="2.44" height="12.57"/><rect class="cls-42" x="531.45" y="528" width="2.44" height="12.57"/><rect class="cls-43" x="533.9" y="528" width="2.44" height="12.57"/><rect class="cls-44" x="536.34" y="528" width="2.44" height="12.57"/><rect class="cls-45" x="538.78" y="528" width="2.44" height="12.57"/><rect class="cls-46" x="541.23" y="528" width="2.44" height="12.57"/><rect class="cls-46" x="543.67" y="528" width="8.1" height="12.57"/><rect class="cls-45" x="551.77" y="528" width="8.1" height="12.57"/><rect class="cls-44" x="559.86" y="528" width="8.1" height="12.57"/><rect class="cls-43" x="567.96" y="528" width="8.1" height="12.57"/><rect class="cls-42" x="576.05" y="528" width="8.1" height="12.57"/><rect class="cls-41" x="584.15" y="528" width="8.1" height="12.57"/><rect class="cls-47" x="592.25" y="528" width="8.1" height="12.57"/><rect class="cls-48" x="600.34" y="528" width="8.1" height="12.57"/><rect class="cls-49" x="608.44" y="528" width="8.1" height="12.57"/><rect class="cls-50" x="616.53" y="528" width="8.1" height="12.57"/><rect class="cls-51" x="624.63" y="528" width="8.1" height="12.57"/><rect class="cls-52" x="632.73" y="528" width="8.1" height="12.57"/><rect class="cls-53" x="640.82" y="528" width="8.1" height="12.57"/><rect class="cls-54" x="648.92" y="528" width="8.1" height="12.57"/><rect class="cls-55" x="657.01" y="528" width="8.1" height="12.57"/><rect class="cls-56" x="665.11" y="528" width="8.1" height="12.57"/><rect class="cls-57" x="673.21" y="528" width="8.1" height="12.57"/><rect class="cls-58" x="681.3" y="528" width="8.1" height="12.57"/><rect class="cls-59" x="689.4" y="528" width="8.1" height="12.57"/><path class="cls-59" d="M697.49,540.57v0Z"/></g><g class="cls-64"><path class="cls-5" d="M469.91,553.34v0Z"/><rect class="cls-5" x="469.91" y="553.34" width="2.07" height="12.57"/><rect class="cls-10" x="471.98" y="553.34" width="2.07" height="12.57"/><rect class="cls-11" x="474.04" y="553.34" width="2.07" height="12.57"/><rect class="cls-12" x="476.11" y="553.34" width="2.07" height="12.57"/><rect class="cls-13" x="478.17" y="553.34" width="2.07" height="12.57"/><rect class="cls-14" x="480.24" y="553.34" width="2.07" height="12.57"/><rect class="cls-15" x="482.3" y="553.34" width="2.07" height="12.57"/><rect class="cls-16" x="484.37" y="553.34" width="2.07" height="12.57"/><rect class="cls-17" x="486.43" y="553.34" width="2.07" height="12.57"/><rect class="cls-18" x="488.5" y="553.34" width="2.07" height="12.57"/><rect class="cls-19" x="490.56" y="553.34" width="2.07" height="12.57"/><rect class="cls-20" x="492.63" y="553.34" width="2.07" height="12.57"/><rect class="cls-21" x="494.69" y="553.34" width="2.07" height="12.57"/><rect class="cls-22" x="496.76" y="553.34" width="2.07" height="12.57"/><rect class="cls-23" x="498.82" y="553.34" width="2.07" height="12.57"/><rect class="cls-24" x="500.89" y="553.34" width="2.07" height="12.57"/><rect class="cls-25" x="502.95" y="553.34" width="2.07" height="12.57"/><rect class="cls-26" x="505.02" y="553.34" width="2.07" height="12.57"/><rect class="cls-27" x="507.08" y="553.34" width="2.07" height="12.57"/><rect class="cls-28" x="509.15" y="553.34" width="2.07" height="12.57"/><rect class="cls-29" x="511.22" y="553.34" width="2.07" height="12.57"/><rect class="cls-30" x="513.28" y="553.34" width="2.07" height="12.57"/><rect class="cls-31" x="515.35" y="553.34" width="2.07" height="12.57"/><rect class="cls-32" x="517.41" y="553.34" width="2.07" height="12.57"/><rect class="cls-33" x="519.48" y="553.34" width="2.07" height="12.57"/><rect class="cls-34" x="521.54" y="553.34" width="2.07" height="12.57"/><rect class="cls-35" x="523.61" y="553.34" width="2.07" height="12.57"/><rect class="cls-36" x="525.67" y="553.34" width="2.07" height="12.57"/><rect class="cls-37" x="527.74" y="553.34" width="2.07" height="12.57"/><rect class="cls-38" x="529.8" y="553.34" width="2.07" height="12.57"/><rect class="cls-39" x="531.87" y="553.34" width="2.07" height="12.57"/><rect class="cls-40" x="533.93" y="553.34" width="2.07" height="12.57"/><rect class="cls-41" x="536" y="553.34" width="2.07" height="12.57"/><rect class="cls-42" x="538.06" y="553.34" width="2.07" height="12.57"/><rect class="cls-43" x="540.13" y="553.34" width="2.07" height="12.57"/><rect class="cls-44" x="542.19" y="553.34" width="2.07" height="12.57"/><rect class="cls-45" x="544.26" y="553.34" width="2.07" height="12.57"/><rect class="cls-46" x="546.32" y="553.34" width="2.07" height="12.57"/><rect class="cls-46" x="548.39" y="553.34" width="6.84" height="12.57"/><rect class="cls-45" x="555.23" y="553.34" width="6.84" height="12.57"/><rect class="cls-44" x="562.07" y="553.34" width="6.84" height="12.57"/><rect class="cls-43" x="568.92" y="553.34" width="6.84" height="12.57"/><rect class="cls-42" x="575.76" y="553.34" width="6.84" height="12.57"/><rect class="cls-41" x="582.6" y="553.34" width="6.84" height="12.57"/><rect class="cls-47" x="589.45" y="553.34" width="6.84" height="12.57"/><rect class="cls-48" x="596.29" y="553.34" width="6.84" height="12.57"/><rect class="cls-49" x="603.13" y="553.34" width="6.84" height="12.57"/><rect class="cls-50" x="609.98" y="553.34" width="6.84" height="12.57"/><rect class="cls-51" x="616.82" y="553.34" width="6.84" height="12.57"/><rect class="cls-52" x="623.66" y="553.34" width="6.84" height="12.57"/><rect class="cls-53" x="630.51" y="553.34" width="6.84" height="12.57"/><rect class="cls-54" x="637.35" y="553.34" width="6.84" height="12.57"/><rect class="cls-55" x="644.19" y="553.34" width="6.84" height="12.57"/><rect class="cls-56" x="651.04" y="553.34" width="6.84" height="12.57"/><rect class="cls-57" x="657.88" y="553.34" width="6.84" height="12.57"/><rect class="cls-58" x="664.72" y="553.34" width="6.84" height="12.57"/><rect class="cls-59" x="671.57" y="553.34" width="6.84" height="12.57"/><path class="cls-59" d="M678.41,565.91v0Z"/></g><g class="cls-65"><path class="cls-5" d="M471.73,578v0Z"/><rect class="cls-5" x="471.73" y="578" width="2.03" height="12.57"/><rect class="cls-10" x="473.75" y="578" width="2.03" height="12.57"/><rect class="cls-11" x="475.78" y="578" width="2.03" height="12.57"/><rect class="cls-12" x="477.81" y="578" width="2.03" height="12.57"/><rect class="cls-13" x="479.84" y="578" width="2.03" height="12.57"/><rect class="cls-14" x="481.87" y="578" width="2.03" height="12.57"/><rect class="cls-15" x="483.9" y="578" width="2.03" height="12.57"/><rect class="cls-16" x="485.93" y="578" width="2.03" height="12.57"/><rect class="cls-17" x="487.96" y="578" width="2.03" height="12.57"/><rect class="cls-18" x="489.99" y="578" width="2.03" height="12.57"/><rect class="cls-19" x="492.02" y="578" width="2.03" height="12.57"/><rect class="cls-20" x="494.05" y="578" width="2.03" height="12.57"/><rect class="cls-21" x="496.08" y="578" width="2.03" height="12.57"/><rect class="cls-22" x="498.11" y="578" width="2.03" height="12.57"/><rect class="cls-23" x="500.13" y="578" width="2.03" height="12.57"/><rect class="cls-24" x="502.16" y="578" width="2.03" height="12.57"/><rect class="cls-25" x="504.19" y="578" width="2.03" height="12.57"/><rect class="cls-26" x="506.22" y="578" width="2.03" height="12.57"/><rect class="cls-27" x="508.25" y="578" width="2.03" height="12.57"/><rect class="cls-28" x="510.28" y="578" width="2.03" height="12.57"/><rect class="cls-29" x="512.31" y="578" width="2.03" height="12.57"/><rect class="cls-30" x="514.34" y="578" width="2.03" height="12.57"/><rect class="cls-31" x="516.37" y="578" width="2.03" height="12.57"/><rect class="cls-32" x="518.4" y="578" width="2.03" height="12.57"/><rect class="cls-33" x="520.43" y="578" width="2.03" height="12.57"/><rect class="cls-34" x="522.46" y="578" width="2.03" height="12.57"/><rect class="cls-35" x="524.48" y="578" width="2.03" height="12.57"/><rect class="cls-36" x="526.51" y="578" width="2.03" height="12.57"/><rect class="cls-37" x="528.54" y="578" width="2.03" height="12.57"/><rect class="cls-38" x="530.57" y="578" width="2.03" height="12.57"/><rect class="cls-39" x="532.6" y="578" width="2.03" height="12.57"/><rect class="cls-40" x="534.63" y="578" width="2.03" height="12.57"/><rect class="cls-41" x="536.66" y="578" width="2.03" height="12.57"/><rect class="cls-42" x="538.69" y="578" width="2.03" height="12.57"/><rect class="cls-43" x="540.72" y="578" width="2.03" height="12.57"/><rect class="cls-44" x="542.75" y="578" width="2.03" height="12.57"/><rect class="cls-45" x="544.78" y="578" width="2.03" height="12.57"/><rect class="cls-46" x="546.81" y="578" width="2.03" height="12.57"/><rect class="cls-46" x="548.84" y="578" width="6.72" height="12.57"/><rect class="cls-45" x="555.56" y="578" width="6.72" height="12.57"/><rect class="cls-44" x="562.28" y="578" width="6.72" height="12.57"/><rect class="cls-43" x="569.01" y="578" width="6.72" height="12.57"/><rect class="cls-42" x="575.73" y="578" width="6.72" height="12.57"/><rect class="cls-41" x="582.46" y="578" width="6.72" height="12.57"/><rect class="cls-47" x="589.18" y="578" width="6.72" height="12.57"/><rect class="cls-48" x="595.91" y="578" width="6.72" height="12.57"/><rect class="cls-49" x="602.63" y="578" width="6.72" height="12.57"/><rect class="cls-50" x="609.35" y="578" width="6.72" height="12.57"/><rect class="cls-51" x="616.08" y="578" width="6.72" height="12.57"/><rect class="cls-52" x="622.8" y="578" width="6.72" height="12.57"/><rect class="cls-53" x="629.53" y="578" width="6.72" height="12.57"/><rect class="cls-54" x="636.25" y="578" width="6.72" height="12.57"/><rect class="cls-55" x="642.98" y="578" width="6.72" height="12.57"/><rect class="cls-56" x="649.7" y="578" width="6.72" height="12.57"/><rect class="cls-57" x="656.42" y="578" width="6.72" height="12.57"/><rect class="cls-58" x="663.15" y="578" width="6.72" height="12.57"/><rect class="cls-59" x="669.87" y="578" width="6.72" height="12.57"/><path class="cls-59" d="M676.6,590.57v0Z"/></g></g></g></svg>