<svg xmlns="http://www.w3.org/2000/svg" xmlns:xlink="http://www.w3.org/1999/xlink" viewBox="0 0 2912.11 2915.94"><defs><style>.cls-1{fill:url(#linear-gradient);}.cls-2{fill:none;}.cls-3{fill:#538742;}.cls-4{fill:url(#linear-gradient-2);}.cls-5{isolation:isolate;}.cls-6{fill:#f4f7fa;}.cls-7{fill:url(#linear-gradient-3);}.cls-8{clip-path:url(#clip-path);}.cls-9{opacity:0.5;mix-blend-mode:soft-light;}.cls-10{fill:url(#linear-gradient-5);}.cls-11{fill:url(#linear-gradient-6);}.cls-12{fill:url(#linear-gradient-7);}.cls-13{fill:url(#linear-gradient-8);}.cls-14{fill:url(#linear-gradient-9);}.cls-15{clip-path:url(#clip-path-2);}.cls-16{fill:url(#linear-gradient-10);}.cls-17{fill:#beb8f2;}.cls-18{clip-path:url(#clip-path-3);}.cls-19{clip-path:url(#clip-path-4);}.cls-20{fill:url(#linear-gradient-12);}.cls-21{fill:url(#linear-gradient-13);}.cls-22{fill:url(#linear-gradient-14);}.cls-23{fill:url(#linear-gradient-15);}.cls-24{fill:url(#linear-gradient-16);}.cls-25{fill:url(#linear-gradient-17);}.cls-26{fill:url(#linear-gradient-18);}.cls-27{fill:url(#linear-gradient-19);}.cls-28{fill:url(#linear-gradient-20);}.cls-29{clip-path:url(#clip-path-5);}.cls-30{fill:#fcfdfe;}.cls-31{fill:#010b23;}.cls-32{fill:url(#linear-gradient-21);}.cls-33,.cls-56{fill:#ffbf55;}.cls-33,.cls-37,.cls-42,.cls-50{opacity:0.3;}.cls-33,.cls-37,.cls-42,.cls-50,.cls-57,.cls-61{mix-blend-mode:multiply;}.cls-34{fill:#de8bdf;}.cls-35{fill:#fff;}.cls-36,.cls-57{fill:#004475;}.cls-37{fill:url(#linear-gradient-22);}.cls-38{fill:url(#linear-gradient-23);}.cls-39{fill:url(#linear-gradient-24);}.cls-40{fill:url(#linear-gradient-25);}.cls-41{fill:url(#linear-gradient-26);}.cls-42{fill:url(#linear-gradient-27);}.cls-43{fill:url(#linear-gradient-28);}.cls-44{fill:url(#linear-gradient-29);}.cls-45{fill:url(#linear-gradient-30);}.cls-46{fill:url(#linear-gradient-31);}.cls-47{fill:url(#linear-gradient-32);}.cls-48{fill:url(#linear-gradient-33);}.cls-49{fill:url(#linear-gradient-34);}.cls-50{fill:url(#linear-gradient-35);}.cls-51{fill:url(#linear-gradient-36);}.cls-52{fill:url(#linear-gradient-37);}.cls-53{fill:url(#linear-gradient-38);}.cls-54{fill:url(#linear-gradient-39);}.cls-55{fill:url(#linear-gradient-40);}.cls-57{opacity:0.25;}.cls-58{fill:url(#linear-gradient-41);}.cls-59{fill:url(#linear-gradient-42);}.cls-60{fill:url(#linear-gradient-43);}.cls-61{opacity:0.4;fill:url(#linear-gradient-44);}.cls-62{fill:url(#linear-gradient-45);}.cls-63{fill:url(#linear-gradient-46);}.cls-64{fill:url(#linear-gradient-47);}.cls-65{fill:url(#linear-gradient-48);}.cls-66{fill:url(#linear-gradient-49);}.cls-67{fill:url(#linear-gradient-50);}.cls-68{fill:url(#linear-gradient-51);}</style><linearGradient id="linear-gradient" x1="230.32" y1="985.02" x2="874.31" y2="985.02" gradientUnits="userSpaceOnUse"><stop offset="0" stop-color="#444b8c"/><stop offset="1" stop-color="#26264f"/></linearGradient><linearGradient id="linear-gradient-2" x1="1691.9" y1="1390.93" x2="2755.68" y2="1390.93" xlink:href="#linear-gradient"/><linearGradient id="linear-gradient-3" x1="230.32" y1="972.65" x2="874.31" y2="972.65" xlink:href="#linear-gradient"/><clipPath id="clip-path"><path class="cls-1" d="M571.83,1466.16l232,56.56c21.52-29.54,53.54-85.91,8.65-112.68-62.4-37.21-34.1-156.34-5-193.67,36-46.21,117.65-155.52,22.08-214.57-79.57-49.16-141-64.62-118.94-177.47S689.35,626.7,586.72,607.86C478.72,588,427.26,424.63,328.29,450c-172.46,44.18-96.92,324.17,69.61,441.76s44,157.37,16,247.22c-38.16,122.67,136.69,138.5,168.79,198.56C607.84,1384.61,588.05,1435.84,571.83,1466.16Z"/></clipPath><linearGradient id="linear-gradient-5" x1="257.17" y1="955.14" x2="696.29" y2="955.14" xlink:href="#linear-gradient"/><linearGradient id="linear-gradient-6" x1="681.53" y1="1135.04" x2="875.38" y2="1135.04" xlink:href="#linear-gradient"/><linearGradient id="linear-gradient-7" x1="393.31" y1="1270.52" x2="696.18" y2="1270.52" xlink:href="#linear-gradient"/><linearGradient id="linear-gradient-8" x1="578.45" y1="757.73" x2="677.55" y2="757.73" xlink:href="#linear-gradient"/><linearGradient id="linear-gradient-9" x1="185.16" y1="630.47" x2="466.51" y2="630.47" xlink:href="#linear-gradient"/><clipPath id="clip-path-2"><path class="cls-2" d="M904,1645.35l-256.56-.87S599.6,1512.71,662.79,1420c128.92-189.07-45.67-288.78-112.54-341.49C449.39,999.07,395.18,885,544,836s.22-280-181.16-384.89C185.38,348.45,265.42-26.3,670,160.59c241.61,111.61,202.83,368,214,502.18s210.63,145.93,141.81,309.52C967,1112,855.91,1213.7,940.13,1310.2S1032.73,1514.59,904,1645.35Z"/></clipPath><linearGradient id="linear-gradient-10" x1="2790" y1="179.11" x2="2279.25" y2="1630.72" gradientTransform="matrix(-1, 0, 0, 1, 3245.66, -19.04)" gradientUnits="userSpaceOnUse"><stop offset="0" stop-color="#ffc444"/><stop offset="1" stop-color="#f36f56"/></linearGradient><clipPath id="clip-path-3"><path class="cls-3" d="M2008.42,1712.27l-205.21-52.86s-52.85-153.72,23-194.7,46.81-188.59,40.45-269.11C1849.41,977.16,2085.48,997,2085.74,714.52c.07-75.13-24.92-218.43,38.43-278.28,72.16-68.17,124.85-1.29,171.25-58.31,72.53-89.11,190.22-121.07,260.37-29.37,69.24,90.51-14.89,270.68-224,415.49-138.27,120.88-140.43,157.07-129.55,245.2,7.63,61.72,66.51,222.53-17.28,286.74s-147.82,133.6-115.54,203.31C2118.5,1605.38,2008.42,1712.27,2008.42,1712.27Z"/></clipPath><clipPath id="clip-path-4"><path class="cls-4" d="M1736.17,2027.61,1981,2104.35s85.45-111.14,53.23-218.58c-65.73-219.19,130.84-261.46,210.52-291.48C2364.91,1549,2451.06,1456.71,2324,1365s84.44-267,289.05-312.11c200.22-44.18,237.22-425.58-204.91-369.76-264,33.34-304.61,289.49-355.85,414s-244.89,75.41-228.75,252.16c13.79,151,89,281.48-20.47,348S1653,1864.05,1736.17,2027.61Z"/></clipPath><linearGradient id="linear-gradient-12" x1="5511.13" y1="48.7" x2="5000.37" y2="1500.35" gradientTransform="matrix(0.95, 0.3, -0.3, 0.95, -2628.1, -956.3)" xlink:href="#linear-gradient"/><linearGradient id="linear-gradient-13" x1="1835.01" y1="1459.81" x2="2819.8" y2="1459.81" xlink:href="#linear-gradient"/><linearGradient id="linear-gradient-14" x1="2261.11" y1="849.25" x2="2441.14" y2="849.25" xlink:href="#linear-gradient"/><linearGradient id="linear-gradient-15" x1="2358.49" y1="984.86" x2="2718.67" y2="984.86" xlink:href="#linear-gradient"/><linearGradient id="linear-gradient-16" x1="1938.66" y1="1547.78" x2="2432.46" y2="1547.78" xlink:href="#linear-gradient"/><linearGradient id="linear-gradient-17" x1="1854.52" y1="1374.95" x2="1980.86" y2="1374.95" xlink:href="#linear-gradient"/><linearGradient id="linear-gradient-18" x1="1843.16" y1="1966.52" x2="2045.91" y2="1966.52" xlink:href="#linear-gradient"/><linearGradient id="linear-gradient-19" x1="1745.72" y1="1830.77" x2="1863.38" y2="1830.77" xlink:href="#linear-gradient"/><linearGradient id="linear-gradient-20" x1="1388.91" y1="1114.08" x2="1929.39" y2="2003.84" gradientTransform="matrix(-1, 0.02, 0.02, 1, 3655.29, 128.58)" xlink:href="#linear-gradient-10"/><clipPath id="clip-path-5"><path class="cls-2" d="M1975.11,2160.12l-238.7,5.42c-14.67-33.48-33.84-95.41,15.75-111.91,68.95-22.94,66.9-145.37,46.5-188.08-25.25-52.86-81.5-177.16,24.53-214.3,88.26-30.92,151.54-32.83,154.28-147.78s63.18-188.45,167.47-184.81C2254.68,1322.5,2340,1174,2431.25,1220c158.94,80.19,25,337.41-162.88,416.48s-76.74,144.26-68.74,238c10.92,128-163.25,105.9-207.49,157.67C1957.45,2072.74,1965.77,2127,1975.11,2160.12Z"/></clipPath><linearGradient id="linear-gradient-21" x1="-1653.82" y1="2796" x2="2777.84" y2="2960.85" gradientTransform="translate(-1431.76 953.56) rotate(-90)" xlink:href="#linear-gradient"/><linearGradient id="linear-gradient-22" x1="699.34" y1="1693.74" x2="1345.38" y2="1717.77" gradientUnits="userSpaceOnUse"><stop offset="0" stop-color="#ff9085"/><stop offset="1" stop-color="#fb6fbb"/></linearGradient><linearGradient id="linear-gradient-23" x1="-257.79" y1="3393.23" x2="-129.02" y2="3393.23" gradientTransform="matrix(-0.94, 0.35, 0.35, 0.94, 1475.14, -331.01)" xlink:href="#linear-gradient"/><linearGradient id="linear-gradient-24" x1="314.54" y1="3576.5" x2="368.84" y2="3464.11" gradientTransform="matrix(-0.85, 0.53, 0.53, 0.85, 1216.82, -432.45)" xlink:href="#linear-gradient-10"/><linearGradient id="linear-gradient-25" x1="-0.51" y1="3443.84" x2="128.26" y2="3443.84" gradientTransform="matrix(-0.93, 0.37, 0.37, 0.93, 1462.64, -334.85)" xlink:href="#linear-gradient"/><linearGradient id="linear-gradient-26" x1="516.36" y1="3582.14" x2="570.66" y2="3469.75" gradientTransform="matrix(-0.85, 0.53, 0.53, 0.85, 1216.82, -432.45)" xlink:href="#linear-gradient-10"/><linearGradient id="linear-gradient-27" x1="1631.59" y1="2465.33" x2="1942.37" y2="2071.8" gradientTransform="translate(27.14 49.28) rotate(-0.03)" gradientUnits="userSpaceOnUse"><stop offset="0" stop-color="#aa80f9"/><stop offset="1" stop-color="#6165d7"/></linearGradient><linearGradient id="linear-gradient-28" x1="1248.04" y1="3314.29" x2="1680.66" y2="2766.5" gradientTransform="translate(-101.22 217.78) rotate(-20.29)" xlink:href="#linear-gradient"/><linearGradient id="linear-gradient-29" x1="1495.42" y1="2819.26" x2="1005.12" y2="3362.37" gradientTransform="translate(-101.22 217.78) rotate(-20.29)" xlink:href="#linear-gradient"/><linearGradient id="linear-gradient-30" x1="1655.05" y1="2790.69" x2="1584.58" y2="2591.05" gradientTransform="translate(-64.64 120.07) rotate(-11.08)" gradientUnits="userSpaceOnUse"><stop offset="0" stop-color="#311944"/><stop offset="1" stop-color="#893976"/></linearGradient><linearGradient id="linear-gradient-31" x1="1347.2" y1="2501.44" x2="1373.04" y2="2679.96" xlink:href="#linear-gradient-30"/><linearGradient id="linear-gradient-32" x1="1355.34" y1="2537.47" x2="1501.38" y2="2537.47" gradientTransform="translate(-64.64 120.07) rotate(-11.08)" xlink:href="#linear-gradient-10"/><linearGradient id="linear-gradient-33" x1="2103.09" y1="2398.61" x2="1965.69" y2="2203.5" gradientTransform="matrix(1, -0.08, 0.08, 1, -25.28, 43.41)" xlink:href="#linear-gradient"/><linearGradient id="linear-gradient-34" x1="1839.54" y1="2721.49" x2="2140.22" y2="2110.74" gradientTransform="matrix(1, -0.08, 0.08, 1, -25.28, 43.41)" xlink:href="#linear-gradient-30"/><linearGradient id="linear-gradient-35" x1="1692.64" y1="2329.48" x2="2353.21" y2="2329.48" gradientTransform="matrix(1, -0.08, 0.08, 1, -25.28, 43.41)" xlink:href="#linear-gradient-30"/><linearGradient id="linear-gradient-36" x1="2168.87" y1="1252.29" x2="2183.42" y2="864.83" gradientTransform="translate(235.54 4.42) rotate(21.36)" xlink:href="#linear-gradient-10"/><linearGradient id="linear-gradient-37" x1="-500.59" y1="1498.68" x2="-638.58" y2="1148.2" gradientTransform="matrix(-0.98, -0.21, -0.21, 0.98, 1583.54, 319.05)" xlink:href="#linear-gradient"/><linearGradient id="linear-gradient-38" x1="1186.37" y1="1320.97" x2="1181.84" y2="1686.41" gradientTransform="matrix(0.99, 0.15, -0.15, 0.99, 931.37, 203.52)" xlink:href="#linear-gradient-10"/><linearGradient id="linear-gradient-39" x1="-546.75" y1="1463.98" x2="-645.47" y2="1213.24" gradientTransform="matrix(-0.98, -0.21, -0.21, 0.98, 1583.54, 319.05)" xlink:href="#linear-gradient"/><linearGradient id="linear-gradient-40" x1="-643.37" y1="1312.9" x2="-638.24" y2="1358.67" gradientTransform="matrix(-0.98, -0.21, -0.21, 0.98, 1583.54, 319.05)" gradientUnits="userSpaceOnUse"><stop offset="0" stop-color="#ffc444"/><stop offset="1" stop-color="#f36f56"/></linearGradient><linearGradient id="linear-gradient-41" x1="1356.25" y1="1176.81" x2="417.67" y2="682.2" gradientTransform="translate(28.66 -3.79) rotate(5.92)" gradientUnits="userSpaceOnUse"><stop offset="0" stop-color="#311944"/><stop offset="1" stop-color="#6b3976"/></linearGradient><linearGradient id="linear-gradient-42" x1="1345.53" y1="1197.13" x2="406.96" y2="702.52" xlink:href="#linear-gradient-41"/><linearGradient id="linear-gradient-43" x1="1711.31" y1="956.94" x2="1726.29" y2="558.17" gradientTransform="matrix(-1, -0.02, -0.02, 1, 2233.86, 177.29)" xlink:href="#linear-gradient-10"/><linearGradient id="linear-gradient-44" x1="586.72" y1="999.09" x2="598.99" y2="672.51" gradientTransform="translate(28.66 -3.79) rotate(5.92)" xlink:href="#linear-gradient-10"/><linearGradient id="linear-gradient-45" x1="1716.91" y1="817.58" x2="1712.87" y2="1142.87" gradientTransform="matrix(-0.99, 0.16, 0.17, 1.03, 2033.23, -349.23)" xlink:href="#linear-gradient-10"/><linearGradient id="linear-gradient-46" x1="1376.9" y1="1137.62" x2="438.33" y2="643.01" xlink:href="#linear-gradient-41"/><linearGradient id="linear-gradient-47" x1="1357.18" y1="1175.01" x2="418.62" y2="680.4" xlink:href="#linear-gradient-41"/><linearGradient id="linear-gradient-48" x1="737.11" y1="965.22" x2="649.2" y2="1068.98" gradientTransform="matrix(0.95, 0.3, -0.3, 0.95, 48.6, -24.83)" xlink:href="#linear-gradient-10"/><linearGradient id="linear-gradient-49" x1="442.77" y1="1132.94" x2="925.57" y2="1132.94" gradientTransform="matrix(0.95, 0.3, -0.3, 0.95, 48.6, -24.83)" xlink:href="#linear-gradient-22"/><linearGradient id="linear-gradient-50" x1="-2518.36" y1="148.45" x2="-2349.91" y2="148.45" gradientTransform="matrix(0.62, 0.78, -0.78, 0.62, 2029.26, 3143.02)" xlink:href="#linear-gradient-10"/><linearGradient id="linear-gradient-51" x1="-2270.19" y1="3657.18" x2="-2101.73" y2="3657.18" gradientTransform="matrix(-0.79, 0.62, -0.62, -0.79, 687.62, 5421.02)" xlink:href="#linear-gradient-10"/></defs><g class="cls-5"><g id="Layer_2" data-name="Layer 2"><g id="Illustration"><path class="cls-6" d="M2823.18,1421.57c47.17,240.67,142.76,728.45-86,1054.76-408.79,583.09-1809.75,558.06-2423.62-196.18-42.87-52.68-402.42-509-292.9-1089.43C161.78,442.83,1003.92-98.27,1672.29,48.37c422.82,92.76,693.48,442.57,803.32,584.7C2522.34,693.55,2736.38,978.68,2823.18,1421.57Z"/><path class="cls-7" d="M594,1398.85l2.42,1.84c47.79,36.18,106.41,67.28,178.79,88.11l43.19,9.19c20.38-30.92,34.22-64-6-88-62.4-37.21-34.1-156.34-5-193.67,36-46.21,117.65-155.52,22.08-214.57-79.57-49.16-141-64.62-118.94-177.47S689.35,626.7,586.72,607.86C478.72,588,427.26,424.63,328.29,450c-172.46,44.18-96.92,324.17,69.61,441.76s44,157.37,16,247.22c-38.16,122.66,136.69,138.5,168.79,198.56C593.56,1357.87,596,1379,594,1398.85Z"/><path class="cls-1" d="M571.83,1466.16l232,56.56c21.52-29.54,53.54-85.91,8.65-112.68-62.4-37.21-34.1-156.34-5-193.67,36-46.21,117.65-155.52,22.08-214.57-79.57-49.16-141-64.62-118.94-177.47S689.35,626.7,586.72,607.86C478.72,588,427.26,424.63,328.29,450c-172.46,44.18-96.92,324.17,69.61,441.76s44,157.37,16,247.22c-38.16,122.67,136.69,138.5,168.79,198.56C607.84,1384.61,588.05,1435.84,571.83,1466.16Z"/><g class="cls-8"><g class="cls-9"><path class="cls-10" d="M689.94,1456.3l5.17.24C712.06,1078.66,545.52,694.42,260.5,453.75l-3.33,4C541,697.36,706.82,1080,689.94,1456.3Z"/><path class="cls-11" d="M681.53,1249.49l5,1.25c35.86-144.26,187.31-226,188.83-226.83l-2.42-4.57C871.41,1020.16,718,1103,681.53,1249.49Z"/><path class="cls-12" d="M691.17,1386.7l5-1.28c-37.46-146-298.68-230.24-301.31-231.07l-1.56,4.93C395.91,1160.1,654.42,1243.5,691.17,1386.7Z"/><path class="cls-13" d="M580.87,892.68l5.1-.85c-19.72-117.92,90.46-264.45,91.58-265.91l-4.12-3.14C672.3,624.27,560.78,772.58,580.87,892.68Z"/><path class="cls-14" d="M462.81,683.46l3.7-3.62c-95.43-97.22-279.39-102.33-281.24-102.37l-.11,5.18C187,582.68,368.87,587.76,462.81,683.46Z"/></g></g><g class="cls-15"><path class="cls-16" d="M904,1645.35l-256.56-.87S599.6,1512.71,662.79,1420c128.92-189.07-45.67-288.78-112.54-341.49C449.39,999.07,405.18,896.66,527,830.74,664.86,756.16,544.25,556,362.87,451.09,185.38,348.45,265.42-26.3,670,160.59c241.61,111.61,202.83,368,214,502.18s210.63,145.93,141.81,309.52C967,1112,855.91,1213.7,940.13,1310.2S1032.73,1514.59,904,1645.35Z"/><g class="cls-9"><path class="cls-17" d="M792.89,1668.79l-5.33-1c.62-3.3,61.11-333.67,22.32-679.26C774.14,670.15,644.38,273.32,229.13,190.9l1.05-5.31C415,222.28,559.65,323.23,660,485.65,740.19,615.4,792.43,784.42,815.27,988,854.13,1334.42,793.5,1665.48,792.89,1668.79Z"/><path class="cls-17" d="M699,555.34l-5.38-.69C716.53,375.84,649.24,121.5,648.56,119l5.23-1.4C654.48,120.11,722,375.48,699,555.34Z"/><path class="cls-17" d="M629.18,449C447.25,334.74,276.71,388.66,275,389.22l-1.68-5.14c1.72-.57,174.56-55.33,358.73,60.28Z"/><path class="cls-17" d="M822.93,1215.85C763.24,960.28,416.14,896.48,412.71,896.14l.18-5.41c3.4,0,355.09,66,415.31,323.88Z"/><path class="cls-17" d="M825,1107.65l-5.31-1.12c34.66-163.85,212.9-276.06,214.69-277.17l2.86,4.6C1035.43,835.06,859.14,946.09,825,1107.65Z"/><path class="cls-17" d="M795.94,1615.59c-7.48-99.41-149.11-178.59-150.54-179.38l2.62-4.74c5.94,3.27,145.63,81.37,153.32,183.72Z"/><path class="cls-17" d="M811.31,1537.55l-5.33-.93c13.53-77.66,131.27-163.82,170-192.13,5.47-4,10.19-7.46,10.91-8.24l4,3.61c-1,1.12-4.13,3.43-11.74,9C940.89,1376.85,824.47,1462,811.31,1537.55Z"/></g></g><path class="cls-3" d="M2069.38,1499.3c28.24,61,1.33,122-24.5,163-6.16,0-9.74,1.75-16,3.26-56.17,13.67-82.52,6.71-139.62,10.85-12.29.89-48.8-8.27-63.47-13l-27.2-9.38s-48.27-148.33,27.58-189.31,46.81-188.59,40.45-269.11C1849.41,977.16,2085.48,997,2085.74,714.52c.07-75.13-24.92-218.43,38.43-278.28,72.16-68.17,124.85-1.29,171.25-58.31,72.53-89.11,190.22-121.07,260.37-29.37,69.24,90.51-14.89,270.68-224,415.49-138.27,120.88-140.43,157.07-129.55,245.2,7.63,61.72,66.51,222.53-17.28,286.74S2037.1,1429.59,2069.38,1499.3Z"/><path class="cls-3" d="M2008.42,1712.27l-205.21-52.86s-52.85-153.72,23-194.7,46.81-188.59,40.45-269.11C1849.41,977.16,2085.48,997,2085.74,714.52c.07-75.13-24.92-218.43,38.43-278.28,72.16-68.17,124.85-1.29,171.25-58.31,72.53-89.11,190.22-121.07,260.37-29.37,69.24,90.51-14.89,270.68-224,415.49-138.27,120.88-140.43,157.07-129.55,245.2,7.63,61.72,66.51,222.53-17.28,286.74s-147.82,133.6-115.54,203.31C2118.5,1605.38,2008.42,1712.27,2008.42,1712.27Z"/><g class="cls-18"><g class="cls-9"><path class="cls-3" d="M1919,1678.75l-4.16-.53c3.09-24.83,6.52-49.85,10.19-74.34,27.16-181.33,70.27-353.55,128.13-511.91,49-134.17,109.3-260.28,179.15-374.82C2288.51,625,2351.16,539.87,2418.53,464c47.37-53.32,96.56-101.53,146.22-143.27,8.65-7.28,17.91-14.24,26.86-21,11.93-9,24.26-18.24,35.26-28.34l2.84,3.1c-11.15,10.24-23.57,19.57-35.58,28.59-8.9,6.7-18.11,13.62-26.68,20.83-49.5,41.61-98.55,89.67-145.78,142.84-67.21,75.67-129.7,160.64-185.74,252.54-69.71,114.3-129.86,240.16-178.79,374.08-57.77,158.08-100.8,330-127.92,511.08C1925.55,1629,1922.13,1653.94,1919,1678.75Z"/><path class="cls-3" d="M2156.72,862.19l-3.81-1.79c76.59-163.24,9.34-464.83,8.65-467.86l4.1-.93C2166.35,394.65,2233.92,697.64,2156.72,862.19Z"/><path class="cls-3" d="M1982.49,1337.62l-4-1.32c39.08-117,258.17-207.37,260.38-208.27l1.58,3.89C2238.27,1132.81,2021,1222.42,1982.49,1337.62Z"/><path class="cls-3" d="M1966.06,1405.94l-4.16-.6c11.6-79.7-15.18-194.59-75.39-323.49-3-6.48-3-6.48-2.92-7.27l4.16.55-2.08-.28,2-.52c.15.46,1.29,2.91,2.62,5.74C1950.87,1209.71,1977.77,1325.44,1966.06,1405.94Z"/><path class="cls-3" d="M1925.33,1633.49l-3.81-1.76c37.35-80.46,165-112.22,166.32-112.53l1,4.08C2087.56,1523.59,1961.83,1554.88,1925.33,1633.49Z"/><path class="cls-3" d="M1912.68,1679.07c-15.83-69.76-52.21-137.25-111.21-206.34l3.2-2.73c59.45,69.62,96.12,137.7,112.11,208.14Z"/><path class="cls-3" d="M2382.72,512.13l-3.69-2c47.64-88.39,77.2-192.29,86.92-226.44,2.35-8.26,3.19-11.17,3.65-12.13l3.78,1.84c-.35.74-1.69,5.46-3.39,11.44C2460.24,319.11,2430.58,423.34,2382.72,512.13Z"/><path class="cls-3" d="M2284,644.38l-2.94-3c67.1-66.06,255.4-63.94,263.38-63.82l-.06,4.2C2542.44,581.74,2349.86,579.56,2284,644.38Z"/></g></g><path class="cls-4" d="M1736.17,2027.61,1981,2104.35s85.45-111.14,53.23-218.58c-65.73-219.19,130.84-261.46,210.52-291.48C2364.91,1549,2451.06,1456.71,2324,1365s84.44-267,289.05-312.11c200.22-44.18,237.22-425.58-204.91-369.76-264,33.34-304.61,289.49-355.85,414s-244.89,75.41-228.75,252.16c13.79,151,89,281.48-20.47,348S1653,1864.05,1736.17,2027.61Z"/><g class="cls-19"><path class="cls-20" d="M1736.17,2027.61,1981,2104.35s85.45-111.14,53.23-218.58c-65.73-219.19,130.84-261.46,210.52-291.48,120.17-45.27,193.27-129.52,97.07-229.19C2233,1252.33,2408.44,1098,2613.05,1052.84c200.22-44.18,237.22-425.58-204.91-369.76-264,33.34-304.61,289.49-355.85,414s-244.89,75.41-228.75,252.16c13.79,151,89,281.48-20.47,348S1653,1864.05,1736.17,2027.61Z"/><g class="cls-9"><path class="cls-21" d="M1835,2083.54l5.37.67c.41-3.33,42.64-336.53,184.1-654.23,130.32-292.68,374-631.7,794.72-584.72l.6-5.38C2632.51,819,2464.14,871.48,2319.36,996c-115.65,99.44-216.54,244.76-299.87,431.93C1877.72,1746.31,1835.42,2080.21,1835,2083.54Z"/><path class="cls-22" d="M2261.11,1050.58l5.33,1c32.25-177.36,173.28-399.46,174.7-401.68l-4.56-2.92C2435.16,649.19,2293.55,872.18,2261.11,1050.58Z"/><path class="cls-23" d="M2359.85,970.29c208-53.87,354.2,49.09,355.65,50.14l3.17-4.39c-1.48-1.07-149.68-105.52-360.18-51Z"/><path class="cls-24" d="M1943.31,1642.72C2077.48,1417.16,2427.62,1461.28,2431,1462l1.47-5.2c-3.25-1-358.45-44.4-493.8,183.16Z"/><path class="cls-25" d="M1974.08,1539l5.39.53C1996,1372.85,1860,1212,1858.63,1210.4l-4.11,3.52C1855.88,1215.51,1990.35,1374.64,1974.08,1539Z"/><path class="cls-26" d="M1848.18,2031.92c37.18-92.5,196.13-125.16,197.73-125.48l-1.06-5.31c-6.65,1.32-163.42,33.54-201.69,128.77Z"/><path class="cls-27" d="M1857.12,1952.88l5.37.73c10.58-78.12-75.61-195.85-103.93-234.53-4-5.47-7.46-10.19-7.91-11.15l-4.93,2.22c.61,1.37,2.9,4.51,8.47,12.13C1782.19,1760.53,1867.41,1876.93,1857.12,1952.88Z"/></g></g><path class="cls-28" d="M1967.9,2089.62l-2.75,1.28c-54.45,25.07-118.39,42.85-193.55,47.64l-44.16-.3c-13.25-34.57-19.67-69.84,24.72-84.61,68.95-22.94,66.9-145.37,46.5-188.08-25.25-52.86-81.5-177.16,24.53-214.3,88.26-30.92,151.54-32.83,154.28-147.78s63.18-188.45,167.47-184.81C2254.68,1322.5,2340,1174,2431.25,1220c158.94,80.19,25,337.41-162.88,416.48s-76.74,144.26-68.74,238c10.92,128-163.25,105.9-207.49,157.67C1977.15,2049.69,1970.22,2069.78,1967.9,2089.62Z"/><g class="cls-29"><g class="cls-9"><path class="cls-30" d="M1861.87,2125.13l-5.1-.89c64.62-372.69,309.81-712.19,639.87-886l2.41,4.58C2170.38,1415.9,1926.22,1754,1861.87,2125.13Z"/><path class="cls-30" d="M1914.51,1925l-5.18.14c-4-148.59-134.37-261-135.69-262.1l3.35-3.94C1778.32,1660.18,1910.41,1774,1914.51,1925Z"/><path class="cls-30" d="M1875.62,2056.89l-4.61-2.33c67.94-134.53,341.16-160.71,343.91-161l.46,5.16C2212.66,1899,1942.27,1924.92,1875.62,2056.89Z"/><path class="cls-30" d="M2089.47,1598.09l-4.81-1.93c44.59-110.93-31.54-277.7-32.31-279.37l4.69-2.18C2057.83,1316.3,2134.88,1485.11,2089.47,1598.09Z"/><path class="cls-30" d="M2249.71,1419.12l-2.83-4.33c114.09-74.45,294.84-39.93,296.66-39.57l-1,5.08C2540.75,1379.94,2362,1345.83,2249.71,1419.12Z"/></g></g><path class="cls-31" d="M2075.21,112.05V2625.23c0,37.58-32.11,45.67-68.52,46.86l-1247.9,64.54-18.91.62a68.14,68.14,0,0,1-70.58-68.4V68.43A68.14,68.14,0,0,1,739.88,0l25.66.84L2018,98.29C2054.42,99.48,2075.21,74.47,2075.21,112.05Z"/><path class="cls-32" d="M2114.08,112.05V2625.23c0,37.58-29.74,69.31-66.14,70.5L778.76,2737.25a68.15,68.15,0,0,1-70.59-68.4V68.43A68.15,68.15,0,0,1,778.76,0L2047.94,41.56C2084.34,42.75,2114.08,74.47,2114.08,112.05Z"/><path class="cls-33" d="M2073,250.21V2578.37c0,35.09-27.8,64.67-61.82,65.74L817.77,2681.6a63.55,63.55,0,0,1-65.71-63.81v-2404a63.73,63.73,0,0,1,65.71-64l1193.42,34.81C2045.21,185.61,2073,215.13,2073,250.21Z"/><path class="cls-34" d="M1446.69,99a22.92,22.92,0,0,1-23.57,23.26c-13-.39-23.59-11.46-23.59-24.72a22.92,22.92,0,0,1,23.59-23.26C1436.14,74.71,1446.69,85.77,1446.69,99Z"/><path class="cls-6" d="M1887.8,1664.06l-953.13,12.78a21.48,21.48,0,0,1-21.83-21.54V1446.59a22,22,0,0,1,21.83-22l953.13-6.44a20.83,20.83,0,0,1,20.73,21.12v203.24C1908.53,1654.26,1899.25,1663.91,1887.8,1664.06Z"/><path class="cls-6" d="M1885.64,2048.5,937,2071.08a23.45,23.45,0,0,1-24.11-23.55V1843.39A24.63,24.63,0,0,1,937,1818.85l948.69-16.27c12.64-.22,22.89,10.12,22.89,23.09v198.8C1908.53,2037.44,1898.28,2048.2,1885.64,2048.5Z"/><path class="cls-35" d="M1791.56,794.53c0,209.49-166.63,379.34-374.26,379.37-210,0-381.9-173.22-381.9-387s171.94-383.54,381.9-379.28C1624.93,411.85,1791.56,585.05,1791.56,794.53Z"/><path class="cls-36" d="M1571.61,677.23c0,86.31-68.91,155.64-154.21,154.84-85.61-.8-155.23-71.89-155.23-158.78s69.62-156.21,155.23-154.83C1502.7,519.83,1571.61,590.91,1571.61,677.23Z"/><path class="cls-36" d="M1417.3,1173.9a370.11,370.11,0,0,0,240.32-88.17c-22.06-114.11-120.94-200.89-240.32-201.8-120.14-.91-220.84,85.38-243.45,200.74C1240.14,1140.44,1325.07,1173.91,1417.3,1173.9Z"/><path class="cls-36" d="M1548.5,1575.29,1028.3,1581A31.92,31.92,0,0,1,996.11,1549h0a32.71,32.71,0,0,1,32.19-32.59l520.2-4.78c17.19-.16,31.25,14,31.25,31.5h0C1579.75,1560.64,1565.69,1575.1,1548.5,1575.29Z"/><path class="cls-36" d="M1073.94,1941.6a42.09,42.09,0,0,1-41,42,40.06,40.06,0,0,1-41-40.28,42.1,42.1,0,0,1,41-42A40.06,40.06,0,0,1,1073.94,1941.6Z"/><path class="cls-36" d="M1227.32,1938.46c0,22.6-18.18,41.31-40.62,41.79a39.82,39.82,0,0,1-40.71-40.12c0-22.65,18.24-41.36,40.71-41.8A39.83,39.83,0,0,1,1227.32,1938.46Z"/><path class="cls-36" d="M1379.46,1935.35c0,22.5-18,41.14-40.3,41.62a39.58,39.58,0,0,1-40.37-40c0-22.55,18.09-41.19,40.37-41.62A39.58,39.58,0,0,1,1379.46,1935.35Z"/><path class="cls-36" d="M1530.37,1932.26c0,22.42-17.88,41-40,41.45s-40.05-17.35-40.05-39.81,17.94-41,40.05-41.45S1530.37,1909.85,1530.37,1932.26Z"/><path class="cls-36" d="M1680.07,1929.2c0,22.32-17.74,40.8-39.65,41.27s-39.73-17.28-39.73-39.65,17.8-40.85,39.73-41.28S1680.07,1906.87,1680.07,1929.2Z"/><path class="cls-35" d="M1417.24,1183.2C1313.1,1183.2,1215,1142,1141,1067.12s-114.9-174.46-114.9-280.2c0-106.63,41.4-205.92,116.58-279.58,73.87-72.39,171.43-111.12,274.81-109,102.79,2.09,199.2,44.46,271.49,119.31a396.64,396.64,0,0,1,111.88,276.89c0,103.87-39.75,201.45-111.94,274.75s-168.79,113.89-271.62,113.91Zm-7.72-766.34c-95.49,0-185.36,36.67-253.83,103.76-71.57,70.14-111,164.71-111,266.3,0,100.81,38.9,195.68,109.53,267.12,70.48,71.29,163.89,110.56,263,110.56h.06c201.24,0,365-166,365-370.06S1618.46,421,1417.11,416.93C1414.58,416.88,1412,416.86,1409.52,416.86Z"/><path class="cls-33" d="M2114.08,110.62a69.12,69.12,0,0,0-66.86-69.09L1355.1,18.89c256.72,272.06,314.45,500.32,321,656.3,18.81,445.24-364.76,639.22-293.44,1126.14,19.55,133.48,62.79,217.32,79.68,447.91a2199.27,2199.27,0,0,1-15.65,466.15l601.21-19.66c36.4-1.2,66.14-32.92,66.14-70.5Z"/><path class="cls-37" d="M1089.32,1364.94c7.29-214.47-66.2-304.13-85.67-326.09-13.76-15.51-26.5-26.5-121.59-105C811.4,875.51,752.52,827.16,710.72,792.91l-2.55,1802.42c28.48-230.61,83.2-404.53,124.84-515.58C949.56,1768.87,1080,1640.12,1089.32,1364.94Z"/><path class="cls-3" d="M2311.19,2218.88c41.63-25.15,24.18-158.4-37-250.19-86.88-130.35-268.74-187.32-304-146.21-36.13,42.07,78,190.66,96.51,214.79C2133.88,2124.83,2262,2248.63,2311.19,2218.88Z"/><path class="cls-38" d="M2783.87,2770c-7.13,9.44-7.5,25.69.09,33s17.1.44,46-1.27c31-1.83,39.69,4.75,60.17-2.91,8.27-3.1,22.75-10.12,21.92-16.15-.57-4.25-8.4-5.77-34.63-12-37.23-8.89-37.13-9.57-44.92-10.15C2813,2759.06,2793.3,2757.57,2783.87,2770Z"/><path class="cls-39" d="M2783.29,2719l32.53,43.14c-.14,3-11.76,17.18-26.53,16.39l-39.08-39.1Z"/><path class="cls-40" d="M2615.8,2879.88c-6.94,9.59-7,25.84.77,33s17.11.08,46-2.24c30.93-2.48,39.78,3.91,60.1-4.18,8.2-3.27,22.53-10.59,21.57-16.61-.66-4.23-8.52-5.58-34.87-11.29-37.42-8.11-37.33-8.79-45.13-9.21C2644.63,2868.29,2625,2867.22,2615.8,2879.88Z"/><path class="cls-41" d="M2614.54,2829.82l32.54,43.14c-.15,3-11.77,17.18-26.53,16.38l-39.09-39.1Z"/><path class="cls-3" d="M1629.51,1843.88a675,675,0,0,1,216.18-44.46c104.52-3.9,188.47-7,248.27,40.2C2293,1996.77,2195.41,2410.9,2181,2457c-17.11,54.79-49.64,92-49.64,92a234.61,234.61,0,0,1-49,42.24c-149.68,99-242.73,160.61-341,135.45-13.07-3.35-72.47-24-105.26-73.37-5.85-8.81-9.5-20.1-10.42-35.87C1610.43,2356.74,1641.17,2095,1629.51,1843.88Z"/><path class="cls-42" d="M1715.34,2154.6c-20-54.58.66-117.08-43.81-144.34-16.29-10-36.54-14.21-58.6-13.72,2.73,191.89,6.6,383.6,11.36,583.85,1.58,66.15,9.85,69.42,74,127.35,74.32,67.13,135.48,45.49,245.28,23.46-143.85-88.37-179.63-136.43-165-215,17.07-91.46,184.53-118.54,177.76-183.56C1949.17,2263.77,1759,2273.93,1715.34,2154.6Z"/><path class="cls-3" d="M1675.41,1847.35c-49.41-27.6-163,50.92-225.12,118.61-28.86,31.46-129.33,141-98.07,281.93,5.09,23,28.6,130.35,133.23,179.47,93.68,44,217.33,27.14,314.26-43.74l39.54-34.14q19.34-20.28,38.65-40.58A332.88,332.88,0,0,0,1769,2259.81c-77.24-19.37-112,7.76-131.09-13.27-23.5-25.89,28.89-70.53,42.63-184.51C1684.28,2031.27,1730.61,1878.18,1675.41,1847.35Z"/><path class="cls-43" d="M1765.13,2695.18c6.08,108.6,46.91,48.45,139.33-49,97.34-102.62,326.37-283,479.23-214.13,113.85,51.29,102.8,203,284.81,298.22a446.7,446.7,0,0,0,77.38,31.61l59.15-54.71c-10.58-56.71-57.81-273-255.28-409.26-47.75-33-138.85-96.43-254.07-94.95C1984.21,2207,1759.52,2595,1765.13,2695.18Z"/><path class="cls-44" d="M1621.62,2644.8c1.3,63.19,42.56,121.11,89.05,149.39,103.19,62.78,257.71-5,344.27-74.22,105.31-84.27,105.27-166.84,159.09-166.43,83.62.63,98.2,200.59,284.81,298.21a447.41,447.41,0,0,0,77.38,31.62l59.15-54.71c-32.36-122.45-82.46-211.43-119.41-266.81-46.09-69.07-90.44-135.55-176.35-183.74-90.45-50.74-176.87-53.09-213.59-53.66C1894.4,2320.84,1618.22,2480,1621.62,2644.8Z"/><polygon class="cls-45" points="2250.39 2265.24 1677.01 2368.64 1843.4 2412.24 2259.15 2302.22 2250.39 2265.24"/><path class="cls-46" d="M1659.81,2387.78h0a25.91,25.91,0,0,0,21.43,20.63l196.7,35.85-8.89-49.81-192-25.81A16.11,16.11,0,0,0,1659.81,2387.78Z"/><path class="cls-47" d="M1751.94,2342.78c-3.66-.09,8.9-45.18,26-43.61s105.18,31.93,116.07,49.4l10.88,17.47s-34,9.45-56.78,6.45S1781.72,2343.56,1751.94,2342.78Z"/><path class="cls-48" d="M1851.48,2036.64l-12.58,375.92c-.43,13,19,30.77,31.91,29.17l597.86-82.57a21.11,21.11,0,0,0,18.43-19l48-365.8c1.25-13.28-23.33-25-36.6-23.64l-628.1,65.59A21.13,21.13,0,0,0,1851.48,2036.64Z"/><path class="cls-49" d="M1866,2046.47l-12.59,375.92a21.13,21.13,0,0,0,23.71,21.67L2483.23,2369a21.13,21.13,0,0,0,18.43-19l34.62-366.44a21.13,21.13,0,0,0-23.22-23L1885,2026.17A21.11,21.11,0,0,0,1866,2046.47Z"/><path class="cls-50" d="M2244.51,2299.29c-54.83-18.47-39.35-62.83-106.13-111.54-88.11-64.27-170.11-27.26-203.8-79.7-10.49-16.34-16.9-42.51-4.15-86.63l-45.48,4.75a21.11,21.11,0,0,0-18.91,20.3l-12.59,375.92a21.13,21.13,0,0,0,23.71,21.67L2483.23,2369a21.13,21.13,0,0,0,18.43-19l4.77-50.57a230.18,230.18,0,0,0-68.13-19.79C2347.69,2268.35,2307.63,2320.55,2244.51,2299.29Z"/><path class="cls-51" d="M1850.1,1656.25a453,453,0,0,1-4.7,90.83c-3.78,24.29-6.92,30.64-11,35.86,0,0-1.31,1.65-2.79,3.13-3.78,3.78-51.31,13-65.32,16.31-1.48.34-28.91,7-36.79,21.76a3,3,0,0,0-.29.83c-2.71,14.75,81.55,61.52,166.23,46.32,51.82-9.3,98.11-40.79,94.62-56.29s-55.25-5.23-71.82-33.07c-11.53-19.36-.48-47.88,13-71.66C1916.33,1684.85,1864.92,1681.67,1850.1,1656.25Z"/><path class="cls-52" d="M1961.27,1701.43c33.11-9.61,54.47-123.64,26.62-137.42-13.33-6.6-23.2,17-76.29,38.14-42.51,16.91-60.47,11.45-72.23,30.1-11.62,18.42-4.48,45.1-.82,64,1.59,8.21,6.9,12.08,11.09,19,5.81,9.52,14.86,24.62,29.51,49.77a137.37,137.37,0,0,1,12.27-20.44c2.09-2.87,10.43-14.07,35.09-30.83C1942.27,1703,1957.49,1702.53,1961.27,1701.43Z"/><path class="cls-53" d="M1855.55,1741.35s13.63,39.8,56.81,46.43c38.66,5.94,63.12-78.3,42.78-101.81-6.78-7.85-22.49-14-36.54-13.17-8.29.47-11.66,3.13-25.22,3.62-12.52.46-15.57-1.59-19.81.62-5.3,2.78-10.61,11.28-8.67,37.91-5.64-9-13.75-13.72-20.58-12.17a13.24,13.24,0,0,0-6.16,3.83C1830.67,1715.19,1836.83,1729.63,1855.55,1741.35Z"/><path class="cls-54" d="M1873,1671.55c1.53,1.78-5.6,7.39-8.16,17-5,18.66,9.09,45.48,28.12,51.7,11.25,3.67,16-2.56,35.4-.37a89.29,89.29,0,0,1,27.39,7.73c1.41,22-8.76,41.34-24.69,47.85-17.14,7-34.75-3.44-42.12-7.8-4.93-2.92-20.72-12.24-26.17-29.82-5.68-18.31,5.59-26.11-2.62-39.46-4.14-6.74-10.65-10.7-15.14-23a54.44,54.44,0,0,1-2.26-8.1C1854.86,1679.1,1870.75,1669,1873,1671.55Z"/><path class="cls-55" d="M1940.2,1752.22s-9.18,2.48-23.23-1.46c-.68-.19-1.49-.16-1.66.18-.62,1.28,7.17,9.34,16.1,8.84,6.34-.36,12.23-5,11.75-6.6C1943,1752.5,1941.58,1752.28,1940.2,1752.22Z"/><path class="cls-56" d="M47.51,1300.6c-15.89-46.68-4.76-100.34,19.76-137.85,41.44-63.37,95.45-41.35,149.55-111.63,35-45.46,66.84-84.29,105.7-113.36,28.59-21.4,96.23-45.63,122.65-28.81,79.06,50.33-66,478.85-225.93,503.24C155.24,1422,71.39,1370.76,47.51,1300.6Z"/><path class="cls-36" d="M350.89,2653.81a111,111,0,0,1,10.25,38.62,109.78,109.78,0,0,1-.24,19.38c-4.65,6.84-26.34,30.33-55.65,36.13-18.12,3.58-47.51-11.79-14.22-32.59s38.27-25.8,28.48-79c-2.52-13.68-1.53-18.69.62-19.65C325.15,2614.48,339.45,2635.46,350.89,2653.81Z"/><path class="cls-36" d="M504.42,2694.42A111.07,111.07,0,0,1,514.67,2733a109.77,109.77,0,0,1-.24,19.38c-4.64,6.84-26.34,30.33-55.65,36.13-18.12,3.59-47.51-11.78-14.22-32.58s38.27-25.81,28.48-79c-2.52-13.68-1.53-18.68.62-19.65C478.68,2655.1,493,2676.07,504.42,2694.42Z"/><path class="cls-36" d="M664.09,1583.6q16.51,100.55,33,201.09a1907.68,1907.68,0,0,0-65.52,207.11C563,2261.32,520.2,2520.91,517.07,2706.86l-45.31,16.39c-27.06-102.18-18.89-256.69-42.94-438.89-28.43-215.26-9.1-383.54-19-384.13-9.48-.57-36,153.49-36.09,329.42-.05,186-21.44,335.71-7.66,443.21l-54.28,3.24c-50.11-142.15-72-311.52-97.38-535.47-17.62-155.52-38.41-362.12,65.49-575.28,10.37-21.28,46.59-68.53,53.38-80.2C452.43,1507.94,544.94,1560.81,664.09,1583.6Z"/><path class="cls-57" d="M631.59,1991.8a1907.68,1907.68,0,0,1,65.52-207.11q-16.51-100.55-33-201.09c-119.15-22.79-211.66-75.66-330.81-98.45-6.79,11.67-43,58.92-53.38,80.2-35,71.86-55.84,143-67.42,211.62,230.51-2.52,297.21,45.48,315.58,89.73,29.24,70.43-59.68,141.86-28.22,284.4,9.46,42.87,23.59,64,25.25,117.7,2.17,70.47-20.83,77.31-24.43,149-3.94,78.44-31.11,155.1-18.37,210.7a685.77,685.77,0,0,0,24.32,82.16l10.46-3.79C520.2,2520.91,563,2261.32,631.59,1991.8Z"/><path class="cls-58" d="M565.32,653.43c7.39,9.88-3.59,23.13-5.78,71.37a340.22,340.22,0,0,0,1.82,53.71c.42,11.89,1.09,22.92,2,32.66.68,7.14,1.4,12.73,2.43,18.67a227.93,227.93,0,0,0,8.1,32.49,1.4,1.4,0,0,1-.78,1.73l-.12.05a1.4,1.4,0,0,1-1.77-.9,229.18,229.18,0,0,1-8.2-32.89c-1-6-1.78-11.67-2.47-18.89-.49-5.13-.9-10.64-1.25-16.41a151.88,151.88,0,0,0,3.51,54.43c16.4,68.08-36.44,112.89-78.08,114.69-48,2.07-80.59-36-90.65-48.44-40.58-50.2-48.4-132-10.23-191.84C433.87,645.48,547.21,629.22,565.32,653.43Z"/><path class="cls-59" d="M443.88,719c2.05-7.61,11.34-38.64,39.74-58.09,53.88-36.9,140.25-7.29,189.77,36.17,51.82,45.47,30.27,76.93,81.2,127.43,55.32,54.84,94.15,30.89,171,83.87,30.24,20.83,111.75,77,117.2,164.6,4.71,75.7-48.83,151.51-114.34,180.76-112.15,50.07-252.6-39.35-318.86-121.59-63.56-78.86-20.67-98.17-111-250.49C465.92,826.55,428.52,775.83,443.88,719Z"/><path class="cls-56" d="M363.06,939.77c-41,41.47-52,91.33-55.23,113.61-10,69.32,17.19,125.87,23.58,140.72,30.21,70.18,19.08,208.5-157,506.36,16.74,14,74.46,117.23,101.75,67.7,37.22-67.52,206.06-542.64,43.22,20.4-2.15,7.42,14.45,5.93,22,8.74a530.36,530.36,0,0,0,192.85,34c115.67-1.44,203.81-40.64,250.41-65.85a1058.58,1058.58,0,0,1-78.83-294.37c-27-230.84,29.18-417,68.34-517.4-35.71-24.68-148.78-96.15-282.57-73C458.22,886.37,406.21,896.08,363.06,939.77Z"/><path class="cls-33" d="M705.78,1471.06c-27-230.84,29.18-417,68.34-517.4-35.71-24.68-148.78-96.15-282.57-73-33.33,5.76-85.34,15.48-128.49,59.16-32.62,33-46.23,71.31-52.07,96.81,1-.17,2.38-.39,4-.62,82.39-11.37,177.55,54.91,210.08,117.62,54.29,104.64-70.59,190.14-67.47,356,1.69,89.65,40.65,195.65,159.77,314a549.49,549.49,0,0,0,167.22-58.15A1058.76,1058.76,0,0,1,705.78,1471.06Z"/><path class="cls-60" d="M522.83,797.59c-11.74,23.82-21.65,53.62-8.72,73.61,7.87,12.18,20.9,19,33.77,25.36,30.42,15.11,44.54,9,50.54,18.14,13.21,20.18-24.2,97.17-85.24,103.86-60.73,6.65-115.7-59.53-106.56-87.48,8.25-25.22,68-17.31,78.73-49.19,5.38-16-4.47-33.86-13.11-45.93l-7.16.63Z"/><path class="cls-61" d="M598.42,914.7c-6-9.17-20.12-3-50.54-18.14C535,890.17,522,883.38,514.11,871.2c-12.93-20-3-49.79,8.72-73.61l-57.75,39,7.16-.63c6.86,9.58,14.35,22.78,14.51,35.84A49.86,49.86,0,0,1,497,881a132.52,132.52,0,0,0-11.71,41.61c-1.61,15-2.81,26.07,3.61,36.57,7,11.45,19,15.47,29.42,19,23.24,7.79,45,5.2,59.23,1.78C597.29,955.27,605.84,926,598.42,914.7Z"/><path class="cls-62" d="M512.17,820.55s2,30.59-27.75,35.71c-36.68,6.31-56.9-89.89-48.89-96.91,9.28-8.15,21,6.06,44.14-3.43,9.76-4,16.36-18.51,23.84-5.31,8.52,15,8.3,44.17,8.3,44.17s7.52-8.64,10.3-.21C525.75,805.6,518.44,814.1,512.17,820.55Z"/><path class="cls-63" d="M457.44,709.13c-13,10.76-21.88,33.34-14.95,45.87,10,18,46.38,4.06,58.4,26.06,5.27,9.64,3.62,22.1,6.86,22.23,2.68.11,5.15-8.39,7.42-15.35,12.53-38.4,22.78-41.79,21-53.34C532.43,711.12,484.12,687,457.44,709.13Z"/><path class="cls-56" d="M673,950.36c40.46,2.56,44.52-9.57,89.3,23.24,128.6,94.2,212,359.92,84.49,488.34-70.92,71.43-200.35,115-310.47,60.52-89.63-44.38-122.69-132.12-130.72-155.61q2.2-35.32,4.43-70.66c50.35,54.32,93.6,68,125,69.72,53.41,2.86,75.6-29,167-34,35.59-2,55.47,1.59,59.62-8.09,8.58-20-69.09-52.28-105.67-111.63C629.26,1168.89,613.1,1092.84,673,950.36Z"/><path class="cls-64" d="M515.2,751.62c-9.12,8.11,5.78,39.62,35.95,102.3,18.57,38.59,27.85,57.88,34.21,66.46,34.26,46.22,96.08,85.49,162.38,88.66,45.5,2.17,53.93-14.53,90.37-4.5,55,15.13,82,65.85,84.8,63.62,3.08-2.47-26.77-66.9-94.06-125-55.07-47.56-72.5-36.75-159.85-103.76-6.33-4.86-33.14-25.56-71.29-49.68C552.86,761.35,524.27,743.56,515.2,751.62Z"/><path class="cls-65" d="M157.2,1106.5l93.52,231.35a14.83,14.83,0,0,0,9.41,9l107.81,34.24a14.82,14.82,0,0,0,18.82-17.9l-57.64-218.73c-1.31-5-5.09-16.12-14.63-19.15l-131.32-38C171.47,1083.88,153,1095.05,157.2,1106.5Z"/><path class="cls-66" d="M156,1110.16l82.8,223.91a14.85,14.85,0,0,0,9.42,9L356,1377.3a14.81,14.81,0,0,0,18.81-17.9l-57.63-218.73a14.83,14.83,0,0,0-10.12-10.44l-133-39.42A14.82,14.82,0,0,0,156,1110.16Z"/><path class="cls-67" d="M415.8,1315.13l-11.34-10.58s-16.11-22-28.25-32.72-24-12.83-36.93-2.56-1.94,27.27,7.38,42.09c5.67,9,21.65,14.74,34.95,18.2,9.35,2.43,25.73,14.64,25.73,14.64Z"/><path class="cls-68" d="M168.59,1213.91l10.68-11.25s22.17-15.94,32.94-28,13-23.93,2.86-36.9-27.25-2.17-42.15,7c-9.07,5.6-14.91,21.53-18.48,34.8-2.51,9.34-14.85,25.61-14.85,25.61Z"/><path class="cls-33" d="M137.81,1191.17l41.47,20.67c4.24,5.39,54.6,71.51,27.71,134.91-3.49,8.25-16.72,39.43-42.8,45-40.24,8.52-98.87-46.65-97-105.87C68.48,1246.15,96.77,1209.68,137.81,1191.17Z"/></g></g></g></svg>