<svg xmlns="http://www.w3.org/2000/svg" width="645.12" height="885" viewBox="0 0 645.12 885">
  <g id="plant" transform="translate(0.001 0.013)" style="isolation: isolate">
    <g id="Layer_2" data-name="Layer 2" transform="translate(-0.001 -0.013)">
      <g id="OBJECTS">
        <path id="Path_2555" data-name="Path 2555" d="M.638,313.078q.439,4.438,1.17,8.925c7.511,44.625,38.821,81.154,71.352,76.277,35.359-5.511,63.938-53.648,99.395-49.112,26.287,3.316,45.8,34.53,69.206,51.6,31.555,23.02,72.815,17.753,101.345-11.8,30.726-31.9,40.09-69.986,86.324-52.916,49.746,18.338,78.472,67.108,134.948,56.672s115.44-114.465,55.842-177.233a49.655,49.655,0,0,0-7.316-6.535c-17.557-12.875-39.358-6.34-58.525-10.973-29.6-7.121-34.139-46.186-59.842-60.378-35.7-19.9-71.742,13.656-107.929,1.414-33.457-11.315-61.158-28.775-95.249-8.535-15.07,8.925-27.946,21.752-41.406,33.457-15.168,13.168-35.164,29.262-55.16,28.872-17.655-.39-34.139-13.607-50.478-19.508C65.21,145.6-7.6,224.364.638,313.078Z" transform="translate(0.001 469.9)" fill="#753036"/>
        <g id="Group_27" data-name="Group 27" transform="translate(1.809 678.853)" opacity="0.5" style="mix-blend-mode: multiply;isolation: isolate">
          <path id="Path_2556" data-name="Path 2556" d="M.37,252.23c7.511,44.625,38.821,81.154,71.352,76.277C107.08,323,135.66,274.86,171.116,279.4c26.287,3.316,45.8,34.53,69.206,51.6,31.555,23.02,72.815,17.753,101.345-11.8,30.726-31.9,40.09-69.986,86.324-52.916,49.746,18.338,78.472,67.108,134.948,56.672s115.44-114.465,55.842-177.233a49.661,49.661,0,0,0-7.316-6.535c6.1,37.456,7.706,83.788-5.95,109-16.728,30.823-50.283,35.31-77.448,24.873s-51.258-32.237-78.033-45.064-59.354-14.631-80.228,11.12-25.263,44.381-55.306,49.746a93.1,93.1,0,0,1-60.768-7.56c-13.8-7.169-25.9-18.825-38.334-29.848a73.6,73.6,0,0,0-29.848-18.24c-17.118-4.048-34.969,2.195-50.429,13.266S108.4,277.835,92.254,286.321c-17.606,9.266-47.942,3.024-65.6-7.95C16.854,272.178,8.759,261.887.37,252.23Z" transform="translate(-0.37 -139.18)" fill="#753036"/>
        </g>
        <path id="Path_2557" data-name="Path 2557" d="M26.459,126.861c-.39.39-.634.732-.927,1.073l-.78.975a20.235,20.235,0,0,0-1.463,2.1A47.639,47.639,0,0,0,20.7,135.3c-.732,1.512-1.561,2.975-2.146,4.536l-.927,2.341a19.508,19.508,0,0,0-.78,2.39,59.647,59.647,0,0,0-2.682,19.9,67.7,67.7,0,0,0,1.268,9.754l.488,2.487.244,1.268.341,1.171,1.463,4.877a38.477,38.477,0,0,0,1.756,4.877l1.951,4.633c1.463,2.926,3.024,5.8,4.584,8.779a6.065,6.065,0,0,0,10.73-5.657l-.244-.39-.293-.488c-1.561-2.487-3.17-4.877-4.877-7.462l-2-3.853a41.456,41.456,0,0,1-1.853-3.95l-1.561-4.048-.39-1.024-.293-1.024-.585-2.1a56.379,56.379,0,0,1-1.658-8.535,53.648,53.648,0,0,1,.927-17.167,6.653,6.653,0,0,1,.536-2.1l.634-2.048c.39-1.414,1.024-2.731,1.512-4.1a21.97,21.97,0,0,1,1.951-3.853c.732-1.219.732-1.268,1.122-1.853l.585-.878.536-.732h0a3.138,3.138,0,0,0-4.877-3.95Z" transform="translate(54.797 488.347)" fill="#bcce44"/>
        <path id="Path_2558" data-name="Path 2558" d="M3.646,138.641l1.8.78,1.9.975c1.268.731,2.536,1.463,3.755,2.292a66.328,66.328,0,0,1,7.169,5.365,85.833,85.833,0,0,1,12.046,13.168l2.634,3.609,2.39,3.755c1.707,2.487,3.024,5.17,4.536,7.755s2.634,5.414,3.95,8.1l3.463,8.291v.341a6.093,6.093,0,1,0,11.168-4.877,2.878,2.878,0,0,0,0-.39l-4.389-8.632c-1.658-2.829-3.219-5.657-4.877-8.389a72.889,72.889,0,0,0-5.511-8l-3.316-3.414-3.17-3.707a97.541,97.541,0,0,0-14.046-13.607,70.18,70.18,0,0,0-8.242-5.365,47.257,47.257,0,0,0-4.438-2.244c-.78-.341-1.512-.683-2.341-.975s-1.561-.585-2.585-.878a3.17,3.17,0,0,0-3.853,2.195,3.121,3.121,0,0,0,1.853,3.755Z" transform="translate(6.113 513.73)" fill="#bcce44"/>
        <path id="Path_2559" data-name="Path 2559" d="M5.8,132.126l1.268.634,1.414.878a32.11,32.11,0,0,1,2.78,1.951,55.862,55.862,0,0,1,4.877,4.536,69.063,69.063,0,0,1,8.779,10.729,103.109,103.109,0,0,1,7.072,12.1c1.024,2.1,1.951,4.243,2.926,6.389l2.585,6.535h0a6.054,6.054,0,0,0,11.266-4.438,2.633,2.633,0,0,0,0-.536l-3.511-6.779c-1.268-2.243-2.536-4.438-3.853-6.633a112.166,112.166,0,0,0-8.925-12.046,82.915,82.915,0,0,0-10.925-10.973,65.015,65.015,0,0,0-6.34-4.536c-1.122-.683-2.292-1.317-3.463-1.951L9.9,126.956l-2.048-.78a3.122,3.122,0,0,0-3.95,2,3.073,3.073,0,0,0,1.561,3.755Z" transform="translate(14.49 488.641)" fill="#bcce44"/>
        <path id="Path_2560" data-name="Path 2560" d="M52.916,145.989l-1.219.975a10.185,10.185,0,0,0-1.073.975,25.078,25.078,0,0,0-2,1.951c-1.317,1.317-2.487,2.731-3.707,4.145a33.143,33.143,0,0,0-3.219,4.536l-1.463,2.341c-.488.829-.878,1.658-1.317,2.487a66.474,66.474,0,0,0-6.828,21.166,77.3,77.3,0,0,0-.634,11.12v5.56l.634,5.511a49.112,49.112,0,0,0,.975,5.462l1.171,5.413c1.073,3.511,2.195,6.974,3.316,10.486a6.7,6.7,0,0,0,12.778-4.048v-.439l-.244-.585c-1.171-3.024-2.439-6.048-3.609-9.071l-1.414-4.633a31.459,31.459,0,0,1-1.219-4.877l-.927-4.877v-4.731a62.727,62.727,0,0,1,0-9.754,56.867,56.867,0,0,1,4.389-18.533c.341-.732.585-1.512.975-2.195l.488-1.609c.683-1.414,1.658-2.731,2.487-4.1a43.893,43.893,0,0,1,2.877-3.853A18.174,18.174,0,0,1,55.7,153.06l.78-.878.78-.732h0a3.463,3.463,0,0,0-4.487-5.267Z" transform="translate(121.931 563.98)" fill="#bcce44"/>
        <path id="Path_2561" data-name="Path 2561" d="M19.985,156.337l1.8,1.219c.683.439,1.268.975,1.9,1.414s2.487,2.1,3.658,3.219a77.107,77.107,0,0,1,6.535,7.267,97.538,97.538,0,0,1,10.534,16.728l2.146,4.438,1.9,4.633c1.317,3.024,2.243,6.243,3.365,9.315s1.8,6.438,2.731,9.754l2.146,9.754v.341a6.73,6.73,0,0,0,13.119-2.829v-.536l-3.073-10.242c-1.268-3.414-2.39-6.779-3.755-10.1a97.833,97.833,0,0,0-4.438-9.754l-2.439-4.877-2.731-4.877a106.273,106.273,0,0,0-12.924-17.362,82.17,82.17,0,0,0-8-7.511c-1.414-1.171-2.877-2.243-4.389-3.316a16.3,16.3,0,0,0-2.39-1.512c-.878-.488-1.561-.927-2.634-1.463a3.47,3.47,0,1,0-3.316,6.1Z" transform="translate(69.514 580.163)" fill="#bcce44"/>
        <path id="Path_2562" data-name="Path 2562" d="M23.306,149.524a12.88,12.88,0,0,1,1.268.975,10.63,10.63,0,0,1,1.366,1.219,33.555,33.555,0,0,1,2.634,2.634,70.334,70.334,0,0,1,4.877,5.95,82.274,82.274,0,0,1,7.462,13.461,118.131,118.131,0,0,1,5.267,14.631c.683,2.487,1.268,4.877,1.951,7.559l1.512,7.657v.293A6.73,6.73,0,0,0,62.81,201.27v-.634l-2.487-8.1c-.975-2.682-1.853-5.365-2.926-8a122.9,122.9,0,0,0-7.316-15.363,96.224,96.224,0,0,0-9.754-14.046,81.356,81.356,0,0,0-6.048-6.243c-1.073-.975-2.243-1.9-3.365-2.829l-1.853-1.268c-.683-.439-1.219-.829-2.1-1.317a3.511,3.511,0,0,0-4.877,1.366,3.463,3.463,0,0,0,.975,4.438Z" transform="translate(83.995 554.446)" fill="#bcce44"/>
        <path id="Path_2563" data-name="Path 2563" d="M169.17,136.776l-1.414.293-1.317.341a21.665,21.665,0,0,0-2.536.732c-1.658.536-3.268,1.219-4.877,1.853a51.542,51.542,0,0,0-4.633,2.341l-2.292,1.317c-.732.439-1.414.975-2.146,1.463a61.4,61.4,0,0,0-14.924,14.631,72.129,72.129,0,0,0-5.365,8.925l-1.219,2.341-.585,1.171-.439,1.219-1.9,4.877a44.367,44.367,0,0,0-1.561,4.877l-1.366,4.877c-.683,3.365-1.268,6.779-1.853,10.144a6.295,6.295,0,0,0,12.388,2.243s0-.293,0-.439V199.4c.341-3.024.585-6.048.927-9.12l.878-4.438a43.87,43.87,0,0,1,1.024-4.389l1.317-4.341.293-1.073.439-1.073.878-2.048a65.025,65.025,0,0,1,4-8.047,54.087,54.087,0,0,1,11.754-13.412c.585-.439,1.122-.975,1.756-1.414l1.853-1.268c1.219-.878,2.536-1.561,3.853-2.341a27.657,27.657,0,0,1,4.048-1.9,18.261,18.261,0,0,1,2.1-.78l1.024-.342.927-.293h.293a3.268,3.268,0,0,0-1.414-6.34Z" transform="translate(467.731 530.275)" fill="#bcce44"/>
        <path id="Path_2564" data-name="Path 2564" d="M113.963,137.31a15.067,15.067,0,0,1,.975,1.8c.341.634.634,1.366.975,2.048a37.724,37.724,0,0,1,1.561,4.243,62.424,62.424,0,0,1,2.292,8.876,93.584,93.584,0,0,1,1.414,18.484V177.4l-.439,4.877c0,3.073-.878,6.145-1.317,9.218s-1.268,6.1-1.9,9.169l-2.487,9.023v.293a6.291,6.291,0,1,0,12.1,3.365V212.9l1.9-9.754c.439-3.365.975-6.633,1.317-10a87.6,87.6,0,0,0,.585-10.1V173.3a100.128,100.128,0,0,0-3.073-20.094,78.023,78.023,0,0,0-3.316-9.754c-.634-1.609-1.414-3.121-2.195-4.877-.439-.78-.829-1.512-1.317-2.292a23.316,23.316,0,0,0-1.512-2.341,3.268,3.268,0,0,0-5.462,3.56Z" transform="translate(440.613 514.329)" fill="#bcce44"/>
        <path id="Path_2565" data-name="Path 2565" d="M121.487,133.482l.585,1.366a5.262,5.262,0,0,0,.634,1.561,31.032,31.032,0,0,1,.975,3.365A48.185,48.185,0,0,1,125,146.8a74.622,74.622,0,0,1,.341,14.631,118.718,118.718,0,0,1-2,14.387c-.536,2.39-1.17,4.877-1.707,7.121l-2.1,7.023v.293a6.291,6.291,0,1,0,12.046,3.56v-.585l1.512-7.8c.341-2.634.732-5.267,1.024-7.9a115.991,115.991,0,0,0,.634-15.948,84.321,84.321,0,0,0-1.951-15.948,64.668,64.668,0,0,0-2.292-7.8c-.439-1.268-.975-2.536-1.561-3.8a15.32,15.32,0,0,0-.927-1.853c-.341-.585-.683-1.219-1.17-2a3.316,3.316,0,0,0-4.536-.927,3.268,3.268,0,0,0-1.122,4.1Z" transform="translate(462.01 499.088)" fill="#bcce44"/>
        <path id="Path_2566" data-name="Path 2566" d="M59.575,164.506c10.778-9.754,31.36-12.68,39.8,0A18.825,18.825,0,0,1,98.3,187.672a24.385,24.385,0,0,1-16.289,7.462,53.647,53.647,0,0,1-17.119-2.243,15.119,15.119,0,0,1-11.217-20.24,22.141,22.141,0,0,1,5.9-8.145Z" transform="translate(204.231 605.109)" fill="#de8971"/>
        <path id="Path_2567" data-name="Path 2567" d="M116.374,161.666c10.632-7.511,31.018-8.535,39.309,3.17a14.631,14.631,0,0,1-1.122,20.093,23.8,23.8,0,0,1-16.094,5.17,61.254,61.254,0,0,1-16.923-3.316c-7.755-2.341-15.119-10.047-11.071-18.484a18.24,18.24,0,0,1,5.9-6.633Z" transform="translate(423.864 604.974)" fill="#ffda95"/>
        <path id="Path_2568" data-name="Path 2568" d="M12.086,161.539c10.1-7.12,29.262-8.047,37.31,3.024a14.046,14.046,0,0,1-1.073,19.069,22.776,22.776,0,0,1-15.265,4.877,60.324,60.324,0,0,1-16.046-3.121c-7.364-2.244-14.387-9.754-10.486-17.558a16.68,16.68,0,0,1,5.56-6.291Z" transform="translate(20.985 605.686)" fill="#ffda95"/>
        <path id="Path_2569" data-name="Path 2569" d="M77.935,82.131a22.336,22.336,0,0,1-.927-7.072,40.667,40.667,0,0,1,.488-7.706A25.117,25.117,0,0,1,83.1,55.063,34.14,34.14,0,0,1,97.736,44.626a32.093,32.093,0,0,1,11.266-2,23.263,23.263,0,0,1,11.168,2.487c1.268.585,2.682.927,3.95,1.512a1.8,1.8,0,0,0,2.39-.732c.927-1.219,1.951-2.341,2.877-3.56a28.628,28.628,0,0,1,12.339-8.925,31.408,31.408,0,0,1,12.29-2.1,28.628,28.628,0,0,1,20.533,8A31.262,31.262,0,0,1,184.3,58.331a56.379,56.379,0,0,1-3.755,28.238,52.819,52.819,0,0,1-19.508,24.385,69.106,69.106,0,0,1-17.8,8,55.647,55.647,0,0,1-32.725-2.341A57.11,57.11,0,0,1,83.982,94.519,41.262,41.262,0,0,1,77.935,82.131Z" transform="translate(298.531 121.403)" fill="#f54752"/>
        <path id="Path_2570" data-name="Path 2570" d="M86.363,69.9a3.463,3.463,0,0,1-3.9-1.609,15.311,15.311,0,0,1-1.414-2.829A32.823,32.823,0,0,1,78.365,51.8a20.094,20.094,0,0,1,5.072-13.071,19.018,19.018,0,0,1,2.341-2.048,2.439,2.439,0,0,1,2.975,0,2.195,2.195,0,0,1,.78,2.487,13.558,13.558,0,0,1-1.658,3.853,21.118,21.118,0,0,0-2.439,11.9,24.385,24.385,0,0,0,2.292,8.047,9.024,9.024,0,0,1,1.024,3.316A3.121,3.121,0,0,1,86.363,69.9Z" transform="translate(303.807 140.321)" fill="#fd8f97"/>
        <path id="Path_2571" data-name="Path 2571" d="M175.83,52.808a48.331,48.331,0,0,1,.634,18.338,56.526,56.526,0,0,1-7.9,22.337,52.624,52.624,0,0,1-24.385,21.069,46.919,46.919,0,0,1-9.218,3.219,55.842,55.842,0,0,1-32.432-2.438A54.964,54.964,0,0,1,80.19,98.9a8.489,8.489,0,0,1-1.17-1.756c0-.293,0-.78.488-.683a34.143,34.143,0,0,1,3.365,1.024,86.032,86.032,0,0,0,19.508,4.877,76.911,76.911,0,0,0,20.435-.536,52.574,52.574,0,0,0,7.9-1.512,53.258,53.258,0,0,0,24.678-14.631,36.92,36.92,0,0,0,9.022-17.606,30.286,30.286,0,0,0,0-11.851,30.234,30.234,0,0,0-.878-5.9c-1.073-2.682-2.048-5.462-3.316-8.1s-3.365-6.145-4.877-9.218a1.414,1.414,0,0,1,0-.975c0-.536.78-.439,1.219,0a28.775,28.775,0,0,1,9.754,5.9,34.822,34.822,0,0,1,9.169,14.631S175.732,52.808,175.83,52.808Z" transform="translate(306.371 122.83)" fill="#7f21cd" opacity="0.5" style="mix-blend-mode: multiply;isolation: isolate"/>
        <path id="Path_2572" data-name="Path 2572" d="M130.877,66.926a15.363,15.363,0,0,1-8,0c-1.463-.341-1.658,0-1.8,1.219a28.532,28.532,0,0,1-1.951,6.389,7.511,7.511,0,0,1-10,2.634,22.482,22.482,0,0,1-4.877-4.877c-.683-.975-.975-.975-2,0a12.223,12.223,0,0,1-1.9,1.561,13.314,13.314,0,0,1-6.34,2.78,7.316,7.316,0,0,1-8.535-8.145A15.07,15.07,0,0,1,88.983,60.2c.488-.536.439-1.024-.293-1.366a12.68,12.68,0,0,1-5.706-4.877,9.023,9.023,0,0,1-1.17-3.316A5.9,5.9,0,0,1,86.3,43.711a14.1,14.1,0,0,1,7.267,0c1.512.341,1.609,0,1.707-1.268a20,20,0,0,1,.683-4.536,10.339,10.339,0,0,1,4.292-5.8,9.754,9.754,0,0,1,11.607,1.609,22.677,22.677,0,0,1,3.121,4.243.829.829,0,0,0,1.414,0c.634-.536,1.219-1.122,1.9-1.609a12.681,12.681,0,0,1,4.341-2.243,6.048,6.048,0,0,1,8,4.877,9.755,9.755,0,0,1-.439,6.194A11.8,11.8,0,0,1,128.78,48c-.975,1.366-1.219,1.853.683,2.487a15.022,15.022,0,0,1,6,4.877,7.462,7.462,0,0,1-4.487,12Z" transform="translate(316.745 119.782)" fill="#294c49"/>
        <path id="Path_2573" data-name="Path 2573" d="M87.976,43.918a17.05,17.05,0,0,0-.732-3.024,2.731,2.731,0,0,1,.78-2.585,2.195,2.195,0,0,1,2.877-.341,4,4,0,0,1,1.219,1.171,14,14,0,0,1,2.195,6.925,3.219,3.219,0,0,1-.634,1.951,2.585,2.585,0,0,1-4.194,0,9.172,9.172,0,0,1-.585-.878L87.878,43.82Z" transform="translate(337.992 145.766)" fill="#1e9446"/>
        <path id="Path_2574" data-name="Path 2574" d="M100.881,39.338a3.024,3.024,0,0,1-2.439,3.8,4.2,4.2,0,0,1-1.366,0,54.964,54.964,0,0,1-5.706-2.585,2.487,2.487,0,0,1-.683-3.9,2.195,2.195,0,0,1,1.8-.975,12.778,12.778,0,0,1,7.706,2.926,3.317,3.317,0,0,1,.683.732Z" transform="translate(349.033 138.397)" fill="#1e9446"/>
        <path id="Path_2575" data-name="Path 2575" d="M92.235,39.168a2.632,2.632,0,0,1,0,1.171A18.727,18.727,0,0,1,87.8,46.533a2.536,2.536,0,0,1-3.512,0,2.292,2.292,0,0,1-.878-3.073,11.169,11.169,0,0,1,4.877-5.95,2.731,2.731,0,0,1,3.95,1.658Z" transform="translate(322.321 144.175)" fill="#1e9446"/>
        <path id="Path_2576" data-name="Path 2576" d="M94.177,32.528c2.292-.634,3.658.536,3.219,2.487a11.217,11.217,0,0,1-3.9,5.853,2.731,2.731,0,0,1-3.56-.341,2.439,2.439,0,0,1-.439-3.17,17.019,17.019,0,0,1,3.95-4.389,2.585,2.585,0,0,1,.732-.439Z" transform="translate(345.446 125.504)" fill="#1e9446"/>
        <path id="Path_2577" data-name="Path 2577" d="M84.6,34.26a4.878,4.878,0,0,1,1.707,0,13.461,13.461,0,0,1,4.877,2.048,2.146,2.146,0,0,1,1.17,2.341A2.682,2.682,0,0,1,90.5,40.941a3.414,3.414,0,0,1-1.707,0A18.094,18.094,0,0,1,83.914,38.7a4.876,4.876,0,0,1-.927-1.024C82.109,36.308,82.695,34.8,84.6,34.26Z" transform="translate(320.205 132.599)" fill="#1e9446"/>
        <path id="Path_2578" data-name="Path 2578" d="M92.506,37.2a5.705,5.705,0,0,1,0,1.366,3.219,3.219,0,0,1-2.048,2.975,2.731,2.731,0,0,1-3.024-1.219,10.437,10.437,0,0,1-1.609-5.9,2.439,2.439,0,0,1,1.756-2.341,2.585,2.585,0,0,1,2.877.732A8.535,8.535,0,0,1,92.506,37.2Z" transform="translate(332.731 123.801)" fill="#1e9446"/>
        <path id="Path_2579" data-name="Path 2579" d="M96.714,48.246a11.705,11.705,0,0,1-5.365.488,6,6,0,0,1-4.877-9.754,6.584,6.584,0,0,1,4-3.219c2-.585,4.048-1.17,6.1-1.561a7.218,7.218,0,0,1,7.608,3.8,5.609,5.609,0,0,1-1.707,7.462A17.313,17.313,0,0,1,96.714,48.246Z" transform="translate(330.132 132.269)" fill="#bcce44"/>
        <path id="Path_2580" data-name="Path 2580" d="M94.707,135.767a21.215,21.215,0,0,1-1.024-6.877,40.154,40.154,0,0,1,.488-7.559,24.386,24.386,0,0,1,5.462-12A33.458,33.458,0,0,1,113.971,99.14a31.848,31.848,0,0,1,11.022-1.951,23.215,23.215,0,0,1,10.925,2.439c1.219.585,2.585.878,3.8,1.463a1.658,1.658,0,0,0,2.341-.732c.878-1.17,1.9-2.243,2.829-3.463a28.286,28.286,0,0,1,12.046-8.681,30.824,30.824,0,0,1,12-2.1,28.092,28.092,0,0,1,20.24,7.852,30.823,30.823,0,0,1,9.462,18.582,55.355,55.355,0,0,1-3.707,27.555,51.5,51.5,0,0,1-19.508,23.946,47.842,47.842,0,0,1-11.217,5.755,53.653,53.653,0,0,1-6.145,2.048,54.184,54.184,0,0,1-31.945-2.292,55.842,55.842,0,0,1-25.946-21.557A40.334,40.334,0,0,1,94.707,135.767Z" transform="translate(363.206 333.909)" fill="#f54752"/>
        <path id="Path_2581" data-name="Path 2581" d="M102.714,123.816a3.414,3.414,0,0,1-3.8-1.561,20.976,20.976,0,0,1-1.366-2.78,32.189,32.189,0,0,1-2.536-13.363,19.508,19.508,0,0,1,4.877-12.729,18.677,18.677,0,0,1,2.341-2,2.292,2.292,0,0,1,2.877,0,2.195,2.195,0,0,1,.78,2.439,14.63,14.63,0,0,1-1.658,3.755,20.094,20.094,0,0,0-2.341,11.607,24.385,24.385,0,0,0,2.195,7.852A9.12,9.12,0,0,1,105.1,120.3,3.024,3.024,0,0,1,102.714,123.816Z" transform="translate(368.318 352.395)" fill="#fd8f97"/>
        <path id="Path_2582" data-name="Path 2582" d="M190.149,107.452a47.309,47.309,0,0,1,.585,17.753,54.624,54.624,0,0,1-7.706,21.8,51.112,51.112,0,0,1-23.7,20.532,43.892,43.892,0,0,1-9.023,3.17,54.819,54.819,0,0,1-31.652-2.341,53.648,53.648,0,0,1-21.8-16.094,10.526,10.526,0,0,1-1.171-1.707c0-.293,0-.732.488-.634a25.167,25.167,0,0,1,3.268.975,84.813,84.813,0,0,0,18.972,4.584,73.157,73.157,0,0,0,20.142-.341,51.151,51.151,0,0,0,7.706-1.463,51.989,51.989,0,0,0,24.385-14.631,36.772,36.772,0,0,0,8.779-17.216,29.752,29.752,0,0,0,0-11.559,28.828,28.828,0,0,0-.878-5.755c-1.024-2.634-1.951-5.365-3.219-7.9s-3.268-6-4.877-9.023v-.927c0-.2.732-.439,1.17,0a28.531,28.531,0,0,1,9.754,5.755,34.14,34.14,0,0,1,8.925,14.631Z" transform="translate(370.962 335.156)" fill="#7f21cd" opacity="0.5" style="mix-blend-mode: multiply;isolation: isolate"/>
        <path id="Path_2583" data-name="Path 2583" d="M146.492,121.288a15.168,15.168,0,0,1-7.8,0c-1.414-.293-1.609,0-1.756,1.219a27.56,27.56,0,0,1-1.9,6.194,7.364,7.364,0,0,1-9.754,2.634,22.435,22.435,0,0,1-4.877-4.877c-.683-.975-.927-.927-1.951,0l-1.853,1.512A13.169,13.169,0,0,1,110.4,130.7a7.121,7.121,0,0,1-8.437-8.193,14.192,14.192,0,0,1,3.414-8.1c.439-.536.439-1.024-.293-1.366a11.851,11.851,0,0,1-5.56-4.877A8.339,8.339,0,0,1,98.355,105a5.755,5.755,0,0,1,4.389-6.779,13.558,13.558,0,0,1,7.121,0c1.463.341,1.561,0,1.609-1.268a18.731,18.731,0,0,1,.683-4.389,10.339,10.339,0,0,1,4.194-5.706,9.266,9.266,0,0,1,11.315,1.609,19.507,19.507,0,0,1,3.073,4.1c.39.585.829.683,1.366,0a7.651,7.651,0,0,1,1.853-1.512,12.681,12.681,0,0,1,4.243-2.243,5.9,5.9,0,0,1,7.8,4.585,9.754,9.754,0,0,1-.39,6.048,11.464,11.464,0,0,1-1.414,2.78c-.975,1.317-1.17,1.756.683,2.439a13.949,13.949,0,0,1,5.852,4.877,6.731,6.731,0,0,1,1.561,4.877A7.072,7.072,0,0,1,146.492,121.288Z" transform="translate(380.87 332.001)" fill="#294c49"/>
        <path id="Path_2584" data-name="Path 2584" d="M104.437,98.447a17.622,17.622,0,0,0-.732-2.975,2.536,2.536,0,0,1,.78-2.487,2.048,2.048,0,0,1,2.78-.341,4.487,4.487,0,0,1,1.219,1.122,13.315,13.315,0,0,1,2.1,6.73,2.829,2.829,0,0,1-.585,1.951,2.487,2.487,0,0,1-4.1,0,2.439,2.439,0,0,1-.536-.829c-.39-1.073-.683-2.146-1.024-3.219Z" transform="translate(401.807 357.719)" fill="#1e9446"/>
        <path id="Path_2585" data-name="Path 2585" d="M117.04,93.912a2.926,2.926,0,0,1-2.39,3.755,3.9,3.9,0,0,1-1.317,0,57.99,57.99,0,0,1-5.609-2.536,2.39,2.39,0,0,1-.634-3.8,2.048,2.048,0,0,1,1.756-.927,12.144,12.144,0,0,1,7.511,2.829A2.977,2.977,0,0,1,117.04,93.912Z" transform="translate(412.565 350.549)" fill="#1e9446"/>
        <path id="Path_2586" data-name="Path 2586" d="M108.611,93.752a2.438,2.438,0,0,1,0,1.122,18.435,18.435,0,0,1-4.292,6.1,2.536,2.536,0,0,1-3.463,0A2.243,2.243,0,0,1,99.979,98a11.363,11.363,0,0,1,4.877-5.853,2.682,2.682,0,0,1,3.755,1.609Z" transform="translate(386.66 356.22)" fill="#1e9446"/>
        <path id="Path_2587" data-name="Path 2587" d="M110.641,87.318c2.243-.634,3.56.536,3.121,2.439a10.681,10.681,0,0,1-4.048,5.706,2.585,2.585,0,0,1-3.414-.293,2.39,2.39,0,0,1-.439-3.121,16.144,16.144,0,0,1,3.853-4.292A2.488,2.488,0,0,1,110.641,87.318Z" transform="translate(408.918 337.928)" fill="#1e9446"/>
        <path id="Path_2588" data-name="Path 2588" d="M101.28,88.982a6.582,6.582,0,0,1,1.658,0,13.265,13.265,0,0,1,4.877,2,2.146,2.146,0,0,1,1.122,2.292,2.682,2.682,0,0,1-1.853,2.243,3.023,3.023,0,0,1-1.609,0,16.972,16.972,0,0,1-4.877-2.243,4.438,4.438,0,0,1-.927-.975C98.647,91.03,99.183,89.567,101.28,88.982Z" transform="translate(384.48 344.848)" fill="#1e9446"/>
        <path id="Path_2589" data-name="Path 2589" d="M108.851,91.859a5.616,5.616,0,0,1,0,1.317,3.121,3.121,0,0,1-2,2.877,2.585,2.585,0,0,1-2.926-1.17,9.754,9.754,0,0,1-1.609-5.755,2.438,2.438,0,0,1,1.707-2.292,2.487,2.487,0,0,1,2.78.732,7.8,7.8,0,0,1,2.048,4.292Z" transform="translate(396.662 336.117)" fill="#1e9446"/>
        <path id="Path_2590" data-name="Path 2590" d="M113.027,102.588a11.851,11.851,0,0,1-5.267.439,5.852,5.852,0,0,1-4.877-9.413,6.633,6.633,0,0,1,3.9-3.17,50.618,50.618,0,0,1,5.95-1.512,7.169,7.169,0,0,1,7.462,3.707,5.56,5.56,0,0,1-1.658,7.316,17.168,17.168,0,0,1-5.511,2.634Z" transform="translate(394.192 344.507)" fill="#bcce44"/>
        <path id="Path_2591" data-name="Path 2591" d="M50.982,84.715a21.752,21.752,0,0,1,3.511-6.243c1.707-2,3.316-4.048,5.17-5.852a25.068,25.068,0,0,1,12.046-6.34,34.579,34.579,0,0,1,18.094.732A34.14,34.14,0,0,1,100,72.376a23.654,23.654,0,0,1,7.364,8.876c.634,1.268,1.561,2.39,2.195,3.609a1.756,1.756,0,0,0,2.39.878c1.463-.39,2.975-.634,4.438-1.024a28.677,28.677,0,0,1,15.314.536,31.213,31.213,0,0,1,11.12,5.852,28.775,28.775,0,0,1,11.559,19.167,31.6,31.6,0,0,1-3.95,21.069,56.818,56.818,0,0,1-20.386,20.142,53.16,53.16,0,0,1-30.774,7.364,50.039,50.039,0,0,1-12.827-2.39,48.036,48.036,0,0,1-6.291-2.195,55.648,55.648,0,0,1-24.385-22,57.208,57.208,0,0,1-7.511-34.139,40.528,40.528,0,0,1,2.731-13.412Z" transform="translate(186.097 253.67)" fill="#f54752"/>
        <path id="Path_2592" data-name="Path 2592" d="M51.727,93.232a3.56,3.56,0,0,1-2.146-3.707,21.561,21.561,0,0,1,.683-3.073A32.822,32.822,0,0,1,56.506,73.87,20.191,20.191,0,0,1,68.8,66.8a16.776,16.776,0,0,1,3.121,0,2.341,2.341,0,0,1,2.341,1.8,2.195,2.195,0,0,1-.878,2.487,16.242,16.242,0,0,1-3.707,2.048,21.264,21.264,0,0,0-9.266,7.95,24.726,24.726,0,0,0-3.121,7.8,10.143,10.143,0,0,1-1.268,3.316,3.17,3.17,0,0,1-4.292,1.024Z" transform="translate(192.132 258.761)" fill="#fd8f97"/>
        <path id="Path_2593" data-name="Path 2593" d="M152.233,101.307a49.6,49.6,0,0,1-10.681,14.631,56.916,56.916,0,0,1-20.093,12.924,53.356,53.356,0,0,1-32.286,1.8,46.676,46.676,0,0,1-9.315-3.17,56.428,56.428,0,0,1-24.385-21.849A55.55,55.55,0,0,1,48.059,78.97a7.462,7.462,0,0,1,0-2.1c0-.341.536-.585.78,0a30.569,30.569,0,0,1,2.048,2.877A84.764,84.764,0,0,0,63.47,95.406,75.547,75.547,0,0,0,80.1,107.843a47.936,47.936,0,0,0,7.218,3.707,53.989,53.989,0,0,0,28.726,3.511,38.236,38.236,0,0,0,18-8.486,31.019,31.019,0,0,0,7.511-9.315,30.43,30.43,0,0,0,2.926-5.218c.78-2.829,1.756-5.609,2.341-8.486s1.122-6.974,1.707-10.486a1.317,1.317,0,0,1,.488-.829c.488,0,.878,0,1.122.585a29.653,29.653,0,0,1,4.146,10.73,35.505,35.505,0,0,1-1.756,17.362Z" transform="translate(186.045 280.142)" fill="#7f21cd" opacity="0.5" style="mix-blend-mode: multiply;isolation: isolate"/>
        <path id="Path_2594" data-name="Path 2594" d="M93.516,112.937a15.8,15.8,0,0,1-6.243-4.877c-.975-1.17-1.219-1.17-2.195,0a27.751,27.751,0,0,1-5.462,3.853,7.608,7.608,0,0,1-9.754-4.048,25.508,25.508,0,0,1-.927-6.925c0-1.219,0-1.366-1.463-1.366H64.985a13.705,13.705,0,0,1-6.779-1.707A7.413,7.413,0,0,1,56.45,86.113a15.07,15.07,0,0,1,7.9-4.438c.683,0,.975-.536.634-1.268A12.534,12.534,0,0,1,63.522,72.9,9.753,9.753,0,0,1,64.6,69.58a5.95,5.95,0,0,1,7.755-3.024,13.9,13.9,0,0,1,5.706,4.877c.975,1.17,1.122,1.17,2.146,0a18.533,18.533,0,0,1,3.316-3.17,10.339,10.339,0,0,1,7.169-2.244,9.754,9.754,0,0,1,8.242,8.437,21.168,21.168,0,0,1,0,5.267c0,.732.293,1.073,1.024,1.073a21.214,21.214,0,0,1,2.487,0,11.9,11.9,0,0,1,4.877.878,6.048,6.048,0,0,1,3.316,8.73,9.754,9.754,0,0,1-4.146,4.877,12.97,12.97,0,0,1-2.877,1.366c-1.609.488-2.1.683-.975,2.39a14.631,14.631,0,0,1,1.853,7.462,7.559,7.559,0,0,1-10.973,6.828Z" transform="translate(210.525 255.93)" fill="#294c49"/>
        <path id="Path_2595" data-name="Path 2595" d="M59.594,76.934a31.157,31.157,0,0,1,1.268-2.926A2.731,2.731,0,0,1,63.057,72.5a2.146,2.146,0,0,1,2.487,1.463,4.048,4.048,0,0,1,.293,1.707A14.631,14.631,0,0,1,63.3,82.494a3.024,3.024,0,0,1-1.707,1.17,2.585,2.585,0,0,1-3.414-2.439,3.852,3.852,0,0,1,0-1.073c.39-1.122.829-2.195,1.219-3.268Z" transform="translate(225.426 280.959)" fill="#1e9446"/>
        <path id="Path_2596" data-name="Path 2596" d="M70.587,81.318a3.024,3.024,0,0,1-4.243,1.512,2.829,2.829,0,0,1-1.024-.975,60.822,60.822,0,0,1-2.975-5.56,2.487,2.487,0,0,1,1.9-3.512,2.1,2.1,0,0,1,2,.341,12.437,12.437,0,0,1,4.341,7.023A4.875,4.875,0,0,1,70.587,81.318Z" transform="translate(240.819 281.794)" fill="#1e9446"/>
        <path id="Path_2597" data-name="Path 2597" d="M66.342,73.866a3.119,3.119,0,0,1-.829.829,19.85,19.85,0,0,1-7.364,2.243,2.585,2.585,0,0,1-2.877-2.1,2.341,2.341,0,0,1,1.171-2.975,11.364,11.364,0,0,1,7.9-1.561,2.731,2.731,0,0,1,2,3.56Z" transform="translate(213.655 272.03)" fill="#1e9446"/>
        <path id="Path_2598" data-name="Path 2598" d="M71.45,70.114c2.195.927,2.585,2.682,1.024,3.95a11.315,11.315,0,0,1-6.925,2.146,2.731,2.731,0,0,1-2.585-2.439,2.439,2.439,0,0,1,1.609-2.829,18.291,18.291,0,0,1,5.852-1.073A3.121,3.121,0,0,1,71.45,70.114Z" transform="translate(243.906 270.954)" fill="#1e9446"/>
        <path id="Path_2599" data-name="Path 2599" d="M60.542,67.288a9.752,9.752,0,0,1,1.366,1.073,14.63,14.63,0,0,1,2.78,4.877,2.243,2.243,0,0,1-.488,2.585,2.829,2.829,0,0,1-2.926.634,3.121,3.121,0,0,1-1.414-.927,16.436,16.436,0,0,1-2.585-4.877,4.487,4.487,0,0,1,0-1.414C57.128,67.288,58.494,66.361,60.542,67.288Z" transform="translate(221.845 259.539)" fill="#1e9446"/>
        <path id="Path_2600" data-name="Path 2600" d="M66.62,74.271a4.877,4.877,0,0,1-.683,1.219,3.219,3.219,0,0,1-3.414,1.073,2.78,2.78,0,0,1-1.707-2.78,10.437,10.437,0,0,1,2.39-5.755,2.487,2.487,0,0,1,2.829-.78,2.634,2.634,0,0,1,1.8,2.341,8.486,8.486,0,0,1-1.219,4.682Z" transform="translate(235.763 260.164)" fill="#1e9446"/>
        <path id="Path_2601" data-name="Path 2601" d="M65.283,83.2a10.876,10.876,0,0,1-4.536-2.926,6,6,0,0,1,2.1-10.632,6.584,6.584,0,0,1,5.17,0,50.968,50.968,0,0,1,5.8,2.536,7.267,7.267,0,0,1,3.707,7.706,5.657,5.657,0,0,1-5.95,4.877A17.946,17.946,0,0,1,65.283,83.2Z" transform="translate(226.126 268.013)" fill="#bcce44"/>
        <path id="Path_2602" data-name="Path 2602" d="M55.909,31.323a18.289,18.289,0,0,1,3.365-5.414,57.522,57.522,0,0,1,4.877-4.877,22.142,22.142,0,0,1,10.973-5.121,31.067,31.067,0,0,1,16.046,1.463A30.384,30.384,0,0,1,100,22.593a20.923,20.923,0,0,1,6,8.145c.488,1.17,1.268,2.195,1.8,3.316s1.073,1.122,2.048.878,2.682-.439,4-.732a25.751,25.751,0,0,1,13.558,1.17,27.361,27.361,0,0,1,9.754,5.706,25.361,25.361,0,0,1,9.413,17.509,28.287,28.287,0,0,1-4.487,18.533,50.526,50.526,0,0,1-19.021,16.972A47.308,47.308,0,0,1,95.414,99.31a62.134,62.134,0,0,1-16.777-4.877A49.893,49.893,0,0,1,57.714,73.705a51.4,51.4,0,0,1-5.365-30.433,37.31,37.31,0,0,1,3.56-11.949Z" transform="translate(201.263 59.99)" fill="#f8b12e"/>
        <path id="Path_2603" data-name="Path 2603" d="M55.23,39.375a3.219,3.219,0,0,1-1.756-3.414,18.872,18.872,0,0,1,.732-2.731A30.189,30.189,0,0,1,60.3,22.4,17.7,17.7,0,0,1,71.52,16.648a13.7,13.7,0,0,1,2.829,0,2.195,2.195,0,0,1,2,1.707,2.048,2.048,0,0,1-.927,2.195,15.217,15.217,0,0,1-3.365,1.609,19.021,19.021,0,0,0-8.584,6.682,21.459,21.459,0,0,0-3.121,6.779A8.1,8.1,0,0,1,59.083,38.5a2.78,2.78,0,0,1-3.853.878Z" transform="translate(207.161 64.325)" fill="#fff9cb"/>
        <path id="Path_2604" data-name="Path 2604" d="M143.475,48.608a43.455,43.455,0,0,1-10.144,12.68,49.6,49.6,0,0,1-18.387,10.583,46.966,46.966,0,0,1-28.726,0,39.015,39.015,0,0,1-8.193-3.17A48.771,48.771,0,0,1,52.03,24.126a11.316,11.316,0,0,1,0-1.853.39.39,0,0,1,.732,0,24.039,24.039,0,0,1,1.658,2.634A76.082,76.082,0,0,0,64.906,39.537,67.205,67.205,0,0,0,79.147,51.193,47.064,47.064,0,0,0,85.389,54.8a48.283,48.283,0,0,0,25.361,4.389,33.31,33.31,0,0,0,16.338-6.779,26.336,26.336,0,0,0,7.121-7.9,26.484,26.484,0,0,0,2.78-4.487c.878-2.487,1.853-4.877,2.487-7.462s1.317-6.145,1.951-9.218a1.463,1.463,0,0,1,.488-.683c.488,0,.78,0,.975.536a25.9,25.9,0,0,1,3.219,9.754,30.725,30.725,0,0,1-2.341,15.265Z" transform="translate(201.582 85.428)" fill="#ff9320" opacity="0.5" style="mix-blend-mode: multiply;isolation: isolate"/>
        <path id="Path_2605" data-name="Path 2605" d="M91.4,58.872a13.119,13.119,0,0,1-5.316-4.877c-.829-1.073-1.024-1.122-2-.244a24.384,24.384,0,0,1-4.877,3.219,6.73,6.73,0,0,1-8.34-4.048,22.045,22.045,0,0,1-.536-6.194c0-1.122,0-1.219-1.219-1.268H66.867a12.1,12.1,0,0,1-5.9-1.8A6.535,6.535,0,0,1,59.893,33.17a13.07,13.07,0,0,1,7.218-3.609c.634,0,.878-.439.585-1.073a11.559,11.559,0,0,1-.927-6.779,8.291,8.291,0,0,1,1.122-2.926,5.316,5.316,0,0,1,7.072-2.1,12.68,12.68,0,0,1,4.877,4.341c.829,1.122.927,1.122,1.9,0a14.631,14.631,0,0,1,3.073-2.682,9.023,9.023,0,0,1,6.291-1.463,8.437,8.437,0,0,1,6.925,8.1,21.408,21.408,0,0,1-.293,4.877c0,.683,0,.975.829.975h2.195a10.583,10.583,0,0,1,4.243.975,5.414,5.414,0,0,1,2.78,7.706,8.73,8.73,0,0,1-3.9,3.95,10.73,10.73,0,0,1-2.585,1.073c-1.512.39-1.9.536-1.024,2.1a12.388,12.388,0,0,1,1.317,6.73,6.145,6.145,0,0,1-1.951,4.487A6.438,6.438,0,0,1,91.4,58.872Z" transform="translate(223.86 62.435)" fill="#294c49"/>
        <path id="Path_2606" data-name="Path 2606" d="M62.578,25.7c.439-.829.78-1.707,1.268-2.487a2.341,2.341,0,0,1,2-1.268,1.853,1.853,0,0,1,2.146,1.414,4.049,4.049,0,0,1,0,1.512,12.534,12.534,0,0,1-2.536,5.95,2.634,2.634,0,0,1-1.609.975,2.243,2.243,0,0,1-2.877-2.341,3.023,3.023,0,0,1,0-.927c.39-.975.78-1.9,1.219-2.877Z" transform="translate(236.245 85.023)" fill="#1e9446"/>
        <path id="Path_2607" data-name="Path 2607" d="M71.755,30.167a2.682,2.682,0,0,1-3.853,1.17,3.024,3.024,0,0,1-.878-.878,53.642,53.642,0,0,1-2.341-5.121,2.195,2.195,0,0,1,1.8-3.024,2.048,2.048,0,0,1,1.756.39,11.315,11.315,0,0,1,3.511,6.487A2.828,2.828,0,0,1,71.755,30.167Z" transform="translate(250.136 86.36)" fill="#1e9446"/>
        <path id="Path_2608" data-name="Path 2608" d="M68.387,23.241a2.244,2.244,0,0,1-.78.683,17.265,17.265,0,0,1-6.633,1.658,2.292,2.292,0,0,1-2.439-1.951A2.1,2.1,0,0,1,59.706,21a10.193,10.193,0,0,1,6.974-1.024,2.39,2.39,0,0,1,1.707,3.268Z" transform="translate(226.485 76.655)" fill="#1e9446"/>
        <path id="Path_2609" data-name="Path 2609" d="M73.151,20.119c1.9.927,2.146,2.487.732,3.56A10.047,10.047,0,0,1,67.64,25.24,2.39,2.39,0,0,1,65.445,23a2.146,2.146,0,0,1,1.561-2.439,14.631,14.631,0,0,1,5.218-.683,2.731,2.731,0,0,1,.927.244Z" transform="translate(253.617 77.047)" fill="#1e9446"/>
        <path id="Path_2610" data-name="Path 2610" d="M63.5,17.261a6.78,6.78,0,0,1,1.219,1.024,12.485,12.485,0,0,1,2.243,4.389,1.951,1.951,0,0,1-.585,2.292,2.487,2.487,0,0,1-2.585.439,2.633,2.633,0,0,1-1.219-.927,15.119,15.119,0,0,1-2.1-4.487,5.168,5.168,0,0,1,0-1.219C60.479,17.261,61.747,16.432,63.5,17.261Z" transform="translate(234.345 65.712)" fill="#1e9446"/>
        <path id="Path_2611" data-name="Path 2611" d="M68.7,23.612a4.878,4.878,0,0,1-.634,1.073,2.975,2.975,0,0,1-3.121.78,2.39,2.39,0,0,1-1.366-2.536,9.461,9.461,0,0,1,2.341-4.877,2.243,2.243,0,0,1,2.585-.585,2.39,2.39,0,0,1,1.512,2.146,7.559,7.559,0,0,1-1.317,4Z" transform="translate(246.409 67.066)" fill="#1e9446"/>
        <path id="Path_2612" data-name="Path 2612" d="M67.178,31.571a10.047,10.047,0,0,1-3.9-2.829,5.316,5.316,0,0,1,2.341-9.364,5.755,5.755,0,0,1,4.584,0,48.432,48.432,0,0,1,4.877,2.536A6.389,6.389,0,0,1,78.2,29.133a4.877,4.877,0,0,1-5.511,4.1,16.045,16.045,0,0,1-5.511-1.658Z" transform="translate(237.643 73.349)" fill="#bcce44"/>
        <path id="Path_2613" data-name="Path 2613" d="M34.573,129.541a22.289,22.289,0,0,1,.732-7.413c.732-2.585,1.463-5.218,2.439-7.706a25.8,25.8,0,0,1,8.876-11.12,35.993,35.993,0,0,1,17.509-6.925,34.92,34.92,0,0,1,11.949.78,24.385,24.385,0,0,1,10.778,5.316c1.122.927,2.487,1.609,3.609,2.536a1.9,1.9,0,0,0,2.634,0c1.219-1.024,2.536-1.9,3.8-2.877a29.263,29.263,0,0,1,14.631-5.95,32.432,32.432,0,0,1,13.119.634,29.945,29.945,0,0,1,19.118,13.363,32.822,32.822,0,0,1,4.877,21.752,58.525,58.525,0,0,1-10.925,27.751,55.062,55.062,0,0,1-26.141,20A51.308,51.308,0,0,1,98.414,182.8a56.034,56.034,0,0,1-6.925.585A58.525,58.525,0,0,1,58.763,172.8,59.744,59.744,0,0,1,37.3,143.538a43.894,43.894,0,0,1-2.731-14Z" transform="translate(133.837 371.446)" fill="#f8b12e"/>
        <path id="Path_2614" data-name="Path 2614" d="M40.816,131.881a3.658,3.658,0,0,1-3.609-2.634,17.12,17.12,0,0,1-.683-3.219,34.139,34.139,0,0,1,.634-14.631,20.971,20.971,0,0,1,8.535-11.851,16.63,16.63,0,0,1,2.926-1.512,2.487,2.487,0,0,1,2.975.732,2.341,2.341,0,0,1,0,2.78,15.314,15.314,0,0,1-2.682,3.463A22,22,0,0,0,43.5,116.469a26.532,26.532,0,0,0,.293,8.779,10.29,10.29,0,0,1,0,3.658,3.268,3.268,0,0,1-2.975,2.975Z" transform="translate(139.64 379.299)" fill="#fff9cb"/>
        <path id="Path_2615" data-name="Path 2615" d="M145.02,123.559a50.721,50.721,0,0,1-3.9,18.63,60.036,60.036,0,0,1-13.607,20.776,55.793,55.793,0,0,1-29.994,15.314,47.207,47.207,0,0,1-10.193.927A57.013,57.013,0,0,1,36.31,146.188a11.461,11.461,0,0,1-.732-2.048.488.488,0,0,1,.683-.585c1.073.585,2.1,1.219,3.121,1.9a89.3,89.3,0,0,0,18.582,9.754,78.031,78.031,0,0,0,21.069,4.877,53.643,53.643,0,0,0,8.389.488,56.037,56.037,0,0,0,28.823-8.827A39.309,39.309,0,0,0,129.8,136.093a31.8,31.8,0,0,0,3.219-12,32.872,32.872,0,0,0,.536-6.194c-.39-3.024-.634-6.1-1.317-9.071s-1.853-7.121-2.829-10.681a1.317,1.317,0,0,1,0-.975c.39-.488.878-.244,1.317,0a30.579,30.579,0,0,1,8.486,8.486,36.335,36.335,0,0,1,5.8,17.167Z" transform="translate(137.855 375.721)" fill="#ff9320" opacity="0.5" style="mix-blend-mode: multiply;isolation: isolate"/>
        <path id="Path_2616" data-name="Path 2616" d="M87.678,137.923a16.388,16.388,0,0,1-8.1-2.195c-1.414-.683-1.658-.634-2.146.829a32.042,32.042,0,0,1-3.56,5.95,7.9,7.9,0,0,1-10.876,0,25.361,25.361,0,0,1-3.853-6.194c-.439-1.219-.732-1.219-1.951-.683L54.9,136.753a13.509,13.509,0,0,1-7.169,1.219A7.608,7.608,0,0,1,41.1,127.584a15.412,15.412,0,0,1,5.609-7.559c.634-.439.732-.927,0-1.463a13.12,13.12,0,0,1-4.487-6.535,9.169,9.169,0,0,1-.39-3.609,6.243,6.243,0,0,1,6.291-6,15.167,15.167,0,0,1,7.364,2c1.414.732,1.561.683,2.048-.878a17.362,17.362,0,0,1,1.8-4.389,10.73,10.73,0,0,1,5.8-4.877,9.754,9.754,0,0,1,11.412,4.536,25.313,25.313,0,0,1,2.1,4.877.878.878,0,0,0,1.414.585c.78-.39,1.512-.78,2.341-1.122a13.071,13.071,0,0,1,4.877-1.219,6.389,6.389,0,0,1,7.121,7.364,10.242,10.242,0,0,1-2.048,6.194,12.875,12.875,0,0,1-2.1,2.487c-1.366,1.171-1.707,1.561,0,2.731A15.021,15.021,0,0,1,95.14,127a7.365,7.365,0,0,1,.39,5.755,7.706,7.706,0,0,1-7.852,5.17Z" transform="translate(157.301 363.844)" fill="#294c49"/>
        <path id="Path_2617" data-name="Path 2617" d="M45.638,107.209v-3.268a2.877,2.877,0,0,1,1.463-2.39,2.195,2.195,0,0,1,2.975.341,4.487,4.487,0,0,1,.975,1.512,14.193,14.193,0,0,1,.488,7.559,2.877,2.877,0,0,1-1.122,1.8,2.682,2.682,0,0,1-4.292-.878,2.83,2.83,0,0,1-.341-1.024,18.459,18.459,0,0,0-.244-3.658Z" transform="translate(176.566 392.119)" fill="#1e9446"/>
        <path id="Path_2618" data-name="Path 2618" d="M59.6,105.9a3.121,3.121,0,0,1-3.414,3.219,2.877,2.877,0,0,1-1.414-.488,51.892,51.892,0,0,1-4.877-4.048,2.585,2.585,0,0,1,.293-4.146,2.195,2.195,0,0,1,2.048-.488,13.217,13.217,0,0,1,7.12,4.877A3.365,3.365,0,0,1,59.6,105.9Z" transform="translate(189.959 387.282)" fill="#1e9446"/>
        <path id="Path_2619" data-name="Path 2619" d="M52.107,102.615a3.706,3.706,0,0,1-.439,1.122,19.508,19.508,0,0,1-6.1,5.218,2.634,2.634,0,0,1-3.56-.78,2.39,2.39,0,0,1,0-3.316,11.852,11.852,0,0,1,6.682-4.877,2.877,2.877,0,0,1,3.414,2.634Z" transform="translate(160.294 387.496)" fill="#1e9446"/>
        <path id="Path_2620" data-name="Path 2620" d="M55.564,96.474c2.487,0,3.56,1.463,2.634,3.316a11.608,11.608,0,0,1-5.657,4.877,2.78,2.78,0,0,1-3.512-1.219,2.536,2.536,0,0,1,.341-3.316,17.7,17.7,0,0,1,5.121-3.511A2.732,2.732,0,0,1,55.564,96.474Z" transform="translate(188.294 374.079)" fill="#1e9446"/>
        <path id="Path_2621" data-name="Path 2621" d="M44.481,96.53a8.29,8.29,0,0,1,1.756.439,14.631,14.631,0,0,1,4.877,3.414,2.292,2.292,0,0,1,.634,2.634,2.926,2.926,0,0,1-2.536,1.853,2.829,2.829,0,0,1-1.707-.293,19.509,19.509,0,0,1-4.584-3.56,6.582,6.582,0,0,1-.732-1.268C41.214,97.993,42.189,96.579,44.481,96.53Z" transform="translate(162.116 374.316)" fill="#1e9446"/>
        <path id="Path_2622" data-name="Path 2622" d="M51.7,101.4a8.146,8.146,0,0,1,0,1.463,3.463,3.463,0,0,1-2.829,2.487,2.78,2.78,0,0,1-2.731-1.951,10.73,10.73,0,0,1,0-6.438,2.585,2.585,0,0,1,2.39-1.951,2.634,2.634,0,0,1,2.682,1.463A8.779,8.779,0,0,1,51.7,101.4Z" transform="translate(176.988 368.369)" fill="#1e9446"/>
        <path id="Path_2623" data-name="Path 2623" d="M54.541,111.786a11.949,11.949,0,0,1-5.609-.829,6.243,6.243,0,0,1-2.439-11.022,6.779,6.779,0,0,1,4.877-2.292,60.177,60.177,0,0,1,6.633,0,7.608,7.608,0,0,1,6.779,5.8,5.8,5.8,0,0,1-3.609,7.12,17.8,17.8,0,0,1-6.633,1.219Z" transform="translate(170.882 378.276)" fill="#bcce44"/>
        <path id="Path_2624" data-name="Path 2624" d="M87.817,135.6a22.093,22.093,0,0,1-3.316-6.34c-.732-2.487-1.512-4.877-2.048-7.511a25.214,25.214,0,0,1,1.317-13.558A34.529,34.529,0,0,1,94.352,93.555,33.506,33.506,0,0,1,104.4,87.946a23.654,23.654,0,0,1,11.51-1.122H120.1a1.756,1.756,0,0,0,2.048-1.463c.488-1.463,1.122-2.877,1.609-4.341a28.628,28.628,0,0,1,8.827-12.485,31.067,31.067,0,0,1,11.022-6.1A29.263,29.263,0,0,1,166,63.317,31.506,31.506,0,0,1,181.408,78.29a57.11,57.11,0,0,1,5.609,28.043,53.307,53.307,0,0,1-10.73,29.8,47.163,47.163,0,0,1-9.071,9.218,52.632,52.632,0,0,1-5.267,4.1A56.575,56.575,0,0,1,130,157.932a57.94,57.94,0,0,1-32.53-12.388,41.749,41.749,0,0,1-9.657-9.949Z" transform="translate(318.155 235.125)" fill="#f8b12e"/>
        <path id="Path_2625" data-name="Path 2625" d="M97.8,102.247A3.463,3.463,0,0,1,93.562,102a19.508,19.508,0,0,1-2.243-2.243,33.457,33.457,0,0,1-7.072-12.144,20.191,20.191,0,0,1,.829-14.144,15.174,15.174,0,0,1,1.463-2.585,2.39,2.39,0,0,1,2.829-.975,2.195,2.195,0,0,1,1.561,2.1,15.462,15.462,0,0,1-.341,4.243,21.02,21.02,0,0,0,1.609,12.1,23.458,23.458,0,0,0,4.877,6.925,9.754,9.754,0,0,1,2.1,2.829,3.17,3.17,0,0,1-1.366,4.145Z" transform="translate(323.14 270.571)" fill="#fff9cb"/>
        <path id="Path_2626" data-name="Path 2626" d="M163.945,74.7a49.21,49.21,0,0,1,6.535,17.07,58.036,58.036,0,0,1,0,23.9,53.355,53.355,0,0,1-16.289,27.946,43.212,43.212,0,0,1-7.755,6.1,54.721,54.721,0,0,1-58.525,0,10.625,10.625,0,0,1-1.658-1.268.488.488,0,0,1,0-.829,28.133,28.133,0,0,1,3.511,0A89.01,89.01,0,0,0,110.3,145.56a77.594,77.594,0,0,0,19.508-7.072,55.444,55.444,0,0,0,7.023-4A53.989,53.989,0,0,0,155.508,112.4a37.6,37.6,0,0,0,2.829-19.752,49.55,49.55,0,0,0-6.438-16.68c-1.9-2.243-3.707-4.584-5.755-6.633s-5.218-4.877-7.852-7.169a1.512,1.512,0,0,1-.439-.878c0-.585.634-.634,1.122-.634a29.262,29.262,0,0,1,11.266,2.439A35.018,35.018,0,0,1,163.75,74.111a4.054,4.054,0,0,1,.2.585Z" transform="translate(333.52 235.207)" fill="#ff9320" opacity="0.5" style="mix-blend-mode: multiply;isolation: isolate"/>
        <path id="Path_2627" data-name="Path 2627" d="M138.4,91.911a15.606,15.606,0,0,1-7.608,2.439c-1.512,0-1.658.341-1.366,1.756a27.9,27.9,0,0,1,0,6.682,7.608,7.608,0,0,1-8.681,5.852,25.262,25.262,0,0,1-6.34-3.024c-.975-.732-1.219-.634-1.951.488l-1.268,2.1a13.412,13.412,0,0,1-5.17,4.877,7.316,7.316,0,0,1-10.73-4.877,14.632,14.632,0,0,1,.585-9.023.786.786,0,0,0-.683-1.219,12.534,12.534,0,0,1-7.072-2.926A9.755,9.755,0,0,1,85.876,92.3a6,6,0,0,1,2-8.1A13.9,13.9,0,0,1,94.9,81.961c1.512,0,1.609-.293,1.171-1.8a17.362,17.362,0,0,1-.829-4.487,10.339,10.339,0,0,1,2.195-6.925,9.754,9.754,0,0,1,11.7-2.634,22.335,22.335,0,0,1,4.341,3.024.878.878,0,0,0,1.463-.293c.439-.683.78-1.414,1.268-2.1a13.022,13.022,0,0,1,3.365-3.56,6.1,6.1,0,0,1,9.169,1.8,9.754,9.754,0,0,1,1.609,6.048,13.754,13.754,0,0,1-.39,3.17c-.536,1.609-.585,2.146,1.463,2.146a14.631,14.631,0,0,1,7.218,2.536,6.974,6.974,0,0,1,3.268,4.487,7.316,7.316,0,0,1-3.511,8.535Z" transform="translate(329.801 239.793)" fill="#294c49"/>
        <path id="Path_2628" data-name="Path 2628" d="M93.649,75.3a30.35,30.35,0,0,1-1.707-2.634,2.634,2.634,0,0,1,0-2.682,2.146,2.146,0,0,1,2.585-1.268,4.877,4.877,0,0,1,1.609.683,14.046,14.046,0,0,1,4.1,5.9,2.975,2.975,0,0,1,0,2.048,2.585,2.585,0,0,1-3.9,1.512,3.708,3.708,0,0,1-.829-.634c-.732-.927-1.414-1.9-2.1-2.829Z" transform="translate(355.046 266.157)" fill="#1e9446"/>
        <path id="Path_2629" data-name="Path 2629" d="M104.487,67.32a3.024,3.024,0,0,1-1.073,4.389,2.78,2.78,0,0,1-1.366.293,53.654,53.654,0,0,1-6.291-.585,2.487,2.487,0,0,1-1.9-3.512,2.244,2.244,0,0,1,1.366-1.463,12.729,12.729,0,0,1,8.291,0,3.365,3.365,0,0,1,.975.878Z" transform="translate(362.985 254.971)" fill="#1e9446"/>
        <path id="Path_2630" data-name="Path 2630" d="M95.032,70.338a3.464,3.464,0,0,1,0,1.122,19.754,19.754,0,0,1-1.756,7.413A2.585,2.585,0,0,1,89.96,80.14a2.341,2.341,0,0,1-2.048-2.585,11.412,11.412,0,0,1,2.975-7.364,2.731,2.731,0,0,1,4.146.146Z" transform="translate(340.787 268.779)" fill="#1e9446"/>
        <path id="Path_2631" data-name="Path 2631" d="M95.063,63.477c1.951-1.366,3.658-.683,3.853,1.317a11.315,11.315,0,0,1-2,6.925,2.731,2.731,0,0,1-3.511.829,2.439,2.439,0,0,1-1.463-2.877,17.459,17.459,0,0,1,2.341-5.462A3.22,3.22,0,0,1,95.063,63.477Z" transform="translate(356.168 243.403)" fill="#1e9446"/>
        <path id="Path_2632" data-name="Path 2632" d="M87.4,67.582A6.391,6.391,0,0,1,89.063,67a13.168,13.168,0,0,1,5.511.341,2.195,2.195,0,0,1,1.9,1.8A2.829,2.829,0,0,1,95.4,71.971a2.731,2.731,0,0,1-1.561.634,17.8,17.8,0,0,1-5.56-.488,5.8,5.8,0,0,1-1.219-.634C85.7,70.215,85.7,68.557,87.4,67.582Z" transform="translate(333.735 259.245)" fill="#1e9446"/>
        <path id="Path_2633" data-name="Path 2633" d="M95.608,67.136a5.9,5.9,0,0,1,.683,1.268,3.316,3.316,0,0,1-.975,3.463,2.731,2.731,0,0,1-3.268,0,10.535,10.535,0,0,1-3.512-4.877,2.536,2.536,0,0,1,.927-2.829,2.585,2.585,0,0,1,2.926,0,8.047,8.047,0,0,1,3.219,2.975Z" transform="translate(342.796 247.059)" fill="#1e9446"/>
        <path id="Path_2634" data-name="Path 2634" d="M101.666,79.361a11.557,11.557,0,0,1-4.877,2.195c-5.267,1.268-8.73-2.243-7.706-7.608a6.73,6.73,0,0,1,2.731-4.389A55.2,55.2,0,0,1,97.13,66.1a7.364,7.364,0,0,1,8.486,1.122,5.657,5.657,0,0,1,.829,7.657,17.266,17.266,0,0,1-4.779,4.487Z" transform="translate(344.688 252.976)" fill="#bcce44"/>
        <path id="Path_2635" data-name="Path 2635" d="M140.153,151.263h11.656a80.471,80.471,0,0,0,13.7-1.268,11.412,11.412,0,0,0,7.95-4.585c1.073-1.512,2.243-2.926,3.316-4.438a34.969,34.969,0,0,1,11.51-10.193,29.9,29.9,0,0,0,3.8-2.244,40.773,40.773,0,0,1,13.558-6,36.382,36.382,0,0,1,19.508.536,64.329,64.329,0,0,1,31.75,19.069c1.756,1.9,3.609,3.707,5.365,5.609a7.754,7.754,0,0,0,7.559,2.439l3.219-.683a96.96,96.96,0,0,1,19.118-2.585,35.31,35.31,0,0,1,32.042,22.386c.975,2.78,2.146,5.511,3.024,8.291a9.022,9.022,0,0,0,6.877,6.486,145.753,145.753,0,0,1,14.192,4.585,97.2,97.2,0,0,1,18.923,10.291,33.115,33.115,0,0,1,13.412,17.753,25.214,25.214,0,0,1,0,15.753,42.869,42.869,0,0,1-17.167,23.02A77.253,77.253,0,0,1,332.066,266.9a94.429,94.429,0,0,1-18.143,1.024,183.1,183.1,0,0,1-34.969-4.535A196.545,196.545,0,0,1,241.4,250.9c-2.682-1.171-5.56-2.048-8.291-3.073a17.85,17.85,0,0,0-9.754-.439A36.721,36.721,0,0,0,212.382,251c-4.584,2.39-9.266,4.536-13.8,6.974a41.016,41.016,0,0,1-26.726,2.682,75.107,75.107,0,0,1-27.507-11.071,30.482,30.482,0,0,0-26.482-3.121c-5.95,1.9-12,3.56-18.045,5.267a41.75,41.75,0,0,1-12.485,1.951,34.55,34.55,0,0,0-3.853.439,12.487,12.487,0,0,1-3.268.39,72.181,72.181,0,0,1-23.02-5.267,33.408,33.408,0,0,1-19.021-23.02,23.6,23.6,0,0,1,5.755-22.093,47.552,47.552,0,0,1,19.508-12.973,59.639,59.639,0,0,1,6.34-2,19.507,19.507,0,0,0,10.291-7.121c3.072-3.9,6.1-7.852,9.266-11.656a52.428,52.428,0,0,1,29.653-18.045,104.567,104.567,0,0,1,21.167-1.073Z" transform="translate(145.16 470.967)" fill="#d9741b"/>
        <path id="Path_2636" data-name="Path 2636" d="M316.3,216.4a189,189,0,0,1-37.7-4.877,195.435,195.435,0,0,1-37.163-12.241c-2.878-1.268-5.853-2.292-8.828-3.316a18.827,18.827,0,0,0-9.315-.293,41.987,41.987,0,0,0-10.973,3.609c-4.584,2.39-9.266,4.584-13.8,6.974a41.358,41.358,0,0,1-26.678,2.78,78.864,78.864,0,0,1-27.994-11.364,29.6,29.6,0,0,0-24.922-3.219l-19.118,5.609a41.751,41.751,0,0,1-12.485,1.951,34.485,34.485,0,0,0-3.853.439,17.557,17.557,0,0,1-2.731.39c-11.071-.927-22-2.634-31.067-9.754a31.115,31.115,0,0,1-12.193-23.215,22.922,22.922,0,0,1,5.609-16.338,48.088,48.088,0,0,1,13.266-10.778c1.658-.927,2.731-.439,3.268,1.512a70.913,70.913,0,0,0,4.438,13.656,24.385,24.385,0,0,0,15.948,14.192,22.388,22.388,0,0,0,10.925,0,84.28,84.28,0,0,0,19.508-6.974,146.311,146.311,0,0,1,20.24-8.876A72.375,72.375,0,0,1,147.993,153a38.48,38.48,0,0,1,28.628,9.462,42.868,42.868,0,0,0,8.242,5.56,13.265,13.265,0,0,0,12.729,0,60.857,60.857,0,0,0,6.145-3.755c4.584-3.024,9.12-6.243,13.851-9.071a57.16,57.16,0,0,1,28.872-8.1,46.82,46.82,0,0,1,25.751,6.925c4.877,2.829,9.754,5.121,14.631,7.559a42.431,42.431,0,0,0,17.021,4.292,49.6,49.6,0,0,0,18.435-2.829,17.8,17.8,0,0,0,9.754-8.681,58.822,58.822,0,0,0,4.877-11.656c.634-2.1,1.366-4.194,2-6.291a2,2,0,0,1,2.536-1.561,17.954,17.954,0,0,1,2.634.78,94.419,94.419,0,0,1,22.971,11.949,33.018,33.018,0,0,1,13.314,18.484,24.971,24.971,0,0,1,0,13.656,42.479,42.479,0,0,1-17.46,24.093,75.448,75.448,0,0,1-32.481,11.559A89.7,89.7,0,0,1,316.3,216.4Z" transform="translate(145.173 522.587)" fill="#d9741b" opacity="0.5" style="mix-blend-mode: multiply;isolation: isolate"/>
        <path id="Path_2637" data-name="Path 2637" d="M121.672,163.877a21.947,21.947,0,0,1-12.973-5.414c-.829-.732-1.561-1.561-2.39-2.341-2.1-2-2.146-2.048-4.389,0a22.874,22.874,0,0,1-10.486,5.755A14.143,14.143,0,0,1,76.169,157a20.923,20.923,0,0,1-4.877-11.607,11.12,11.12,0,0,1,.39-3.8,4.341,4.341,0,0,1,4.048-3.219,4.243,4.243,0,0,1,4.536,2.487,18.4,18.4,0,0,1,1.024,2.536c.39,1.073.683,2.146,1.073,3.17A6.828,6.828,0,0,0,94.6,148.514c1.219-1.366,2.243-2.926,3.365-4.389a24.39,24.39,0,0,1,1.658-2.243,6.389,6.389,0,0,1,10.437.39,41.687,41.687,0,0,0,4.877,5.9,23.8,23.8,0,0,0,3.024,2.341,7.267,7.267,0,0,0,9.169-.488,58.074,58.074,0,0,1,8.34-5.413,3.219,3.219,0,0,1,4.1,0,3.8,3.8,0,0,1,1.317,4C138.888,157.976,133.377,163.1,121.672,163.877Z" transform="translate(276.301 536.337)" fill="#934603"/>
        <path id="Path_2638" data-name="Path 2638" d="M133.3,170.879a19.508,19.508,0,0,1-14.631-7.072c-1.756-1.9-1.951-2.146-4-.634a13.217,13.217,0,0,1-15.8-1.707,21.118,21.118,0,0,1-6.779-20.532,7.169,7.169,0,0,1,.927-2.585,4.243,4.243,0,0,1,7.608,0,15.509,15.509,0,0,1,.927,3.121c.634,2.1,1.073,4.292,1.853,6.34a14.975,14.975,0,0,0,2.146,3.853,2.585,2.585,0,0,0,4.536,0c.585-.732,1.024-1.561,1.561-2.292a26.761,26.761,0,0,1,2.146-2.536,5.56,5.56,0,0,1,9.315.78,23.117,23.117,0,0,1,1.853,3.414,22.632,22.632,0,0,0,4.194,5.8,5.853,5.853,0,0,0,8.389.488l5.267-3.95c2.487-1.853,5.218,0,5.414,2.926a13.7,13.7,0,0,1-11.7,13.9A7.234,7.234,0,0,1,133.3,170.879Z" transform="translate(355.093 527.287)" fill="#934603"/>
        <path id="Path_2639" data-name="Path 2639" d="M89.384,163.687A16.338,16.338,0,0,1,78.8,160.322l-2.975-2.487a1.8,1.8,0,0,0-2.487,0q-2.351,1.852-4.877,3.463a14.875,14.875,0,0,1-20.679-4.877,17.85,17.85,0,0,1-1.268-12.875,4.243,4.243,0,0,1,3.95-3.365,4.584,4.584,0,0,1,4.438,3.463,11.949,11.949,0,0,1,.488,3.219,8.583,8.583,0,0,0,1.219,3.658,4.438,4.438,0,0,0,6.535,1.853,13.314,13.314,0,0,0,4.243-3.511,26.872,26.872,0,0,1,3.56-4.682,6.438,6.438,0,0,1,10.1.975c.683.829,1.219,1.8,1.9,2.731a8.437,8.437,0,0,0,13.266,1.756l4.877-3.707a14.636,14.636,0,0,1,1.853-1.122,3.8,3.8,0,0,1,5.462,4.341,18.24,18.24,0,0,1-16.582,14.534Z" transform="translate(177.787 543.55)" fill="#934603"/>
        <path id="Path_2640" data-name="Path 2640" d="M109.7,154.906a12.34,12.34,0,0,1-7.364-1.853,20.726,20.726,0,0,1-4.584-3.024,5.706,5.706,0,0,0-7.657-.878,14.29,14.29,0,0,1-19.9-9.754,15.46,15.46,0,0,1,0-8.681,4.476,4.476,0,0,1,8.779-.293c.39,1.219.585,2.487.927,3.755a8.973,8.973,0,0,0,2.39,4.243,2.731,2.731,0,0,0,4.341.293c1.658-1.463,3.121-3.121,4.877-4.584a6.1,6.1,0,0,1,9.754.78c.683.829,1.17,1.853,1.8,2.731a23.6,23.6,0,0,0,2.78,3.414,5.17,5.17,0,0,0,8.242,0c1.122-.975,2.1-2.048,3.219-3.024a31.418,31.418,0,0,1,3.512-2.634,3.755,3.755,0,0,1,4.633,0,4.048,4.048,0,0,1,1.317,4.487,17.9,17.9,0,0,1-8.925,13.217A15.167,15.167,0,0,1,109.7,154.906Z" transform="translate(269.742 492.295)" fill="#934603"/>
        <path id="Path_2641" data-name="Path 2641" d="M89.42,155.288a22.629,22.629,0,0,1-9.754-3.707c-1.853-1.171-3.121-3.707-5.365-3.56s-3.56,1.756-5.414,2.536a14.143,14.143,0,0,1-11.754.341,10.827,10.827,0,0,1-6.535-7.852,4.877,4.877,0,0,1,2.195-4.877,4.145,4.145,0,0,1,4.877.341,15.015,15.015,0,0,1,1.609,1.463c2.195,1.9,2.877,1.951,5.365.829a10.192,10.192,0,0,0,3.658-3.219,33.3,33.3,0,0,1,3.609-4.194,6.487,6.487,0,0,1,9.364.585,39.018,39.018,0,0,1,3.414,4.877c.634.927,1.073,1.951,1.756,2.78a5.706,5.706,0,0,0,7.9,1.171,37.94,37.94,0,0,0,6.779-5.657,36.088,36.088,0,0,1,2.682-2.78,2.682,2.682,0,0,1,3.024-.683,3.268,3.268,0,0,1,2.195,2.926,4.439,4.439,0,0,1,0,2.146,88.583,88.583,0,0,1-4.877,9.364,19.118,19.118,0,0,1-14.729,7.169Z" transform="translate(195.942 510.544)" fill="#934603"/>
        <path id="Path_2642" data-name="Path 2642" d="M224.572,480.69c0-10.876-.488-21.8,0-32.628.536-8.827.439-17.7.78-26.531a35.75,35.75,0,0,0-1.366-12.973c-2.243-6.828-3.853-13.851-5.9-20.727a90.181,90.181,0,0,0-4.584-12.437A186.062,186.062,0,0,0,186.043,331.5a201.379,201.379,0,0,0-36.383-32.969A196.011,196.011,0,0,0,126.787,283.9a105.636,105.636,0,0,0-27.994-10.1,92.324,92.324,0,0,0-26.873-2.341,141.041,141.041,0,0,0-23.459,3.463,33.019,33.019,0,0,0-5.609,2.292,8.34,8.34,0,0,1-4.877.78,4.243,4.243,0,0,1-3.463-6.145,9.072,9.072,0,0,1,4.292-4.146,57.449,57.449,0,0,1,14.631-5.316,118.561,118.561,0,0,1,82.423,8.34A198.5,198.5,0,0,1,166.779,290a193.182,193.182,0,0,1,24.971,21.8,201.277,201.277,0,0,1,29.9,40.285c.829,1.463,1.658,2.877,2.536,4.292.293.439.732,1.122,1.268.732s.39-.975.39-1.463c0-10.925.39-21.8-.341-32.676s0-22.483-1.024-33.7c-.536-7.169-.829-14.339-1.122-21.508a16.922,16.922,0,0,0-1.122-4.877,215.664,215.664,0,0,0-21.947-46.966,212.008,212.008,0,0,0-18.63-25.263,172.211,172.211,0,0,0-26.921-25.361,97.541,97.541,0,0,0-33.749-16.046,149.667,149.667,0,0,0-18-2.487c-1.951-.293-3.707-.585-4.243-2.78a4.877,4.877,0,0,1,3.463-4.877,15.9,15.9,0,0,1,3.8-.585,90.762,90.762,0,0,1,38.48,5.852,93.4,93.4,0,0,1,20.045,10.486,154.457,154.457,0,0,1,28.677,25.068,195.328,195.328,0,0,1,22,29.75c.78,1.268,1.561,2.487,2.438,3.707,0,.244.536.341.829.488s.293-.78,0-1.073a66.965,66.965,0,0,1-1.122-9.754c-1.024-8.437-2.048-16.826-3.219-25.214-2-14.631-3.9-29.262-6.974-43.894-2.292-10.827-4.292-21.7-7.511-32.286-1.9-6.389-3.658-12.778-5.706-19.069-1.658-4.877-3.658-9.754-5.511-14.631-.585-1.463-1.853-2.195-2.926-3.219a4.877,4.877,0,0,1-1.268-6.877,6.389,6.389,0,0,1,7.511-1.9,17.8,17.8,0,0,1,7.852,6.34,107.881,107.881,0,0,1,8.145,16.192c.829,1.9,1.512,3.8,2.341,5.657,0,.293.488.439.732.683l.341-.927a8,8,0,0,0,0-1.122c0-11.8,1.512-23.507.927-35.359-.341-7.706-.927-15.412-1.756-23.069-.341-3.511-.341-7.023-.39-10.534a14.631,14.631,0,0,1,1.219-5.365,4.877,4.877,0,0,1,4.487-3.511,5.95,5.95,0,0,1,5.56,2.926A7.755,7.755,0,0,1,222.28,12.1a84.621,84.621,0,0,0,2.048,19.216,14.972,14.972,0,0,1,.293,3.316c0,14.631,1.609,29.262.975,43.894a26.778,26.778,0,0,1-.439,4.389,39.018,39.018,0,0,0-.341,8.242,1.122,1.122,0,0,0,.488.829,1.17,1.17,0,0,0,.927-.39,37.116,37.116,0,0,0,2.487-3.658,100.565,100.565,0,0,1,35.261-34.822,85.544,85.544,0,0,1,27.312-11.754,51.258,51.258,0,0,1,22.434-.683,7.267,7.267,0,0,1,5.56,4,3.56,3.56,0,0,1-2.438,5.17,8.34,8.34,0,0,1-2.195,0,60.866,60.866,0,0,0-31.018,9.12,128.024,128.024,0,0,0-24.385,17.9A111.733,111.733,0,0,0,242.276,99.3,149.434,149.434,0,0,0,229.5,126.225a31.849,31.849,0,0,1-2.536,5.56,8.535,8.535,0,0,0-1.073,6.73c2.048,10.827,3.853,21.752,5.706,32.628.439,2.585.829,5.121,1.268,7.657a1.171,1.171,0,0,0,.585.829,1.066,1.066,0,0,0,1.122-.829A116.073,116.073,0,0,1,249.2,155.39a118.951,118.951,0,0,1,21.947-20.923A78.619,78.619,0,0,1,306.6,119.836a10.583,10.583,0,0,1,3.268,0c4.389.634,8.73,1.317,13.071,2.048a7.072,7.072,0,0,1,5.316,3.658,3.511,3.511,0,0,1-2.292,5.218,7.364,7.364,0,0,1-3.268,0,33.066,33.066,0,0,0-17.411,1.317,73.157,73.157,0,0,0-27.019,15.753,111.637,111.637,0,0,0-24.385,31.018,98.616,98.616,0,0,0-8.828,24.385c-1.561,5.462-3.024,11.217-4.731,16.68a29.262,29.262,0,0,0-.829,12c.634,5.657,1.219,11.364,1.756,17.021.732,7.121,1.366,14.29,2.048,21.41V272c0,10.144,1.414,20.24,1.512,30.384,0,4.877.878,10.242.878,15.412a1.122,1.122,0,0,0,.634.78,1.219,1.219,0,0,0,.975,0q2.341-2.292,4.877-4.877a131.681,131.681,0,0,1,35.213-25.263c11.364-5.755,22.922-11.022,34.773-15.7a143.043,143.043,0,0,1,39.017-9.754,83.883,83.883,0,0,1,12.1-.732,84.959,84.959,0,0,1,29.262,5.95,5.609,5.609,0,0,1,4.1,6.389,4.877,4.877,0,0,1-5.365,4.194,145.141,145.141,0,0,0-32.53,0,165.82,165.82,0,0,0-34.139,7.852,163.917,163.917,0,0,0-53.062,29.262,122.953,122.953,0,0,0-12.144,10.388,115.347,115.347,0,0,0-19.508,28.043,25.117,25.117,0,0,0-2.048,15.021,51.277,51.277,0,0,1,.585,7.706c0,16.241.488,32.481,0,48.771-.439,11.071-.488,22.093-.829,33.164v2.78c0,.927-.439,2.682.488,3.073s2-1.17,2.78-2.1a40.625,40.625,0,0,1,6.682-6.584c4.1-3.17,7.559-6.974,11.656-10.193a262.867,262.867,0,0,1,42.577-28.385,185.571,185.571,0,0,1,52.916-18.972,69.738,69.738,0,0,1,13.119-1.463c3.707,0,7.267-1.073,11.022-.975,6.633,0,13.119,1.414,19.508,2.195a5.754,5.754,0,0,1,3.365,1.8,4.877,4.877,0,0,1,1.561,4.877,4.584,4.584,0,0,1-4.389,3.56h-7.218a138.412,138.412,0,0,0-54.038,9.754,243.855,243.855,0,0,0-61.3,35.651,198.931,198.931,0,0,0-25.263,23.117c-4.341,4.877-8.437,9.754-12.68,14.631a13.412,13.412,0,0,0-2.341,7.267,28.134,28.134,0,0,0,0,4.877q0,16.314,0,32.628a140.548,140.548,0,0,0-.878,14.339c0,1.073,0,2.243,0,3.316a1.024,1.024,0,0,0,1.658.78c1.61-.878,3.268-1.756,4.877-2.78a120.853,120.853,0,0,1,32.14-14.631,244.43,244.43,0,0,1,34.139-8.291,102.9,102.9,0,0,1,24.775-1.365,64.274,64.274,0,0,1,11.412,2,13.022,13.022,0,0,1,4.487,2.1,7.364,7.364,0,0,1,1.9,8.535,4,4,0,0,1-5.267,1.8,42.188,42.188,0,0,0-20.728-1.609,129.146,129.146,0,0,0-22.727,4.438A323.711,323.711,0,0,0,279.781,555.7a118.217,118.217,0,0,0-13.948,6.681c-6.291,3.512-12.339,7.413-18.582,11.022a4.877,4.877,0,0,0-2.585,4.438c0,11.266-1.414,22.435-.927,33.7a12.385,12.385,0,0,0,0,3.316A8.242,8.242,0,0,1,241.5,623a8,8,0,0,1-6.877,2.78,10.339,10.339,0,0,1-11.7-8.633,33.407,33.407,0,0,1-.927-9.315c0-12.924,0-25.849.293-38.724a15.022,15.022,0,0,0-3.365-10.144c-7.023-9.218-13.7-18.728-20.63-28.043-2.78-3.707-5.755-7.218-8.779-10.681a409.474,409.474,0,0,0-31.213-32.14,176.976,176.976,0,0,0-17.655-14.192A164.7,164.7,0,0,0,91.867,448.4c-4.048-1.268-8.047-2.682-12.1-4.048A66.381,66.381,0,0,0,64.8,440.747a14.046,14.046,0,0,1-3.707-1.073,4.389,4.389,0,0,1-2.829-4.341,4.877,4.877,0,0,1,2.975-4.341,2.389,2.389,0,0,1,1.024-.39,91.6,91.6,0,0,1,13.119-.829,138.118,138.118,0,0,1,32.237,7.413,154.8,154.8,0,0,1,18.826,7.072c6.34,2.975,12.29,6.73,18.386,10.193a184.448,184.448,0,0,1,38.139,29.994l18.24,18.338a211.174,211.174,0,0,1,16.68,20.63c1.366,1.756,2.634,3.56,4,5.316a1.122,1.122,0,0,0,.975,0,1.073,1.073,0,0,0,.488-.829c.341-5.511.878-11.022.975-16.533V480.349Z" transform="translate(132.044 19.126)" fill="#bcce44"/>
        <path id="Path_2643" data-name="Path 2643" d="M31.293,144.808a117.052,117.052,0,0,1,20.094-16.046c1.073-.683,2.243-1.219,3.316-2s3.511-1.219,4.048-3.316l-4.341-2a6.438,6.438,0,0,1-2.341-9.023,12.974,12.974,0,0,1,2.487-2.926c1.268-1.024,3.219-1.512,3.95-2.829s-1.658-2.39-2-4.048a6.243,6.243,0,0,1,2.731-6.682A20.387,20.387,0,0,1,66.9,92.964a82.374,82.374,0,0,1,38.187,2.975,17.6,17.6,0,0,1,2.048.78,6.145,6.145,0,0,1,3.9,8.827,14.629,14.629,0,0,1-.927,2,87.788,87.788,0,0,0-8.535,23.654,35.652,35.652,0,0,1-2.39,7.316,8.876,8.876,0,0,1-10.291,5.706,1.853,1.853,0,0,0-2.39,1.317,60.7,60.7,0,0,1-3.609,6.877A12.924,12.924,0,0,1,80.844,155a6.925,6.925,0,0,1-10.681-.293l-.732-.829c-1.317-1.463-1.414-4.438-3.707-4.389a14.242,14.242,0,0,0-5.462,2.439A62.523,62.523,0,0,1,40.754,158.9a13.753,13.753,0,0,1-10.486-2.243,5.462,5.462,0,0,1-1.707-8.193,34.575,34.575,0,0,1,2.731-3.658Z" transform="translate(106.196 356.569)" fill="#1e9446"/>
        <path id="Path_2644" data-name="Path 2644" d="M95.122,81.389A10.925,10.925,0,0,1,96,76.512c1.219-2.877,2.39-5.755,3.755-8.584A15.8,15.8,0,0,1,114.142,59a37.26,37.26,0,0,1,10.388,1.317,153.919,153.919,0,0,1,21.752,6.291,28.238,28.238,0,0,1,7.706,4.243,9.413,9.413,0,0,1,3.853,8.194,7.364,7.364,0,0,1-1.17,3.609c-1.853,2.731-1.853,2.78.732,4.877a26.141,26.141,0,0,1,7.852,9.12,13.511,13.511,0,0,1,1.317,4.194,5.755,5.755,0,0,1-4.877,7.218,17.306,17.306,0,0,1-2.731.293c-1.219,0-1.512.829-1.317,1.9s.39,2.926.78,4.341a45.749,45.749,0,0,1,.634,12.1,10.484,10.484,0,0,1-.634,3.219,6.779,6.779,0,0,1-12.1,2.682,40.82,40.82,0,0,1-5.706-8.828c-2.1-3.853-4.389-7.657-6.682-11.412-1.073-1.756-1.317-1.707-2.975-.634a15.06,15.06,0,0,1-1.8,1.268,6.438,6.438,0,0,1-7.657-.927A15.948,15.948,0,0,1,118,107.189a2.78,2.78,0,0,0-3.512-1.707,6,6,0,0,1-7.462-4,15.071,15.071,0,0,1-1.268-5.9V91.729a2.1,2.1,0,0,0-2-2.195,17.065,17.065,0,0,1-2.195-.341,7.218,7.218,0,0,1-6.438-7.8Z" transform="translate(368.692 228.807)" fill="#1e9446"/>
        <path id="Path_2645" data-name="Path 2645" d="M118.076,58.809a129.39,129.39,0,0,1,31.36,5.9,35.261,35.261,0,0,1,9.266,4.877,7.95,7.95,0,0,1,3.463,10.876c-.585,1.512-.439,2.341,1.024,3.073,2.341,1.073,4.584,2.292,6.925,3.414a58.522,58.522,0,0,1,11.559,7.511,6.779,6.779,0,0,1-.585,12.144H180.6c-2.146,1.414-2.243,1.561-1.122,3.95a59.653,59.653,0,0,1,3.853,9.754,45.552,45.552,0,0,1,2.1,18.484,12.681,12.681,0,0,1-1.268,4.194,6.048,6.048,0,0,1-10.486,1.024,22.141,22.141,0,0,1-2.829-5.316c-1.024-2.341-1.853-4.877-2.829-7.218a1.171,1.171,0,0,0-1.8-.536c-.341,0-.585.439-.878.634a7.169,7.169,0,0,1-10.535-1.951,27.748,27.748,0,0,1-4-7.852c-1.561-4.877-3.024-9.462-4.536-14.192-.78-2.439-1.463-4.877-2.341-7.364-1.17-3.463-1.366-3.609-4.438-1.609a7.072,7.072,0,0,1-9.12-.829A40.628,40.628,0,0,1,123.879,91,100.956,100.956,0,0,1,111.54,70.124c-.732-1.707-1.609-3.316-2.292-4.877a4.341,4.341,0,0,1,3.8-6.34A43.611,43.611,0,0,1,118.076,58.809Z" transform="translate(421.674 227.976)" fill="#1e9446"/>
        <path id="Path_2646" data-name="Path 2646" d="M88.138,51.614V50.541C87.6,38.494,95.6,31.033,106.622,28.692a32.384,32.384,0,0,1,19.508,2.634,63.647,63.647,0,0,1,20.045,12.534,40.772,40.772,0,0,0,6.1,4.877,15.949,15.949,0,0,1,4.877,5.706A5.657,5.657,0,0,1,153,63.563h-3.316c-1.122,0-1.17,0-1.463.488a1.073,1.073,0,0,0,.536,1.414,76.181,76.181,0,0,1,10.534,14.143,52.875,52.875,0,0,1,3.755,7.413,4.292,4.292,0,0,1-.975,4.877,4.877,4.877,0,0,1-4.877,1.171,49.161,49.161,0,0,1-9.754-4.877c-3.8-2.585-7.559-5.267-11.315-7.9-1.219-.829-2.439-1.658-3.707-2.439s-2.292-.878-2.877.829-.634,2.487-.975,3.755a12.973,12.973,0,0,1-2.78,5.316,7.218,7.218,0,0,1-10.388.585,15.167,15.167,0,0,1-3.268-4.389,87.788,87.788,0,0,1-5.8-12.827c-.439-1.171-.975-2.341-1.463-3.56a1.512,1.512,0,0,0-2.243-.878c-.975.439-1.9,1.122-2.877,1.561A6.34,6.34,0,0,1,91.454,66.2,17.07,17.07,0,0,1,88.43,58c-.244-2-.244-4.048-.39-6.1Z" transform="translate(341.342 109.392)" fill="#1e9446"/>
        <path id="Path_2647" data-name="Path 2647" d="M167.076,194.522v4.438a5.9,5.9,0,0,1-2.39,4.194,4.877,4.877,0,0,1-5.657.585,12.39,12.39,0,0,1-3.414-2.731,51.989,51.989,0,0,1-5.706-8.145c-.829-1.414-1.756-2.829-2.682-4.194-.341-.536-.829-.488-1.17,0a30.033,30.033,0,0,1-1.9,4,4.877,4.877,0,0,1-8.34,1.366,12.925,12.925,0,0,1-3.463-4.877,125.437,125.437,0,0,1-5.609-19.069,27.508,27.508,0,0,0-2.585-7.852c-.439-.829-1.024-.975-1.658,0a12.928,12.928,0,0,1-1.024,1.268,6.243,6.243,0,0,1-10.827-1.317,19.509,19.509,0,0,1-2.536-7.267,11.132,11.132,0,0,0-.341-3.316c-.341-1.122-.829-2-2.195-1.463s-1.658.829-2.536,1.122a5.95,5.95,0,0,1-6.535-1.707,10.388,10.388,0,0,1-3.024-7.511,52.675,52.675,0,0,1,.683-8.242,105.452,105.452,0,0,1,3.121-12.29,17.511,17.511,0,0,1,2.341-4.877,7.218,7.218,0,0,1,10.534-2.39,92.671,92.671,0,0,1,14.046,10.681,189.423,189.423,0,0,1,25.019,28.726,151.823,151.823,0,0,1,14.143,24.385,40.723,40.723,0,0,1,3.706,16.485Z" transform="translate(362.432 437.755)" fill="#1e9446"/>
        <path id="Path_2648" data-name="Path 2648" d="M92.908,110.529a39.845,39.845,0,0,1,2.975-16,8.437,8.437,0,0,1,9.754-5.511A145,145,0,0,1,134.9,96.141a28.434,28.434,0,0,1,7.9,3.9c3.658,2.877,4.1,4.877,1.707,8.925-1.073,1.8-.975,2.39.78,3.463,2.682,1.658,5.462,3.121,8.1,4.877a22.191,22.191,0,0,1,5.8,4.877,6.389,6.389,0,0,1-4.536,11.12h-1.658c-1.658,0-2.39.927-2,2.585a61.792,61.792,0,0,1,.975,13.753,14.144,14.144,0,0,1-.634,4.877,6.73,6.73,0,0,1-10.144,4.145,20.093,20.093,0,0,1-6.828-6.291A103.2,103.2,0,0,1,127,141.352c-.732-1.366-1.512-1.414-2.634-.39a25.944,25.944,0,0,1-2.341,2.292,5.56,5.56,0,0,1-7.8-1.414,31.457,31.457,0,0,1-3.707-8l-3.8-12.1c-.244-.732-.732-1.317-1.609-.634a20.739,20.739,0,0,1-2.585,2.048,5.56,5.56,0,0,1-8.584-2.877,12.484,12.484,0,0,1-1.122-4.877Z" transform="translate(359.835 344.467)" fill="#1e9446"/>
        <path id="Path_2649" data-name="Path 2649" d="M75.162,149.521a28.968,28.968,0,0,1,1.512-8.242c.39-1.414.927-2.78,1.366-4.194a2.78,2.78,0,0,0-1.122-3.414,6.535,6.535,0,0,1-3.414-5.365,12.924,12.924,0,0,1,1.658-7.462,41.116,41.116,0,0,1,8.584-9.8c2.195-2,4.389-3.95,6.73-5.755a43.208,43.208,0,0,1,6.34-4.389,10.291,10.291,0,0,1,9.754,0,36.188,36.188,0,0,1,17.314,17.216,12.877,12.877,0,0,1,1.463,5.267,6.974,6.974,0,0,1-1.707,5.657c-1.658,1.512-1.366,3.121-.732,4.877a34.579,34.579,0,0,1,2.439,14.046,17.314,17.314,0,0,1,0,2.78,4.877,4.877,0,0,1-5.462,3.658,10.873,10.873,0,0,1-2.1-.488c-4.292-1.317-4.292-1.317-5.852,2.634a135.581,135.581,0,0,1-7.072,15.607,10.681,10.681,0,0,1-4.438,4.877,5.267,5.267,0,0,1-7.267-1.756,12.143,12.143,0,0,1-2.146-5.609c-.341-2.585-.683-4.877-1.073-7.657,0-1.268,0-2.926-.683-3.707s-2.146.683-3.414.732-2.536,0-3.853,0a5.462,5.462,0,0,1-4.877-3.512A12.924,12.924,0,0,1,75.162,149.521Z" transform="translate(284.819 386.482)" fill="#1e9446"/>
        <path id="Path_2650" data-name="Path 2650" d="M123.577,79.474a37.261,37.261,0,0,1-3.17,11.754,9.754,9.754,0,0,1-12.29,4.877,6.193,6.193,0,0,1-1.512-.732c-1.8-.78-3.17-3.17-5.218-2.536s-2.634,2.975-3.9,4.536a95.15,95.15,0,0,1-8.1,9.071,21.751,21.751,0,0,1-7.413,4.877,6.633,6.633,0,0,1-9.071-4.877c-.341-1.219-.439-2.536-.683-3.8s-.732-1.17-1.561-.829L56.03,108.346a28.432,28.432,0,0,1-4.877,1.707,4.877,4.877,0,0,1-6.584-5.706,16.435,16.435,0,0,1,2.1-5.365A62.085,62.085,0,0,1,55.1,86.741,71.937,71.937,0,0,1,84.756,64.355a48.771,48.771,0,0,1,23.361-2.682,22.386,22.386,0,0,1,8.242,2.975c2.341,1.219,3.17,3.511,4.438,5.511a19.947,19.947,0,0,1,2.78,9.315Z" transform="translate(172.222 237.598)" fill="#1e9446"/>
        <path id="Path_2651" data-name="Path 2651" d="M85.708,104.832a33.262,33.262,0,0,1,15.314,2.1,11.413,11.413,0,0,1,6.535,5.609,47.5,47.5,0,0,1,4.877,26.239,26.139,26.139,0,0,1-1.707,5.8,8,8,0,0,1-13.558,1.9c-2.926-4.1-3.268-3.95-6.1.293a59.06,59.06,0,0,1-13.119,14.095,16.043,16.043,0,0,1-3.316,1.951,6.34,6.34,0,0,1-7.218-.878,5.852,5.852,0,0,1-1.219-6.633,39.551,39.551,0,0,1,3.755-8.584c1.024-1.8,2.829-3.316,2.439-5.755a17.849,17.849,0,0,0-5.706,1.658c-1.951.488-3.95.975-5.852,1.561a7.12,7.12,0,0,1-5.316-.78,5.316,5.316,0,0,1-2.634-7.023,12,12,0,0,1,2.78-4.048,59.063,59.063,0,0,1,10.486-8.925c1.219-.829,2.487-1.609,3.658-2.487a1.414,1.414,0,0,0,0-2.341c-1.024-1.073-2.146-2-3.073-3.17a4.877,4.877,0,0,1,1.073-7.706,11.315,11.315,0,0,1,4.877-2.048,43.359,43.359,0,0,1,13.022-.829Z" transform="translate(203.214 405.86)" fill="#1e9446"/>
        <path id="Path_2652" data-name="Path 2652" d="M140.569,88.729a5.56,5.56,0,0,1-1.268,3.414,51.792,51.792,0,0,1-4,4.584c-4.536,4.877-9.12,9.169-13.7,13.7a14.63,14.63,0,0,1-2,1.9,9.413,9.413,0,0,1-9.754,1.658c-3.121-1.366-3.56-1.073-5.267,1.756s-3.707,6.389-5.657,9.754a21.654,21.654,0,0,1-6.73,7.218,5.8,5.8,0,0,1-9.023-2.877c-.39-.829-.536-1.756-.878-2.634a1.54,1.54,0,0,0-2.487-.829c-3.609,2.585-7.169,5.218-10.681,7.852L64.682,137.6a6.047,6.047,0,0,1-3.658,1.024c-3.073,0-4.877-2.243-3.95-5.121a48.285,48.285,0,0,1,3.658-8.632,92.176,92.176,0,0,1,17.7-23.215,61.305,61.305,0,0,1,18.24-12.339,72.278,72.278,0,0,1,32.14-6.925,25.312,25.312,0,0,1,8.535,1.951,4.877,4.877,0,0,1,3.219,4.389Z" transform="translate(220.339 319.447)" fill="#1e9446"/>
        <path id="Path_2653" data-name="Path 2653" d="M106.077,42.586a59.159,59.159,0,0,1-5.316,21.8,15.655,15.655,0,0,1-3.8,4.877,7.755,7.755,0,0,1-11.364,0,20.676,20.676,0,0,1-2.1-2.536c-.78-.927-1.561-.78-2.1.39-1.268,2.829-2.585,5.657-3.8,8.535a40.772,40.772,0,0,1-4.877,7.364A7.8,7.8,0,0,1,69.255,85.7a6.1,6.1,0,0,1-8.681-3.414,29.268,29.268,0,0,1-1.268-3.658c-.244-.732-.927-.585-1.268,0-1.756,2.1-3.463,4.243-5.17,6.438a25.9,25.9,0,0,1-7.316,6.682,5.17,5.17,0,0,1-5.706.244,4.877,4.877,0,0,1-2.439-5.706,34.139,34.139,0,0,1,2.243-6.828,54.916,54.916,0,0,1,6.291-11.217c3.365-4.584,6.633-9.266,10.291-13.656A86.129,86.129,0,0,1,79.789,36.538a49.063,49.063,0,0,1,15.7-4.877A14.631,14.631,0,0,1,103,33.027a3.219,3.219,0,0,1,2,2.487,20.483,20.483,0,0,1,1.073,7.072Z" transform="translate(144.268 122.615)" fill="#1e9446"/>
        <path id="Path_2654" data-name="Path 2654" d="M107.379,65.457a8.145,8.145,0,0,1-10.632,8.681C91.87,72.87,91.87,72.87,91.577,77.5a23.068,23.068,0,0,1-2.243,8.486,9.754,9.754,0,0,1-1.463,2.341c-3.414,3.268-6.779,4.243-10.632.585A17.752,17.752,0,0,1,72.9,81.307c-.488-1.366-.732-2.829-1.17-4.243s-1.122-1.756-2.341-.634-2.634,2.536-3.95,3.853a18.045,18.045,0,0,1-4.389,3.268,5.414,5.414,0,0,1-6.243,0,6.34,6.34,0,0,1-2.878-6.682A31.113,31.113,0,0,1,54.17,70.09a51.7,51.7,0,0,1,4-8.486c.829-1.219.585-1.609-1.073-2.243a20.389,20.389,0,0,1-2.975-1.317,4.877,4.877,0,0,1-1.853-6.291A13.558,13.558,0,0,1,57.731,45.7,78.52,78.52,0,0,1,81.384,35.219a12.241,12.241,0,0,1,12.583,3.755A57.256,57.256,0,0,1,106.5,61.36a37.8,37.8,0,0,1,.878,4.1Z" transform="translate(200.759 134.81)" fill="#1e9446"/>
        <path id="Path_2655" data-name="Path 2655" d="M91.694,67.184a24.385,24.385,0,0,1-10.242,18,12.046,12.046,0,0,1-7.218,2.585,4.048,4.048,0,0,0-3.8,2.682c-.683,1.512-1.414,2.975-2.243,4.438A33.8,33.8,0,0,1,59.9,105.128c-3.463,2.877-4.877,2.926-8.779.39a2,2,0,0,0-2.877.341,28.335,28.335,0,0,1-8.389,5.267,9.754,9.754,0,0,1-5.657,1.073,4.146,4.146,0,0,1-3.707-4.145,11.266,11.266,0,0,1,1.17-5.609c1.317-2.634,2.682-5.218,4.048-7.852.439-.78.39-1.366-.439-1.8a19.5,19.5,0,0,1-1.951-1.073,6.145,6.145,0,0,1-2.195-8.632A15.948,15.948,0,0,1,36,77.182a56.329,56.329,0,0,1,7.608-4.438c1.171-.585,1.707-1.317,1.122-2.634a4.877,4.877,0,0,1,0-4.877,7.608,7.608,0,0,1,3.9-3.8A46.478,46.478,0,0,1,53.7,59.82,92.663,92.663,0,0,1,73.21,56.65,32.482,32.482,0,0,1,86.231,58.6C90.718,60.161,91.791,61.771,91.694,67.184Z" transform="translate(117.001 219.504)" fill="#1e9446"/>
        <path id="Path_2656" data-name="Path 2656" d="M80.847,103.243a61.061,61.061,0,0,1,4.487-25.8,29.606,29.606,0,0,1,2.634-5.316,4.194,4.194,0,0,1,7.267.439,26.24,26.24,0,0,1,1.317,3.609c.293.78,0,2.1,1.317,2.1s1.414-1.073,1.9-1.853l5.365-9.169A104.909,104.909,0,0,1,112.5,56.862a12.485,12.485,0,0,1,3.268-2.926,4.877,4.877,0,0,1,7.608,4.145,33.211,33.211,0,0,1-.878,8.193c-1.463,4.877-4,9.51-5.8,14.339-1.024,2.78-1.073,2.78,1.658,3.853.829.293,1.707.683,2.536,1.073A8.584,8.584,0,0,1,124.3,96.561a17.216,17.216,0,0,1-4.877,5.9,237.415,237.415,0,0,1-29.262,16.728,9.754,9.754,0,0,1-4.877.927,4.194,4.194,0,0,1-4.389-4.048,24.38,24.38,0,0,1,0-3.268C80.8,110.071,80.847,107.291,80.847,103.243Z" transform="translate(313.225 205.929)" fill="#1e9446"/>
        <path id="Path_2657" data-name="Path 2657" d="M91.721,96.857a72.864,72.864,0,0,1,23.654,4.877c3.073,1.17,6.145,2.487,9.12,3.9a12.193,12.193,0,0,1,4.389,3.316,6.584,6.584,0,0,1,1.17,6.779c-1.073,2.634,0,4,1.756,5.657a41.65,41.65,0,0,1,12.144,18.191,14.631,14.631,0,0,1,.829,6.487,4.341,4.341,0,0,1-6.535,3.365,13.267,13.267,0,0,1-2.585-2.048c-2.146-2.1-4.194-4.194-6.243-6.291-.78-.78-1.414-2.243-2.439-2.1-1.8.341-.732,2.146-1.073,3.268a4.877,4.877,0,0,1-7.413,2.829,18.1,18.1,0,0,1-5.316-5.56L104.4,126.12c-.585-.927-1.073-1.951-1.707-2.829a2.1,2.1,0,0,0-3.268-.732,5.462,5.462,0,0,1-7.462-1.073,30.872,30.872,0,0,1-9.218-19.021c-.488-3.414,1.561-5.511,4.877-5.8A33.859,33.859,0,0,1,91.721,96.857Z" transform="translate(320.543 374.818)" fill="#1e9446"/>
        <path id="Path_2658" data-name="Path 2658" d="M87.246,62.991a35.749,35.749,0,0,1-13.656-.244,12.437,12.437,0,0,1-8.34-5.9,7.95,7.95,0,0,1-.878-7.9,3.95,3.95,0,0,0-1.8-5.56,10.681,10.681,0,0,1-2.439-2.243,7.316,7.316,0,0,1,4-12.729c1.219-.341,2.536-.439,3.755-.732s1.707-.927,1.122-2.39-.975-2-1.366-3.024a14.631,14.631,0,0,1-1.024-5.95,7.072,7.072,0,0,1,9.12-6.877,15.51,15.51,0,0,1,4,1.8A59.988,59.988,0,0,1,102.609,40.9a19.111,19.111,0,0,1,.878,3.755,14.631,14.631,0,0,1-11.851,17.46A25.884,25.884,0,0,1,87.246,62.991Z" transform="translate(223.623 35.491)" fill="#1e9446"/>
        <path id="Path_2659" data-name="Path 2659" d="M96.345,16.885a62.524,62.524,0,0,1,16.777,2.048,13.07,13.07,0,0,1,4.584,1.9,4.487,4.487,0,0,1,1.8,6.145c-.683,2.1-.585,2.439,1.707,2.877a48.039,48.039,0,0,1,13.266,5.267,14.631,14.631,0,0,1,2.39,1.366,4.341,4.341,0,0,1,0,7.413,6.1,6.1,0,0,1-2,.878c-.975.244-1.366.634-.439,1.366,1.756,1.317,3.658,2.536,5.316,3.95a5.853,5.853,0,0,1,2.341,6.633,6.1,6.1,0,0,1-6.389,3.463,25.946,25.946,0,0,1-10.632-2.487,75.006,75.006,0,0,1-12.534-7.023,27.217,27.217,0,0,0-2.829-1.707,1.268,1.268,0,0,0-1.853.536c-.488.78-.829,1.658-1.366,2.39a6,6,0,0,1-9.12,1.463,19.507,19.507,0,0,1-4.146-4.389c-3.511-5.17-6.877-10.437-10.193-15.753A19.118,19.118,0,0,1,80.2,24.933c-.439-4.292,1.317-6.389,5.609-7.267A39.8,39.8,0,0,1,96.345,16.885Z" transform="translate(310.7 65.259)" fill="#1e9446"/>
        <path id="Path_2660" data-name="Path 2660" d="M152.63,122.109a18.581,18.581,0,0,1-6.535-1.073q-3.658-1.317-7.316-2.487c-2.1-.634-2.682,0-2.439,2.146a26.03,26.03,0,0,0,.732,4.341,9.753,9.753,0,0,1,0,4.389,4.584,4.584,0,0,1-7.8,2.292,24.386,24.386,0,0,1-3.365-4.341,37.106,37.106,0,0,1-1.951-3.95c-.585-1.366-.78-3.414-1.756-3.9s-2,1.561-3.073,2.39a4.877,4.877,0,0,1-7.8-1.8,19.021,19.021,0,0,1-1.512-9.754l1.9-16.436c.536-4.877,1.707-6.389,6.438-7.657a23.361,23.361,0,0,1,11.461-.683c4.146.878,8.437.488,12.583,1.609,1.951.536,3.95.878,5.9,1.414a13.07,13.07,0,0,1,6,3.8,5.657,5.657,0,0,1,0,8.73c-.293,0-.634.439-.878.683-.975,1.024-3.365.829-3.17,2.341s2.1,1.8,3.17,2.829a73.788,73.788,0,0,1,5.755,5.95,5.316,5.316,0,0,1,1.073,6.145,5.609,5.609,0,0,1-5.462,3.024Z" transform="translate(425.307 330.253)" fill="#1e9446"/>
        <path id="Path_2661" data-name="Path 2661" d="M86.311,62.623c-5.316.927-11.9-6.194-11.461-12.485a7.95,7.95,0,0,1,.39-2.146,5.755,5.755,0,0,0-1.317-5.657c-1.122-1.414-2.243-2.926-3.316-4.389a18.143,18.143,0,0,1-3.073-7.657A7.706,7.706,0,0,1,73,20.875a12.485,12.485,0,0,0,4.048-1.317c1.17-1.122,0-2.78,0-4.194.536-3.268.78-6.584,1.561-9.754A6.291,6.291,0,0,1,84.263.05,7.072,7.072,0,0,1,91.578,4a34.481,34.481,0,0,1,4.389,14.631c0,1.658,0,3.316,0,4.877a1.366,1.366,0,0,0,1.9,1.366c1.219-.341,2.439-.878,3.658-1.219a6.535,6.535,0,0,1,8.632,6,17.119,17.119,0,0,1-.293,5.462,33.164,33.164,0,0,1-4.877,11.7c-1.707,2.39-3.268,4.877-4.877,7.364a23.459,23.459,0,0,1-7.8,6.877,9.754,9.754,0,0,1-6,1.561Z" transform="translate(260.843 0.013)" fill="#1e9446"/>
        <path id="Path_2662" data-name="Path 2662" d="M71.558,116.842a9.023,9.023,0,0,1-8.632-7.169,27.8,27.8,0,0,1,.293-10.437,48.429,48.429,0,0,1,9.023-21.41,15.462,15.462,0,0,1,1.414-1.707A4.877,4.877,0,0,1,79.7,75.045c2.536,1.171,2.585,1.024,4.341-1.073,2.634-3.073,5.267-6.194,7.95-9.169a36.968,36.968,0,0,1,10.047-7.755,16.094,16.094,0,0,1,3.56-1.463,4.487,4.487,0,0,1,5.462,5.9,63.062,63.062,0,0,1-7.121,13.7c-3.853,6.048-7.169,12.437-10.583,18.728a3.414,3.414,0,0,0,.585,4.877,5.218,5.218,0,0,1,0,8.584,6.488,6.488,0,0,1-1.268,1.024,57.306,57.306,0,0,1-19.8,8.145Z" transform="translate(242.579 214.862)" fill="#1e9446"/>
        <path id="Path_2663" data-name="Path 2663" d="M115.558,59.929a7.51,7.51,0,0,1,5.462,1.951c3.56,2.877,7.267,5.609,10.681,8.73a167.967,167.967,0,0,1,30.287,37.066,54.867,54.867,0,0,1,5.706,11.949,6.876,6.876,0,0,1,0,4.877c-.878,2.195-2.829,2.682-4.292.975a23.554,23.554,0,0,1-2.829-4.1,208.935,208.935,0,0,0-20.63-28.628,133.586,133.586,0,0,0-21.849-21.7,41.935,41.935,0,0,1-4.145-3.658A7.46,7.46,0,0,1,112.29,65.2C110.778,62.318,112.193,60.026,115.558,59.929Z" transform="translate(433.02 232.368)" fill="#294c49"/>
        <path id="Path_2664" data-name="Path 2664" d="M143.94,116.043a3.755,3.755,0,0,1-2.195,3.9,3.56,3.56,0,0,1-4.389-1.366c-.78-1.219-1.366-2.585-2.048-3.9-3.17-6.243-6.1-12.534-9.754-18.582A91.591,91.591,0,0,0,105.46,73.759c-2.1-1.8-4.243-3.56-6.145-5.56a4.145,4.145,0,0,1-.341-6.34,4.877,4.877,0,0,1,6.535-.683,62.083,62.083,0,0,1,5.56,4.487A117.588,117.588,0,0,1,129.65,85.171a98.81,98.81,0,0,1,13.558,26.97C143.5,113.556,143.7,115.019,143.94,116.043Z" transform="translate(378.642 233.56)" fill="#294c49"/>
        <path id="Path_2665" data-name="Path 2665" d="M86.874,101.623c-1.609,1.317-2.975,2.536-4.438,3.609a85.445,85.445,0,0,0-12.68,11.412,112.564,112.564,0,0,1-14.339,12.729,55.011,55.011,0,0,1-15.607,8,11.168,11.168,0,0,1-4.877.683,3.609,3.609,0,0,1-3.121-2.731,2.975,2.975,0,0,1,1.561-3.268,69.77,69.77,0,0,1,6.682-3.853,43.9,43.9,0,0,0,10.047-6.73c3.463-2.975,6.73-6.194,10.047-9.364A143.14,143.14,0,0,1,77.51,96.893c1.219-.829,2.439-1.658,3.707-2.39a6.048,6.048,0,0,1,4.877-.536,3.17,3.17,0,0,1,2.39,4.243,25.359,25.359,0,0,1-1.609,3.414Z" transform="translate(123.089 363.273)" fill="#294c49"/>
        <path id="Path_2666" data-name="Path 2666" d="M143.6,172.806a2.487,2.487,0,0,1-1.219,2.048,2.048,2.048,0,0,1-2.585,0,34.14,34.14,0,0,1-7.267-7.511c-3.219-4.877-6.535-9.754-10-14.631a281.048,281.048,0,0,0-22.191-28.238,27.56,27.56,0,0,1-3.56-4.877,3.073,3.073,0,0,1,.634-4,3.17,3.17,0,0,1,3.609,0,14.633,14.633,0,0,1,4.341,3.365,218.547,218.547,0,0,1,23.069,26.726,178.229,178.229,0,0,1,10.73,16.143,27.555,27.555,0,0,1,4.1,9.754C143.108,171.684,143.3,172.367,143.6,172.806Z" transform="translate(373.378 446.059)" fill="#294c49"/>
        <path id="Path_2667" data-name="Path 2667" d="M98.572,90.3a7.608,7.608,0,0,1,4.877,1.853c3.707,3.024,7.608,5.9,11.12,9.12a99.635,99.635,0,0,1,19.216,23.361,43.891,43.891,0,0,1,3.95,10.291,4.438,4.438,0,0,1-1.317,4.536,3.56,3.56,0,0,1-5.365,0,12.921,12.921,0,0,1-1.8-2.78,101.008,101.008,0,0,0-15.07-21.7A180.953,180.953,0,0,0,98.133,99.859a8.047,8.047,0,0,1-3.512-5.316C94.572,91.666,95.792,90.3,98.572,90.3Z" transform="translate(366.852 350.162)" fill="#294c49"/>
        <path id="Path_2668" data-name="Path 2668" d="M117.466,87a3.365,3.365,0,0,1-1.317,2.341,22.68,22.68,0,0,1-7.218,3.95c-5.9,2.048-11.754,4.243-17.557,6.438a105.438,105.438,0,0,0-21.849,11.607c-1.707,1.122-3.365,2.292-4.877,3.268a3.024,3.024,0,0,1-4-.732,3.414,3.414,0,0,1-.293-4.1,16.679,16.679,0,0,1,2-2.585A40.14,40.14,0,0,1,71.28,99.88a152.413,152.413,0,0,1,37.6-15.46,9.754,9.754,0,0,1,7.023,0A2.634,2.634,0,0,1,117.466,87Z" transform="translate(231.883 324.829)" fill="#294c49"/>
        <path id="Path_2669" data-name="Path 2669" d="M88.395,97.87A10.681,10.681,0,0,1,94,99.626a125.633,125.633,0,0,1,23.02,16.143,43.9,43.9,0,0,1,10.047,10.144c.732,1.268,1.609,2.487,2.243,3.8a3.414,3.414,0,0,1-1.024,4,3.316,3.316,0,0,1-4.1.293,49.16,49.16,0,0,1-5.609-4.487,171.127,171.127,0,0,0-25.946-18.874,47.118,47.118,0,0,1-4.877-3.268,8.632,8.632,0,0,1-3.17-4.438C83.615,99.821,85.029,97.919,88.395,97.87Z" transform="translate(326.795 379.512)" fill="#294c49"/>
        <path id="Path_2670" data-name="Path 2670" d="M95.115,62.17a24.386,24.386,0,0,1,3.365.488,3.56,3.56,0,0,1,2.292,3.414,2.975,2.975,0,0,1-2.195,2.877,23.451,23.451,0,0,1-3.17.878A92.03,92.03,0,0,0,58.342,88.848a17.851,17.851,0,0,1-6.194,3.56A3.365,3.365,0,0,1,48.1,91.53a3.609,3.609,0,0,1,0-4.145,15.9,15.9,0,0,1,2.39-3.024A76.082,76.082,0,0,1,76.485,67a87.786,87.786,0,0,1,14.29-4.341,32.139,32.139,0,0,1,4.341-.488Z" transform="translate(183.955 241.1)" fill="#294c49"/>
        <path id="Path_2671" data-name="Path 2671" d="M92.254,113.3a232.736,232.736,0,0,1-3.414,27.458c-.634,3.073-1.268,6.145-1.951,9.169a32.223,32.223,0,0,1-1.073,3.707,3.875,3.875,0,0,1-7.559-1.707c.488-4.584,1.073-9.12,1.707-13.656,1.17-8.389,1.9-16.777,2.341-25.214a27.262,27.262,0,0,1,2.731-9.754,2.926,2.926,0,0,1,5.316,0,17.411,17.411,0,0,1,1.9,10Z" transform="translate(303.037 393.977)" fill="#294c49"/>
        <path id="Path_2672" data-name="Path 2672" d="M34.846,95.117a2.731,2.731,0,0,1-2.536-2.731,11.022,11.022,0,0,1,2.146-5.609,135.874,135.874,0,0,1,24-25.068A21.6,21.6,0,0,1,65.181,58a4.877,4.877,0,0,1,3.707.244,2.975,2.975,0,0,1,1.268,4.584,9.266,9.266,0,0,1-1.9,2A158.413,158.413,0,0,0,50.745,81.657,78.567,78.567,0,0,0,43.332,89.8a18.484,18.484,0,0,1-7.169,4.877A4.878,4.878,0,0,1,34.846,95.117Z" transform="translate(125.273 223.955)" fill="#294c49"/>
        <path id="Path_2673" data-name="Path 2673" d="M112.695,59.37a12.094,12.094,0,0,1-1.756,5.121C104.794,74.782,98.7,85.072,91.918,94.924a9.412,9.412,0,0,1-3.56,3.365,3.755,3.755,0,0,1-4.194,0A4.146,4.146,0,0,1,82.31,94a10.145,10.145,0,0,1,1.463-3.511Q90.8,79.854,97.917,69.368c2.146-3.219,4.389-6.389,6.535-9.754a9.754,9.754,0,0,1,3.511-3.463,3.463,3.463,0,0,1,4.731,3.219Z" transform="translate(318.833 216.832)" fill="#294c49"/>
        <path id="Path_2674" data-name="Path 2674" d="M86.662,18.01c1.024.293,2.439.585,3.8,1.073a99.491,99.491,0,0,1,17.362,8.291c3.365,1.853,6.584,4,9.754,6.1a10.825,10.825,0,0,1,2.731,2.634,4.243,4.243,0,0,1,0,5.17,5.17,5.17,0,0,1-5.365,1.756,22.875,22.875,0,0,1-3.511-1.609C103.2,36.3,94.9,31.178,86.37,26.789a20.678,20.678,0,0,1-3.17-2.243,3.512,3.512,0,0,1-1.219-3.9,4.877,4.877,0,0,1,4.682-2.634Z" transform="translate(317.163 69.84)" fill="#294c49"/>
        <path id="Path_2675" data-name="Path 2675" d="M77.737,36.258a4.877,4.877,0,0,1-1.756,3.268c-.732.536-1.512.975-2.292,1.463A111.585,111.585,0,0,0,56.083,54.352c-1.9,1.756-3.9,3.365-5.9,4.877a13.119,13.119,0,0,1-5.511,2.439A2.634,2.634,0,0,1,41.4,58.449a11.363,11.363,0,0,1,2.926-5.8A81.105,81.105,0,0,1,65.2,35.527a44.237,44.237,0,0,1,6.682-2.292,4.877,4.877,0,0,1,4.243.439,2.878,2.878,0,0,1,1.609,2.585Z" transform="translate(160.171 127.772)" fill="#294c49"/>
        <path id="Path_2676" data-name="Path 2676" d="M110.4,61.125c0,3.755-2.829,5.365-5.755,3.8a6.682,6.682,0,0,1-3.17-3.658c-3.024-7.657-6.1-15.314-9.071-23.02a12.144,12.144,0,0,1-.634-3.755,3.073,3.073,0,0,1,2-3.024,3.268,3.268,0,0,1,3.609,0,9.413,9.413,0,0,1,2.877,3.316,124.169,124.169,0,0,1,9.754,23.9,9.413,9.413,0,0,1,.39,2.439Z" transform="translate(355.8 119.975)" fill="#294c49"/>
        <path id="Path_2677" data-name="Path 2677" d="M81.617,25.829a18.728,18.728,0,0,1-1.366,8.486,6.682,6.682,0,0,1-3.219,3.609A2.975,2.975,0,0,1,72.5,35.729a11.364,11.364,0,0,1,0-3.853,44.332,44.332,0,0,0-1.073-17.362,41.963,41.963,0,0,1-.927-4.292,5.365,5.365,0,0,1,3.17-5.8,4.877,4.877,0,0,1,5.267,3.95,70.858,70.858,0,0,1,2.487,13.607C81.471,22.951,81.52,24.073,81.617,25.829Z" transform="translate(273.048 17.103)" fill="#294c49"/>
        <path id="Path_2678" data-name="Path 2678" d="M133.138,108.035a8.194,8.194,0,0,1-3.658-1.073,59.94,59.94,0,0,1-15.412-11.412,9.754,9.754,0,0,1-2.585-5.9,2.585,2.585,0,0,1,2.634-2.877,11.412,11.412,0,0,1,6.73,2.146q7.316,5.413,14.631,10.973a11.856,11.856,0,0,1,1.658,1.463,3.9,3.9,0,0,1,.927,4.536A4.877,4.877,0,0,1,133.138,108.035Z" transform="translate(432.168 336.475)" fill="#294c49"/>
        <path id="Path_2679" data-name="Path 2679" d="M84.074,31.752a7.852,7.852,0,0,1-2.146-.439,143.093,143.093,0,0,1-18.435-8.486A7.95,7.95,0,0,1,60.42,19.8a3.511,3.511,0,0,1,2.78-5.316,8.388,8.388,0,0,1,3.8.536c6.1,2.39,12.193,4.877,18.289,7.511a4.877,4.877,0,0,1,3.219,4.877,4.341,4.341,0,0,1-4.438,4.341Z" transform="translate(232.306 56.098)" fill="#294c49"/>
        <path id="Path_2680" data-name="Path 2680" d="M81.662,110.714a5.706,5.706,0,0,1-1.561,4,105.493,105.493,0,0,1-14.631,13.363,7.56,7.56,0,0,1-3.511,1.512,4.048,4.048,0,0,1-3.8-1.8,3.024,3.024,0,0,1,0-3.609,17.364,17.364,0,0,1,2.292-3.073c3.707-3.8,7.462-7.608,11.315-11.315a16.679,16.679,0,0,1,4-2.877,3.853,3.853,0,0,1,5.9,3.8Z" transform="translate(223.159 412.17)" fill="#294c49"/>
        <path id="Path_2681" data-name="Path 2681" d="M116.1,54.883c0,2.048-.488,3.17-1.8,3.8a2.731,2.731,0,0,1-3.073-.536,21.8,21.8,0,0,1-4.487-4A166.714,166.714,0,0,1,96.348,38.545a8.73,8.73,0,0,1-1.122-3.024A3.219,3.219,0,0,1,96.934,32.3a2.78,2.78,0,0,1,3.56,0,31.021,31.021,0,0,1,3.219,2.975,99.392,99.392,0,0,1,10,13.509A19.509,19.509,0,0,1,116.1,54.883Z" transform="translate(369.124 122.802)" fill="#294c49"/>
        <path id="Path_2682" data-name="Path 2682" d="M54.553,54.126a10.193,10.193,0,0,1,1.658-4.584,58.867,58.867,0,0,1,10.437-11.51,7.023,7.023,0,0,1,2.341-1.366,3.609,3.609,0,0,1,4.877,3.658,7.364,7.364,0,0,1-1.561,4.048c-2.39,3.268-4.877,6.486-7.267,9.754a10.193,10.193,0,0,1-5.8,3.9C56.016,58.711,54.211,57.15,54.553,54.126Z" transform="translate(211.35 141.312)" fill="#294c49"/>
        <path id="Path_2683" data-name="Path 2683" d="M67.325,73.924a18.627,18.627,0,0,1,1.268-4.438,35.018,35.018,0,0,1,7.169-9.754,10.633,10.633,0,0,1,2.195-1.609,3.9,3.9,0,0,1,4.584.683,3.414,3.414,0,0,1,.78,4.048,52.136,52.136,0,0,1-8,12.534,7.754,7.754,0,0,1-4.292,2.341C68.837,78.216,67.032,76.558,67.325,73.924Z" transform="translate(260.907 223.64)" fill="#294c49"/>
        <path id="Path_2684" data-name="Path 2684" d="M74.752,67.233a28.971,28.971,0,0,1-1.463,9.754,10.534,10.534,0,0,1-3.219,4.877,3.17,3.17,0,0,1-4.487,0,6,6,0,0,1-1.951-4.877,34.627,34.627,0,0,1,4.243-13.656A3.17,3.17,0,0,1,70.07,61.82a3.511,3.511,0,0,1,4.877,3.268,18.854,18.854,0,0,1-.2,2.146Z" transform="translate(246.651 238.671)" fill="#294c49"/>
        <path id="Path_2685" data-name="Path 2685" d="M57.47,52.179a18.387,18.387,0,0,1,7.462-12.729,4.048,4.048,0,0,1,4.877,0,4.1,4.1,0,0,1,1.414,4.877A18.338,18.338,0,0,1,63.03,55.593C60.055,57.4,57.519,56.031,57.47,52.179Z" transform="translate(222.82 149.844)" fill="#294c49"/>
        <path id="Path_2686" data-name="Path 2686" d="M55.177,82.341c-2.243,0-3.511-1.268-3.121-3.414a8.242,8.242,0,0,1,1.073-3.073A36.92,36.92,0,0,1,62.883,66.1a5.706,5.706,0,0,1,4.194-.878,2.585,2.585,0,0,1,2.243,3.56,20.679,20.679,0,0,1-2.341,4.341,71.787,71.787,0,0,1-5.365,6.194,8.535,8.535,0,0,1-6.438,3.024Z" transform="translate(201.557 252.582)" fill="#294c49"/>
        <path id="Path_2687" data-name="Path 2687" d="M75.84,120.53a24.391,24.391,0,0,1,.439-2.731c.878-3.219,1.8-6.389,2.78-9.754a7.315,7.315,0,0,1,1.8-3.365,3.56,3.56,0,0,1,4.048-.878,3.024,3.024,0,0,1,1.853,3.121A57.888,57.888,0,0,1,83.156,121.9a9.217,9.217,0,0,1-1.658,2.243,2.78,2.78,0,0,1-4.877-1.122A13.217,13.217,0,0,1,75.84,120.53Z" transform="translate(294.041 401.379)" fill="#294c49"/>
        <path id="Path_2688" data-name="Path 2688" d="M37.142,104.925a4.145,4.145,0,0,1-.488-5.56,7.071,7.071,0,0,1,3.024-2.341c2.682-1.122,5.365-2.341,8.145-3.219A4.243,4.243,0,0,1,52.7,96.342a3.853,3.853,0,0,1-1.317,5.267,33.408,33.408,0,0,1-10.047,4.341A4,4,0,0,1,37.142,104.925Z" transform="translate(138.828 363.336)" fill="#294c49"/>
      </g>
    </g>
  </g>
</svg>
